<?xml version="1.0" encoding="utf-8"?>
<!-- Generator: Adobe Illustrator 26.1.0, SVG Export Plug-In . SVG Version: 6.00 Build 0)  -->
<svg version="1.1" id="Cube" xmlns="http://www.w3.org/2000/svg" xmlns:xlink="http://www.w3.org/1999/xlink" x="0px" y="0px"
	 viewBox="0 0 72 72" style="enable-background:new 0 0 72 72;" xml:space="preserve">
<style type="text/css">
	.st0{fill:none;stroke:#000000;stroke-width:2.069;stroke-linecap:round;stroke-linejoin:round;}
</style>
<g id="Outline">
	<path class="st0" d="M36.6,29.2v22.6c0,1.2-0.9,2.1-2.1,2.1c-0.2,0-0.4,0-0.5-0.1l-1.1-0.3l-0.2,0l-14.5-3.8
		c-2-0.6-3.4-2.5-3.4-4.6V22.6c0-1.2,0.9-2.1,2.1-2.1c0.2,0,0.3,0,0.5,0.1l17.7,4.1c1,0.2,2.1,0.2,3.1,0l17.7-4.1
		c1.1-0.3,2.3,0.4,2.5,1.6c0,0.2,0.1,0.3,0.1,0.5v24.6c0,1-0.6,1.8-1.6,2l-19.6,5.1c-0.5,0.1-0.9,0.1-1.4,0l-2-0.5"/>
	<path class="st0" d="M14.7,24.4l0-3.4c0-0.6,0.4-1.1,1-1.2l19.1-4.9c1.3-0.3,2.7-0.3,3.9,0.1l18.5,5c0.7,0.2,1.2,0.8,1.2,1.6v2.7"
		/>
</g>
</svg>
