0
SECTION
2
HEADER
9
$INSUNITS
70
4
0
ENDSEC
0
SECTION
2
TABLES
0
TABLE
2
LTYPE
0
LTYPE
72
65
70
64
2
CONTINUOUS
3
______
73
0
40
0
0
ENDTAB
0
TABLE
2
LAYER
0
ENDTAB
0
ENDSEC
0
SECTION
2
ENTITIES
0
LINE
8
0
10
5.40625
20
-2.525
11
18.40625
21
-2.525
0
LINE
8
0
10
5.40625
20
-16.525
11
18.40625
21
-16.525
0
LINE
8
0
10
4.90625
20
-3.025
11
4.90625
21
-16.025
0
LINE
8
0
10
18.90625
20
-3.025
11
18.90625
21
-16.025
0
ARC
8
0
10
5.40625
20
-3.025
40
0.5
50
90
51
180
0
ARC
8
0
10
18.40625
20
-3.025
40
0.5
50
0
51
90
0
ARC
8
0
10
5.40625
20
-16.025
40
0.5
50
180
51
270
0
ARC
8
0
10
18.40625
20
-16.025
40
0.5
50
270
51
0
0
LINE
8
0
10
38.74375
20
-2.525
11
51.74375
21
-2.525
0
LINE
8
0
10
38.74375
20
-16.525
11
51.74375
21
-16.525
0
LINE
8
0
10
38.24375
20
-3.025
11
38.24375
21
-16.025
0
LINE
8
0
10
52.24375
20
-3.025
11
52.24375
21
-16.025
0
ARC
8
0
10
38.74375
20
-3.025
40
0.5
50
90
51
180
0
ARC
8
0
10
51.74375
20
-3.025
40
0.5
50
0
51
90
0
ARC
8
0
10
38.74375
20
-16.025
40
0.5
50
180
51
270
0
ARC
8
0
10
51.74375
20
-16.025
40
0.5
50
270
51
0
0
LINE
8
0
10
62.55625
20
-2.525
11
75.55625
21
-2.525
0
LINE
8
0
10
62.55625
20
-16.525
11
75.55625
21
-16.525
0
LINE
8
0
10
62.05625
20
-3.025
11
62.05625
21
-16.025
0
LINE
8
0
10
76.05625
20
-3.025
11
76.05625
21
-16.025
0
ARC
8
0
10
62.55625
20
-3.025
40
0.5
50
90
51
180
0
ARC
8
0
10
75.55625
20
-3.025
40
0.5
50
0
51
90
0
ARC
8
0
10
62.55625
20
-16.025
40
0.5
50
180
51
270
0
ARC
8
0
10
75.55625
20
-16.025
40
0.5
50
270
51
0
0
LINE
8
0
10
86.36875
20
-2.525
11
99.36875
21
-2.525
0
LINE
8
0
10
86.36875
20
-16.525
11
99.36875
21
-16.525
0
LINE
8
0
10
85.86875
20
-3.025
11
85.86875
21
-16.025
0
LINE
8
0
10
99.86875
20
-3.025
11
99.86875
21
-16.025
0
ARC
8
0
10
86.36875
20
-3.025
40
0.5
50
90
51
180
0
ARC
8
0
10
99.36875
20
-3.025
40
0.5
50
0
51
90
0
ARC
8
0
10
86.36875
20
-16.025
40
0.5
50
180
51
270
0
ARC
8
0
10
99.36875
20
-16.025
40
0.5
50
270
51
0
0
LINE
8
0
10
110.18125
20
-2.525
11
123.18125
21
-2.525
0
LINE
8
0
10
110.18125
20
-16.525
11
123.18125
21
-16.525
0
LINE
8
0
10
109.68125
20
-3.025
11
109.68125
21
-16.025
0
LINE
8
0
10
123.68125
20
-3.025
11
123.68125
21
-16.025
0
ARC
8
0
10
110.18125
20
-3.025
40
0.5
50
90
51
180
0
ARC
8
0
10
123.18125
20
-3.025
40
0.5
50
0
51
90
0
ARC
8
0
10
110.18125
20
-16.025
40
0.5
50
180
51
270
0
ARC
8
0
10
123.18125
20
-16.025
40
0.5
50
270
51
0
0
LINE
8
0
10
133.99375
20
-2.525
11
146.99375
21
-2.525
0
LINE
8
0
10
133.99375
20
-16.525
11
146.99375
21
-16.525
0
LINE
8
0
10
133.49375
20
-3.025
11
133.49375
21
-16.025
0
LINE
8
0
10
147.49375
20
-3.025
11
147.49375
21
-16.025
0
ARC
8
0
10
133.99375
20
-3.025
40
0.5
50
90
51
180
0
ARC
8
0
10
146.99375
20
-3.025
40
0.5
50
0
51
90
0
ARC
8
0
10
133.99375
20
-16.025
40
0.5
50
180
51
270
0
ARC
8
0
10
146.99375
20
-16.025
40
0.5
50
270
51
0
0
LINE
8
0
10
167.33125
20
-2.525
11
180.33125
21
-2.525
0
LINE
8
0
10
167.33125
20
-16.525
11
180.33125
21
-16.525
0
LINE
8
0
10
166.83125
20
-3.025
11
166.83125
21
-16.025
0
LINE
8
0
10
180.83125
20
-3.025
11
180.83125
21
-16.025
0
ARC
8
0
10
167.33125
20
-3.025
40
0.5
50
90
51
180
0
ARC
8
0
10
180.33125
20
-3.025
40
0.5
50
0
51
90
0
ARC
8
0
10
167.33125
20
-16.025
40
0.5
50
180
51
270
0
ARC
8
0
10
180.33125
20
-16.025
40
0.5
50
270
51
0
0
LINE
8
0
10
191.14375
20
-2.525
11
204.14375
21
-2.525
0
LINE
8
0
10
191.14375
20
-16.525
11
204.14375
21
-16.525
0
LINE
8
0
10
190.64375
20
-3.025
11
190.64375
21
-16.025
0
LINE
8
0
10
204.64375
20
-3.025
11
204.64375
21
-16.025
0
ARC
8
0
10
191.14375
20
-3.025
40
0.5
50
90
51
180
0
ARC
8
0
10
204.14375
20
-3.025
40
0.5
50
0
51
90
0
ARC
8
0
10
191.14375
20
-16.025
40
0.5
50
180
51
270
0
ARC
8
0
10
204.14375
20
-16.025
40
0.5
50
270
51
0
0
LINE
8
0
10
214.95625
20
-2.525
11
227.95625
21
-2.525
0
LINE
8
0
10
214.95625
20
-16.525
11
227.95625
21
-16.525
0
LINE
8
0
10
214.45625
20
-3.025
11
214.45625
21
-16.025
0
LINE
8
0
10
228.45625
20
-3.025
11
228.45625
21
-16.025
0
ARC
8
0
10
214.95625
20
-3.025
40
0.5
50
90
51
180
0
ARC
8
0
10
227.95625
20
-3.025
40
0.5
50
0
51
90
0
ARC
8
0
10
214.95625
20
-16.025
40
0.5
50
180
51
270
0
ARC
8
0
10
227.95625
20
-16.025
40
0.5
50
270
51
0
0
LINE
8
0
10
238.76875
20
-2.525
11
251.76875
21
-2.525
0
LINE
8
0
10
238.76875
20
-16.525
11
251.76875
21
-16.525
0
LINE
8
0
10
238.26875
20
-3.025
11
238.26875
21
-16.025
0
LINE
8
0
10
252.26875
20
-3.025
11
252.26875
21
-16.025
0
ARC
8
0
10
238.76875
20
-3.025
40
0.5
50
90
51
180
0
ARC
8
0
10
251.76875
20
-3.025
40
0.5
50
0
51
90
0
ARC
8
0
10
238.76875
20
-16.025
40
0.5
50
180
51
270
0
ARC
8
0
10
251.76875
20
-16.025
40
0.5
50
270
51
0
0
LINE
8
0
10
262.58125
20
-2.525
11
275.58125
21
-2.525
0
LINE
8
0
10
262.58125
20
-16.525
11
275.58125
21
-16.525
0
LINE
8
0
10
262.08125
20
-3.025
11
262.08125
21
-16.025
0
LINE
8
0
10
276.08125
20
-3.025
11
276.08125
21
-16.025
0
ARC
8
0
10
262.58125
20
-3.025
40
0.5
50
90
51
180
0
ARC
8
0
10
275.58125
20
-3.025
40
0.5
50
0
51
90
0
ARC
8
0
10
262.58125
20
-16.025
40
0.5
50
180
51
270
0
ARC
8
0
10
275.58125
20
-16.025
40
0.5
50
270
51
0
0
LINE
8
0
10
295.91875
20
-2.525
11
308.91875
21
-2.525
0
LINE
8
0
10
295.91875
20
-16.525
11
308.91875
21
-16.525
0
LINE
8
0
10
295.41875
20
-3.025
11
295.41875
21
-16.025
0
LINE
8
0
10
309.41875
20
-3.025
11
309.41875
21
-16.025
0
ARC
8
0
10
295.91875
20
-3.025
40
0.5
50
90
51
180
0
ARC
8
0
10
308.91875
20
-3.025
40
0.5
50
0
51
90
0
ARC
8
0
10
295.91875
20
-16.025
40
0.5
50
180
51
270
0
ARC
8
0
10
308.91875
20
-16.025
40
0.5
50
270
51
0
0
LINE
8
0
10
7.7875
20
-31.1
11
20.7875
21
-31.1
0
LINE
8
0
10
7.7875
20
-45.1
11
20.7875
21
-45.1
0
LINE
8
0
10
7.2875
20
-31.6
11
7.2875
21
-44.6
0
LINE
8
0
10
21.2875
20
-31.6
11
21.2875
21
-44.6
0
ARC
8
0
10
7.7875
20
-31.6
40
0.5
50
90
51
180
0
ARC
8
0
10
20.7875
20
-31.6
40
0.5
50
0
51
90
0
ARC
8
0
10
7.7875
20
-44.6
40
0.5
50
180
51
270
0
ARC
8
0
10
20.7875
20
-44.6
40
0.5
50
270
51
0
0
LINE
8
0
10
31.6
20
-31.1
11
44.6
21
-31.1
0
LINE
8
0
10
31.6
20
-45.1
11
44.6
21
-45.1
0
LINE
8
0
10
31.1
20
-31.6
11
31.1
21
-44.6
0
LINE
8
0
10
45.1
20
-31.6
11
45.1
21
-44.6
0
ARC
8
0
10
31.6
20
-31.6
40
0.5
50
90
51
180
0
ARC
8
0
10
44.6
20
-31.6
40
0.5
50
0
51
90
0
ARC
8
0
10
31.6
20
-44.6
40
0.5
50
180
51
270
0
ARC
8
0
10
44.6
20
-44.6
40
0.5
50
270
51
0
0
LINE
8
0
10
50.65
20
-31.1
11
63.65
21
-31.1
0
LINE
8
0
10
50.65
20
-45.1
11
63.65
21
-45.1
0
LINE
8
0
10
50.15
20
-31.6
11
50.15
21
-44.6
0
LINE
8
0
10
64.15
20
-31.6
11
64.15
21
-44.6
0
ARC
8
0
10
50.65
20
-31.6
40
0.5
50
90
51
180
0
ARC
8
0
10
63.65
20
-31.6
40
0.5
50
0
51
90
0
ARC
8
0
10
50.65
20
-44.6
40
0.5
50
180
51
270
0
ARC
8
0
10
63.65
20
-44.6
40
0.5
50
270
51
0
0
LINE
8
0
10
69.7
20
-31.1
11
82.7
21
-31.1
0
LINE
8
0
10
69.7
20
-45.1
11
82.7
21
-45.1
0
LINE
8
0
10
69.2
20
-31.6
11
69.2
21
-44.6
0
LINE
8
0
10
83.2
20
-31.6
11
83.2
21
-44.6
0
ARC
8
0
10
69.7
20
-31.6
40
0.5
50
90
51
180
0
ARC
8
0
10
82.7
20
-31.6
40
0.5
50
0
51
90
0
ARC
8
0
10
69.7
20
-44.6
40
0.5
50
180
51
270
0
ARC
8
0
10
82.7
20
-44.6
40
0.5
50
270
51
0
0
LINE
8
0
10
88.75
20
-31.1
11
101.75
21
-31.1
0
LINE
8
0
10
88.75
20
-45.1
11
101.75
21
-45.1
0
LINE
8
0
10
88.25
20
-31.6
11
88.25
21
-44.6
0
LINE
8
0
10
102.25
20
-31.6
11
102.25
21
-44.6
0
ARC
8
0
10
88.75
20
-31.6
40
0.5
50
90
51
180
0
ARC
8
0
10
101.75
20
-31.6
40
0.5
50
0
51
90
0
ARC
8
0
10
88.75
20
-44.6
40
0.5
50
180
51
270
0
ARC
8
0
10
101.75
20
-44.6
40
0.5
50
270
51
0
0
LINE
8
0
10
107.8
20
-31.1
11
120.8
21
-31.1
0
LINE
8
0
10
107.8
20
-45.1
11
120.8
21
-45.1
0
LINE
8
0
10
107.3
20
-31.6
11
107.3
21
-44.6
0
LINE
8
0
10
121.3
20
-31.6
11
121.3
21
-44.6
0
ARC
8
0
10
107.8
20
-31.6
40
0.5
50
90
51
180
0
ARC
8
0
10
120.8
20
-31.6
40
0.5
50
0
51
90
0
ARC
8
0
10
107.8
20
-44.6
40
0.5
50
180
51
270
0
ARC
8
0
10
120.8
20
-44.6
40
0.5
50
270
51
0
0
LINE
8
0
10
126.85
20
-31.1
11
139.85
21
-31.1
0
LINE
8
0
10
126.85
20
-45.1
11
139.85
21
-45.1
0
LINE
8
0
10
126.35
20
-31.6
11
126.35
21
-44.6
0
LINE
8
0
10
140.35
20
-31.6
11
140.35
21
-44.6
0
ARC
8
0
10
126.85
20
-31.6
40
0.5
50
90
51
180
0
ARC
8
0
10
139.85
20
-31.6
40
0.5
50
0
51
90
0
ARC
8
0
10
126.85
20
-44.6
40
0.5
50
180
51
270
0
ARC
8
0
10
139.85
20
-44.6
40
0.5
50
270
51
0
0
LINE
8
0
10
145.9
20
-31.1
11
158.9
21
-31.1
0
LINE
8
0
10
145.9
20
-45.1
11
158.9
21
-45.1
0
LINE
8
0
10
145.4
20
-31.6
11
145.4
21
-44.6
0
LINE
8
0
10
159.4
20
-31.6
11
159.4
21
-44.6
0
ARC
8
0
10
145.9
20
-31.6
40
0.5
50
90
51
180
0
ARC
8
0
10
158.9
20
-31.6
40
0.5
50
0
51
90
0
ARC
8
0
10
145.9
20
-44.6
40
0.5
50
180
51
270
0
ARC
8
0
10
158.9
20
-44.6
40
0.5
50
270
51
0
0
LINE
8
0
10
164.95
20
-31.1
11
177.95
21
-31.1
0
LINE
8
0
10
164.95
20
-45.1
11
177.95
21
-45.1
0
LINE
8
0
10
164.45
20
-31.6
11
164.45
21
-44.6
0
LINE
8
0
10
178.45
20
-31.6
11
178.45
21
-44.6
0
ARC
8
0
10
164.95
20
-31.6
40
0.5
50
90
51
180
0
ARC
8
0
10
177.95
20
-31.6
40
0.5
50
0
51
90
0
ARC
8
0
10
164.95
20
-44.6
40
0.5
50
180
51
270
0
ARC
8
0
10
177.95
20
-44.6
40
0.5
50
270
51
0
0
LINE
8
0
10
184
20
-31.1
11
197
21
-31.1
0
LINE
8
0
10
184
20
-45.1
11
197
21
-45.1
0
LINE
8
0
10
183.5
20
-31.6
11
183.5
21
-44.6
0
LINE
8
0
10
197.5
20
-31.6
11
197.5
21
-44.6
0
ARC
8
0
10
184
20
-31.6
40
0.5
50
90
51
180
0
ARC
8
0
10
197
20
-31.6
40
0.5
50
0
51
90
0
ARC
8
0
10
184
20
-44.6
40
0.5
50
180
51
270
0
ARC
8
0
10
197
20
-44.6
40
0.5
50
270
51
0
0
LINE
8
0
10
203.05
20
-31.1
11
216.05
21
-31.1
0
LINE
8
0
10
203.05
20
-45.1
11
216.05
21
-45.1
0
LINE
8
0
10
202.55
20
-31.6
11
202.55
21
-44.6
0
LINE
8
0
10
216.55
20
-31.6
11
216.55
21
-44.6
0
ARC
8
0
10
203.05
20
-31.6
40
0.5
50
90
51
180
0
ARC
8
0
10
216.05
20
-31.6
40
0.5
50
0
51
90
0
ARC
8
0
10
203.05
20
-44.6
40
0.5
50
180
51
270
0
ARC
8
0
10
216.05
20
-44.6
40
0.5
50
270
51
0
0
LINE
8
0
10
222.1
20
-31.1
11
235.1
21
-31.1
0
LINE
8
0
10
222.1
20
-45.1
11
235.1
21
-45.1
0
LINE
8
0
10
221.6
20
-31.6
11
221.6
21
-44.6
0
LINE
8
0
10
235.6
20
-31.6
11
235.6
21
-44.6
0
ARC
8
0
10
222.1
20
-31.6
40
0.5
50
90
51
180
0
ARC
8
0
10
235.1
20
-31.6
40
0.5
50
0
51
90
0
ARC
8
0
10
222.1
20
-44.6
40
0.5
50
180
51
270
0
ARC
8
0
10
235.1
20
-44.6
40
0.5
50
270
51
0
0
LINE
8
0
10
241.15
20
-31.1
11
254.15
21
-31.1
0
LINE
8
0
10
241.15
20
-45.1
11
254.15
21
-45.1
0
LINE
8
0
10
240.65
20
-31.6
11
240.65
21
-44.6
0
LINE
8
0
10
254.65
20
-31.6
11
254.65
21
-44.6
0
ARC
8
0
10
241.15
20
-31.6
40
0.5
50
90
51
180
0
ARC
8
0
10
254.15
20
-31.6
40
0.5
50
0
51
90
0
ARC
8
0
10
241.15
20
-44.6
40
0.5
50
180
51
270
0
ARC
8
0
10
254.15
20
-44.6
40
0.5
50
270
51
0
0
LINE
8
0
10
260.2
20
-31.1
11
273.2
21
-31.1
0
LINE
8
0
10
260.2
20
-45.1
11
273.2
21
-45.1
0
LINE
8
0
10
259.7
20
-31.6
11
259.7
21
-44.6
0
LINE
8
0
10
273.7
20
-31.6
11
273.7
21
-44.6
0
ARC
8
0
10
260.2
20
-31.6
40
0.5
50
90
51
180
0
ARC
8
0
10
273.2
20
-31.6
40
0.5
50
0
51
90
0
ARC
8
0
10
260.2
20
-44.6
40
0.5
50
180
51
270
0
ARC
8
0
10
273.2
20
-44.6
40
0.5
50
270
51
0
0
LINE
8
0
10
279.25
20
-31.1
11
292.25
21
-31.1
0
LINE
8
0
10
279.25
20
-45.1
11
292.25
21
-45.1
0
LINE
8
0
10
278.75
20
-31.6
11
278.75
21
-44.6
0
LINE
8
0
10
292.75
20
-31.6
11
292.75
21
-44.6
0
ARC
8
0
10
279.25
20
-31.6
40
0.5
50
90
51
180
0
ARC
8
0
10
292.25
20
-31.6
40
0.5
50
0
51
90
0
ARC
8
0
10
279.25
20
-44.6
40
0.5
50
180
51
270
0
ARC
8
0
10
292.25
20
-44.6
40
0.5
50
270
51
0
0
LINE
8
0
10
298.3
20
-31.1
11
311.3
21
-31.1
0
LINE
8
0
10
298.3
20
-45.1
11
311.3
21
-45.1
0
LINE
8
0
10
297.8
20
-31.6
11
297.8
21
-44.6
0
LINE
8
0
10
311.8
20
-31.6
11
311.8
21
-44.6
0
ARC
8
0
10
298.3
20
-31.6
40
0.5
50
90
51
180
0
ARC
8
0
10
311.3
20
-31.6
40
0.5
50
0
51
90
0
ARC
8
0
10
298.3
20
-44.6
40
0.5
50
180
51
270
0
ARC
8
0
10
311.3
20
-44.6
40
0.5
50
270
51
0
0
LINE
8
0
10
12.55
20
-50.15
11
25.55
21
-50.15
0
LINE
8
0
10
12.55
20
-64.15
11
25.55
21
-64.15
0
LINE
8
0
10
12.05
20
-50.65
11
12.05
21
-63.65
0
LINE
8
0
10
26.05
20
-50.65
11
26.05
21
-63.65
0
ARC
8
0
10
12.55
20
-50.65
40
0.5
50
90
51
180
0
ARC
8
0
10
25.55
20
-50.65
40
0.5
50
0
51
90
0
ARC
8
0
10
12.55
20
-63.65
40
0.5
50
180
51
270
0
ARC
8
0
10
25.55
20
-63.65
40
0.5
50
270
51
0
0
LINE
8
0
10
4.2846
20
-51.4604
11
9.9394
21
-51.4604
0
LINE
8
0
10
10.4394
20
-51.9604
11
10.4394
21
-52.2732
0
LINE
8
0
10
10.4394
20
-52.2732
11
19.05
21
-52.2732
0
LINE
8
0
10
19.05
20
-62.9666
11
10.9394
21
-62.9666
0
LINE
8
0
10
10.4394
20
-63.4666
11
10.4394
21
-63.754
0
LINE
8
0
10
10.4394
20
-63.754
11
9.136
21
-63.754
0
LINE
8
0
10
8.636
20
-64.254
11
8.636
21
-64.4224
0
LINE
8
0
10
8.136
20
-64.9224
11
6.088
21
-64.9224
0
LINE
8
0
10
5.588
20
-64.4224
11
5.588
21
-64.254
0
LINE
8
0
10
5.088
20
-63.754
11
4.2846
21
-63.754
0
LINE
8
0
10
3.7846
20
-63.254
11
3.7846
21
-58.158
0
LINE
8
0
10
3.2846
20
-57.658
11
2.921
21
-57.658
0
LINE
8
0
10
2.921
20
-57.658
11
2.921
21
-55.364
0
LINE
8
0
10
3.421
20
-54.864
11
3.7846
21
-54.864
0
LINE
8
0
10
3.7846
20
-54.864
11
3.7846
21
-51.9604
0
ARC
8
0
10
9.9394
20
-51.9604
40
0.5
50
0
51
90
0
ARC
8
0
10
10.9394
20
-63.4666
40
0.5
50
90
51
180
0
ARC
8
0
10
9.136
20
-64.254
40
0.5
50
90
51
180
0
ARC
8
0
10
8.136
20
-64.4224
40
0.5
50
270
51
0
0
ARC
8
0
10
6.088
20
-64.4224
40
0.5
50
180
51
270
0
ARC
8
0
10
5.088
20
-64.254
40
0.5
50
0
51
90
0
ARC
8
0
10
4.2846
20
-63.254
40
0.5
50
180
51
270
0
ARC
8
0
10
3.2846
20
-58.158
40
0.5
50
0
51
90
0
ARC
8
0
10
3.421
20
-55.364
40
0.5
50
90
51
180
0
ARC
8
0
10
4.2846
20
-51.9604
40
0.5
50
90
51
180
0
LINE
8
0
10
33.8154
20
-51.4604
11
28.1606
21
-51.4604
0
LINE
8
0
10
27.6606
20
-51.9604
11
27.6606
21
-52.2732
0
LINE
8
0
10
27.6606
20
-52.2732
11
19.05
21
-52.2732
0
LINE
8
0
10
19.05
20
-62.9666
11
27.1606
21
-62.9666
0
LINE
8
0
10
27.6606
20
-63.4666
11
27.6606
21
-63.754
0
LINE
8
0
10
27.6606
20
-63.754
11
28.964
21
-63.754
0
LINE
8
0
10
29.464
20
-64.254
11
29.464
21
-64.4224
0
LINE
8
0
10
29.964
20
-64.9224
11
32.012
21
-64.9224
0
LINE
8
0
10
32.512
20
-64.4224
11
32.512
21
-64.254
0
LINE
8
0
10
33.012
20
-63.754
11
33.8154
21
-63.754
0
LINE
8
0
10
34.3154
20
-63.254
11
34.3154
21
-58.158
0
LINE
8
0
10
34.8154
20
-57.658
11
35.179
21
-57.658
0
LINE
8
0
10
35.179
20
-57.658
11
35.179
21
-55.364
0
LINE
8
0
10
34.679
20
-54.864
11
34.3154
21
-54.864
0
LINE
8
0
10
34.3154
20
-54.864
11
34.3154
21
-51.9604
0
ARC
8
0
10
28.1606
20
-51.9604
40
0.5
50
90
51
180
0
ARC
8
0
10
27.1606
20
-63.4666
40
0.5
50
0
51
90
0
ARC
8
0
10
28.964
20
-64.254
40
0.5
50
0
51
90
0
ARC
8
0
10
29.964
20
-64.4224
40
0.5
50
180
51
270
0
ARC
8
0
10
32.012
20
-64.4224
40
0.5
50
270
51
0
0
ARC
8
0
10
33.012
20
-64.254
40
0.5
50
90
51
180
0
ARC
8
0
10
33.8154
20
-63.254
40
0.5
50
270
51
0
0
ARC
8
0
10
34.8154
20
-58.158
40
0.5
50
90
51
180
0
ARC
8
0
10
34.679
20
-55.364
40
0.5
50
0
51
90
0
ARC
8
0
10
33.8154
20
-51.9604
40
0.5
50
0
51
90
0
LINE
8
0
10
41.125
20
-50.15
11
54.125
21
-50.15
0
LINE
8
0
10
41.125
20
-64.15
11
54.125
21
-64.15
0
LINE
8
0
10
40.625
20
-50.65
11
40.625
21
-63.65
0
LINE
8
0
10
54.625
20
-50.65
11
54.625
21
-63.65
0
ARC
8
0
10
41.125
20
-50.65
40
0.5
50
90
51
180
0
ARC
8
0
10
54.125
20
-50.65
40
0.5
50
0
51
90
0
ARC
8
0
10
41.125
20
-63.65
40
0.5
50
180
51
270
0
ARC
8
0
10
54.125
20
-63.65
40
0.5
50
270
51
0
0
LINE
8
0
10
60.175
20
-50.15
11
73.175
21
-50.15
0
LINE
8
0
10
60.175
20
-64.15
11
73.175
21
-64.15
0
LINE
8
0
10
59.675
20
-50.65
11
59.675
21
-63.65
0
LINE
8
0
10
73.675
20
-50.65
11
73.675
21
-63.65
0
ARC
8
0
10
60.175
20
-50.65
40
0.5
50
90
51
180
0
ARC
8
0
10
73.175
20
-50.65
40
0.5
50
0
51
90
0
ARC
8
0
10
60.175
20
-63.65
40
0.5
50
180
51
270
0
ARC
8
0
10
73.175
20
-63.65
40
0.5
50
270
51
0
0
LINE
8
0
10
79.225
20
-50.15
11
92.225
21
-50.15
0
LINE
8
0
10
79.225
20
-64.15
11
92.225
21
-64.15
0
LINE
8
0
10
78.725
20
-50.65
11
78.725
21
-63.65
0
LINE
8
0
10
92.725
20
-50.65
11
92.725
21
-63.65
0
ARC
8
0
10
79.225
20
-50.65
40
0.5
50
90
51
180
0
ARC
8
0
10
92.225
20
-50.65
40
0.5
50
0
51
90
0
ARC
8
0
10
79.225
20
-63.65
40
0.5
50
180
51
270
0
ARC
8
0
10
92.225
20
-63.65
40
0.5
50
270
51
0
0
LINE
8
0
10
98.275
20
-50.15
11
111.275
21
-50.15
0
LINE
8
0
10
98.275
20
-64.15
11
111.275
21
-64.15
0
LINE
8
0
10
97.775
20
-50.65
11
97.775
21
-63.65
0
LINE
8
0
10
111.775
20
-50.65
11
111.775
21
-63.65
0
ARC
8
0
10
98.275
20
-50.65
40
0.5
50
90
51
180
0
ARC
8
0
10
111.275
20
-50.65
40
0.5
50
0
51
90
0
ARC
8
0
10
98.275
20
-63.65
40
0.5
50
180
51
270
0
ARC
8
0
10
111.275
20
-63.65
40
0.5
50
270
51
0
0
LINE
8
0
10
117.325
20
-50.15
11
130.325
21
-50.15
0
LINE
8
0
10
117.325
20
-64.15
11
130.325
21
-64.15
0
LINE
8
0
10
116.825
20
-50.65
11
116.825
21
-63.65
0
LINE
8
0
10
130.825
20
-50.65
11
130.825
21
-63.65
0
ARC
8
0
10
117.325
20
-50.65
40
0.5
50
90
51
180
0
ARC
8
0
10
130.325
20
-50.65
40
0.5
50
0
51
90
0
ARC
8
0
10
117.325
20
-63.65
40
0.5
50
180
51
270
0
ARC
8
0
10
130.325
20
-63.65
40
0.5
50
270
51
0
0
LINE
8
0
10
136.375
20
-50.15
11
149.375
21
-50.15
0
LINE
8
0
10
136.375
20
-64.15
11
149.375
21
-64.15
0
LINE
8
0
10
135.875
20
-50.65
11
135.875
21
-63.65
0
LINE
8
0
10
149.875
20
-50.65
11
149.875
21
-63.65
0
ARC
8
0
10
136.375
20
-50.65
40
0.5
50
90
51
180
0
ARC
8
0
10
149.375
20
-50.65
40
0.5
50
0
51
90
0
ARC
8
0
10
136.375
20
-63.65
40
0.5
50
180
51
270
0
ARC
8
0
10
149.375
20
-63.65
40
0.5
50
270
51
0
0
LINE
8
0
10
155.425
20
-50.15
11
168.425
21
-50.15
0
LINE
8
0
10
155.425
20
-64.15
11
168.425
21
-64.15
0
LINE
8
0
10
154.925
20
-50.65
11
154.925
21
-63.65
0
LINE
8
0
10
168.925
20
-50.65
11
168.925
21
-63.65
0
ARC
8
0
10
155.425
20
-50.65
40
0.5
50
90
51
180
0
ARC
8
0
10
168.425
20
-50.65
40
0.5
50
0
51
90
0
ARC
8
0
10
155.425
20
-63.65
40
0.5
50
180
51
270
0
ARC
8
0
10
168.425
20
-63.65
40
0.5
50
270
51
0
0
LINE
8
0
10
174.475
20
-50.15
11
187.475
21
-50.15
0
LINE
8
0
10
174.475
20
-64.15
11
187.475
21
-64.15
0
LINE
8
0
10
173.975
20
-50.65
11
173.975
21
-63.65
0
LINE
8
0
10
187.975
20
-50.65
11
187.975
21
-63.65
0
ARC
8
0
10
174.475
20
-50.65
40
0.5
50
90
51
180
0
ARC
8
0
10
187.475
20
-50.65
40
0.5
50
0
51
90
0
ARC
8
0
10
174.475
20
-63.65
40
0.5
50
180
51
270
0
ARC
8
0
10
187.475
20
-63.65
40
0.5
50
270
51
0
0
LINE
8
0
10
193.525
20
-50.15
11
206.525
21
-50.15
0
LINE
8
0
10
193.525
20
-64.15
11
206.525
21
-64.15
0
LINE
8
0
10
193.025
20
-50.65
11
193.025
21
-63.65
0
LINE
8
0
10
207.025
20
-50.65
11
207.025
21
-63.65
0
ARC
8
0
10
193.525
20
-50.65
40
0.5
50
90
51
180
0
ARC
8
0
10
206.525
20
-50.65
40
0.5
50
0
51
90
0
ARC
8
0
10
193.525
20
-63.65
40
0.5
50
180
51
270
0
ARC
8
0
10
206.525
20
-63.65
40
0.5
50
270
51
0
0
LINE
8
0
10
212.575
20
-50.15
11
225.575
21
-50.15
0
LINE
8
0
10
212.575
20
-64.15
11
225.575
21
-64.15
0
LINE
8
0
10
212.075
20
-50.65
11
212.075
21
-63.65
0
LINE
8
0
10
226.075
20
-50.65
11
226.075
21
-63.65
0
ARC
8
0
10
212.575
20
-50.65
40
0.5
50
90
51
180
0
ARC
8
0
10
225.575
20
-50.65
40
0.5
50
0
51
90
0
ARC
8
0
10
212.575
20
-63.65
40
0.5
50
180
51
270
0
ARC
8
0
10
225.575
20
-63.65
40
0.5
50
270
51
0
0
LINE
8
0
10
231.625
20
-50.15
11
244.625
21
-50.15
0
LINE
8
0
10
231.625
20
-64.15
11
244.625
21
-64.15
0
LINE
8
0
10
231.125
20
-50.65
11
231.125
21
-63.65
0
LINE
8
0
10
245.125
20
-50.65
11
245.125
21
-63.65
0
ARC
8
0
10
231.625
20
-50.65
40
0.5
50
90
51
180
0
ARC
8
0
10
244.625
20
-50.65
40
0.5
50
0
51
90
0
ARC
8
0
10
231.625
20
-63.65
40
0.5
50
180
51
270
0
ARC
8
0
10
244.625
20
-63.65
40
0.5
50
270
51
0
0
LINE
8
0
10
250.675
20
-50.15
11
263.675
21
-50.15
0
LINE
8
0
10
250.675
20
-64.15
11
263.675
21
-64.15
0
LINE
8
0
10
250.175
20
-50.65
11
250.175
21
-63.65
0
LINE
8
0
10
264.175
20
-50.65
11
264.175
21
-63.65
0
ARC
8
0
10
250.675
20
-50.65
40
0.5
50
90
51
180
0
ARC
8
0
10
263.675
20
-50.65
40
0.5
50
0
51
90
0
ARC
8
0
10
250.675
20
-63.65
40
0.5
50
180
51
270
0
ARC
8
0
10
263.675
20
-63.65
40
0.5
50
270
51
0
0
LINE
8
0
10
290.36875
20
-60.175
11
290.36875
21
-73.175
0
LINE
8
0
10
276.36875
20
-60.175
11
276.36875
21
-73.175
0
LINE
8
0
10
289.86875
20
-59.675
11
276.86875
21
-59.675
0
LINE
8
0
10
289.86875
20
-73.675
11
276.86875
21
-73.675
0
ARC
8
0
10
289.86875
20
-60.175
40
0.5
50
0
51
90
0
ARC
8
0
10
289.86875
20
-73.175
40
0.5
50
270
51
0
0
ARC
8
0
10
276.86875
20
-60.175
40
0.5
50
90
51
180
0
ARC
8
0
10
276.86875
20
-73.175
40
0.5
50
180
51
270
0
LINE
8
0
10
289.05835
20
-51.9096
11
289.05835
21
-57.5644
0
LINE
8
0
10
288.55835
20
-58.0644
11
288.24555
21
-58.0644
0
LINE
8
0
10
288.24555
20
-58.0644
11
288.24555
21
-66.675
0
LINE
8
0
10
277.55215
20
-66.675
11
277.55215
21
-58.5644
0
LINE
8
0
10
277.05215
20
-58.0644
11
276.76475
21
-58.0644
0
LINE
8
0
10
276.76475
20
-58.0644
11
276.76475
21
-56.761
0
LINE
8
0
10
276.26475
20
-56.261
11
276.09635
21
-56.261
0
LINE
8
0
10
275.59635
20
-55.761
11
275.59635
21
-53.713
0
LINE
8
0
10
276.09635
20
-53.213
11
276.26475
21
-53.213
0
LINE
8
0
10
276.76475
20
-52.713
11
276.76475
21
-51.9096
0
LINE
8
0
10
277.26475
20
-51.4096
11
282.36075
21
-51.4096
0
LINE
8
0
10
282.86075
20
-50.9096
11
282.86075
21
-50.546
0
LINE
8
0
10
282.86075
20
-50.546
11
285.15475
21
-50.546
0
LINE
8
0
10
285.65475
20
-51.046
11
285.65475
21
-51.4096
0
LINE
8
0
10
285.65475
20
-51.4096
11
288.55835
21
-51.4096
0
ARC
8
0
10
288.55835
20
-57.5644
40
0.5
50
270
51
0
0
ARC
8
0
10
277.05215
20
-58.5644
40
0.5
50
0
51
90
0
ARC
8
0
10
276.26475
20
-56.761
40
0.5
50
0
51
90
0
ARC
8
0
10
276.09635
20
-55.761
40
0.5
50
180
51
270
0
ARC
8
0
10
276.09635
20
-53.713
40
0.5
50
90
51
180
0
ARC
8
0
10
276.26475
20
-52.713
40
0.5
50
270
51
0
0
ARC
8
0
10
277.26475
20
-51.9096
40
0.5
50
90
51
180
0
ARC
8
0
10
282.36075
20
-50.9096
40
0.5
50
270
51
0
0
ARC
8
0
10
285.15475
20
-51.046
40
0.5
50
0
51
90
0
ARC
8
0
10
288.55835
20
-51.9096
40
0.5
50
0
51
90
0
LINE
8
0
10
289.05835
20
-81.4404
11
289.05835
21
-75.7856
0
LINE
8
0
10
288.55835
20
-75.2856
11
288.24555
21
-75.2856
0
LINE
8
0
10
288.24555
20
-75.2856
11
288.24555
21
-66.675
0
LINE
8
0
10
277.55215
20
-66.675
11
277.55215
21
-74.7856
0
LINE
8
0
10
277.05215
20
-75.2856
11
276.76475
21
-75.2856
0
LINE
8
0
10
276.76475
20
-75.2856
11
276.76475
21
-76.589
0
LINE
8
0
10
276.26475
20
-77.089
11
276.09635
21
-77.089
0
LINE
8
0
10
275.59635
20
-77.589
11
275.59635
21
-79.637
0
LINE
8
0
10
276.09635
20
-80.137
11
276.26475
21
-80.137
0
LINE
8
0
10
276.76475
20
-80.637
11
276.76475
21
-81.4404
0
LINE
8
0
10
277.26475
20
-81.9404
11
282.36075
21
-81.9404
0
LINE
8
0
10
282.86075
20
-82.4404
11
282.86075
21
-82.804
0
LINE
8
0
10
282.86075
20
-82.804
11
285.15475
21
-82.804
0
LINE
8
0
10
285.65475
20
-82.304
11
285.65475
21
-81.9404
0
LINE
8
0
10
285.65475
20
-81.9404
11
288.55835
21
-81.9404
0
ARC
8
0
10
288.55835
20
-75.7856
40
0.5
50
0
51
90
0
ARC
8
0
10
277.05215
20
-74.7856
40
0.5
50
270
51
0
0
ARC
8
0
10
276.26475
20
-76.589
40
0.5
50
270
51
0
0
ARC
8
0
10
276.09635
20
-77.589
40
0.5
50
90
51
180
0
ARC
8
0
10
276.09635
20
-79.637
40
0.5
50
180
51
270
0
ARC
8
0
10
276.26475
20
-80.637
40
0.5
50
0
51
90
0
ARC
8
0
10
277.26475
20
-81.4404
40
0.5
50
180
51
270
0
ARC
8
0
10
282.36075
20
-82.4404
40
0.5
50
0
51
90
0
ARC
8
0
10
285.15475
20
-82.304
40
0.5
50
270
51
0
0
ARC
8
0
10
288.55835
20
-81.4404
40
0.5
50
270
51
0
0
LINE
8
0
10
298.3
20
-50.15
11
311.3
21
-50.15
0
LINE
8
0
10
298.3
20
-64.15
11
311.3
21
-64.15
0
LINE
8
0
10
297.8
20
-50.65
11
297.8
21
-63.65
0
LINE
8
0
10
311.8
20
-50.65
11
311.8
21
-63.65
0
ARC
8
0
10
298.3
20
-50.65
40
0.5
50
90
51
180
0
ARC
8
0
10
311.3
20
-50.65
40
0.5
50
0
51
90
0
ARC
8
0
10
298.3
20
-63.65
40
0.5
50
180
51
270
0
ARC
8
0
10
311.3
20
-63.65
40
0.5
50
270
51
0
0
LINE
8
0
10
5.40625
20
-69.2
11
18.40625
21
-69.2
0
LINE
8
0
10
5.40625
20
-83.2
11
18.40625
21
-83.2
0
LINE
8
0
10
4.90625
20
-69.7
11
4.90625
21
-82.7
0
LINE
8
0
10
18.90625
20
-69.7
11
18.90625
21
-82.7
0
ARC
8
0
10
5.40625
20
-69.7
40
0.5
50
90
51
180
0
ARC
8
0
10
18.40625
20
-69.7
40
0.5
50
0
51
90
0
ARC
8
0
10
5.40625
20
-82.7
40
0.5
50
180
51
270
0
ARC
8
0
10
18.40625
20
-82.7
40
0.5
50
270
51
0
0
LINE
8
0
10
26.8375
20
-69.2
11
39.8375
21
-69.2
0
LINE
8
0
10
26.8375
20
-83.2
11
39.8375
21
-83.2
0
LINE
8
0
10
26.3375
20
-69.7
11
26.3375
21
-82.7
0
LINE
8
0
10
40.3375
20
-69.7
11
40.3375
21
-82.7
0
ARC
8
0
10
26.8375
20
-69.7
40
0.5
50
90
51
180
0
ARC
8
0
10
39.8375
20
-69.7
40
0.5
50
0
51
90
0
ARC
8
0
10
26.8375
20
-82.7
40
0.5
50
180
51
270
0
ARC
8
0
10
39.8375
20
-82.7
40
0.5
50
270
51
0
0
LINE
8
0
10
45.8875
20
-69.2
11
58.8875
21
-69.2
0
LINE
8
0
10
45.8875
20
-83.2
11
58.8875
21
-83.2
0
LINE
8
0
10
45.3875
20
-69.7
11
45.3875
21
-82.7
0
LINE
8
0
10
59.3875
20
-69.7
11
59.3875
21
-82.7
0
ARC
8
0
10
45.8875
20
-69.7
40
0.5
50
90
51
180
0
ARC
8
0
10
58.8875
20
-69.7
40
0.5
50
0
51
90
0
ARC
8
0
10
45.8875
20
-82.7
40
0.5
50
180
51
270
0
ARC
8
0
10
58.8875
20
-82.7
40
0.5
50
270
51
0
0
LINE
8
0
10
64.9375
20
-69.2
11
77.9375
21
-69.2
0
LINE
8
0
10
64.9375
20
-83.2
11
77.9375
21
-83.2
0
LINE
8
0
10
64.4375
20
-69.7
11
64.4375
21
-82.7
0
LINE
8
0
10
78.4375
20
-69.7
11
78.4375
21
-82.7
0
ARC
8
0
10
64.9375
20
-69.7
40
0.5
50
90
51
180
0
ARC
8
0
10
77.9375
20
-69.7
40
0.5
50
0
51
90
0
ARC
8
0
10
64.9375
20
-82.7
40
0.5
50
180
51
270
0
ARC
8
0
10
77.9375
20
-82.7
40
0.5
50
270
51
0
0
LINE
8
0
10
83.9875
20
-69.2
11
96.9875
21
-69.2
0
LINE
8
0
10
83.9875
20
-83.2
11
96.9875
21
-83.2
0
LINE
8
0
10
83.4875
20
-69.7
11
83.4875
21
-82.7
0
LINE
8
0
10
97.4875
20
-69.7
11
97.4875
21
-82.7
0
ARC
8
0
10
83.9875
20
-69.7
40
0.5
50
90
51
180
0
ARC
8
0
10
96.9875
20
-69.7
40
0.5
50
0
51
90
0
ARC
8
0
10
83.9875
20
-82.7
40
0.5
50
180
51
270
0
ARC
8
0
10
96.9875
20
-82.7
40
0.5
50
270
51
0
0
LINE
8
0
10
103.0375
20
-69.2
11
116.0375
21
-69.2
0
LINE
8
0
10
103.0375
20
-83.2
11
116.0375
21
-83.2
0
LINE
8
0
10
102.5375
20
-69.7
11
102.5375
21
-82.7
0
LINE
8
0
10
116.5375
20
-69.7
11
116.5375
21
-82.7
0
ARC
8
0
10
103.0375
20
-69.7
40
0.5
50
90
51
180
0
ARC
8
0
10
116.0375
20
-69.7
40
0.5
50
0
51
90
0
ARC
8
0
10
103.0375
20
-82.7
40
0.5
50
180
51
270
0
ARC
8
0
10
116.0375
20
-82.7
40
0.5
50
270
51
0
0
LINE
8
0
10
122.0875
20
-69.2
11
135.0875
21
-69.2
0
LINE
8
0
10
122.0875
20
-83.2
11
135.0875
21
-83.2
0
LINE
8
0
10
121.5875
20
-69.7
11
121.5875
21
-82.7
0
LINE
8
0
10
135.5875
20
-69.7
11
135.5875
21
-82.7
0
ARC
8
0
10
122.0875
20
-69.7
40
0.5
50
90
51
180
0
ARC
8
0
10
135.0875
20
-69.7
40
0.5
50
0
51
90
0
ARC
8
0
10
122.0875
20
-82.7
40
0.5
50
180
51
270
0
ARC
8
0
10
135.0875
20
-82.7
40
0.5
50
270
51
0
0
LINE
8
0
10
141.1375
20
-69.2
11
154.1375
21
-69.2
0
LINE
8
0
10
141.1375
20
-83.2
11
154.1375
21
-83.2
0
LINE
8
0
10
140.6375
20
-69.7
11
140.6375
21
-82.7
0
LINE
8
0
10
154.6375
20
-69.7
11
154.6375
21
-82.7
0
ARC
8
0
10
141.1375
20
-69.7
40
0.5
50
90
51
180
0
ARC
8
0
10
154.1375
20
-69.7
40
0.5
50
0
51
90
0
ARC
8
0
10
141.1375
20
-82.7
40
0.5
50
180
51
270
0
ARC
8
0
10
154.1375
20
-82.7
40
0.5
50
270
51
0
0
LINE
8
0
10
160.1875
20
-69.2
11
173.1875
21
-69.2
0
LINE
8
0
10
160.1875
20
-83.2
11
173.1875
21
-83.2
0
LINE
8
0
10
159.6875
20
-69.7
11
159.6875
21
-82.7
0
LINE
8
0
10
173.6875
20
-69.7
11
173.6875
21
-82.7
0
ARC
8
0
10
160.1875
20
-69.7
40
0.5
50
90
51
180
0
ARC
8
0
10
173.1875
20
-69.7
40
0.5
50
0
51
90
0
ARC
8
0
10
160.1875
20
-82.7
40
0.5
50
180
51
270
0
ARC
8
0
10
173.1875
20
-82.7
40
0.5
50
270
51
0
0
LINE
8
0
10
179.2375
20
-69.2
11
192.2375
21
-69.2
0
LINE
8
0
10
179.2375
20
-83.2
11
192.2375
21
-83.2
0
LINE
8
0
10
178.7375
20
-69.7
11
178.7375
21
-82.7
0
LINE
8
0
10
192.7375
20
-69.7
11
192.7375
21
-82.7
0
ARC
8
0
10
179.2375
20
-69.7
40
0.5
50
90
51
180
0
ARC
8
0
10
192.2375
20
-69.7
40
0.5
50
0
51
90
0
ARC
8
0
10
179.2375
20
-82.7
40
0.5
50
180
51
270
0
ARC
8
0
10
192.2375
20
-82.7
40
0.5
50
270
51
0
0
LINE
8
0
10
198.2875
20
-69.2
11
211.2875
21
-69.2
0
LINE
8
0
10
198.2875
20
-83.2
11
211.2875
21
-83.2
0
LINE
8
0
10
197.7875
20
-69.7
11
197.7875
21
-82.7
0
LINE
8
0
10
211.7875
20
-69.7
11
211.7875
21
-82.7
0
ARC
8
0
10
198.2875
20
-69.7
40
0.5
50
90
51
180
0
ARC
8
0
10
211.2875
20
-69.7
40
0.5
50
0
51
90
0
ARC
8
0
10
198.2875
20
-82.7
40
0.5
50
180
51
270
0
ARC
8
0
10
211.2875
20
-82.7
40
0.5
50
270
51
0
0
LINE
8
0
10
217.3375
20
-69.2
11
230.3375
21
-69.2
0
LINE
8
0
10
217.3375
20
-83.2
11
230.3375
21
-83.2
0
LINE
8
0
10
216.8375
20
-69.7
11
216.8375
21
-82.7
0
LINE
8
0
10
230.8375
20
-69.7
11
230.8375
21
-82.7
0
ARC
8
0
10
217.3375
20
-69.7
40
0.5
50
90
51
180
0
ARC
8
0
10
230.3375
20
-69.7
40
0.5
50
0
51
90
0
ARC
8
0
10
217.3375
20
-82.7
40
0.5
50
180
51
270
0
ARC
8
0
10
230.3375
20
-82.7
40
0.5
50
270
51
0
0
LINE
8
0
10
236.3875
20
-69.2
11
249.3875
21
-69.2
0
LINE
8
0
10
236.3875
20
-83.2
11
249.3875
21
-83.2
0
LINE
8
0
10
235.8875
20
-69.7
11
235.8875
21
-82.7
0
LINE
8
0
10
249.8875
20
-69.7
11
249.8875
21
-82.7
0
ARC
8
0
10
236.3875
20
-69.7
40
0.5
50
90
51
180
0
ARC
8
0
10
249.3875
20
-69.7
40
0.5
50
0
51
90
0
ARC
8
0
10
236.3875
20
-82.7
40
0.5
50
180
51
270
0
ARC
8
0
10
249.3875
20
-82.7
40
0.5
50
270
51
0
0
LINE
8
0
10
255.4375
20
-69.2
11
268.4375
21
-69.2
0
LINE
8
0
10
255.4375
20
-83.2
11
268.4375
21
-83.2
0
LINE
8
0
10
254.9375
20
-69.7
11
254.9375
21
-82.7
0
LINE
8
0
10
268.9375
20
-69.7
11
268.9375
21
-82.7
0
ARC
8
0
10
255.4375
20
-69.7
40
0.5
50
90
51
180
0
ARC
8
0
10
268.4375
20
-69.7
40
0.5
50
0
51
90
0
ARC
8
0
10
255.4375
20
-82.7
40
0.5
50
180
51
270
0
ARC
8
0
10
268.4375
20
-82.7
40
0.5
50
270
51
0
0
LINE
8
0
10
298.3
20
-69.2
11
311.3
21
-69.2
0
LINE
8
0
10
298.3
20
-83.2
11
311.3
21
-83.2
0
LINE
8
0
10
297.8
20
-69.7
11
297.8
21
-82.7
0
LINE
8
0
10
311.8
20
-69.7
11
311.8
21
-82.7
0
ARC
8
0
10
298.3
20
-69.7
40
0.5
50
90
51
180
0
ARC
8
0
10
311.3
20
-69.7
40
0.5
50
0
51
90
0
ARC
8
0
10
298.3
20
-82.7
40
0.5
50
180
51
270
0
ARC
8
0
10
311.3
20
-82.7
40
0.5
50
270
51
0
0
LINE
8
0
10
10.16875
20
-88.25
11
23.16875
21
-88.25
0
LINE
8
0
10
10.16875
20
-102.25
11
23.16875
21
-102.25
0
LINE
8
0
10
9.66875
20
-88.75
11
9.66875
21
-101.75
0
LINE
8
0
10
23.66875
20
-88.75
11
23.66875
21
-101.75
0
ARC
8
0
10
10.16875
20
-88.75
40
0.5
50
90
51
180
0
ARC
8
0
10
23.16875
20
-88.75
40
0.5
50
0
51
90
0
ARC
8
0
10
10.16875
20
-101.75
40
0.5
50
180
51
270
0
ARC
8
0
10
23.16875
20
-101.75
40
0.5
50
270
51
0
0
LINE
8
0
10
36.3625
20
-88.25
11
49.3625
21
-88.25
0
LINE
8
0
10
36.3625
20
-102.25
11
49.3625
21
-102.25
0
LINE
8
0
10
35.8625
20
-88.75
11
35.8625
21
-101.75
0
LINE
8
0
10
49.8625
20
-88.75
11
49.8625
21
-101.75
0
ARC
8
0
10
36.3625
20
-88.75
40
0.5
50
90
51
180
0
ARC
8
0
10
49.3625
20
-88.75
40
0.5
50
0
51
90
0
ARC
8
0
10
36.3625
20
-101.75
40
0.5
50
180
51
270
0
ARC
8
0
10
49.3625
20
-101.75
40
0.5
50
270
51
0
0
LINE
8
0
10
55.4125
20
-88.25
11
68.4125
21
-88.25
0
LINE
8
0
10
55.4125
20
-102.25
11
68.4125
21
-102.25
0
LINE
8
0
10
54.9125
20
-88.75
11
54.9125
21
-101.75
0
LINE
8
0
10
68.9125
20
-88.75
11
68.9125
21
-101.75
0
ARC
8
0
10
55.4125
20
-88.75
40
0.5
50
90
51
180
0
ARC
8
0
10
68.4125
20
-88.75
40
0.5
50
0
51
90
0
ARC
8
0
10
55.4125
20
-101.75
40
0.5
50
180
51
270
0
ARC
8
0
10
68.4125
20
-101.75
40
0.5
50
270
51
0
0
LINE
8
0
10
74.4625
20
-88.25
11
87.4625
21
-88.25
0
LINE
8
0
10
74.4625
20
-102.25
11
87.4625
21
-102.25
0
LINE
8
0
10
73.9625
20
-88.75
11
73.9625
21
-101.75
0
LINE
8
0
10
87.9625
20
-88.75
11
87.9625
21
-101.75
0
ARC
8
0
10
74.4625
20
-88.75
40
0.5
50
90
51
180
0
ARC
8
0
10
87.4625
20
-88.75
40
0.5
50
0
51
90
0
ARC
8
0
10
74.4625
20
-101.75
40
0.5
50
180
51
270
0
ARC
8
0
10
87.4625
20
-101.75
40
0.5
50
270
51
0
0
LINE
8
0
10
93.5125
20
-88.25
11
106.5125
21
-88.25
0
LINE
8
0
10
93.5125
20
-102.25
11
106.5125
21
-102.25
0
LINE
8
0
10
93.0125
20
-88.75
11
93.0125
21
-101.75
0
LINE
8
0
10
107.0125
20
-88.75
11
107.0125
21
-101.75
0
ARC
8
0
10
93.5125
20
-88.75
40
0.5
50
90
51
180
0
ARC
8
0
10
106.5125
20
-88.75
40
0.5
50
0
51
90
0
ARC
8
0
10
93.5125
20
-101.75
40
0.5
50
180
51
270
0
ARC
8
0
10
106.5125
20
-101.75
40
0.5
50
270
51
0
0
LINE
8
0
10
112.5625
20
-88.25
11
125.5625
21
-88.25
0
LINE
8
0
10
112.5625
20
-102.25
11
125.5625
21
-102.25
0
LINE
8
0
10
112.0625
20
-88.75
11
112.0625
21
-101.75
0
LINE
8
0
10
126.0625
20
-88.75
11
126.0625
21
-101.75
0
ARC
8
0
10
112.5625
20
-88.75
40
0.5
50
90
51
180
0
ARC
8
0
10
125.5625
20
-88.75
40
0.5
50
0
51
90
0
ARC
8
0
10
112.5625
20
-101.75
40
0.5
50
180
51
270
0
ARC
8
0
10
125.5625
20
-101.75
40
0.5
50
270
51
0
0
LINE
8
0
10
131.6125
20
-88.25
11
144.6125
21
-88.25
0
LINE
8
0
10
131.6125
20
-102.25
11
144.6125
21
-102.25
0
LINE
8
0
10
131.1125
20
-88.75
11
131.1125
21
-101.75
0
LINE
8
0
10
145.1125
20
-88.75
11
145.1125
21
-101.75
0
ARC
8
0
10
131.6125
20
-88.75
40
0.5
50
90
51
180
0
ARC
8
0
10
144.6125
20
-88.75
40
0.5
50
0
51
90
0
ARC
8
0
10
131.6125
20
-101.75
40
0.5
50
180
51
270
0
ARC
8
0
10
144.6125
20
-101.75
40
0.5
50
270
51
0
0
LINE
8
0
10
150.6625
20
-88.25
11
163.6625
21
-88.25
0
LINE
8
0
10
150.6625
20
-102.25
11
163.6625
21
-102.25
0
LINE
8
0
10
150.1625
20
-88.75
11
150.1625
21
-101.75
0
LINE
8
0
10
164.1625
20
-88.75
11
164.1625
21
-101.75
0
ARC
8
0
10
150.6625
20
-88.75
40
0.5
50
90
51
180
0
ARC
8
0
10
163.6625
20
-88.75
40
0.5
50
0
51
90
0
ARC
8
0
10
150.6625
20
-101.75
40
0.5
50
180
51
270
0
ARC
8
0
10
163.6625
20
-101.75
40
0.5
50
270
51
0
0
LINE
8
0
10
169.7125
20
-88.25
11
182.7125
21
-88.25
0
LINE
8
0
10
169.7125
20
-102.25
11
182.7125
21
-102.25
0
LINE
8
0
10
169.2125
20
-88.75
11
169.2125
21
-101.75
0
LINE
8
0
10
183.2125
20
-88.75
11
183.2125
21
-101.75
0
ARC
8
0
10
169.7125
20
-88.75
40
0.5
50
90
51
180
0
ARC
8
0
10
182.7125
20
-88.75
40
0.5
50
0
51
90
0
ARC
8
0
10
169.7125
20
-101.75
40
0.5
50
180
51
270
0
ARC
8
0
10
182.7125
20
-101.75
40
0.5
50
270
51
0
0
LINE
8
0
10
188.7625
20
-88.25
11
201.7625
21
-88.25
0
LINE
8
0
10
188.7625
20
-102.25
11
201.7625
21
-102.25
0
LINE
8
0
10
188.2625
20
-88.75
11
188.2625
21
-101.75
0
LINE
8
0
10
202.2625
20
-88.75
11
202.2625
21
-101.75
0
ARC
8
0
10
188.7625
20
-88.75
40
0.5
50
90
51
180
0
ARC
8
0
10
201.7625
20
-88.75
40
0.5
50
0
51
90
0
ARC
8
0
10
188.7625
20
-101.75
40
0.5
50
180
51
270
0
ARC
8
0
10
201.7625
20
-101.75
40
0.5
50
270
51
0
0
LINE
8
0
10
207.8125
20
-88.25
11
220.8125
21
-88.25
0
LINE
8
0
10
207.8125
20
-102.25
11
220.8125
21
-102.25
0
LINE
8
0
10
207.3125
20
-88.75
11
207.3125
21
-101.75
0
LINE
8
0
10
221.3125
20
-88.75
11
221.3125
21
-101.75
0
ARC
8
0
10
207.8125
20
-88.75
40
0.5
50
90
51
180
0
ARC
8
0
10
220.8125
20
-88.75
40
0.5
50
0
51
90
0
ARC
8
0
10
207.8125
20
-101.75
40
0.5
50
180
51
270
0
ARC
8
0
10
220.8125
20
-101.75
40
0.5
50
270
51
0
0
LINE
8
0
10
226.8625
20
-88.25
11
239.8625
21
-88.25
0
LINE
8
0
10
226.8625
20
-102.25
11
239.8625
21
-102.25
0
LINE
8
0
10
226.3625
20
-88.75
11
226.3625
21
-101.75
0
LINE
8
0
10
240.3625
20
-88.75
11
240.3625
21
-101.75
0
ARC
8
0
10
226.8625
20
-88.75
40
0.5
50
90
51
180
0
ARC
8
0
10
239.8625
20
-88.75
40
0.5
50
0
51
90
0
ARC
8
0
10
226.8625
20
-101.75
40
0.5
50
180
51
270
0
ARC
8
0
10
239.8625
20
-101.75
40
0.5
50
270
51
0
0
LINE
8
0
10
253.05625
20
-88.25
11
266.05625
21
-88.25
0
LINE
8
0
10
253.05625
20
-102.25
11
266.05625
21
-102.25
0
LINE
8
0
10
252.55625
20
-88.75
11
252.55625
21
-101.75
0
LINE
8
0
10
266.55625
20
-88.75
11
266.55625
21
-101.75
0
ARC
8
0
10
253.05625
20
-88.75
40
0.5
50
90
51
180
0
ARC
8
0
10
266.05625
20
-88.75
40
0.5
50
0
51
90
0
ARC
8
0
10
253.05625
20
-101.75
40
0.5
50
180
51
270
0
ARC
8
0
10
266.05625
20
-101.75
40
0.5
50
270
51
0
0
LINE
8
0
10
279.25
20
-88.25
11
292.25
21
-88.25
0
LINE
8
0
10
279.25
20
-102.25
11
292.25
21
-102.25
0
LINE
8
0
10
278.75
20
-88.75
11
278.75
21
-101.75
0
LINE
8
0
10
292.75
20
-88.75
11
292.75
21
-101.75
0
ARC
8
0
10
279.25
20
-88.75
40
0.5
50
90
51
180
0
ARC
8
0
10
292.25
20
-88.75
40
0.5
50
0
51
90
0
ARC
8
0
10
279.25
20
-101.75
40
0.5
50
180
51
270
0
ARC
8
0
10
292.25
20
-101.75
40
0.5
50
270
51
0
0
LINE
8
0
10
298.3
20
-88.25
11
311.3
21
-88.25
0
LINE
8
0
10
298.3
20
-102.25
11
311.3
21
-102.25
0
LINE
8
0
10
297.8
20
-88.75
11
297.8
21
-101.75
0
LINE
8
0
10
311.8
20
-88.75
11
311.8
21
-101.75
0
ARC
8
0
10
298.3
20
-88.75
40
0.5
50
90
51
180
0
ARC
8
0
10
311.3
20
-88.75
40
0.5
50
0
51
90
0
ARC
8
0
10
298.3
20
-101.75
40
0.5
50
180
51
270
0
ARC
8
0
10
311.3
20
-101.75
40
0.5
50
270
51
0
0
LINE
8
0
10
19.69375
20
-107.3
11
32.69375
21
-107.3
0
LINE
8
0
10
19.69375
20
-121.3
11
32.69375
21
-121.3
0
LINE
8
0
10
19.19375
20
-107.8
11
19.19375
21
-120.8
0
LINE
8
0
10
33.19375
20
-107.8
11
33.19375
21
-120.8
0
ARC
8
0
10
19.69375
20
-107.8
40
0.5
50
90
51
180
0
ARC
8
0
10
32.69375
20
-107.8
40
0.5
50
0
51
90
0
ARC
8
0
10
19.69375
20
-120.8
40
0.5
50
180
51
270
0
ARC
8
0
10
32.69375
20
-120.8
40
0.5
50
270
51
0
0
LINE
8
0
10
43.50625
20
-107.3
11
56.50625
21
-107.3
0
LINE
8
0
10
43.50625
20
-121.3
11
56.50625
21
-121.3
0
LINE
8
0
10
43.00625
20
-107.8
11
43.00625
21
-120.8
0
LINE
8
0
10
57.00625
20
-107.8
11
57.00625
21
-120.8
0
ARC
8
0
10
43.50625
20
-107.8
40
0.5
50
90
51
180
0
ARC
8
0
10
56.50625
20
-107.8
40
0.5
50
0
51
90
0
ARC
8
0
10
43.50625
20
-120.8
40
0.5
50
180
51
270
0
ARC
8
0
10
56.50625
20
-120.8
40
0.5
50
270
51
0
0
LINE
8
0
10
122.0875
20
-107.3
11
135.0875
21
-107.3
0
LINE
8
0
10
122.0875
20
-121.3
11
135.0875
21
-121.3
0
LINE
8
0
10
121.5875
20
-107.8
11
121.5875
21
-120.8
0
LINE
8
0
10
135.5875
20
-107.8
11
135.5875
21
-120.8
0
ARC
8
0
10
122.0875
20
-107.8
40
0.5
50
90
51
180
0
ARC
8
0
10
135.0875
20
-107.8
40
0.5
50
0
51
90
0
ARC
8
0
10
122.0875
20
-120.8
40
0.5
50
180
51
270
0
ARC
8
0
10
135.0875
20
-120.8
40
0.5
50
270
51
0
0
LINE
8
0
10
68.6101
20
-108.6104
11
74.2649
21
-108.6104
0
LINE
8
0
10
74.7649
20
-109.1104
11
74.7649
21
-111.5
0
LINE
8
0
10
75.2649
20
-112
11
128.5875
21
-112
0
LINE
8
0
10
128.5875
20
-116.6
11
75.2649
21
-116.6
0
LINE
8
0
10
74.7649
20
-117.1
11
74.7649
21
-120.404
0
LINE
8
0
10
74.2649
20
-120.904
11
73.4615
21
-120.904
0
LINE
8
0
10
72.9615
20
-121.404
11
72.9615
21
-121.5724
0
LINE
8
0
10
72.4615
20
-122.0724
11
70.4135
21
-122.0724
0
LINE
8
0
10
69.9135
20
-121.5724
11
69.9135
21
-121.404
0
LINE
8
0
10
69.4135
20
-120.904
11
68.6101
21
-120.904
0
LINE
8
0
10
68.1101
20
-120.404
11
68.1101
21
-115.308
0
LINE
8
0
10
67.6101
20
-114.808
11
67.2465
21
-114.808
0
LINE
8
0
10
67.2465
20
-114.808
11
67.2465
21
-112.514
0
LINE
8
0
10
67.7465
20
-112.014
11
68.1101
21
-112.014
0
LINE
8
0
10
68.1101
20
-112.014
11
68.1101
21
-109.1104
0
ARC
8
0
10
74.2649
20
-109.1104
40
0.5
50
0
51
90
0
ARC
8
0
10
75.2649
20
-111.5
40
0.5
50
180
51
270
0
ARC
8
0
10
75.2649
20
-117.1
40
0.5
50
90
51
180
0
ARC
8
0
10
74.2649
20
-120.404
40
0.5
50
270
51
0
0
ARC
8
0
10
73.4615
20
-121.404
40
0.5
50
90
51
180
0
ARC
8
0
10
72.4615
20
-121.5724
40
0.5
50
270
51
0
0
ARC
8
0
10
70.4135
20
-121.5724
40
0.5
50
180
51
270
0
ARC
8
0
10
69.4135
20
-121.404
40
0.5
50
0
51
90
0
ARC
8
0
10
68.6101
20
-120.404
40
0.5
50
180
51
270
0
ARC
8
0
10
67.6101
20
-115.308
40
0.5
50
0
51
90
0
ARC
8
0
10
67.7465
20
-112.514
40
0.5
50
90
51
180
0
ARC
8
0
10
68.6101
20
-109.1104
40
0.5
50
90
51
180
0
LINE
8
0
10
188.5649
20
-108.6104
11
182.9101
21
-108.6104
0
LINE
8
0
10
182.4101
20
-109.1104
11
182.4101
21
-111.5
0
LINE
8
0
10
181.9101
20
-112
11
128.5875
21
-112
0
LINE
8
0
10
128.5875
20
-116.6
11
181.9101
21
-116.6
0
LINE
8
0
10
182.4101
20
-117.1
11
182.4101
21
-120.404
0
LINE
8
0
10
182.9101
20
-120.904
11
183.7135
21
-120.904
0
LINE
8
0
10
184.2135
20
-121.404
11
184.2135
21
-121.5724
0
LINE
8
0
10
184.7135
20
-122.0724
11
186.7615
21
-122.0724
0
LINE
8
0
10
187.2615
20
-121.5724
11
187.2615
21
-121.404
0
LINE
8
0
10
187.7615
20
-120.904
11
188.5649
21
-120.904
0
LINE
8
0
10
189.0649
20
-120.404
11
189.0649
21
-115.308
0
LINE
8
0
10
189.5649
20
-114.808
11
189.9285
21
-114.808
0
LINE
8
0
10
189.9285
20
-114.808
11
189.9285
21
-112.514
0
LINE
8
0
10
189.4285
20
-112.014
11
189.0649
21
-112.014
0
LINE
8
0
10
189.0649
20
-112.014
11
189.0649
21
-109.1104
0
ARC
8
0
10
182.9101
20
-109.1104
40
0.5
50
90
51
180
0
ARC
8
0
10
181.9101
20
-111.5
40
0.5
50
270
51
0
0
ARC
8
0
10
181.9101
20
-117.1
40
0.5
50
0
51
90
0
ARC
8
0
10
182.9101
20
-120.404
40
0.5
50
180
51
270
0
ARC
8
0
10
183.7135
20
-121.404
40
0.5
50
0
51
90
0
ARC
8
0
10
184.7135
20
-121.5724
40
0.5
50
180
51
270
0
ARC
8
0
10
186.7615
20
-121.5724
40
0.5
50
270
51
0
0
ARC
8
0
10
187.7615
20
-121.404
40
0.5
50
90
51
180
0
ARC
8
0
10
188.5649
20
-120.404
40
0.5
50
270
51
0
0
ARC
8
0
10
189.5649
20
-115.308
40
0.5
50
90
51
180
0
ARC
8
0
10
189.4285
20
-112.514
40
0.5
50
0
51
90
0
ARC
8
0
10
188.5649
20
-109.1104
40
0.5
50
0
51
90
0
LINE
8
0
10
200.66875
20
-107.3
11
213.66875
21
-107.3
0
LINE
8
0
10
200.66875
20
-121.3
11
213.66875
21
-121.3
0
LINE
8
0
10
200.16875
20
-107.8
11
200.16875
21
-120.8
0
LINE
8
0
10
214.16875
20
-107.8
11
214.16875
21
-120.8
0
ARC
8
0
10
200.66875
20
-107.8
40
0.5
50
90
51
180
0
ARC
8
0
10
213.66875
20
-107.8
40
0.5
50
0
51
90
0
ARC
8
0
10
200.66875
20
-120.8
40
0.5
50
180
51
270
0
ARC
8
0
10
213.66875
20
-120.8
40
0.5
50
270
51
0
0
LINE
8
0
10
224.48125
20
-107.3
11
237.48125
21
-107.3
0
LINE
8
0
10
224.48125
20
-121.3
11
237.48125
21
-121.3
0
LINE
8
0
10
223.98125
20
-107.8
11
223.98125
21
-120.8
0
LINE
8
0
10
237.98125
20
-107.8
11
237.98125
21
-120.8
0
ARC
8
0
10
224.48125
20
-107.8
40
0.5
50
90
51
180
0
ARC
8
0
10
237.48125
20
-107.8
40
0.5
50
0
51
90
0
ARC
8
0
10
224.48125
20
-120.8
40
0.5
50
180
51
270
0
ARC
8
0
10
237.48125
20
-120.8
40
0.5
50
270
51
0
0
LINE
8
0
10
260.2
20
-107.3
11
273.2
21
-107.3
0
LINE
8
0
10
260.2
20
-121.3
11
273.2
21
-121.3
0
LINE
8
0
10
259.7
20
-107.8
11
259.7
21
-120.8
0
LINE
8
0
10
273.7
20
-107.8
11
273.7
21
-120.8
0
ARC
8
0
10
260.2
20
-107.8
40
0.5
50
90
51
180
0
ARC
8
0
10
273.2
20
-107.8
40
0.5
50
0
51
90
0
ARC
8
0
10
260.2
20
-120.8
40
0.5
50
180
51
270
0
ARC
8
0
10
273.2
20
-120.8
40
0.5
50
270
51
0
0
LINE
8
0
10
279.25
20
-107.3
11
292.25
21
-107.3
0
LINE
8
0
10
279.25
20
-121.3
11
292.25
21
-121.3
0
LINE
8
0
10
278.75
20
-107.8
11
278.75
21
-120.8
0
LINE
8
0
10
292.75
20
-107.8
11
292.75
21
-120.8
0
ARC
8
0
10
279.25
20
-107.8
40
0.5
50
90
51
180
0
ARC
8
0
10
292.25
20
-107.8
40
0.5
50
0
51
90
0
ARC
8
0
10
279.25
20
-120.8
40
0.5
50
180
51
270
0
ARC
8
0
10
292.25
20
-120.8
40
0.5
50
270
51
0
0
LINE
8
0
10
298.3
20
-107.3
11
311.3
21
-107.3
0
LINE
8
0
10
298.3
20
-121.3
11
311.3
21
-121.3
0
LINE
8
0
10
297.8
20
-107.8
11
297.8
21
-120.8
0
LINE
8
0
10
311.8
20
-107.8
11
311.8
21
-120.8
0
ARC
8
0
10
298.3
20
-107.8
40
0.5
50
90
51
180
0
ARC
8
0
10
311.3
20
-107.8
40
0.5
50
0
51
90
0
ARC
8
0
10
298.3
20
-120.8
40
0.5
50
180
51
270
0
ARC
8
0
10
311.3
20
-120.8
40
0.5
50
270
51
0
0
LINE
8
0
10
0
20
-123.825
11
314.325
21
-123.825
0
LINE
8
0
10
0
20
0
11
314.325
21
0
0
LINE
8
0
10
0
20
-123.825
11
0
21
0
0
LINE
8
0
10
314.325
20
-123.825
11
314.325
21
0
0
ENDSEC
0
EOF