M48
; DRILL file {KiCad (6.0.2)} date Thu Feb 17 23:22:52 2022
; FORMAT={-:-/ absolute / metric / decimal}
; #@! TF.CreationDate,2022-02-17T23:22:52+01:00
; #@! TF.GenerationSoftware,Kicad,Pcbnew,(6.0.2)
; #@! TF.FileFunction,Plated,1,2,PTH
FMAT,2
METRIC
; #@! TA.AperFunction,Plated,PTH,ViaDrill
T1C0.400
; #@! TA.AperFunction,Plated,PTH,ComponentDrill
T2C0.600
; #@! TA.AperFunction,Plated,PTH,ComponentDrill
T3C1.470
%
G90
G05
T1
X30.956Y-100.012
X52.387Y-99.219
X73.025Y-98.425
X91.281Y-97.631
X110.331Y-96.837
X129.381Y-96.044
X147.637Y-97.631
X148.431Y-95.25
X167.481Y-94.456
X186.531Y-100.012
X190.5Y-26.976
X191.294Y-35.719
X195.262Y-26.987
X209.55Y-99.219
X219.075Y-96.837
X224.631Y-98.425
X242.887Y-96.044
X245.269Y-97.631
X265.113Y-91.281
X279.4Y-92.869
X288.925Y-90.487
X292.894Y-92.075
X296.069Y-84.138
X305.5Y-81.2
X306.387Y-88.9
X306.387Y-90.487
X307.181Y-54.769
X307.181Y-67.469
X307.5Y-33.675
X307.5Y-34.725
X307.975Y-76.994
X307.975Y-90.487
X307.975Y-92.075
X308.769Y-73.025
X308.769Y-74.612
X309.5Y-69.4
X309.562Y-61.119
X309.562Y-76.994
X309.562Y-78.581
X309.562Y-100.806
X310.356Y-61.912
X310.356Y-73.025
X311.15Y-78.581
X311.775Y-49.7
X312.825Y-49.7
X313.1Y-83.2
X314.2Y-84.3
X314.325Y-80.962
X315.119Y-79.375
X315.619Y-76.981
X317.5Y-96.044
X317.5Y-97.631
X317.7Y-74.6
X318.972Y-86.403
X319.087Y-97.631
X319.087Y-99.219
X321.469Y-88.106
X322.0Y-73.2
X323.787Y-86.142
X325.7Y-87.1
X327.552Y-76.806
X327.552Y-77.856
X327.924Y-88.106
X328.641Y-88.904
X328.875Y-69.0
X329.406Y-88.106
X329.925Y-69.0
X330.2Y-88.9
X335.756Y-79.375
X336.55Y-78.581
T3
X27.146Y-28.416
X29.527Y-85.566
X29.527Y-104.616
X31.909Y-47.466
X33.496Y-25.876
X34.29Y-66.516
X35.877Y-83.026
X35.877Y-102.076
X38.259Y-44.926
X40.64Y-63.976
X46.196Y-28.416
X50.959Y-85.566
X52.546Y-25.876
X53.34Y-104.616
X55.721Y-47.466
X57.309Y-83.026
X59.69Y-102.076
X60.484Y-66.516
X62.071Y-44.926
X65.246Y-28.416
X66.834Y-63.976
X70.009Y-85.566
X71.596Y-25.876
X74.771Y-47.466
X76.359Y-83.026
X77.153Y-104.616
X79.534Y-66.516
X81.121Y-44.926
X83.502Y-102.076
X84.296Y-28.416
X85.884Y-63.976
X89.059Y-85.566
X90.646Y-25.876
X93.821Y-47.466
X95.409Y-83.026
X98.584Y-66.516
X100.171Y-44.926
X103.346Y-28.416
X104.934Y-63.976
X108.109Y-85.566
X109.696Y-25.876
X112.871Y-47.466
X114.459Y-83.026
X117.634Y-66.516
X119.221Y-44.926
X122.396Y-28.416
X123.984Y-63.976
X127.159Y-85.566
X128.746Y-25.876
X131.921Y-47.466
X133.509Y-83.026
X136.684Y-66.516
X138.271Y-44.926
X141.446Y-28.416
X143.034Y-63.976
X146.209Y-85.566
X147.796Y-25.876
X148.59Y-104.616
X150.971Y-47.466
X152.559Y-83.026
X154.94Y-102.076
X155.734Y-66.516
X157.321Y-44.926
X160.496Y-28.416
X162.084Y-63.976
X165.259Y-85.566
X166.846Y-25.876
X170.021Y-47.466
X171.609Y-83.026
X174.784Y-66.516
X176.371Y-44.926
X179.546Y-28.416
X181.134Y-63.976
X184.309Y-85.566
X185.896Y-25.876
X189.071Y-47.466
X190.659Y-83.026
X193.834Y-66.516
X195.421Y-44.926
X198.596Y-28.416
X200.184Y-63.976
X203.359Y-85.566
X204.946Y-25.876
X208.121Y-47.466
X209.709Y-83.026
X212.884Y-66.516
X214.471Y-44.926
X217.646Y-28.416
X219.234Y-63.976
X220.028Y-104.616
X222.409Y-85.566
X223.996Y-25.876
X226.377Y-102.076
X227.171Y-47.466
X228.759Y-83.026
X231.934Y-66.516
X233.521Y-44.926
X236.696Y-28.416
X238.284Y-63.976
X241.459Y-85.566
X243.046Y-25.876
X243.84Y-104.616
X246.221Y-47.466
X247.809Y-83.026
X250.19Y-102.076
X250.984Y-66.516
X252.571Y-44.926
X255.746Y-28.416
X257.334Y-63.976
X262.096Y-25.876
X265.271Y-47.466
X267.652Y-104.616
X270.034Y-66.516
X271.621Y-44.926
X274.002Y-102.076
X276.384Y-63.976
X277.178Y-85.566
X283.527Y-83.026
X284.321Y-28.416
X290.671Y-25.876
X291.465Y-56.991
X291.465Y-104.616
X297.815Y-54.451
X297.815Y-102.076
X322.421Y-28.416
X322.421Y-47.466
X322.421Y-104.616
X328.771Y-25.876
X328.771Y-44.926
X328.771Y-102.076
X341.471Y-28.416
X341.471Y-47.466
X341.471Y-85.566
X341.471Y-104.616
X347.821Y-25.876
X347.821Y-44.926
X347.821Y-83.026
X347.821Y-102.076
X360.521Y-28.416
X360.521Y-47.466
X360.521Y-104.616
X366.871Y-25.876
X366.871Y-44.926
X366.871Y-102.076
T2
G00X188.561Y-20.126
M15
G01X188.561Y-20.726
M16
G05
G00X188.561Y-24.056
M15
G01X188.561Y-25.156
M16
G05
G00X197.201Y-20.126
M15
G01X197.201Y-20.726
M16
G05
G00X197.201Y-24.056
M15
G01X197.201Y-25.156
M16
G05
T0
M30
