M48
; DRILL file {KiCad (6.0.2)} date Fri Mar 25 15:30:47 2022
; FORMAT={-:-/ absolute / inch / decimal}
; #@! TF.CreationDate,2022-03-25T15:30:47+01:00
; #@! TF.GenerationSoftware,Kicad,Pcbnew,(6.0.2)
; #@! TF.FileFunction,Plated,1,2,PTH
FMAT,2
INCH
; #@! TA.AperFunction,Plated,PTH,ViaDrill
T1C0.0157
; #@! TA.AperFunction,Plated,PTH,ComponentDrill
T2C0.0236
; #@! TA.AperFunction,Plated,PTH,ComponentDrill
T3C0.0579
%
G90
G05
T1
X0.875Y-1.0153
X0.875Y-1.6708
X0.875Y-2.3273
X0.875Y-2.9838
X0.875Y-3.6393
X0.875Y-4.2958
X0.9025Y-1.0792
X0.9025Y-3.0487
X0.9025Y-3.7042
X0.9026Y-1.7357
X0.9026Y-2.3912
X0.9035Y-4.3607
X0.9301Y-1.1383
X0.9301Y-1.7948
X0.9301Y-2.4503
X0.9311Y-3.7633
X0.9311Y-3.1078
X0.9311Y-4.4198
X0.9646Y-2.9532
X0.9646Y-3.6107
X0.9646Y-1.6403
X0.9646Y-2.2958
X1.0196Y-3.595
X1.0354Y-2.9336
X1.0511Y-2.2781
X1.0669Y-1.6245
X1.0797Y-0.9306
X1.1388Y-0.903
X1.1713Y-4.5615
X1.1732Y-1.3606
X1.187Y-1.4788
X1.2047Y-0.8755
X1.2188Y-3.9375
X1.2362Y-4.534
X1.2943Y-4.5064
X1.3406Y-1.3606
X1.3557Y-1.4946
X1.6004Y-1.221
X1.7598Y-4.0025
X1.8612Y-0.9306
X1.9203Y-0.903
X1.9528Y-4.5625
X1.9744Y-1.0143
X1.9852Y-0.8755
X2.0177Y-4.535
X2.0625Y-3.9062
X2.0768Y-4.5074
X2.1043Y-1.5103
X2.3602Y-1.221
X2.6437Y-0.9316
X2.7008Y-4.0025
X2.7018Y-0.903
X2.7018Y-4.5625
X2.75Y-1.0477
X2.7667Y-4.535
X2.7667Y-0.8755
X2.8257Y-4.5074
X2.8563Y-1.526
X2.875Y-3.875
X3.1142Y-1.221
X3.4232Y-0.9316
X3.4823Y-0.9031
X3.4833Y-4.5625
X3.4922Y-1.0457
X3.5472Y-0.8755
X3.5482Y-4.535
X3.5938Y-3.8438
X3.6063Y-1.5417
X3.6073Y-4.5074
X3.6339Y-4.0025
X3.8504Y-1.2249
X4.2057Y-0.9306
X4.2333Y-4.5625
X4.2618Y-1.0652
X4.2638Y-0.903
X4.2982Y-4.535
X4.3287Y-0.8755
X4.3438Y-3.8125
X4.3563Y-1.5575
X4.3573Y-4.5074
X4.5945Y-1.2249
X4.9843Y-4.5625
X4.9862Y-0.9306
X5.0453Y-0.903
X5.0482Y-4.535
X5.0938Y-3.7812
X5.1083Y-4.5074
X5.1102Y-0.8755
X5.2854Y-1.0576
X5.3012Y-1.5733
X5.6949Y-4.6048
X5.7126Y-0.9847
X5.763Y-1.3757
X5.7648Y-4.5625
X5.7677Y-0.9306
X5.811Y-1.3666
X5.811Y-1.406
X5.8125Y-3.8438
X5.8268Y-0.9031
X5.8287Y-4.535
X5.8438Y-3.75
X5.8594Y-1.4367
X5.8596Y-1.3973
X5.8888Y-4.5074
X5.8917Y-0.8755
X5.9075Y-1.4276
X5.9075Y-1.467
X5.937Y-4.6048
X5.9506Y-1.4629
X5.9508Y-1.5025
X5.9998Y-1.4924
X6.0Y-1.532
X6.0453Y-3.6422
X6.047Y-1.5239
X6.0965Y-1.217
X6.0984Y-1.0103
X6.3051Y-2.3194
X6.3051Y-3.0182
X6.4114Y-4.3135
X6.4409Y-4.2111
X6.4665Y-4.3292
X6.4803Y-4.2387
X6.5Y-4.0312
X6.5138Y-4.2702
X6.5256Y-4.3449
X6.5463Y-4.5625
X6.5482Y-0.9306
X6.5743Y-4.3235
X6.5938Y-3.7188
X6.5938Y-4.125
X6.6043Y-4.3489
X6.6073Y-0.903
X6.6112Y-4.535
X6.6634Y-4.3489
X6.6703Y-4.5074
X6.6722Y-0.8755
X6.6875Y-4.125
X6.7028Y-0.9749
X6.7106Y-1.3646
X6.7697Y-4.4355
X6.7972Y-4.4798
X6.8032Y-4.2544
X6.813Y-1.1147
X6.8268Y-4.2859
X6.8346Y-4.2269
X6.8406Y-4.4375
X6.8668Y-4.293
X6.8957Y-4.0753
X6.8957Y-4.2662
X6.9232Y-4.2977
X6.937Y-1.28
X6.9744Y-4.2525
X6.9803Y-4.3017
X7.0173Y-4.2737
X7.0198Y-4.2323
X7.0903Y-4.1717
X7.0906Y-3.9985
X7.1063Y-4.4395
X7.1122Y-0.9306
X7.1153Y-4.3283
X7.1555Y-1.6914
X7.1713Y-0.903
X7.1949Y-4.4237
X7.1992Y-1.6242
X7.2146Y-4.2151
X7.2146Y-4.2623
X7.2264Y-3.9985
X7.2282Y-4.4511
X7.2343Y-1.0753
X7.2372Y-0.8755
X7.248Y-4.0733
X7.252Y-4.4198
X7.2657Y-4.2623
X7.3268Y-4.5625
X7.3386Y-1.3804
X7.3438Y-3.9375
X7.3445Y-4.3726
X7.3769Y-4.1954
X7.3917Y-4.535
X7.3974Y-4.388
X7.4252Y-4.4159
X7.4518Y-4.5074
X7.5Y-1.062
X7.5Y-1.2899
X7.5256Y-4.1147
X7.5312Y-4.0312
X7.5938Y-4.375
X7.622Y-4.217
X7.6562Y-4.125
X7.6875Y-1.0625
X7.75Y-4.2446
X7.75Y-4.3125
X7.752Y-4.2013
X7.9262Y-0.9306
X7.9823Y-0.903
X7.9902Y-1.0576
X8.0482Y-0.8755
X8.0965Y-1.4926
X8.1083Y-4.5625
X8.1605Y-4.535
X8.2313Y-4.5074
X8.25Y-3.9062
X8.2972Y-1.3017
X8.2972Y-1.3833
X8.2972Y-1.6816
X8.625Y-3.8125
X8.7047Y-0.9306
X8.756Y-1.0594
X8.7638Y-0.903
X8.8297Y-0.8755
X8.8425Y-1.5084
X8.8438Y-3.875
X8.8888Y-4.5625
X8.9547Y-4.535
X9.0138Y-4.5074
X9.1161Y-1.2151
X9.1161Y-1.3863
X9.5168Y-0.9306
X9.5625Y-3.7812
X9.5768Y-0.903
X9.5965Y-1.5241
X9.6417Y-0.8755
X9.6562Y-3.8438
X9.6703Y-4.5625
X9.6713Y-0.9651
X9.7343Y-4.5349
X9.7933Y-4.5074
X9.9075Y-1.3017
X9.9075Y-1.3863
X9.9075Y-1.6698
X10.2067Y-4.0084
X10.2067Y-4.2328
X10.3297Y-0.9306
X10.3405Y-1.5398
X10.3839Y-0.971
X10.3888Y-0.903
X10.4375Y-3.5938
X10.4537Y-0.8755
X10.4833Y-4.5625
X10.5482Y-4.5349
X10.563Y-1.154
X10.563Y-1.3686
X10.563Y-1.6816
X10.6073Y-4.5074
X11.0Y-3.6562
X11.1673Y-1.8627
X11.1732Y-0.9306
X11.1831Y-2.1914
X11.2188Y-2.1661
X11.2323Y-0.903
X11.2648Y-4.5625
X11.2972Y-0.8755
X11.3278Y-4.5349
X11.375Y-3.5625
X11.3805Y-1.0589
X11.3888Y-4.5074
X11.4567Y-2.4178
X11.4705Y-1.5753
X11.5312Y-3.625
X11.6562Y-3.3125
X11.7008Y-2.7682
X11.7559Y-1.219
X11.9272Y-2.1265
X11.9862Y-0.9306
X12.0157Y-1.0536
X12.0157Y-1.695
X12.0276Y-3.1969
X12.0295Y-3.3332
X12.0453Y-0.903
X12.0463Y-4.5625
X12.061Y-1.408
X12.0625Y-3.5
X12.0625Y-3.5625
X12.0938Y-2.6562
X12.0984Y-1.3027
X12.0984Y-1.344
X12.1102Y-0.8755
X12.1103Y-4.535
X12.125Y-3.0312
X12.125Y-3.5625
X12.125Y-3.625
X12.1562Y-1.4087
X12.1562Y-2.4363
X12.1562Y-2.875
X12.1562Y-2.9375
X12.1693Y-4.5074
X12.185Y-2.7323
X12.1875Y-1.438
X12.1875Y-3.0312
X12.1875Y-3.0938
X12.1875Y-3.9688
X12.2188Y-2.4375
X12.2188Y-2.875
X12.25Y-3.0938
X12.2746Y-1.9567
X12.2815Y-3.7013
X12.3159Y-1.9567
X12.3268Y-3.2756
X12.3307Y-2.7958
X12.3642Y-3.3292
X12.375Y-3.1875
X12.3917Y-2.6737
X12.4062Y-3.125
X12.4259Y-3.0308
X12.4882Y-1.3194
X12.5Y-3.7812
X12.5Y-3.8438
X12.5079Y-2.937
X12.5157Y-2.2997
X12.558Y-3.4017
X12.5625Y-3.8438
X12.5625Y-3.9062
X12.626Y-2.9094
X12.6319Y-3.3174
X12.659Y-3.3489
X12.6791Y-2.7269
X12.6909Y-2.8922
X12.7185Y-2.8233
X12.7367Y-2.9119
X12.7475Y-3.3901
X12.752Y-3.78
X12.7776Y-2.841
X12.7992Y-0.9306
X12.8228Y-3.4291
X12.8278Y-4.5625
X12.8484Y-2.8253
X12.8573Y-0.9031
X12.878Y-1.0556
X12.8917Y-4.535
X12.9104Y-3.4688
X12.9116Y-3.0239
X12.9116Y-3.0652
X12.9222Y-0.8755
X12.9272Y-2.8253
X12.9386Y-3.5002
X12.9478Y-2.7165
X12.9498Y-4.5074
X12.9685Y-1.656
X12.9688Y-3.4688
X12.9892Y-2.7165
X13.0Y-3.5
X13.0138Y-3.1718
X13.0374Y-3.3174
X13.0453Y-2.9729
X13.0689Y-3.3489
X13.0807Y-3.2269
X13.122Y-2.8922
X13.128Y-4.0753
X13.1555Y-3.1442
X13.2087Y-1.3194
X13.2188Y-3.125
X13.25Y-3.0938
X13.5625Y-4.0312
X13.5797Y-0.9306
X13.6102Y-4.5625
X13.6335Y-1.0619
X13.6388Y-0.903
X13.6732Y-4.535
X13.7037Y-0.8755
X13.7323Y-4.5074
X13.7498Y-1.6719
X13.8366Y-1.9099
X13.8445Y-3.4178
X13.8484Y-1.6875
X13.8563Y-4.0556
X13.8799Y-3.1914
X13.9646Y-4.3017
X13.9926Y-4.0551
X14.0591Y-1.4237
X14.0906Y-1.8292
X14.1398Y-0.9985
X14.3406Y-1.4237
X14.3563Y-2.8824
X14.3612Y-0.9306
X14.3898Y-4.5625
X14.4203Y-0.903
X14.4213Y-2.1777
X14.4557Y-4.535
X14.4852Y-0.8755
X14.5148Y-4.5074
X14.6319Y-0.9857
X14.6319Y-2.2987
X14.6319Y-1.6422
X14.6319Y-2.9543
X14.6319Y-3.6107
X14.6319Y-4.2672
X14.6594Y-1.0448
X14.6594Y-1.7013
X14.6594Y-2.3578
X14.6594Y-3.0143
X14.6594Y-3.6698
X14.6594Y-4.3273
X14.687Y-1.1097
X14.687Y-1.7662
X14.687Y-2.4227
X14.687Y-3.0792
X14.687Y-3.7347
X14.687Y-4.3922
T3
X1.0687Y-1.1187
X1.1625Y-3.3687
X1.1625Y-4.1187
X1.2562Y-1.8687
X1.3187Y-1.0188
X1.35Y-2.6187
X1.4125Y-3.2687
X1.4125Y-4.0187
X1.5062Y-1.7688
X1.5375Y-3.3687
X1.6Y-2.5187
X1.7875Y-3.2687
X1.8187Y-1.1187
X2.0063Y-3.3687
X2.0688Y-1.0188
X2.1Y-4.1187
X2.1938Y-1.8687
X2.2563Y-3.2687
X2.35Y-4.0187
X2.3813Y-2.6187
X2.4438Y-1.7688
X2.5688Y-1.1187
X2.6313Y-2.5187
X2.7563Y-3.3687
X2.8188Y-1.0188
X2.9438Y-1.8687
X3.0063Y-3.2687
X3.0375Y-4.1187
X3.1313Y-2.6187
X3.1938Y-1.7688
X3.2875Y-4.0187
X3.3188Y-1.1187
X3.3813Y-2.5187
X3.5063Y-3.3687
X3.5688Y-1.0188
X3.6938Y-1.8687
X3.7563Y-3.2687
X3.8813Y-2.6187
X3.9438Y-1.7688
X4.0687Y-1.1187
X4.1312Y-2.5187
X4.2562Y-3.3687
X4.3187Y-1.0188
X4.4437Y-1.8687
X4.5062Y-3.2687
X4.6312Y-2.6187
X4.6937Y-1.7688
X4.8187Y-1.1187
X4.8812Y-2.5187
X5.0062Y-3.3687
X5.0687Y-1.0188
X5.1937Y-1.8687
X5.2562Y-3.2687
X5.3812Y-2.6187
X5.4437Y-1.7688
X5.5687Y-1.1187
X5.6312Y-2.5187
X5.7562Y-3.3687
X5.8187Y-1.0188
X5.85Y-4.1187
X5.9437Y-1.8687
X6.0062Y-3.2687
X6.1Y-4.0187
X6.1312Y-2.6187
X6.1937Y-1.7688
X6.3187Y-1.1187
X6.3812Y-2.5187
X6.5062Y-3.3687
X6.5687Y-1.0188
X6.6937Y-1.8687
X6.7562Y-3.2687
X6.8812Y-2.6187
X6.9437Y-1.7688
X7.0687Y-1.1187
X7.1312Y-2.5187
X7.2562Y-3.3687
X7.3187Y-1.0188
X7.4437Y-1.8687
X7.5062Y-3.2687
X7.6312Y-2.6187
X7.6937Y-1.7688
X7.8187Y-1.1187
X7.8812Y-2.5187
X8.0062Y-3.3687
X8.0687Y-1.0188
X8.1937Y-1.8687
X8.2562Y-3.2687
X8.3812Y-2.6187
X8.4437Y-1.7688
X8.5687Y-1.1187
X8.6312Y-2.5187
X8.6625Y-4.1187
X8.7562Y-3.3687
X8.8187Y-1.0188
X8.9125Y-4.0187
X8.9437Y-1.8687
X9.0062Y-3.2687
X9.1312Y-2.6187
X9.1937Y-1.7688
X9.3187Y-1.1187
X9.3812Y-2.5187
X9.5062Y-3.3687
X9.5687Y-1.0188
X9.6Y-4.1187
X9.6937Y-1.8687
X9.7562Y-3.2687
X9.85Y-4.0187
X9.8812Y-2.6187
X9.9437Y-1.7688
X10.0687Y-1.1187
X10.1312Y-2.5187
X10.3187Y-1.0188
X10.4437Y-1.8687
X10.5375Y-4.1187
X10.6312Y-2.6187
X10.6937Y-1.7688
X10.7875Y-4.0187
X10.8812Y-2.5187
X10.9125Y-3.3687
X11.1Y-2.6187
X11.1625Y-3.2687
X11.1937Y-1.1187
X11.35Y-2.5187
X11.3812Y-1.8687
X11.4437Y-1.0188
X11.475Y-4.1187
X11.6312Y-1.7688
X11.725Y-2.1938
X11.725Y-4.0187
X11.825Y-2.4438
X12.6937Y-1.1187
X12.6937Y-1.8687
X12.6937Y-4.1187
X12.9437Y-1.0188
X12.9437Y-1.7688
X12.9437Y-4.0187
X13.4437Y-1.1187
X13.4437Y-1.8687
X13.4437Y-3.3687
X13.4437Y-4.1187
X13.6937Y-1.0188
X13.6937Y-1.7688
X13.6937Y-3.2687
X13.6937Y-4.0187
X14.1937Y-1.1187
X14.1937Y-1.8687
X14.1937Y-4.1187
X14.4437Y-1.0188
X14.4437Y-1.7688
X14.4437Y-4.0187
T2
G00X7.4237Y-0.7924
M15
G01X7.4237Y-0.816
M16
G05
G00X7.4237Y-0.9471
M15
G01X7.4237Y-0.9904
M16
G05
G00X7.7638Y-0.7924
M15
G01X7.7638Y-0.816
M16
G05
G00X7.7638Y-0.9471
M15
G01X7.7638Y-0.9904
M16
G05
T0
M30
