G04 #@! TF.GenerationSoftware,KiCad,Pcbnew,(6.0.2)*
G04 #@! TF.CreationDate,2022-02-23T21:49:20+01:00*
G04 #@! TF.ProjectId,Frooastboard Walnut,46726f6f-6173-4746-926f-617264205761,rev?*
G04 #@! TF.SameCoordinates,Original*
G04 #@! TF.FileFunction,Legend,Bot*
G04 #@! TF.FilePolarity,Positive*
%FSLAX46Y46*%
G04 Gerber Fmt 4.6, Leading zero omitted, Abs format (unit mm)*
G04 Created by KiCad (PCBNEW (6.0.2)) date 2022-02-23 21:49:20*
%MOMM*%
%LPD*%
G01*
G04 APERTURE LIST*
G04 Aperture macros list*
%AMRoundRect*
0 Rectangle with rounded corners*
0 $1 Rounding radius*
0 $2 $3 $4 $5 $6 $7 $8 $9 X,Y pos of 4 corners*
0 Add a 4 corners polygon primitive as box body*
4,1,4,$2,$3,$4,$5,$6,$7,$8,$9,$2,$3,0*
0 Add four circle primitives for the rounded corners*
1,1,$1+$1,$2,$3*
1,1,$1+$1,$4,$5*
1,1,$1+$1,$6,$7*
1,1,$1+$1,$8,$9*
0 Add four rect primitives between the rounded corners*
20,1,$1+$1,$2,$3,$4,$5,0*
20,1,$1+$1,$4,$5,$6,$7,0*
20,1,$1+$1,$6,$7,$8,$9,0*
20,1,$1+$1,$8,$9,$2,$3,0*%
G04 Aperture macros list end*
%ADD10C,0.150000*%
%ADD11C,0.120000*%
%ADD12C,3.200000*%
%ADD13C,1.750000*%
%ADD14C,3.987800*%
%ADD15C,2.250000*%
%ADD16C,3.048000*%
%ADD17C,2.000000*%
%ADD18RoundRect,0.243750X0.456250X-0.243750X0.456250X0.243750X-0.456250X0.243750X-0.456250X-0.243750X0*%
%ADD19R,1.100000X1.800000*%
%ADD20RoundRect,0.250000X0.450000X-0.262500X0.450000X0.262500X-0.450000X0.262500X-0.450000X-0.262500X0*%
%ADD21RoundRect,0.062500X0.475000X0.062500X-0.475000X0.062500X-0.475000X-0.062500X0.475000X-0.062500X0*%
%ADD22RoundRect,0.062500X0.062500X0.475000X-0.062500X0.475000X-0.062500X-0.475000X0.062500X-0.475000X0*%
%ADD23R,5.200000X5.200000*%
%ADD24RoundRect,0.250000X-0.475000X0.250000X-0.475000X-0.250000X0.475000X-0.250000X0.475000X0.250000X0*%
%ADD25RoundRect,0.243750X0.243750X0.456250X-0.243750X0.456250X-0.243750X-0.456250X0.243750X-0.456250X0*%
%ADD26C,0.650000*%
%ADD27R,0.600000X1.450000*%
%ADD28R,0.300000X1.450000*%
%ADD29RoundRect,0.250000X-0.262500X-0.450000X0.262500X-0.450000X0.262500X0.450000X-0.262500X0.450000X0*%
%ADD30R,1.400000X1.200000*%
%ADD31RoundRect,0.250000X0.475000X-0.250000X0.475000X0.250000X-0.475000X0.250000X-0.475000X-0.250000X0*%
%ADD32RoundRect,0.250000X0.250000X0.475000X-0.250000X0.475000X-0.250000X-0.475000X0.250000X-0.475000X0*%
%ADD33RoundRect,0.250000X-0.250000X-0.475000X0.250000X-0.475000X0.250000X0.475000X-0.250000X0.475000X0*%
G04 APERTURE END LIST*
D10*
X371752678Y-116609821D02*
X372086011Y-116609821D01*
X372086011Y-117133630D02*
X372086011Y-116133630D01*
X371609821Y-116133630D01*
X371228869Y-117133630D02*
X371228869Y-116133630D01*
X370752678Y-117133630D02*
X370752678Y-116133630D01*
X370514583Y-116133630D01*
X370371726Y-116181250D01*
X370276488Y-116276488D01*
X370228869Y-116371726D01*
X370181250Y-116562202D01*
X370181250Y-116705059D01*
X370228869Y-116895535D01*
X370276488Y-116990773D01*
X370371726Y-117086011D01*
X370514583Y-117133630D01*
X370752678Y-117133630D01*
X369324107Y-116466964D02*
X369324107Y-117133630D01*
X369562202Y-116086011D02*
X369800297Y-116800297D01*
X369181250Y-116800297D01*
X176727380Y-82779464D02*
X175727380Y-82779464D01*
X175727380Y-83017559D01*
X175775000Y-83160416D01*
X175870238Y-83255654D01*
X175965476Y-83303273D01*
X176155952Y-83350892D01*
X176298809Y-83350892D01*
X176489285Y-83303273D01*
X176584523Y-83255654D01*
X176679761Y-83160416D01*
X176727380Y-83017559D01*
X176727380Y-82779464D01*
X175727380Y-84208035D02*
X175727380Y-84017559D01*
X175775000Y-83922321D01*
X175822619Y-83874702D01*
X175965476Y-83779464D01*
X176155952Y-83731845D01*
X176536904Y-83731845D01*
X176632142Y-83779464D01*
X176679761Y-83827083D01*
X176727380Y-83922321D01*
X176727380Y-84112797D01*
X176679761Y-84208035D01*
X176632142Y-84255654D01*
X176536904Y-84303273D01*
X176298809Y-84303273D01*
X176203571Y-84255654D01*
X176155952Y-84208035D01*
X176108333Y-84112797D01*
X176108333Y-83922321D01*
X176155952Y-83827083D01*
X176203571Y-83779464D01*
X176298809Y-83731845D01*
X175727380Y-84636607D02*
X175727380Y-85303273D01*
X176727380Y-84874702D01*
X134052380Y-25629464D02*
X133052380Y-25629464D01*
X133052380Y-25867559D01*
X133100000Y-26010416D01*
X133195238Y-26105654D01*
X133290476Y-26153273D01*
X133480952Y-26200892D01*
X133623809Y-26200892D01*
X133814285Y-26153273D01*
X133909523Y-26105654D01*
X134004761Y-26010416D01*
X134052380Y-25867559D01*
X134052380Y-25629464D01*
X133385714Y-27058035D02*
X134052380Y-27058035D01*
X133004761Y-26819940D02*
X133719047Y-26581845D01*
X133719047Y-27200892D01*
X133052380Y-28010416D02*
X133052380Y-27819940D01*
X133100000Y-27724702D01*
X133147619Y-27677083D01*
X133290476Y-27581845D01*
X133480952Y-27534226D01*
X133861904Y-27534226D01*
X133957142Y-27581845D01*
X134004761Y-27629464D01*
X134052380Y-27724702D01*
X134052380Y-27915178D01*
X134004761Y-28010416D01*
X133957142Y-28058035D01*
X133861904Y-28105654D01*
X133623809Y-28105654D01*
X133528571Y-28058035D01*
X133480952Y-28010416D01*
X133433333Y-27915178D01*
X133433333Y-27724702D01*
X133480952Y-27629464D01*
X133528571Y-27581845D01*
X133623809Y-27534226D01*
X252927380Y-82779464D02*
X251927380Y-82779464D01*
X251927380Y-83017559D01*
X251975000Y-83160416D01*
X252070238Y-83255654D01*
X252165476Y-83303273D01*
X252355952Y-83350892D01*
X252498809Y-83350892D01*
X252689285Y-83303273D01*
X252784523Y-83255654D01*
X252879761Y-83160416D01*
X252927380Y-83017559D01*
X252927380Y-82779464D01*
X251927380Y-83684226D02*
X251927380Y-84303273D01*
X252308333Y-83969940D01*
X252308333Y-84112797D01*
X252355952Y-84208035D01*
X252403571Y-84255654D01*
X252498809Y-84303273D01*
X252736904Y-84303273D01*
X252832142Y-84255654D01*
X252879761Y-84208035D01*
X252927380Y-84112797D01*
X252927380Y-83827083D01*
X252879761Y-83731845D01*
X252832142Y-83684226D01*
X251927380Y-85160416D02*
X251927380Y-84969940D01*
X251975000Y-84874702D01*
X252022619Y-84827083D01*
X252165476Y-84731845D01*
X252355952Y-84684226D01*
X252736904Y-84684226D01*
X252832142Y-84731845D01*
X252879761Y-84779464D01*
X252927380Y-84874702D01*
X252927380Y-85065178D01*
X252879761Y-85160416D01*
X252832142Y-85208035D01*
X252736904Y-85255654D01*
X252498809Y-85255654D01*
X252403571Y-85208035D01*
X252355952Y-85160416D01*
X252308333Y-85065178D01*
X252308333Y-84874702D01*
X252355952Y-84779464D01*
X252403571Y-84731845D01*
X252498809Y-84684226D01*
X280114285Y-67814880D02*
X280114285Y-66814880D01*
X279876190Y-66814880D01*
X279733333Y-66862500D01*
X279638095Y-66957738D01*
X279590476Y-67052976D01*
X279542857Y-67243452D01*
X279542857Y-67386309D01*
X279590476Y-67576785D01*
X279638095Y-67672023D01*
X279733333Y-67767261D01*
X279876190Y-67814880D01*
X280114285Y-67814880D01*
X278685714Y-67148214D02*
X278685714Y-67814880D01*
X278923809Y-66767261D02*
X279161904Y-67481547D01*
X278542857Y-67481547D01*
X277733333Y-67148214D02*
X277733333Y-67814880D01*
X277971428Y-66767261D02*
X278209523Y-67481547D01*
X277590476Y-67481547D01*
X67189880Y-44679464D02*
X66189880Y-44679464D01*
X66189880Y-44917559D01*
X66237500Y-45060416D01*
X66332738Y-45155654D01*
X66427976Y-45203273D01*
X66618452Y-45250892D01*
X66761309Y-45250892D01*
X66951785Y-45203273D01*
X67047023Y-45155654D01*
X67142261Y-45060416D01*
X67189880Y-44917559D01*
X67189880Y-44679464D01*
X67189880Y-46203273D02*
X67189880Y-45631845D01*
X67189880Y-45917559D02*
X66189880Y-45917559D01*
X66332738Y-45822321D01*
X66427976Y-45727083D01*
X66475595Y-45631845D01*
X67189880Y-47155654D02*
X67189880Y-46584226D01*
X67189880Y-46869940D02*
X66189880Y-46869940D01*
X66332738Y-46774702D01*
X66427976Y-46679464D01*
X66475595Y-46584226D01*
X279121130Y-101829464D02*
X278121130Y-101829464D01*
X278121130Y-102067559D01*
X278168750Y-102210416D01*
X278263988Y-102305654D01*
X278359226Y-102353273D01*
X278549702Y-102400892D01*
X278692559Y-102400892D01*
X278883035Y-102353273D01*
X278978273Y-102305654D01*
X279073511Y-102210416D01*
X279121130Y-102067559D01*
X279121130Y-101829464D01*
X278121130Y-103305654D02*
X278121130Y-102829464D01*
X278597321Y-102781845D01*
X278549702Y-102829464D01*
X278502083Y-102924702D01*
X278502083Y-103162797D01*
X278549702Y-103258035D01*
X278597321Y-103305654D01*
X278692559Y-103353273D01*
X278930654Y-103353273D01*
X279025892Y-103305654D01*
X279073511Y-103258035D01*
X279121130Y-103162797D01*
X279121130Y-102924702D01*
X279073511Y-102829464D01*
X279025892Y-102781845D01*
X279121130Y-103829464D02*
X279121130Y-104019940D01*
X279073511Y-104115178D01*
X279025892Y-104162797D01*
X278883035Y-104258035D01*
X278692559Y-104305654D01*
X278311607Y-104305654D01*
X278216369Y-104258035D01*
X278168750Y-104210416D01*
X278121130Y-104115178D01*
X278121130Y-103924702D01*
X278168750Y-103829464D01*
X278216369Y-103781845D01*
X278311607Y-103734226D01*
X278549702Y-103734226D01*
X278644940Y-103781845D01*
X278692559Y-103829464D01*
X278740178Y-103924702D01*
X278740178Y-104115178D01*
X278692559Y-104210416D01*
X278644940Y-104258035D01*
X278549702Y-104305654D01*
X233877380Y-82779464D02*
X232877380Y-82779464D01*
X232877380Y-83017559D01*
X232925000Y-83160416D01*
X233020238Y-83255654D01*
X233115476Y-83303273D01*
X233305952Y-83350892D01*
X233448809Y-83350892D01*
X233639285Y-83303273D01*
X233734523Y-83255654D01*
X233829761Y-83160416D01*
X233877380Y-83017559D01*
X233877380Y-82779464D01*
X232972619Y-83731845D02*
X232925000Y-83779464D01*
X232877380Y-83874702D01*
X232877380Y-84112797D01*
X232925000Y-84208035D01*
X232972619Y-84255654D01*
X233067857Y-84303273D01*
X233163095Y-84303273D01*
X233305952Y-84255654D01*
X233877380Y-83684226D01*
X233877380Y-84303273D01*
X232877380Y-84636607D02*
X232877380Y-85303273D01*
X233877380Y-84874702D01*
X371989880Y-25629464D02*
X370989880Y-25629464D01*
X370989880Y-25867559D01*
X371037500Y-26010416D01*
X371132738Y-26105654D01*
X371227976Y-26153273D01*
X371418452Y-26200892D01*
X371561309Y-26200892D01*
X371751785Y-26153273D01*
X371847023Y-26105654D01*
X371942261Y-26010416D01*
X371989880Y-25867559D01*
X371989880Y-25629464D01*
X370989880Y-26534226D02*
X370989880Y-27200892D01*
X371989880Y-26772321D01*
X371989880Y-28105654D02*
X371989880Y-27534226D01*
X371989880Y-27819940D02*
X370989880Y-27819940D01*
X371132738Y-27724702D01*
X371227976Y-27629464D01*
X371275595Y-27534226D01*
X62427380Y-82779464D02*
X61427380Y-82779464D01*
X61427380Y-83017559D01*
X61475000Y-83160416D01*
X61570238Y-83255654D01*
X61665476Y-83303273D01*
X61855952Y-83350892D01*
X61998809Y-83350892D01*
X62189285Y-83303273D01*
X62284523Y-83255654D01*
X62379761Y-83160416D01*
X62427380Y-83017559D01*
X62427380Y-82779464D01*
X62427380Y-84303273D02*
X62427380Y-83731845D01*
X62427380Y-84017559D02*
X61427380Y-84017559D01*
X61570238Y-83922321D01*
X61665476Y-83827083D01*
X61713095Y-83731845D01*
X61427380Y-84636607D02*
X61427380Y-85255654D01*
X61808333Y-84922321D01*
X61808333Y-85065178D01*
X61855952Y-85160416D01*
X61903571Y-85208035D01*
X61998809Y-85255654D01*
X62236904Y-85255654D01*
X62332142Y-85208035D01*
X62379761Y-85160416D01*
X62427380Y-85065178D01*
X62427380Y-84779464D01*
X62379761Y-84684226D01*
X62332142Y-84636607D01*
X138752380Y-82785714D02*
X137752380Y-82785714D01*
X137752380Y-83023809D01*
X137800000Y-83166666D01*
X137895238Y-83261904D01*
X137990476Y-83309523D01*
X138180952Y-83357142D01*
X138323809Y-83357142D01*
X138514285Y-83309523D01*
X138609523Y-83261904D01*
X138704761Y-83166666D01*
X138752380Y-83023809D01*
X138752380Y-82785714D01*
X138085714Y-84214285D02*
X138752380Y-84214285D01*
X137704761Y-83976190D02*
X138419047Y-83738095D01*
X138419047Y-84357142D01*
X138752380Y-84785714D02*
X138752380Y-84976190D01*
X138704761Y-85071428D01*
X138657142Y-85119047D01*
X138514285Y-85214285D01*
X138323809Y-85261904D01*
X137942857Y-85261904D01*
X137847619Y-85214285D01*
X137800000Y-85166666D01*
X137752380Y-85071428D01*
X137752380Y-84880952D01*
X137800000Y-84785714D01*
X137847619Y-84738095D01*
X137942857Y-84690476D01*
X138180952Y-84690476D01*
X138276190Y-84738095D01*
X138323809Y-84785714D01*
X138371428Y-84880952D01*
X138371428Y-85071428D01*
X138323809Y-85166666D01*
X138276190Y-85214285D01*
X138180952Y-85261904D01*
X333889880Y-101829464D02*
X332889880Y-101829464D01*
X332889880Y-102067559D01*
X332937500Y-102210416D01*
X333032738Y-102305654D01*
X333127976Y-102353273D01*
X333318452Y-102400892D01*
X333461309Y-102400892D01*
X333651785Y-102353273D01*
X333747023Y-102305654D01*
X333842261Y-102210416D01*
X333889880Y-102067559D01*
X333889880Y-101829464D01*
X332889880Y-103258035D02*
X332889880Y-103067559D01*
X332937500Y-102972321D01*
X332985119Y-102924702D01*
X333127976Y-102829464D01*
X333318452Y-102781845D01*
X333699404Y-102781845D01*
X333794642Y-102829464D01*
X333842261Y-102877083D01*
X333889880Y-102972321D01*
X333889880Y-103162797D01*
X333842261Y-103258035D01*
X333794642Y-103305654D01*
X333699404Y-103353273D01*
X333461309Y-103353273D01*
X333366071Y-103305654D01*
X333318452Y-103258035D01*
X333270833Y-103162797D01*
X333270833Y-102972321D01*
X333318452Y-102877083D01*
X333366071Y-102829464D01*
X333461309Y-102781845D01*
X332889880Y-103972321D02*
X332889880Y-104067559D01*
X332937500Y-104162797D01*
X332985119Y-104210416D01*
X333080357Y-104258035D01*
X333270833Y-104305654D01*
X333508928Y-104305654D01*
X333699404Y-104258035D01*
X333794642Y-104210416D01*
X333842261Y-104162797D01*
X333889880Y-104067559D01*
X333889880Y-103972321D01*
X333842261Y-103877083D01*
X333794642Y-103829464D01*
X333699404Y-103781845D01*
X333508928Y-103734226D01*
X333270833Y-103734226D01*
X333080357Y-103781845D01*
X332985119Y-103829464D01*
X332937500Y-103877083D01*
X332889880Y-103972321D01*
X326204761Y-93266666D02*
X326252380Y-93409523D01*
X326252380Y-93647619D01*
X326204761Y-93742857D01*
X326157142Y-93790476D01*
X326061904Y-93838095D01*
X325966666Y-93838095D01*
X325871428Y-93790476D01*
X325823809Y-93742857D01*
X325776190Y-93647619D01*
X325728571Y-93457142D01*
X325680952Y-93361904D01*
X325633333Y-93314285D01*
X325538095Y-93266666D01*
X325442857Y-93266666D01*
X325347619Y-93314285D01*
X325300000Y-93361904D01*
X325252380Y-93457142D01*
X325252380Y-93695238D01*
X325300000Y-93838095D01*
X325252380Y-94171428D02*
X326252380Y-94409523D01*
X325538095Y-94600000D01*
X326252380Y-94790476D01*
X325252380Y-95028571D01*
X326252380Y-95933333D02*
X326252380Y-95361904D01*
X326252380Y-95647619D02*
X325252380Y-95647619D01*
X325395238Y-95552380D01*
X325490476Y-95457142D01*
X325538095Y-95361904D01*
X45758630Y-64205654D02*
X44758630Y-64205654D01*
X44758630Y-64443750D01*
X44806250Y-64586607D01*
X44901488Y-64681845D01*
X44996726Y-64729464D01*
X45187202Y-64777083D01*
X45330059Y-64777083D01*
X45520535Y-64729464D01*
X45615773Y-64681845D01*
X45711011Y-64586607D01*
X45758630Y-64443750D01*
X45758630Y-64205654D01*
X44758630Y-65110416D02*
X44758630Y-65729464D01*
X45139583Y-65396130D01*
X45139583Y-65538988D01*
X45187202Y-65634226D01*
X45234821Y-65681845D01*
X45330059Y-65729464D01*
X45568154Y-65729464D01*
X45663392Y-65681845D01*
X45711011Y-65634226D01*
X45758630Y-65538988D01*
X45758630Y-65253273D01*
X45711011Y-65158035D01*
X45663392Y-65110416D01*
X40996130Y-102305654D02*
X39996130Y-102305654D01*
X39996130Y-102543750D01*
X40043750Y-102686607D01*
X40138988Y-102781845D01*
X40234226Y-102829464D01*
X40424702Y-102877083D01*
X40567559Y-102877083D01*
X40758035Y-102829464D01*
X40853273Y-102781845D01*
X40948511Y-102686607D01*
X40996130Y-102543750D01*
X40996130Y-102305654D01*
X39996130Y-103781845D02*
X39996130Y-103305654D01*
X40472321Y-103258035D01*
X40424702Y-103305654D01*
X40377083Y-103400892D01*
X40377083Y-103638988D01*
X40424702Y-103734226D01*
X40472321Y-103781845D01*
X40567559Y-103829464D01*
X40805654Y-103829464D01*
X40900892Y-103781845D01*
X40948511Y-103734226D01*
X40996130Y-103638988D01*
X40996130Y-103400892D01*
X40948511Y-103305654D01*
X40900892Y-103258035D01*
X152914880Y-25629464D02*
X151914880Y-25629464D01*
X151914880Y-25867559D01*
X151962500Y-26010416D01*
X152057738Y-26105654D01*
X152152976Y-26153273D01*
X152343452Y-26200892D01*
X152486309Y-26200892D01*
X152676785Y-26153273D01*
X152772023Y-26105654D01*
X152867261Y-26010416D01*
X152914880Y-25867559D01*
X152914880Y-25629464D01*
X151914880Y-27105654D02*
X151914880Y-26629464D01*
X152391071Y-26581845D01*
X152343452Y-26629464D01*
X152295833Y-26724702D01*
X152295833Y-26962797D01*
X152343452Y-27058035D01*
X152391071Y-27105654D01*
X152486309Y-27153273D01*
X152724404Y-27153273D01*
X152819642Y-27105654D01*
X152867261Y-27058035D01*
X152914880Y-26962797D01*
X152914880Y-26724702D01*
X152867261Y-26629464D01*
X152819642Y-26581845D01*
X151914880Y-28058035D02*
X151914880Y-27581845D01*
X152391071Y-27534226D01*
X152343452Y-27581845D01*
X152295833Y-27677083D01*
X152295833Y-27915178D01*
X152343452Y-28010416D01*
X152391071Y-28058035D01*
X152486309Y-28105654D01*
X152724404Y-28105654D01*
X152819642Y-28058035D01*
X152867261Y-28010416D01*
X152914880Y-27915178D01*
X152914880Y-27677083D01*
X152867261Y-27581845D01*
X152819642Y-27534226D01*
X196571130Y-29202083D02*
X196094940Y-28868750D01*
X196571130Y-28630654D02*
X195571130Y-28630654D01*
X195571130Y-29011607D01*
X195618750Y-29106845D01*
X195666369Y-29154464D01*
X195761607Y-29202083D01*
X195904464Y-29202083D01*
X195999702Y-29154464D01*
X196047321Y-29106845D01*
X196094940Y-29011607D01*
X196094940Y-28630654D01*
X195571130Y-30059226D02*
X195571130Y-29868750D01*
X195618750Y-29773511D01*
X195666369Y-29725892D01*
X195809226Y-29630654D01*
X195999702Y-29583035D01*
X196380654Y-29583035D01*
X196475892Y-29630654D01*
X196523511Y-29678273D01*
X196571130Y-29773511D01*
X196571130Y-29963988D01*
X196523511Y-30059226D01*
X196475892Y-30106845D01*
X196380654Y-30154464D01*
X196142559Y-30154464D01*
X196047321Y-30106845D01*
X195999702Y-30059226D01*
X195952083Y-29963988D01*
X195952083Y-29773511D01*
X195999702Y-29678273D01*
X196047321Y-29630654D01*
X196142559Y-29583035D01*
X352939880Y-25629464D02*
X351939880Y-25629464D01*
X351939880Y-25867559D01*
X351987500Y-26010416D01*
X352082738Y-26105654D01*
X352177976Y-26153273D01*
X352368452Y-26200892D01*
X352511309Y-26200892D01*
X352701785Y-26153273D01*
X352797023Y-26105654D01*
X352892261Y-26010416D01*
X352939880Y-25867559D01*
X352939880Y-25629464D01*
X351939880Y-27058035D02*
X351939880Y-26867559D01*
X351987500Y-26772321D01*
X352035119Y-26724702D01*
X352177976Y-26629464D01*
X352368452Y-26581845D01*
X352749404Y-26581845D01*
X352844642Y-26629464D01*
X352892261Y-26677083D01*
X352939880Y-26772321D01*
X352939880Y-26962797D01*
X352892261Y-27058035D01*
X352844642Y-27105654D01*
X352749404Y-27153273D01*
X352511309Y-27153273D01*
X352416071Y-27105654D01*
X352368452Y-27058035D01*
X352320833Y-26962797D01*
X352320833Y-26772321D01*
X352368452Y-26677083D01*
X352416071Y-26629464D01*
X352511309Y-26581845D01*
X352035119Y-27534226D02*
X351987500Y-27581845D01*
X351939880Y-27677083D01*
X351939880Y-27915178D01*
X351987500Y-28010416D01*
X352035119Y-28058035D01*
X352130357Y-28105654D01*
X352225595Y-28105654D01*
X352368452Y-28058035D01*
X352939880Y-27486607D01*
X352939880Y-28105654D01*
X323024404Y-73213630D02*
X323024404Y-74023154D01*
X322976785Y-74118392D01*
X322929166Y-74166011D01*
X322833928Y-74213630D01*
X322643452Y-74213630D01*
X322548214Y-74166011D01*
X322500595Y-74118392D01*
X322452976Y-74023154D01*
X322452976Y-73213630D01*
X321452976Y-74213630D02*
X322024404Y-74213630D01*
X321738690Y-74213630D02*
X321738690Y-73213630D01*
X321833928Y-73356488D01*
X321929166Y-73451726D01*
X322024404Y-73499345D01*
X162439880Y-44679464D02*
X161439880Y-44679464D01*
X161439880Y-44917559D01*
X161487500Y-45060416D01*
X161582738Y-45155654D01*
X161677976Y-45203273D01*
X161868452Y-45250892D01*
X162011309Y-45250892D01*
X162201785Y-45203273D01*
X162297023Y-45155654D01*
X162392261Y-45060416D01*
X162439880Y-44917559D01*
X162439880Y-44679464D01*
X161439880Y-46155654D02*
X161439880Y-45679464D01*
X161916071Y-45631845D01*
X161868452Y-45679464D01*
X161820833Y-45774702D01*
X161820833Y-46012797D01*
X161868452Y-46108035D01*
X161916071Y-46155654D01*
X162011309Y-46203273D01*
X162249404Y-46203273D01*
X162344642Y-46155654D01*
X162392261Y-46108035D01*
X162439880Y-46012797D01*
X162439880Y-45774702D01*
X162392261Y-45679464D01*
X162344642Y-45631845D01*
X161439880Y-47060416D02*
X161439880Y-46869940D01*
X161487500Y-46774702D01*
X161535119Y-46727083D01*
X161677976Y-46631845D01*
X161868452Y-46584226D01*
X162249404Y-46584226D01*
X162344642Y-46631845D01*
X162392261Y-46679464D01*
X162439880Y-46774702D01*
X162439880Y-46965178D01*
X162392261Y-47060416D01*
X162344642Y-47108035D01*
X162249404Y-47155654D01*
X162011309Y-47155654D01*
X161916071Y-47108035D01*
X161868452Y-47060416D01*
X161820833Y-46965178D01*
X161820833Y-46774702D01*
X161868452Y-46679464D01*
X161916071Y-46631845D01*
X162011309Y-46584226D01*
X276852380Y-44785714D02*
X275852380Y-44785714D01*
X275852380Y-45023809D01*
X275900000Y-45166666D01*
X275995238Y-45261904D01*
X276090476Y-45309523D01*
X276280952Y-45357142D01*
X276423809Y-45357142D01*
X276614285Y-45309523D01*
X276709523Y-45261904D01*
X276804761Y-45166666D01*
X276852380Y-45023809D01*
X276852380Y-44785714D01*
X276185714Y-46214285D02*
X276852380Y-46214285D01*
X275804761Y-45976190D02*
X276519047Y-45738095D01*
X276519047Y-46357142D01*
X275852380Y-46642857D02*
X275852380Y-47261904D01*
X276233333Y-46928571D01*
X276233333Y-47071428D01*
X276280952Y-47166666D01*
X276328571Y-47214285D01*
X276423809Y-47261904D01*
X276661904Y-47261904D01*
X276757142Y-47214285D01*
X276804761Y-47166666D01*
X276852380Y-47071428D01*
X276852380Y-46785714D01*
X276804761Y-46690476D01*
X276757142Y-46642857D01*
X202127380Y-22733333D02*
X201651190Y-22400000D01*
X202127380Y-22161904D02*
X201127380Y-22161904D01*
X201127380Y-22542857D01*
X201175000Y-22638095D01*
X201222619Y-22685714D01*
X201317857Y-22733333D01*
X201460714Y-22733333D01*
X201555952Y-22685714D01*
X201603571Y-22638095D01*
X201651190Y-22542857D01*
X201651190Y-22161904D01*
X201127380Y-23066666D02*
X201127380Y-23685714D01*
X201508333Y-23352380D01*
X201508333Y-23495238D01*
X201555952Y-23590476D01*
X201603571Y-23638095D01*
X201698809Y-23685714D01*
X201936904Y-23685714D01*
X202032142Y-23638095D01*
X202079761Y-23590476D01*
X202127380Y-23495238D01*
X202127380Y-23209523D01*
X202079761Y-23114285D01*
X202032142Y-23066666D01*
X302933630Y-101829464D02*
X301933630Y-101829464D01*
X301933630Y-102067559D01*
X301981250Y-102210416D01*
X302076488Y-102305654D01*
X302171726Y-102353273D01*
X302362202Y-102400892D01*
X302505059Y-102400892D01*
X302695535Y-102353273D01*
X302790773Y-102305654D01*
X302886011Y-102210416D01*
X302933630Y-102067559D01*
X302933630Y-101829464D01*
X301933630Y-103258035D02*
X301933630Y-103067559D01*
X301981250Y-102972321D01*
X302028869Y-102924702D01*
X302171726Y-102829464D01*
X302362202Y-102781845D01*
X302743154Y-102781845D01*
X302838392Y-102829464D01*
X302886011Y-102877083D01*
X302933630Y-102972321D01*
X302933630Y-103162797D01*
X302886011Y-103258035D01*
X302838392Y-103305654D01*
X302743154Y-103353273D01*
X302505059Y-103353273D01*
X302409821Y-103305654D01*
X302362202Y-103258035D01*
X302314583Y-103162797D01*
X302314583Y-102972321D01*
X302362202Y-102877083D01*
X302409821Y-102829464D01*
X302505059Y-102781845D01*
X302362202Y-103924702D02*
X302314583Y-103829464D01*
X302266964Y-103781845D01*
X302171726Y-103734226D01*
X302124107Y-103734226D01*
X302028869Y-103781845D01*
X301981250Y-103829464D01*
X301933630Y-103924702D01*
X301933630Y-104115178D01*
X301981250Y-104210416D01*
X302028869Y-104258035D01*
X302124107Y-104305654D01*
X302171726Y-104305654D01*
X302266964Y-104258035D01*
X302314583Y-104210416D01*
X302362202Y-104115178D01*
X302362202Y-103924702D01*
X302409821Y-103829464D01*
X302457440Y-103781845D01*
X302552678Y-103734226D01*
X302743154Y-103734226D01*
X302838392Y-103781845D01*
X302886011Y-103829464D01*
X302933630Y-103924702D01*
X302933630Y-104115178D01*
X302886011Y-104210416D01*
X302838392Y-104258035D01*
X302743154Y-104305654D01*
X302552678Y-104305654D01*
X302457440Y-104258035D01*
X302409821Y-104210416D01*
X302362202Y-104115178D01*
X160058630Y-101829464D02*
X159058630Y-101829464D01*
X159058630Y-102067559D01*
X159106250Y-102210416D01*
X159201488Y-102305654D01*
X159296726Y-102353273D01*
X159487202Y-102400892D01*
X159630059Y-102400892D01*
X159820535Y-102353273D01*
X159915773Y-102305654D01*
X160011011Y-102210416D01*
X160058630Y-102067559D01*
X160058630Y-101829464D01*
X159058630Y-102734226D02*
X159058630Y-103353273D01*
X159439583Y-103019940D01*
X159439583Y-103162797D01*
X159487202Y-103258035D01*
X159534821Y-103305654D01*
X159630059Y-103353273D01*
X159868154Y-103353273D01*
X159963392Y-103305654D01*
X160011011Y-103258035D01*
X160058630Y-103162797D01*
X160058630Y-102877083D01*
X160011011Y-102781845D01*
X159963392Y-102734226D01*
X159153869Y-103734226D02*
X159106250Y-103781845D01*
X159058630Y-103877083D01*
X159058630Y-104115178D01*
X159106250Y-104210416D01*
X159153869Y-104258035D01*
X159249107Y-104305654D01*
X159344345Y-104305654D01*
X159487202Y-104258035D01*
X160058630Y-103686607D01*
X160058630Y-104305654D01*
X81477380Y-82779464D02*
X80477380Y-82779464D01*
X80477380Y-83017559D01*
X80525000Y-83160416D01*
X80620238Y-83255654D01*
X80715476Y-83303273D01*
X80905952Y-83350892D01*
X81048809Y-83350892D01*
X81239285Y-83303273D01*
X81334523Y-83255654D01*
X81429761Y-83160416D01*
X81477380Y-83017559D01*
X81477380Y-82779464D01*
X80572619Y-83731845D02*
X80525000Y-83779464D01*
X80477380Y-83874702D01*
X80477380Y-84112797D01*
X80525000Y-84208035D01*
X80572619Y-84255654D01*
X80667857Y-84303273D01*
X80763095Y-84303273D01*
X80905952Y-84255654D01*
X81477380Y-83684226D01*
X81477380Y-84303273D01*
X80572619Y-84684226D02*
X80525000Y-84731845D01*
X80477380Y-84827083D01*
X80477380Y-85065178D01*
X80525000Y-85160416D01*
X80572619Y-85208035D01*
X80667857Y-85255654D01*
X80763095Y-85255654D01*
X80905952Y-85208035D01*
X81477380Y-84636607D01*
X81477380Y-85255654D01*
X314877142Y-82783333D02*
X314924761Y-82735714D01*
X314972380Y-82592857D01*
X314972380Y-82497619D01*
X314924761Y-82354761D01*
X314829523Y-82259523D01*
X314734285Y-82211904D01*
X314543809Y-82164285D01*
X314400952Y-82164285D01*
X314210476Y-82211904D01*
X314115238Y-82259523D01*
X314020000Y-82354761D01*
X313972380Y-82497619D01*
X313972380Y-82592857D01*
X314020000Y-82735714D01*
X314067619Y-82783333D01*
X313972380Y-83640476D02*
X313972380Y-83450000D01*
X314020000Y-83354761D01*
X314067619Y-83307142D01*
X314210476Y-83211904D01*
X314400952Y-83164285D01*
X314781904Y-83164285D01*
X314877142Y-83211904D01*
X314924761Y-83259523D01*
X314972380Y-83354761D01*
X314972380Y-83545238D01*
X314924761Y-83640476D01*
X314877142Y-83688095D01*
X314781904Y-83735714D01*
X314543809Y-83735714D01*
X314448571Y-83688095D01*
X314400952Y-83640476D01*
X314353333Y-83545238D01*
X314353333Y-83354761D01*
X314400952Y-83259523D01*
X314448571Y-83211904D01*
X314543809Y-83164285D01*
X305464285Y-66414880D02*
X305464285Y-65414880D01*
X305226190Y-65414880D01*
X305083333Y-65462500D01*
X304988095Y-65557738D01*
X304940476Y-65652976D01*
X304892857Y-65843452D01*
X304892857Y-65986309D01*
X304940476Y-66176785D01*
X304988095Y-66272023D01*
X305083333Y-66367261D01*
X305226190Y-66414880D01*
X305464285Y-66414880D01*
X303988095Y-65414880D02*
X304464285Y-65414880D01*
X304511904Y-65891071D01*
X304464285Y-65843452D01*
X304369047Y-65795833D01*
X304130952Y-65795833D01*
X304035714Y-65843452D01*
X303988095Y-65891071D01*
X303940476Y-65986309D01*
X303940476Y-66224404D01*
X303988095Y-66319642D01*
X304035714Y-66367261D01*
X304130952Y-66414880D01*
X304369047Y-66414880D01*
X304464285Y-66367261D01*
X304511904Y-66319642D01*
X303559523Y-65510119D02*
X303511904Y-65462500D01*
X303416666Y-65414880D01*
X303178571Y-65414880D01*
X303083333Y-65462500D01*
X303035714Y-65510119D01*
X302988095Y-65605357D01*
X302988095Y-65700595D01*
X303035714Y-65843452D01*
X303607142Y-66414880D01*
X302988095Y-66414880D01*
X371989880Y-44679464D02*
X370989880Y-44679464D01*
X370989880Y-44917559D01*
X371037500Y-45060416D01*
X371132738Y-45155654D01*
X371227976Y-45203273D01*
X371418452Y-45250892D01*
X371561309Y-45250892D01*
X371751785Y-45203273D01*
X371847023Y-45155654D01*
X371942261Y-45060416D01*
X371989880Y-44917559D01*
X371989880Y-44679464D01*
X370989880Y-45584226D02*
X370989880Y-46250892D01*
X371989880Y-45822321D01*
X371085119Y-46584226D02*
X371037500Y-46631845D01*
X370989880Y-46727083D01*
X370989880Y-46965178D01*
X371037500Y-47060416D01*
X371085119Y-47108035D01*
X371180357Y-47155654D01*
X371275595Y-47155654D01*
X371418452Y-47108035D01*
X371989880Y-46536607D01*
X371989880Y-47155654D01*
X262452380Y-63729464D02*
X261452380Y-63729464D01*
X261452380Y-63967559D01*
X261500000Y-64110416D01*
X261595238Y-64205654D01*
X261690476Y-64253273D01*
X261880952Y-64300892D01*
X262023809Y-64300892D01*
X262214285Y-64253273D01*
X262309523Y-64205654D01*
X262404761Y-64110416D01*
X262452380Y-63967559D01*
X262452380Y-63729464D01*
X261452380Y-64634226D02*
X261452380Y-65253273D01*
X261833333Y-64919940D01*
X261833333Y-65062797D01*
X261880952Y-65158035D01*
X261928571Y-65205654D01*
X262023809Y-65253273D01*
X262261904Y-65253273D01*
X262357142Y-65205654D01*
X262404761Y-65158035D01*
X262452380Y-65062797D01*
X262452380Y-64777083D01*
X262404761Y-64681845D01*
X262357142Y-64634226D01*
X261452380Y-66158035D02*
X261452380Y-65681845D01*
X261928571Y-65634226D01*
X261880952Y-65681845D01*
X261833333Y-65777083D01*
X261833333Y-66015178D01*
X261880952Y-66110416D01*
X261928571Y-66158035D01*
X262023809Y-66205654D01*
X262261904Y-66205654D01*
X262357142Y-66158035D01*
X262404761Y-66110416D01*
X262452380Y-66015178D01*
X262452380Y-65777083D01*
X262404761Y-65681845D01*
X262357142Y-65634226D01*
X25677678Y-21359821D02*
X26011011Y-21359821D01*
X26011011Y-21883630D02*
X26011011Y-20883630D01*
X25534821Y-20883630D01*
X25153869Y-21883630D02*
X25153869Y-20883630D01*
X24677678Y-21883630D02*
X24677678Y-20883630D01*
X24439583Y-20883630D01*
X24296726Y-20931250D01*
X24201488Y-21026488D01*
X24153869Y-21121726D01*
X24106250Y-21312202D01*
X24106250Y-21455059D01*
X24153869Y-21645535D01*
X24201488Y-21740773D01*
X24296726Y-21836011D01*
X24439583Y-21883630D01*
X24677678Y-21883630D01*
X23772916Y-20883630D02*
X23153869Y-20883630D01*
X23487202Y-21264583D01*
X23344345Y-21264583D01*
X23249107Y-21312202D01*
X23201488Y-21359821D01*
X23153869Y-21455059D01*
X23153869Y-21693154D01*
X23201488Y-21788392D01*
X23249107Y-21836011D01*
X23344345Y-21883630D01*
X23630059Y-21883630D01*
X23725297Y-21836011D01*
X23772916Y-21788392D01*
X143552380Y-44685714D02*
X142552380Y-44685714D01*
X142552380Y-44923809D01*
X142600000Y-45066666D01*
X142695238Y-45161904D01*
X142790476Y-45209523D01*
X142980952Y-45257142D01*
X143123809Y-45257142D01*
X143314285Y-45209523D01*
X143409523Y-45161904D01*
X143504761Y-45066666D01*
X143552380Y-44923809D01*
X143552380Y-44685714D01*
X142885714Y-46114285D02*
X143552380Y-46114285D01*
X142504761Y-45876190D02*
X143219047Y-45638095D01*
X143219047Y-46257142D01*
X142552380Y-46542857D02*
X142552380Y-47209523D01*
X143552380Y-46780952D01*
X288852380Y-82785714D02*
X287852380Y-82785714D01*
X287852380Y-83023809D01*
X287900000Y-83166666D01*
X287995238Y-83261904D01*
X288090476Y-83309523D01*
X288280952Y-83357142D01*
X288423809Y-83357142D01*
X288614285Y-83309523D01*
X288709523Y-83261904D01*
X288804761Y-83166666D01*
X288852380Y-83023809D01*
X288852380Y-82785714D01*
X288185714Y-84214285D02*
X288852380Y-84214285D01*
X287804761Y-83976190D02*
X288519047Y-83738095D01*
X288519047Y-84357142D01*
X287852380Y-85214285D02*
X287852380Y-84738095D01*
X288328571Y-84690476D01*
X288280952Y-84738095D01*
X288233333Y-84833333D01*
X288233333Y-85071428D01*
X288280952Y-85166666D01*
X288328571Y-85214285D01*
X288423809Y-85261904D01*
X288661904Y-85261904D01*
X288757142Y-85214285D01*
X288804761Y-85166666D01*
X288852380Y-85071428D01*
X288852380Y-84833333D01*
X288804761Y-84738095D01*
X288757142Y-84690476D01*
X267352380Y-25585714D02*
X266352380Y-25585714D01*
X266352380Y-25823809D01*
X266400000Y-25966666D01*
X266495238Y-26061904D01*
X266590476Y-26109523D01*
X266780952Y-26157142D01*
X266923809Y-26157142D01*
X267114285Y-26109523D01*
X267209523Y-26061904D01*
X267304761Y-25966666D01*
X267352380Y-25823809D01*
X267352380Y-25585714D01*
X266685714Y-27014285D02*
X267352380Y-27014285D01*
X266304761Y-26776190D02*
X267019047Y-26538095D01*
X267019047Y-27157142D01*
X266447619Y-27490476D02*
X266400000Y-27538095D01*
X266352380Y-27633333D01*
X266352380Y-27871428D01*
X266400000Y-27966666D01*
X266447619Y-28014285D01*
X266542857Y-28061904D01*
X266638095Y-28061904D01*
X266780952Y-28014285D01*
X267352380Y-27442857D01*
X267352380Y-28061904D01*
X194619345Y-26528630D02*
X194619345Y-27338154D01*
X194571726Y-27433392D01*
X194524107Y-27481011D01*
X194428869Y-27528630D01*
X194238392Y-27528630D01*
X194143154Y-27481011D01*
X194095535Y-27433392D01*
X194047916Y-27338154D01*
X194047916Y-26528630D01*
X193619345Y-27481011D02*
X193476488Y-27528630D01*
X193238392Y-27528630D01*
X193143154Y-27481011D01*
X193095535Y-27433392D01*
X193047916Y-27338154D01*
X193047916Y-27242916D01*
X193095535Y-27147678D01*
X193143154Y-27100059D01*
X193238392Y-27052440D01*
X193428869Y-27004821D01*
X193524107Y-26957202D01*
X193571726Y-26909583D01*
X193619345Y-26814345D01*
X193619345Y-26719107D01*
X193571726Y-26623869D01*
X193524107Y-26576250D01*
X193428869Y-26528630D01*
X193190773Y-26528630D01*
X193047916Y-26576250D01*
X192286011Y-27004821D02*
X192143154Y-27052440D01*
X192095535Y-27100059D01*
X192047916Y-27195297D01*
X192047916Y-27338154D01*
X192095535Y-27433392D01*
X192143154Y-27481011D01*
X192238392Y-27528630D01*
X192619345Y-27528630D01*
X192619345Y-26528630D01*
X192286011Y-26528630D01*
X192190773Y-26576250D01*
X192143154Y-26623869D01*
X192095535Y-26719107D01*
X192095535Y-26814345D01*
X192143154Y-26909583D01*
X192190773Y-26957202D01*
X192286011Y-27004821D01*
X192619345Y-27004821D01*
X191095535Y-27528630D02*
X191666964Y-27528630D01*
X191381250Y-27528630D02*
X191381250Y-26528630D01*
X191476488Y-26671488D01*
X191571726Y-26766726D01*
X191666964Y-26814345D01*
X38614880Y-26105654D02*
X37614880Y-26105654D01*
X37614880Y-26343750D01*
X37662500Y-26486607D01*
X37757738Y-26581845D01*
X37852976Y-26629464D01*
X38043452Y-26677083D01*
X38186309Y-26677083D01*
X38376785Y-26629464D01*
X38472023Y-26581845D01*
X38567261Y-26486607D01*
X38614880Y-26343750D01*
X38614880Y-26105654D01*
X38614880Y-27629464D02*
X38614880Y-27058035D01*
X38614880Y-27343750D02*
X37614880Y-27343750D01*
X37757738Y-27248511D01*
X37852976Y-27153273D01*
X37900595Y-27058035D01*
X224352380Y-63729464D02*
X223352380Y-63729464D01*
X223352380Y-63967559D01*
X223400000Y-64110416D01*
X223495238Y-64205654D01*
X223590476Y-64253273D01*
X223780952Y-64300892D01*
X223923809Y-64300892D01*
X224114285Y-64253273D01*
X224209523Y-64205654D01*
X224304761Y-64110416D01*
X224352380Y-63967559D01*
X224352380Y-63729464D01*
X224352380Y-65253273D02*
X224352380Y-64681845D01*
X224352380Y-64967559D02*
X223352380Y-64967559D01*
X223495238Y-64872321D01*
X223590476Y-64777083D01*
X223638095Y-64681845D01*
X223352380Y-65586607D02*
X223352380Y-66253273D01*
X224352380Y-65824702D01*
X157677380Y-82779464D02*
X156677380Y-82779464D01*
X156677380Y-83017559D01*
X156725000Y-83160416D01*
X156820238Y-83255654D01*
X156915476Y-83303273D01*
X157105952Y-83350892D01*
X157248809Y-83350892D01*
X157439285Y-83303273D01*
X157534523Y-83255654D01*
X157629761Y-83160416D01*
X157677380Y-83017559D01*
X157677380Y-82779464D01*
X156677380Y-84255654D02*
X156677380Y-83779464D01*
X157153571Y-83731845D01*
X157105952Y-83779464D01*
X157058333Y-83874702D01*
X157058333Y-84112797D01*
X157105952Y-84208035D01*
X157153571Y-84255654D01*
X157248809Y-84303273D01*
X157486904Y-84303273D01*
X157582142Y-84255654D01*
X157629761Y-84208035D01*
X157677380Y-84112797D01*
X157677380Y-83874702D01*
X157629761Y-83779464D01*
X157582142Y-83731845D01*
X157105952Y-84874702D02*
X157058333Y-84779464D01*
X157010714Y-84731845D01*
X156915476Y-84684226D01*
X156867857Y-84684226D01*
X156772619Y-84731845D01*
X156725000Y-84779464D01*
X156677380Y-84874702D01*
X156677380Y-85065178D01*
X156725000Y-85160416D01*
X156772619Y-85208035D01*
X156867857Y-85255654D01*
X156915476Y-85255654D01*
X157010714Y-85208035D01*
X157058333Y-85160416D01*
X157105952Y-85065178D01*
X157105952Y-84874702D01*
X157153571Y-84779464D01*
X157201190Y-84731845D01*
X157296428Y-84684226D01*
X157486904Y-84684226D01*
X157582142Y-84731845D01*
X157629761Y-84779464D01*
X157677380Y-84874702D01*
X157677380Y-85065178D01*
X157629761Y-85160416D01*
X157582142Y-85208035D01*
X157486904Y-85255654D01*
X157296428Y-85255654D01*
X157201190Y-85208035D01*
X157153571Y-85160416D01*
X157105952Y-85065178D01*
X229252380Y-25629464D02*
X228252380Y-25629464D01*
X228252380Y-25867559D01*
X228300000Y-26010416D01*
X228395238Y-26105654D01*
X228490476Y-26153273D01*
X228680952Y-26200892D01*
X228823809Y-26200892D01*
X229014285Y-26153273D01*
X229109523Y-26105654D01*
X229204761Y-26010416D01*
X229252380Y-25867559D01*
X229252380Y-25629464D01*
X228347619Y-26581845D02*
X228300000Y-26629464D01*
X228252380Y-26724702D01*
X228252380Y-26962797D01*
X228300000Y-27058035D01*
X228347619Y-27105654D01*
X228442857Y-27153273D01*
X228538095Y-27153273D01*
X228680952Y-27105654D01*
X229252380Y-26534226D01*
X229252380Y-27153273D01*
X228585714Y-28010416D02*
X229252380Y-28010416D01*
X228204761Y-27772321D02*
X228919047Y-27534226D01*
X228919047Y-28153273D01*
X352939880Y-44679464D02*
X351939880Y-44679464D01*
X351939880Y-44917559D01*
X351987500Y-45060416D01*
X352082738Y-45155654D01*
X352177976Y-45203273D01*
X352368452Y-45250892D01*
X352511309Y-45250892D01*
X352701785Y-45203273D01*
X352797023Y-45155654D01*
X352892261Y-45060416D01*
X352939880Y-44917559D01*
X352939880Y-44679464D01*
X351939880Y-46108035D02*
X351939880Y-45917559D01*
X351987500Y-45822321D01*
X352035119Y-45774702D01*
X352177976Y-45679464D01*
X352368452Y-45631845D01*
X352749404Y-45631845D01*
X352844642Y-45679464D01*
X352892261Y-45727083D01*
X352939880Y-45822321D01*
X352939880Y-46012797D01*
X352892261Y-46108035D01*
X352844642Y-46155654D01*
X352749404Y-46203273D01*
X352511309Y-46203273D01*
X352416071Y-46155654D01*
X352368452Y-46108035D01*
X352320833Y-46012797D01*
X352320833Y-45822321D01*
X352368452Y-45727083D01*
X352416071Y-45679464D01*
X352511309Y-45631845D01*
X351939880Y-46536607D02*
X351939880Y-47155654D01*
X352320833Y-46822321D01*
X352320833Y-46965178D01*
X352368452Y-47060416D01*
X352416071Y-47108035D01*
X352511309Y-47155654D01*
X352749404Y-47155654D01*
X352844642Y-47108035D01*
X352892261Y-47060416D01*
X352939880Y-46965178D01*
X352939880Y-46679464D01*
X352892261Y-46584226D01*
X352844642Y-46536607D01*
X200539880Y-45155654D02*
X199539880Y-45155654D01*
X199539880Y-45393750D01*
X199587500Y-45536607D01*
X199682738Y-45631845D01*
X199777976Y-45679464D01*
X199968452Y-45727083D01*
X200111309Y-45727083D01*
X200301785Y-45679464D01*
X200397023Y-45631845D01*
X200492261Y-45536607D01*
X200539880Y-45393750D01*
X200539880Y-45155654D01*
X199539880Y-46060416D02*
X199539880Y-46727083D01*
X200539880Y-46298511D01*
X86239880Y-44679464D02*
X85239880Y-44679464D01*
X85239880Y-44917559D01*
X85287500Y-45060416D01*
X85382738Y-45155654D01*
X85477976Y-45203273D01*
X85668452Y-45250892D01*
X85811309Y-45250892D01*
X86001785Y-45203273D01*
X86097023Y-45155654D01*
X86192261Y-45060416D01*
X86239880Y-44917559D01*
X86239880Y-44679464D01*
X85335119Y-45631845D02*
X85287500Y-45679464D01*
X85239880Y-45774702D01*
X85239880Y-46012797D01*
X85287500Y-46108035D01*
X85335119Y-46155654D01*
X85430357Y-46203273D01*
X85525595Y-46203273D01*
X85668452Y-46155654D01*
X86239880Y-45584226D01*
X86239880Y-46203273D01*
X85239880Y-46822321D02*
X85239880Y-46917559D01*
X85287500Y-47012797D01*
X85335119Y-47060416D01*
X85430357Y-47108035D01*
X85620833Y-47155654D01*
X85858928Y-47155654D01*
X86049404Y-47108035D01*
X86144642Y-47060416D01*
X86192261Y-47012797D01*
X86239880Y-46917559D01*
X86239880Y-46822321D01*
X86192261Y-46727083D01*
X86144642Y-46679464D01*
X86049404Y-46631845D01*
X85858928Y-46584226D01*
X85620833Y-46584226D01*
X85430357Y-46631845D01*
X85335119Y-46679464D01*
X85287500Y-46727083D01*
X85239880Y-46822321D01*
X255308630Y-101829464D02*
X254308630Y-101829464D01*
X254308630Y-102067559D01*
X254356250Y-102210416D01*
X254451488Y-102305654D01*
X254546726Y-102353273D01*
X254737202Y-102400892D01*
X254880059Y-102400892D01*
X255070535Y-102353273D01*
X255165773Y-102305654D01*
X255261011Y-102210416D01*
X255308630Y-102067559D01*
X255308630Y-101829464D01*
X254308630Y-103305654D02*
X254308630Y-102829464D01*
X254784821Y-102781845D01*
X254737202Y-102829464D01*
X254689583Y-102924702D01*
X254689583Y-103162797D01*
X254737202Y-103258035D01*
X254784821Y-103305654D01*
X254880059Y-103353273D01*
X255118154Y-103353273D01*
X255213392Y-103305654D01*
X255261011Y-103258035D01*
X255308630Y-103162797D01*
X255308630Y-102924702D01*
X255261011Y-102829464D01*
X255213392Y-102781845D01*
X254308630Y-103972321D02*
X254308630Y-104067559D01*
X254356250Y-104162797D01*
X254403869Y-104210416D01*
X254499107Y-104258035D01*
X254689583Y-104305654D01*
X254927678Y-104305654D01*
X255118154Y-104258035D01*
X255213392Y-104210416D01*
X255261011Y-104162797D01*
X255308630Y-104067559D01*
X255308630Y-103972321D01*
X255261011Y-103877083D01*
X255213392Y-103829464D01*
X255118154Y-103781845D01*
X254927678Y-103734226D01*
X254689583Y-103734226D01*
X254499107Y-103781845D01*
X254403869Y-103829464D01*
X254356250Y-103877083D01*
X254308630Y-103972321D01*
X64952380Y-101829464D02*
X63952380Y-101829464D01*
X63952380Y-102067559D01*
X64000000Y-102210416D01*
X64095238Y-102305654D01*
X64190476Y-102353273D01*
X64380952Y-102400892D01*
X64523809Y-102400892D01*
X64714285Y-102353273D01*
X64809523Y-102305654D01*
X64904761Y-102210416D01*
X64952380Y-102067559D01*
X64952380Y-101829464D01*
X64952380Y-103353273D02*
X64952380Y-102781845D01*
X64952380Y-103067559D02*
X63952380Y-103067559D01*
X64095238Y-102972321D01*
X64190476Y-102877083D01*
X64238095Y-102781845D01*
X64285714Y-104210416D02*
X64952380Y-104210416D01*
X63904761Y-103972321D02*
X64619047Y-103734226D01*
X64619047Y-104353273D01*
X352939880Y-101829464D02*
X351939880Y-101829464D01*
X351939880Y-102067559D01*
X351987500Y-102210416D01*
X352082738Y-102305654D01*
X352177976Y-102353273D01*
X352368452Y-102400892D01*
X352511309Y-102400892D01*
X352701785Y-102353273D01*
X352797023Y-102305654D01*
X352892261Y-102210416D01*
X352939880Y-102067559D01*
X352939880Y-101829464D01*
X351939880Y-102734226D02*
X351939880Y-103400892D01*
X352939880Y-102972321D01*
X351939880Y-103972321D02*
X351939880Y-104067559D01*
X351987500Y-104162797D01*
X352035119Y-104210416D01*
X352130357Y-104258035D01*
X352320833Y-104305654D01*
X352558928Y-104305654D01*
X352749404Y-104258035D01*
X352844642Y-104210416D01*
X352892261Y-104162797D01*
X352939880Y-104067559D01*
X352939880Y-103972321D01*
X352892261Y-103877083D01*
X352844642Y-103829464D01*
X352749404Y-103781845D01*
X352558928Y-103734226D01*
X352320833Y-103734226D01*
X352130357Y-103781845D01*
X352035119Y-103829464D01*
X351987500Y-103877083D01*
X351939880Y-103972321D01*
X248164880Y-25629464D02*
X247164880Y-25629464D01*
X247164880Y-25867559D01*
X247212500Y-26010416D01*
X247307738Y-26105654D01*
X247402976Y-26153273D01*
X247593452Y-26200892D01*
X247736309Y-26200892D01*
X247926785Y-26153273D01*
X248022023Y-26105654D01*
X248117261Y-26010416D01*
X248164880Y-25867559D01*
X248164880Y-25629464D01*
X247164880Y-26534226D02*
X247164880Y-27153273D01*
X247545833Y-26819940D01*
X247545833Y-26962797D01*
X247593452Y-27058035D01*
X247641071Y-27105654D01*
X247736309Y-27153273D01*
X247974404Y-27153273D01*
X248069642Y-27105654D01*
X248117261Y-27058035D01*
X248164880Y-26962797D01*
X248164880Y-26677083D01*
X248117261Y-26581845D01*
X248069642Y-26534226D01*
X247164880Y-27486607D02*
X247164880Y-28105654D01*
X247545833Y-27772321D01*
X247545833Y-27915178D01*
X247593452Y-28010416D01*
X247641071Y-28058035D01*
X247736309Y-28105654D01*
X247974404Y-28105654D01*
X248069642Y-28058035D01*
X248117261Y-28010416D01*
X248164880Y-27915178D01*
X248164880Y-27629464D01*
X248117261Y-27534226D01*
X248069642Y-27486607D01*
X167202380Y-63729464D02*
X166202380Y-63729464D01*
X166202380Y-63967559D01*
X166250000Y-64110416D01*
X166345238Y-64205654D01*
X166440476Y-64253273D01*
X166630952Y-64300892D01*
X166773809Y-64300892D01*
X166964285Y-64253273D01*
X167059523Y-64205654D01*
X167154761Y-64110416D01*
X167202380Y-63967559D01*
X167202380Y-63729464D01*
X166202380Y-65205654D02*
X166202380Y-64729464D01*
X166678571Y-64681845D01*
X166630952Y-64729464D01*
X166583333Y-64824702D01*
X166583333Y-65062797D01*
X166630952Y-65158035D01*
X166678571Y-65205654D01*
X166773809Y-65253273D01*
X167011904Y-65253273D01*
X167107142Y-65205654D01*
X167154761Y-65158035D01*
X167202380Y-65062797D01*
X167202380Y-64824702D01*
X167154761Y-64729464D01*
X167107142Y-64681845D01*
X166202380Y-65586607D02*
X166202380Y-66253273D01*
X167202380Y-65824702D01*
X129102380Y-63729464D02*
X128102380Y-63729464D01*
X128102380Y-63967559D01*
X128150000Y-64110416D01*
X128245238Y-64205654D01*
X128340476Y-64253273D01*
X128530952Y-64300892D01*
X128673809Y-64300892D01*
X128864285Y-64253273D01*
X128959523Y-64205654D01*
X129054761Y-64110416D01*
X129102380Y-63967559D01*
X129102380Y-63729464D01*
X128102380Y-64634226D02*
X128102380Y-65253273D01*
X128483333Y-64919940D01*
X128483333Y-65062797D01*
X128530952Y-65158035D01*
X128578571Y-65205654D01*
X128673809Y-65253273D01*
X128911904Y-65253273D01*
X129007142Y-65205654D01*
X129054761Y-65158035D01*
X129102380Y-65062797D01*
X129102380Y-64777083D01*
X129054761Y-64681845D01*
X129007142Y-64634226D01*
X129102380Y-65729464D02*
X129102380Y-65919940D01*
X129054761Y-66015178D01*
X129007142Y-66062797D01*
X128864285Y-66158035D01*
X128673809Y-66205654D01*
X128292857Y-66205654D01*
X128197619Y-66158035D01*
X128150000Y-66110416D01*
X128102380Y-66015178D01*
X128102380Y-65824702D01*
X128150000Y-65729464D01*
X128197619Y-65681845D01*
X128292857Y-65634226D01*
X128530952Y-65634226D01*
X128626190Y-65681845D01*
X128673809Y-65729464D01*
X128721428Y-65824702D01*
X128721428Y-66015178D01*
X128673809Y-66110416D01*
X128626190Y-66158035D01*
X128530952Y-66205654D01*
X172152380Y-25629464D02*
X171152380Y-25629464D01*
X171152380Y-25867559D01*
X171200000Y-26010416D01*
X171295238Y-26105654D01*
X171390476Y-26153273D01*
X171580952Y-26200892D01*
X171723809Y-26200892D01*
X171914285Y-26153273D01*
X172009523Y-26105654D01*
X172104761Y-26010416D01*
X172152380Y-25867559D01*
X172152380Y-25629464D01*
X171152380Y-27058035D02*
X171152380Y-26867559D01*
X171200000Y-26772321D01*
X171247619Y-26724702D01*
X171390476Y-26629464D01*
X171580952Y-26581845D01*
X171961904Y-26581845D01*
X172057142Y-26629464D01*
X172104761Y-26677083D01*
X172152380Y-26772321D01*
X172152380Y-26962797D01*
X172104761Y-27058035D01*
X172057142Y-27105654D01*
X171961904Y-27153273D01*
X171723809Y-27153273D01*
X171628571Y-27105654D01*
X171580952Y-27058035D01*
X171533333Y-26962797D01*
X171533333Y-26772321D01*
X171580952Y-26677083D01*
X171628571Y-26629464D01*
X171723809Y-26581845D01*
X171485714Y-28010416D02*
X172152380Y-28010416D01*
X171104761Y-27772321D02*
X171819047Y-27534226D01*
X171819047Y-28153273D01*
X333889880Y-25629464D02*
X332889880Y-25629464D01*
X332889880Y-25867559D01*
X332937500Y-26010416D01*
X333032738Y-26105654D01*
X333127976Y-26153273D01*
X333318452Y-26200892D01*
X333461309Y-26200892D01*
X333651785Y-26153273D01*
X333747023Y-26105654D01*
X333842261Y-26010416D01*
X333889880Y-25867559D01*
X333889880Y-25629464D01*
X332889880Y-27105654D02*
X332889880Y-26629464D01*
X333366071Y-26581845D01*
X333318452Y-26629464D01*
X333270833Y-26724702D01*
X333270833Y-26962797D01*
X333318452Y-27058035D01*
X333366071Y-27105654D01*
X333461309Y-27153273D01*
X333699404Y-27153273D01*
X333794642Y-27105654D01*
X333842261Y-27058035D01*
X333889880Y-26962797D01*
X333889880Y-26724702D01*
X333842261Y-26629464D01*
X333794642Y-26581845D01*
X332889880Y-27486607D02*
X332889880Y-28105654D01*
X333270833Y-27772321D01*
X333270833Y-27915178D01*
X333318452Y-28010416D01*
X333366071Y-28058035D01*
X333461309Y-28105654D01*
X333699404Y-28105654D01*
X333794642Y-28058035D01*
X333842261Y-28010416D01*
X333889880Y-27915178D01*
X333889880Y-27629464D01*
X333842261Y-27534226D01*
X333794642Y-27486607D01*
X114814880Y-25629464D02*
X113814880Y-25629464D01*
X113814880Y-25867559D01*
X113862500Y-26010416D01*
X113957738Y-26105654D01*
X114052976Y-26153273D01*
X114243452Y-26200892D01*
X114386309Y-26200892D01*
X114576785Y-26153273D01*
X114672023Y-26105654D01*
X114767261Y-26010416D01*
X114814880Y-25867559D01*
X114814880Y-25629464D01*
X113814880Y-26534226D02*
X113814880Y-27153273D01*
X114195833Y-26819940D01*
X114195833Y-26962797D01*
X114243452Y-27058035D01*
X114291071Y-27105654D01*
X114386309Y-27153273D01*
X114624404Y-27153273D01*
X114719642Y-27105654D01*
X114767261Y-27058035D01*
X114814880Y-26962797D01*
X114814880Y-26677083D01*
X114767261Y-26581845D01*
X114719642Y-26534226D01*
X113814880Y-27486607D02*
X113814880Y-28153273D01*
X114814880Y-27724702D01*
X95764880Y-25629464D02*
X94764880Y-25629464D01*
X94764880Y-25867559D01*
X94812500Y-26010416D01*
X94907738Y-26105654D01*
X95002976Y-26153273D01*
X95193452Y-26200892D01*
X95336309Y-26200892D01*
X95526785Y-26153273D01*
X95622023Y-26105654D01*
X95717261Y-26010416D01*
X95764880Y-25867559D01*
X95764880Y-25629464D01*
X94860119Y-26581845D02*
X94812500Y-26629464D01*
X94764880Y-26724702D01*
X94764880Y-26962797D01*
X94812500Y-27058035D01*
X94860119Y-27105654D01*
X94955357Y-27153273D01*
X95050595Y-27153273D01*
X95193452Y-27105654D01*
X95764880Y-26534226D01*
X95764880Y-27153273D01*
X95193452Y-27724702D02*
X95145833Y-27629464D01*
X95098214Y-27581845D01*
X95002976Y-27534226D01*
X94955357Y-27534226D01*
X94860119Y-27581845D01*
X94812500Y-27629464D01*
X94764880Y-27724702D01*
X94764880Y-27915178D01*
X94812500Y-28010416D01*
X94860119Y-28058035D01*
X94955357Y-28105654D01*
X95002976Y-28105654D01*
X95098214Y-28058035D01*
X95145833Y-28010416D01*
X95193452Y-27915178D01*
X95193452Y-27724702D01*
X95241071Y-27629464D01*
X95288690Y-27581845D01*
X95383928Y-27534226D01*
X95574404Y-27534226D01*
X95669642Y-27581845D01*
X95717261Y-27629464D01*
X95764880Y-27724702D01*
X95764880Y-27915178D01*
X95717261Y-28010416D01*
X95669642Y-28058035D01*
X95574404Y-28105654D01*
X95383928Y-28105654D01*
X95288690Y-28058035D01*
X95241071Y-28010416D01*
X95193452Y-27915178D01*
X210064880Y-25629464D02*
X209064880Y-25629464D01*
X209064880Y-25867559D01*
X209112500Y-26010416D01*
X209207738Y-26105654D01*
X209302976Y-26153273D01*
X209493452Y-26200892D01*
X209636309Y-26200892D01*
X209826785Y-26153273D01*
X209922023Y-26105654D01*
X210017261Y-26010416D01*
X210064880Y-25867559D01*
X210064880Y-25629464D01*
X210064880Y-27153273D02*
X210064880Y-26581845D01*
X210064880Y-26867559D02*
X209064880Y-26867559D01*
X209207738Y-26772321D01*
X209302976Y-26677083D01*
X209350595Y-26581845D01*
X209064880Y-28058035D02*
X209064880Y-27581845D01*
X209541071Y-27534226D01*
X209493452Y-27581845D01*
X209445833Y-27677083D01*
X209445833Y-27915178D01*
X209493452Y-28010416D01*
X209541071Y-28058035D01*
X209636309Y-28105654D01*
X209874404Y-28105654D01*
X209969642Y-28058035D01*
X210017261Y-28010416D01*
X210064880Y-27915178D01*
X210064880Y-27677083D01*
X210017261Y-27581845D01*
X209969642Y-27534226D01*
X187839880Y-22733333D02*
X187363690Y-22400000D01*
X187839880Y-22161904D02*
X186839880Y-22161904D01*
X186839880Y-22542857D01*
X186887500Y-22638095D01*
X186935119Y-22685714D01*
X187030357Y-22733333D01*
X187173214Y-22733333D01*
X187268452Y-22685714D01*
X187316071Y-22638095D01*
X187363690Y-22542857D01*
X187363690Y-22161904D01*
X187173214Y-23590476D02*
X187839880Y-23590476D01*
X186792261Y-23352380D02*
X187506547Y-23114285D01*
X187506547Y-23733333D01*
X315954166Y-71552380D02*
X316287500Y-71076190D01*
X316525595Y-71552380D02*
X316525595Y-70552380D01*
X316144642Y-70552380D01*
X316049404Y-70600000D01*
X316001785Y-70647619D01*
X315954166Y-70742857D01*
X315954166Y-70885714D01*
X316001785Y-70980952D01*
X316049404Y-71028571D01*
X316144642Y-71076190D01*
X316525595Y-71076190D01*
X315573214Y-70647619D02*
X315525595Y-70600000D01*
X315430357Y-70552380D01*
X315192261Y-70552380D01*
X315097023Y-70600000D01*
X315049404Y-70647619D01*
X315001785Y-70742857D01*
X315001785Y-70838095D01*
X315049404Y-70980952D01*
X315620833Y-71552380D01*
X315001785Y-71552380D01*
X231652380Y-101829464D02*
X230652380Y-101829464D01*
X230652380Y-102067559D01*
X230700000Y-102210416D01*
X230795238Y-102305654D01*
X230890476Y-102353273D01*
X231080952Y-102400892D01*
X231223809Y-102400892D01*
X231414285Y-102353273D01*
X231509523Y-102305654D01*
X231604761Y-102210416D01*
X231652380Y-102067559D01*
X231652380Y-101829464D01*
X230985714Y-103258035D02*
X231652380Y-103258035D01*
X230604761Y-103019940D02*
X231319047Y-102781845D01*
X231319047Y-103400892D01*
X231652380Y-104305654D02*
X231652380Y-103734226D01*
X231652380Y-104019940D02*
X230652380Y-104019940D01*
X230795238Y-103924702D01*
X230890476Y-103829464D01*
X230938095Y-103734226D01*
X319276190Y-93663690D02*
X319276190Y-94139880D01*
X319609523Y-93139880D02*
X319276190Y-93663690D01*
X318942857Y-93139880D01*
X318085714Y-94139880D02*
X318657142Y-94139880D01*
X318371428Y-94139880D02*
X318371428Y-93139880D01*
X318466666Y-93282738D01*
X318561904Y-93377976D01*
X318657142Y-93425595D01*
X91002380Y-63729464D02*
X90002380Y-63729464D01*
X90002380Y-63967559D01*
X90050000Y-64110416D01*
X90145238Y-64205654D01*
X90240476Y-64253273D01*
X90430952Y-64300892D01*
X90573809Y-64300892D01*
X90764285Y-64253273D01*
X90859523Y-64205654D01*
X90954761Y-64110416D01*
X91002380Y-63967559D01*
X91002380Y-63729464D01*
X90097619Y-64681845D02*
X90050000Y-64729464D01*
X90002380Y-64824702D01*
X90002380Y-65062797D01*
X90050000Y-65158035D01*
X90097619Y-65205654D01*
X90192857Y-65253273D01*
X90288095Y-65253273D01*
X90430952Y-65205654D01*
X91002380Y-64634226D01*
X91002380Y-65253273D01*
X91002380Y-66205654D02*
X91002380Y-65634226D01*
X91002380Y-65919940D02*
X90002380Y-65919940D01*
X90145238Y-65824702D01*
X90240476Y-65729464D01*
X90288095Y-65634226D01*
X322066666Y-94057142D02*
X322114285Y-94104761D01*
X322257142Y-94152380D01*
X322352380Y-94152380D01*
X322495238Y-94104761D01*
X322590476Y-94009523D01*
X322638095Y-93914285D01*
X322685714Y-93723809D01*
X322685714Y-93580952D01*
X322638095Y-93390476D01*
X322590476Y-93295238D01*
X322495238Y-93200000D01*
X322352380Y-93152380D01*
X322257142Y-93152380D01*
X322114285Y-93200000D01*
X322066666Y-93247619D01*
X321733333Y-93152380D02*
X321114285Y-93152380D01*
X321447619Y-93533333D01*
X321304761Y-93533333D01*
X321209523Y-93580952D01*
X321161904Y-93628571D01*
X321114285Y-93723809D01*
X321114285Y-93961904D01*
X321161904Y-94057142D01*
X321209523Y-94104761D01*
X321304761Y-94152380D01*
X321590476Y-94152380D01*
X321685714Y-94104761D01*
X321733333Y-94057142D01*
X257852380Y-44679464D02*
X256852380Y-44679464D01*
X256852380Y-44917559D01*
X256900000Y-45060416D01*
X256995238Y-45155654D01*
X257090476Y-45203273D01*
X257280952Y-45250892D01*
X257423809Y-45250892D01*
X257614285Y-45203273D01*
X257709523Y-45155654D01*
X257804761Y-45060416D01*
X257852380Y-44917559D01*
X257852380Y-44679464D01*
X256852380Y-45584226D02*
X256852380Y-46203273D01*
X257233333Y-45869940D01*
X257233333Y-46012797D01*
X257280952Y-46108035D01*
X257328571Y-46155654D01*
X257423809Y-46203273D01*
X257661904Y-46203273D01*
X257757142Y-46155654D01*
X257804761Y-46108035D01*
X257852380Y-46012797D01*
X257852380Y-45727083D01*
X257804761Y-45631845D01*
X257757142Y-45584226D01*
X257185714Y-47060416D02*
X257852380Y-47060416D01*
X256804761Y-46822321D02*
X257519047Y-46584226D01*
X257519047Y-47203273D01*
X327566666Y-85057142D02*
X327614285Y-85104761D01*
X327757142Y-85152380D01*
X327852380Y-85152380D01*
X327995238Y-85104761D01*
X328090476Y-85009523D01*
X328138095Y-84914285D01*
X328185714Y-84723809D01*
X328185714Y-84580952D01*
X328138095Y-84390476D01*
X328090476Y-84295238D01*
X327995238Y-84200000D01*
X327852380Y-84152380D01*
X327757142Y-84152380D01*
X327614285Y-84200000D01*
X327566666Y-84247619D01*
X326709523Y-84485714D02*
X326709523Y-85152380D01*
X326947619Y-84104761D02*
X327185714Y-84819047D01*
X326566666Y-84819047D01*
X100527380Y-82779464D02*
X99527380Y-82779464D01*
X99527380Y-83017559D01*
X99575000Y-83160416D01*
X99670238Y-83255654D01*
X99765476Y-83303273D01*
X99955952Y-83350892D01*
X100098809Y-83350892D01*
X100289285Y-83303273D01*
X100384523Y-83255654D01*
X100479761Y-83160416D01*
X100527380Y-83017559D01*
X100527380Y-82779464D01*
X99527380Y-83684226D02*
X99527380Y-84303273D01*
X99908333Y-83969940D01*
X99908333Y-84112797D01*
X99955952Y-84208035D01*
X100003571Y-84255654D01*
X100098809Y-84303273D01*
X100336904Y-84303273D01*
X100432142Y-84255654D01*
X100479761Y-84208035D01*
X100527380Y-84112797D01*
X100527380Y-83827083D01*
X100479761Y-83731845D01*
X100432142Y-83684226D01*
X100527380Y-85255654D02*
X100527380Y-84684226D01*
X100527380Y-84969940D02*
X99527380Y-84969940D01*
X99670238Y-84874702D01*
X99765476Y-84779464D01*
X99813095Y-84684226D01*
X124339880Y-44679464D02*
X123339880Y-44679464D01*
X123339880Y-44917559D01*
X123387500Y-45060416D01*
X123482738Y-45155654D01*
X123577976Y-45203273D01*
X123768452Y-45250892D01*
X123911309Y-45250892D01*
X124101785Y-45203273D01*
X124197023Y-45155654D01*
X124292261Y-45060416D01*
X124339880Y-44917559D01*
X124339880Y-44679464D01*
X123339880Y-45584226D02*
X123339880Y-46203273D01*
X123720833Y-45869940D01*
X123720833Y-46012797D01*
X123768452Y-46108035D01*
X123816071Y-46155654D01*
X123911309Y-46203273D01*
X124149404Y-46203273D01*
X124244642Y-46155654D01*
X124292261Y-46108035D01*
X124339880Y-46012797D01*
X124339880Y-45727083D01*
X124292261Y-45631845D01*
X124244642Y-45584226D01*
X123768452Y-46774702D02*
X123720833Y-46679464D01*
X123673214Y-46631845D01*
X123577976Y-46584226D01*
X123530357Y-46584226D01*
X123435119Y-46631845D01*
X123387500Y-46679464D01*
X123339880Y-46774702D01*
X123339880Y-46965178D01*
X123387500Y-47060416D01*
X123435119Y-47108035D01*
X123530357Y-47155654D01*
X123577976Y-47155654D01*
X123673214Y-47108035D01*
X123720833Y-47060416D01*
X123768452Y-46965178D01*
X123768452Y-46774702D01*
X123816071Y-46679464D01*
X123863690Y-46631845D01*
X123958928Y-46584226D01*
X124149404Y-46584226D01*
X124244642Y-46631845D01*
X124292261Y-46679464D01*
X124339880Y-46774702D01*
X124339880Y-46965178D01*
X124292261Y-47060416D01*
X124244642Y-47108035D01*
X124149404Y-47155654D01*
X123958928Y-47155654D01*
X123863690Y-47108035D01*
X123816071Y-47060416D01*
X123768452Y-46965178D01*
X323852380Y-92133333D02*
X323376190Y-91800000D01*
X323852380Y-91561904D02*
X322852380Y-91561904D01*
X322852380Y-91942857D01*
X322900000Y-92038095D01*
X322947619Y-92085714D01*
X323042857Y-92133333D01*
X323185714Y-92133333D01*
X323280952Y-92085714D01*
X323328571Y-92038095D01*
X323376190Y-91942857D01*
X323376190Y-91561904D01*
X323852380Y-93085714D02*
X323852380Y-92514285D01*
X323852380Y-92800000D02*
X322852380Y-92800000D01*
X322995238Y-92704761D01*
X323090476Y-92609523D01*
X323138095Y-92514285D01*
X88621130Y-101829464D02*
X87621130Y-101829464D01*
X87621130Y-102067559D01*
X87668750Y-102210416D01*
X87763988Y-102305654D01*
X87859226Y-102353273D01*
X88049702Y-102400892D01*
X88192559Y-102400892D01*
X88383035Y-102353273D01*
X88478273Y-102305654D01*
X88573511Y-102210416D01*
X88621130Y-102067559D01*
X88621130Y-101829464D01*
X87716369Y-102781845D02*
X87668750Y-102829464D01*
X87621130Y-102924702D01*
X87621130Y-103162797D01*
X87668750Y-103258035D01*
X87716369Y-103305654D01*
X87811607Y-103353273D01*
X87906845Y-103353273D01*
X88049702Y-103305654D01*
X88621130Y-102734226D01*
X88621130Y-103353273D01*
X87621130Y-103686607D02*
X87621130Y-104305654D01*
X88002083Y-103972321D01*
X88002083Y-104115178D01*
X88049702Y-104210416D01*
X88097321Y-104258035D01*
X88192559Y-104305654D01*
X88430654Y-104305654D01*
X88525892Y-104258035D01*
X88573511Y-104210416D01*
X88621130Y-104115178D01*
X88621130Y-103829464D01*
X88573511Y-103734226D01*
X88525892Y-103686607D01*
X105289880Y-44679464D02*
X104289880Y-44679464D01*
X104289880Y-44917559D01*
X104337500Y-45060416D01*
X104432738Y-45155654D01*
X104527976Y-45203273D01*
X104718452Y-45250892D01*
X104861309Y-45250892D01*
X105051785Y-45203273D01*
X105147023Y-45155654D01*
X105242261Y-45060416D01*
X105289880Y-44917559D01*
X105289880Y-44679464D01*
X104385119Y-45631845D02*
X104337500Y-45679464D01*
X104289880Y-45774702D01*
X104289880Y-46012797D01*
X104337500Y-46108035D01*
X104385119Y-46155654D01*
X104480357Y-46203273D01*
X104575595Y-46203273D01*
X104718452Y-46155654D01*
X105289880Y-45584226D01*
X105289880Y-46203273D01*
X105289880Y-46679464D02*
X105289880Y-46869940D01*
X105242261Y-46965178D01*
X105194642Y-47012797D01*
X105051785Y-47108035D01*
X104861309Y-47155654D01*
X104480357Y-47155654D01*
X104385119Y-47108035D01*
X104337500Y-47060416D01*
X104289880Y-46965178D01*
X104289880Y-46774702D01*
X104337500Y-46679464D01*
X104385119Y-46631845D01*
X104480357Y-46584226D01*
X104718452Y-46584226D01*
X104813690Y-46631845D01*
X104861309Y-46679464D01*
X104908928Y-46774702D01*
X104908928Y-46965178D01*
X104861309Y-47060416D01*
X104813690Y-47108035D01*
X104718452Y-47155654D01*
X219589880Y-44679464D02*
X218589880Y-44679464D01*
X218589880Y-44917559D01*
X218637500Y-45060416D01*
X218732738Y-45155654D01*
X218827976Y-45203273D01*
X219018452Y-45250892D01*
X219161309Y-45250892D01*
X219351785Y-45203273D01*
X219447023Y-45155654D01*
X219542261Y-45060416D01*
X219589880Y-44917559D01*
X219589880Y-44679464D01*
X219589880Y-46203273D02*
X219589880Y-45631845D01*
X219589880Y-45917559D02*
X218589880Y-45917559D01*
X218732738Y-45822321D01*
X218827976Y-45727083D01*
X218875595Y-45631845D01*
X218589880Y-47060416D02*
X218589880Y-46869940D01*
X218637500Y-46774702D01*
X218685119Y-46727083D01*
X218827976Y-46631845D01*
X219018452Y-46584226D01*
X219399404Y-46584226D01*
X219494642Y-46631845D01*
X219542261Y-46679464D01*
X219589880Y-46774702D01*
X219589880Y-46965178D01*
X219542261Y-47060416D01*
X219494642Y-47108035D01*
X219399404Y-47155654D01*
X219161309Y-47155654D01*
X219066071Y-47108035D01*
X219018452Y-47060416D01*
X218970833Y-46965178D01*
X218970833Y-46774702D01*
X219018452Y-46679464D01*
X219066071Y-46631845D01*
X219161309Y-46584226D01*
X76714880Y-25629464D02*
X75714880Y-25629464D01*
X75714880Y-25867559D01*
X75762500Y-26010416D01*
X75857738Y-26105654D01*
X75952976Y-26153273D01*
X76143452Y-26200892D01*
X76286309Y-26200892D01*
X76476785Y-26153273D01*
X76572023Y-26105654D01*
X76667261Y-26010416D01*
X76714880Y-25867559D01*
X76714880Y-25629464D01*
X76714880Y-27153273D02*
X76714880Y-26581845D01*
X76714880Y-26867559D02*
X75714880Y-26867559D01*
X75857738Y-26772321D01*
X75952976Y-26677083D01*
X76000595Y-26581845D01*
X76714880Y-27629464D02*
X76714880Y-27819940D01*
X76667261Y-27915178D01*
X76619642Y-27962797D01*
X76476785Y-28058035D01*
X76286309Y-28105654D01*
X75905357Y-28105654D01*
X75810119Y-28058035D01*
X75762500Y-28010416D01*
X75714880Y-27915178D01*
X75714880Y-27724702D01*
X75762500Y-27629464D01*
X75810119Y-27581845D01*
X75905357Y-27534226D01*
X76143452Y-27534226D01*
X76238690Y-27581845D01*
X76286309Y-27629464D01*
X76333928Y-27724702D01*
X76333928Y-27915178D01*
X76286309Y-28010416D01*
X76238690Y-28058035D01*
X76143452Y-28105654D01*
X43377380Y-45155654D02*
X42377380Y-45155654D01*
X42377380Y-45393750D01*
X42425000Y-45536607D01*
X42520238Y-45631845D01*
X42615476Y-45679464D01*
X42805952Y-45727083D01*
X42948809Y-45727083D01*
X43139285Y-45679464D01*
X43234523Y-45631845D01*
X43329761Y-45536607D01*
X43377380Y-45393750D01*
X43377380Y-45155654D01*
X42472619Y-46108035D02*
X42425000Y-46155654D01*
X42377380Y-46250892D01*
X42377380Y-46488988D01*
X42425000Y-46584226D01*
X42472619Y-46631845D01*
X42567857Y-46679464D01*
X42663095Y-46679464D01*
X42805952Y-46631845D01*
X43377380Y-46060416D01*
X43377380Y-46679464D01*
X71952380Y-63729464D02*
X70952380Y-63729464D01*
X70952380Y-63967559D01*
X71000000Y-64110416D01*
X71095238Y-64205654D01*
X71190476Y-64253273D01*
X71380952Y-64300892D01*
X71523809Y-64300892D01*
X71714285Y-64253273D01*
X71809523Y-64205654D01*
X71904761Y-64110416D01*
X71952380Y-63967559D01*
X71952380Y-63729464D01*
X71952380Y-65253273D02*
X71952380Y-64681845D01*
X71952380Y-64967559D02*
X70952380Y-64967559D01*
X71095238Y-64872321D01*
X71190476Y-64777083D01*
X71238095Y-64681845D01*
X71047619Y-65634226D02*
X71000000Y-65681845D01*
X70952380Y-65777083D01*
X70952380Y-66015178D01*
X71000000Y-66110416D01*
X71047619Y-66158035D01*
X71142857Y-66205654D01*
X71238095Y-66205654D01*
X71380952Y-66158035D01*
X71952380Y-65586607D01*
X71952380Y-66205654D01*
X57664880Y-25629464D02*
X56664880Y-25629464D01*
X56664880Y-25867559D01*
X56712500Y-26010416D01*
X56807738Y-26105654D01*
X56902976Y-26153273D01*
X57093452Y-26200892D01*
X57236309Y-26200892D01*
X57426785Y-26153273D01*
X57522023Y-26105654D01*
X57617261Y-26010416D01*
X57664880Y-25867559D01*
X57664880Y-25629464D01*
X57664880Y-27153273D02*
X57664880Y-26581845D01*
X57664880Y-26867559D02*
X56664880Y-26867559D01*
X56807738Y-26772321D01*
X56902976Y-26677083D01*
X56950595Y-26581845D01*
X56664880Y-27772321D02*
X56664880Y-27867559D01*
X56712500Y-27962797D01*
X56760119Y-28010416D01*
X56855357Y-28058035D01*
X57045833Y-28105654D01*
X57283928Y-28105654D01*
X57474404Y-28058035D01*
X57569642Y-28010416D01*
X57617261Y-27962797D01*
X57664880Y-27867559D01*
X57664880Y-27772321D01*
X57617261Y-27677083D01*
X57569642Y-27629464D01*
X57474404Y-27581845D01*
X57283928Y-27534226D01*
X57045833Y-27534226D01*
X56855357Y-27581845D01*
X56760119Y-27629464D01*
X56712500Y-27677083D01*
X56664880Y-27772321D01*
X243402380Y-63729464D02*
X242402380Y-63729464D01*
X242402380Y-63967559D01*
X242450000Y-64110416D01*
X242545238Y-64205654D01*
X242640476Y-64253273D01*
X242830952Y-64300892D01*
X242973809Y-64300892D01*
X243164285Y-64253273D01*
X243259523Y-64205654D01*
X243354761Y-64110416D01*
X243402380Y-63967559D01*
X243402380Y-63729464D01*
X242497619Y-64681845D02*
X242450000Y-64729464D01*
X242402380Y-64824702D01*
X242402380Y-65062797D01*
X242450000Y-65158035D01*
X242497619Y-65205654D01*
X242592857Y-65253273D01*
X242688095Y-65253273D01*
X242830952Y-65205654D01*
X243402380Y-64634226D01*
X243402380Y-65253273D01*
X242402380Y-66110416D02*
X242402380Y-65919940D01*
X242450000Y-65824702D01*
X242497619Y-65777083D01*
X242640476Y-65681845D01*
X242830952Y-65634226D01*
X243211904Y-65634226D01*
X243307142Y-65681845D01*
X243354761Y-65729464D01*
X243402380Y-65824702D01*
X243402380Y-66015178D01*
X243354761Y-66110416D01*
X243307142Y-66158035D01*
X243211904Y-66205654D01*
X242973809Y-66205654D01*
X242878571Y-66158035D01*
X242830952Y-66110416D01*
X242783333Y-66015178D01*
X242783333Y-65824702D01*
X242830952Y-65729464D01*
X242878571Y-65681845D01*
X242973809Y-65634226D01*
X195777380Y-83255654D02*
X194777380Y-83255654D01*
X194777380Y-83493750D01*
X194825000Y-83636607D01*
X194920238Y-83731845D01*
X195015476Y-83779464D01*
X195205952Y-83827083D01*
X195348809Y-83827083D01*
X195539285Y-83779464D01*
X195634523Y-83731845D01*
X195729761Y-83636607D01*
X195777380Y-83493750D01*
X195777380Y-83255654D01*
X195777380Y-84303273D02*
X195777380Y-84493750D01*
X195729761Y-84588988D01*
X195682142Y-84636607D01*
X195539285Y-84731845D01*
X195348809Y-84779464D01*
X194967857Y-84779464D01*
X194872619Y-84731845D01*
X194825000Y-84684226D01*
X194777380Y-84588988D01*
X194777380Y-84398511D01*
X194825000Y-84303273D01*
X194872619Y-84255654D01*
X194967857Y-84208035D01*
X195205952Y-84208035D01*
X195301190Y-84255654D01*
X195348809Y-84303273D01*
X195396428Y-84398511D01*
X195396428Y-84588988D01*
X195348809Y-84684226D01*
X195301190Y-84731845D01*
X195205952Y-84779464D01*
X319916666Y-71457142D02*
X319964285Y-71504761D01*
X320107142Y-71552380D01*
X320202380Y-71552380D01*
X320345238Y-71504761D01*
X320440476Y-71409523D01*
X320488095Y-71314285D01*
X320535714Y-71123809D01*
X320535714Y-70980952D01*
X320488095Y-70790476D01*
X320440476Y-70695238D01*
X320345238Y-70600000D01*
X320202380Y-70552380D01*
X320107142Y-70552380D01*
X319964285Y-70600000D01*
X319916666Y-70647619D01*
X319011904Y-70552380D02*
X319488095Y-70552380D01*
X319535714Y-71028571D01*
X319488095Y-70980952D01*
X319392857Y-70933333D01*
X319154761Y-70933333D01*
X319059523Y-70980952D01*
X319011904Y-71028571D01*
X318964285Y-71123809D01*
X318964285Y-71361904D01*
X319011904Y-71457142D01*
X319059523Y-71504761D01*
X319154761Y-71552380D01*
X319392857Y-71552380D01*
X319488095Y-71504761D01*
X319535714Y-71457142D01*
X238639880Y-44679464D02*
X237639880Y-44679464D01*
X237639880Y-44917559D01*
X237687500Y-45060416D01*
X237782738Y-45155654D01*
X237877976Y-45203273D01*
X238068452Y-45250892D01*
X238211309Y-45250892D01*
X238401785Y-45203273D01*
X238497023Y-45155654D01*
X238592261Y-45060416D01*
X238639880Y-44917559D01*
X238639880Y-44679464D01*
X237735119Y-45631845D02*
X237687500Y-45679464D01*
X237639880Y-45774702D01*
X237639880Y-46012797D01*
X237687500Y-46108035D01*
X237735119Y-46155654D01*
X237830357Y-46203273D01*
X237925595Y-46203273D01*
X238068452Y-46155654D01*
X238639880Y-45584226D01*
X238639880Y-46203273D01*
X237639880Y-47108035D02*
X237639880Y-46631845D01*
X238116071Y-46584226D01*
X238068452Y-46631845D01*
X238020833Y-46727083D01*
X238020833Y-46965178D01*
X238068452Y-47060416D01*
X238116071Y-47108035D01*
X238211309Y-47155654D01*
X238449404Y-47155654D01*
X238544642Y-47108035D01*
X238592261Y-47060416D01*
X238639880Y-46965178D01*
X238639880Y-46727083D01*
X238592261Y-46631845D01*
X238544642Y-46584226D01*
X334052380Y-44685714D02*
X333052380Y-44685714D01*
X333052380Y-44923809D01*
X333100000Y-45066666D01*
X333195238Y-45161904D01*
X333290476Y-45209523D01*
X333480952Y-45257142D01*
X333623809Y-45257142D01*
X333814285Y-45209523D01*
X333909523Y-45161904D01*
X334004761Y-45066666D01*
X334052380Y-44923809D01*
X334052380Y-44685714D01*
X333052380Y-46161904D02*
X333052380Y-45685714D01*
X333528571Y-45638095D01*
X333480952Y-45685714D01*
X333433333Y-45780952D01*
X333433333Y-46019047D01*
X333480952Y-46114285D01*
X333528571Y-46161904D01*
X333623809Y-46209523D01*
X333861904Y-46209523D01*
X333957142Y-46161904D01*
X334004761Y-46114285D01*
X334052380Y-46019047D01*
X334052380Y-45780952D01*
X334004761Y-45685714D01*
X333957142Y-45638095D01*
X333385714Y-47066666D02*
X334052380Y-47066666D01*
X333004761Y-46828571D02*
X333719047Y-46590476D01*
X333719047Y-47209523D01*
X352939880Y-82779464D02*
X351939880Y-82779464D01*
X351939880Y-83017559D01*
X351987500Y-83160416D01*
X352082738Y-83255654D01*
X352177976Y-83303273D01*
X352368452Y-83350892D01*
X352511309Y-83350892D01*
X352701785Y-83303273D01*
X352797023Y-83255654D01*
X352892261Y-83160416D01*
X352939880Y-83017559D01*
X352939880Y-82779464D01*
X351939880Y-84208035D02*
X351939880Y-84017559D01*
X351987500Y-83922321D01*
X352035119Y-83874702D01*
X352177976Y-83779464D01*
X352368452Y-83731845D01*
X352749404Y-83731845D01*
X352844642Y-83779464D01*
X352892261Y-83827083D01*
X352939880Y-83922321D01*
X352939880Y-84112797D01*
X352892261Y-84208035D01*
X352844642Y-84255654D01*
X352749404Y-84303273D01*
X352511309Y-84303273D01*
X352416071Y-84255654D01*
X352368452Y-84208035D01*
X352320833Y-84112797D01*
X352320833Y-83922321D01*
X352368452Y-83827083D01*
X352416071Y-83779464D01*
X352511309Y-83731845D01*
X352939880Y-85255654D02*
X352939880Y-84684226D01*
X352939880Y-84969940D02*
X351939880Y-84969940D01*
X352082738Y-84874702D01*
X352177976Y-84779464D01*
X352225595Y-84684226D01*
X148352380Y-63785714D02*
X147352380Y-63785714D01*
X147352380Y-64023809D01*
X147400000Y-64166666D01*
X147495238Y-64261904D01*
X147590476Y-64309523D01*
X147780952Y-64357142D01*
X147923809Y-64357142D01*
X148114285Y-64309523D01*
X148209523Y-64261904D01*
X148304761Y-64166666D01*
X148352380Y-64023809D01*
X148352380Y-63785714D01*
X147685714Y-65214285D02*
X148352380Y-65214285D01*
X147304761Y-64976190D02*
X148019047Y-64738095D01*
X148019047Y-65357142D01*
X147780952Y-65880952D02*
X147733333Y-65785714D01*
X147685714Y-65738095D01*
X147590476Y-65690476D01*
X147542857Y-65690476D01*
X147447619Y-65738095D01*
X147400000Y-65785714D01*
X147352380Y-65880952D01*
X147352380Y-66071428D01*
X147400000Y-66166666D01*
X147447619Y-66214285D01*
X147542857Y-66261904D01*
X147590476Y-66261904D01*
X147685714Y-66214285D01*
X147733333Y-66166666D01*
X147780952Y-66071428D01*
X147780952Y-65880952D01*
X147828571Y-65785714D01*
X147876190Y-65738095D01*
X147971428Y-65690476D01*
X148161904Y-65690476D01*
X148257142Y-65738095D01*
X148304761Y-65785714D01*
X148352380Y-65880952D01*
X148352380Y-66071428D01*
X148304761Y-66166666D01*
X148257142Y-66214285D01*
X148161904Y-66261904D01*
X147971428Y-66261904D01*
X147876190Y-66214285D01*
X147828571Y-66166666D01*
X147780952Y-66071428D01*
X185338095Y-28652380D02*
X185338095Y-27652380D01*
X185100000Y-27652380D01*
X184957142Y-27700000D01*
X184861904Y-27795238D01*
X184814285Y-27890476D01*
X184766666Y-28080952D01*
X184766666Y-28223809D01*
X184814285Y-28414285D01*
X184861904Y-28509523D01*
X184957142Y-28604761D01*
X185100000Y-28652380D01*
X185338095Y-28652380D01*
X183909523Y-27652380D02*
X184100000Y-27652380D01*
X184195238Y-27700000D01*
X184242857Y-27747619D01*
X184338095Y-27890476D01*
X184385714Y-28080952D01*
X184385714Y-28461904D01*
X184338095Y-28557142D01*
X184290476Y-28604761D01*
X184195238Y-28652380D01*
X184004761Y-28652380D01*
X183909523Y-28604761D01*
X183861904Y-28557142D01*
X183814285Y-28461904D01*
X183814285Y-28223809D01*
X183861904Y-28128571D01*
X183909523Y-28080952D01*
X184004761Y-28033333D01*
X184195238Y-28033333D01*
X184290476Y-28080952D01*
X184338095Y-28128571D01*
X184385714Y-28223809D01*
X110052380Y-63729464D02*
X109052380Y-63729464D01*
X109052380Y-63967559D01*
X109100000Y-64110416D01*
X109195238Y-64205654D01*
X109290476Y-64253273D01*
X109480952Y-64300892D01*
X109623809Y-64300892D01*
X109814285Y-64253273D01*
X109909523Y-64205654D01*
X110004761Y-64110416D01*
X110052380Y-63967559D01*
X110052380Y-63729464D01*
X109052380Y-64634226D02*
X109052380Y-65253273D01*
X109433333Y-64919940D01*
X109433333Y-65062797D01*
X109480952Y-65158035D01*
X109528571Y-65205654D01*
X109623809Y-65253273D01*
X109861904Y-65253273D01*
X109957142Y-65205654D01*
X110004761Y-65158035D01*
X110052380Y-65062797D01*
X110052380Y-64777083D01*
X110004761Y-64681845D01*
X109957142Y-64634226D01*
X109052380Y-65872321D02*
X109052380Y-65967559D01*
X109100000Y-66062797D01*
X109147619Y-66110416D01*
X109242857Y-66158035D01*
X109433333Y-66205654D01*
X109671428Y-66205654D01*
X109861904Y-66158035D01*
X109957142Y-66110416D01*
X110004761Y-66062797D01*
X110052380Y-65967559D01*
X110052380Y-65872321D01*
X110004761Y-65777083D01*
X109957142Y-65729464D01*
X109861904Y-65681845D01*
X109671428Y-65634226D01*
X109433333Y-65634226D01*
X109242857Y-65681845D01*
X109147619Y-65729464D01*
X109100000Y-65777083D01*
X109052380Y-65872321D01*
X328157142Y-75233333D02*
X328204761Y-75185714D01*
X328252380Y-75042857D01*
X328252380Y-74947619D01*
X328204761Y-74804761D01*
X328109523Y-74709523D01*
X328014285Y-74661904D01*
X327823809Y-74614285D01*
X327680952Y-74614285D01*
X327490476Y-74661904D01*
X327395238Y-74709523D01*
X327300000Y-74804761D01*
X327252380Y-74947619D01*
X327252380Y-75042857D01*
X327300000Y-75185714D01*
X327347619Y-75233333D01*
X327252380Y-75566666D02*
X327252380Y-76233333D01*
X328252380Y-75804761D01*
X334357142Y-77983333D02*
X334404761Y-77935714D01*
X334452380Y-77792857D01*
X334452380Y-77697619D01*
X334404761Y-77554761D01*
X334309523Y-77459523D01*
X334214285Y-77411904D01*
X334023809Y-77364285D01*
X333880952Y-77364285D01*
X333690476Y-77411904D01*
X333595238Y-77459523D01*
X333500000Y-77554761D01*
X333452380Y-77697619D01*
X333452380Y-77792857D01*
X333500000Y-77935714D01*
X333547619Y-77983333D01*
X334452380Y-78935714D02*
X334452380Y-78364285D01*
X334452380Y-78650000D02*
X333452380Y-78650000D01*
X333595238Y-78554761D01*
X333690476Y-78459523D01*
X333738095Y-78364285D01*
X314457142Y-91070833D02*
X314504761Y-91023214D01*
X314552380Y-90880357D01*
X314552380Y-90785119D01*
X314504761Y-90642261D01*
X314409523Y-90547023D01*
X314314285Y-90499404D01*
X314123809Y-90451785D01*
X313980952Y-90451785D01*
X313790476Y-90499404D01*
X313695238Y-90547023D01*
X313600000Y-90642261D01*
X313552380Y-90785119D01*
X313552380Y-90880357D01*
X313600000Y-91023214D01*
X313647619Y-91070833D01*
X313647619Y-91451785D02*
X313600000Y-91499404D01*
X313552380Y-91594642D01*
X313552380Y-91832738D01*
X313600000Y-91927976D01*
X313647619Y-91975595D01*
X313742857Y-92023214D01*
X313838095Y-92023214D01*
X313980952Y-91975595D01*
X314552380Y-91404166D01*
X314552380Y-92023214D01*
X295789880Y-25629464D02*
X294789880Y-25629464D01*
X294789880Y-25867559D01*
X294837500Y-26010416D01*
X294932738Y-26105654D01*
X295027976Y-26153273D01*
X295218452Y-26200892D01*
X295361309Y-26200892D01*
X295551785Y-26153273D01*
X295647023Y-26105654D01*
X295742261Y-26010416D01*
X295789880Y-25867559D01*
X295789880Y-25629464D01*
X294789880Y-27105654D02*
X294789880Y-26629464D01*
X295266071Y-26581845D01*
X295218452Y-26629464D01*
X295170833Y-26724702D01*
X295170833Y-26962797D01*
X295218452Y-27058035D01*
X295266071Y-27105654D01*
X295361309Y-27153273D01*
X295599404Y-27153273D01*
X295694642Y-27105654D01*
X295742261Y-27058035D01*
X295789880Y-26962797D01*
X295789880Y-26724702D01*
X295742261Y-26629464D01*
X295694642Y-26581845D01*
X295789880Y-28105654D02*
X295789880Y-27534226D01*
X295789880Y-27819940D02*
X294789880Y-27819940D01*
X294932738Y-27724702D01*
X295027976Y-27629464D01*
X295075595Y-27534226D01*
X371989880Y-101829464D02*
X370989880Y-101829464D01*
X370989880Y-102067559D01*
X371037500Y-102210416D01*
X371132738Y-102305654D01*
X371227976Y-102353273D01*
X371418452Y-102400892D01*
X371561309Y-102400892D01*
X371751785Y-102353273D01*
X371847023Y-102305654D01*
X371942261Y-102210416D01*
X371989880Y-102067559D01*
X371989880Y-101829464D01*
X370989880Y-103258035D02*
X370989880Y-103067559D01*
X371037500Y-102972321D01*
X371085119Y-102924702D01*
X371227976Y-102829464D01*
X371418452Y-102781845D01*
X371799404Y-102781845D01*
X371894642Y-102829464D01*
X371942261Y-102877083D01*
X371989880Y-102972321D01*
X371989880Y-103162797D01*
X371942261Y-103258035D01*
X371894642Y-103305654D01*
X371799404Y-103353273D01*
X371561309Y-103353273D01*
X371466071Y-103305654D01*
X371418452Y-103258035D01*
X371370833Y-103162797D01*
X371370833Y-102972321D01*
X371418452Y-102877083D01*
X371466071Y-102829464D01*
X371561309Y-102781845D01*
X371989880Y-103829464D02*
X371989880Y-104019940D01*
X371942261Y-104115178D01*
X371894642Y-104162797D01*
X371751785Y-104258035D01*
X371561309Y-104305654D01*
X371180357Y-104305654D01*
X371085119Y-104258035D01*
X371037500Y-104210416D01*
X370989880Y-104115178D01*
X370989880Y-103924702D01*
X371037500Y-103829464D01*
X371085119Y-103781845D01*
X371180357Y-103734226D01*
X371418452Y-103734226D01*
X371513690Y-103781845D01*
X371561309Y-103829464D01*
X371608928Y-103924702D01*
X371608928Y-104115178D01*
X371561309Y-104210416D01*
X371513690Y-104258035D01*
X371418452Y-104305654D01*
X119752380Y-82785714D02*
X118752380Y-82785714D01*
X118752380Y-83023809D01*
X118800000Y-83166666D01*
X118895238Y-83261904D01*
X118990476Y-83309523D01*
X119180952Y-83357142D01*
X119323809Y-83357142D01*
X119514285Y-83309523D01*
X119609523Y-83261904D01*
X119704761Y-83166666D01*
X119752380Y-83023809D01*
X119752380Y-82785714D01*
X119085714Y-84214285D02*
X119752380Y-84214285D01*
X118704761Y-83976190D02*
X119419047Y-83738095D01*
X119419047Y-84357142D01*
X118752380Y-84928571D02*
X118752380Y-85023809D01*
X118800000Y-85119047D01*
X118847619Y-85166666D01*
X118942857Y-85214285D01*
X119133333Y-85261904D01*
X119371428Y-85261904D01*
X119561904Y-85214285D01*
X119657142Y-85166666D01*
X119704761Y-85119047D01*
X119752380Y-85023809D01*
X119752380Y-84928571D01*
X119704761Y-84833333D01*
X119657142Y-84785714D01*
X119561904Y-84738095D01*
X119371428Y-84690476D01*
X119133333Y-84690476D01*
X118942857Y-84738095D01*
X118847619Y-84785714D01*
X118800000Y-84833333D01*
X118752380Y-84928571D01*
X186252380Y-63729464D02*
X185252380Y-63729464D01*
X185252380Y-63967559D01*
X185300000Y-64110416D01*
X185395238Y-64205654D01*
X185490476Y-64253273D01*
X185680952Y-64300892D01*
X185823809Y-64300892D01*
X186014285Y-64253273D01*
X186109523Y-64205654D01*
X186204761Y-64110416D01*
X186252380Y-63967559D01*
X186252380Y-63729464D01*
X185252380Y-65158035D02*
X185252380Y-64967559D01*
X185300000Y-64872321D01*
X185347619Y-64824702D01*
X185490476Y-64729464D01*
X185680952Y-64681845D01*
X186061904Y-64681845D01*
X186157142Y-64729464D01*
X186204761Y-64777083D01*
X186252380Y-64872321D01*
X186252380Y-65062797D01*
X186204761Y-65158035D01*
X186157142Y-65205654D01*
X186061904Y-65253273D01*
X185823809Y-65253273D01*
X185728571Y-65205654D01*
X185680952Y-65158035D01*
X185633333Y-65062797D01*
X185633333Y-64872321D01*
X185680952Y-64777083D01*
X185728571Y-64729464D01*
X185823809Y-64681845D01*
X185252380Y-66110416D02*
X185252380Y-65919940D01*
X185300000Y-65824702D01*
X185347619Y-65777083D01*
X185490476Y-65681845D01*
X185680952Y-65634226D01*
X186061904Y-65634226D01*
X186157142Y-65681845D01*
X186204761Y-65729464D01*
X186252380Y-65824702D01*
X186252380Y-66015178D01*
X186204761Y-66110416D01*
X186157142Y-66158035D01*
X186061904Y-66205654D01*
X185823809Y-66205654D01*
X185728571Y-66158035D01*
X185680952Y-66110416D01*
X185633333Y-66015178D01*
X185633333Y-65824702D01*
X185680952Y-65729464D01*
X185728571Y-65681845D01*
X185823809Y-65634226D01*
X42988095Y-82314880D02*
X42988095Y-81314880D01*
X42750000Y-81314880D01*
X42607142Y-81362500D01*
X42511904Y-81457738D01*
X42464285Y-81552976D01*
X42416666Y-81743452D01*
X42416666Y-81886309D01*
X42464285Y-82076785D01*
X42511904Y-82172023D01*
X42607142Y-82267261D01*
X42750000Y-82314880D01*
X42988095Y-82314880D01*
X41559523Y-81648214D02*
X41559523Y-82314880D01*
X41797619Y-81267261D02*
X42035714Y-81981547D01*
X41416666Y-81981547D01*
X205302380Y-64205654D02*
X204302380Y-64205654D01*
X204302380Y-64443750D01*
X204350000Y-64586607D01*
X204445238Y-64681845D01*
X204540476Y-64729464D01*
X204730952Y-64777083D01*
X204873809Y-64777083D01*
X205064285Y-64729464D01*
X205159523Y-64681845D01*
X205254761Y-64586607D01*
X205302380Y-64443750D01*
X205302380Y-64205654D01*
X204730952Y-65348511D02*
X204683333Y-65253273D01*
X204635714Y-65205654D01*
X204540476Y-65158035D01*
X204492857Y-65158035D01*
X204397619Y-65205654D01*
X204350000Y-65253273D01*
X204302380Y-65348511D01*
X204302380Y-65538988D01*
X204350000Y-65634226D01*
X204397619Y-65681845D01*
X204492857Y-65729464D01*
X204540476Y-65729464D01*
X204635714Y-65681845D01*
X204683333Y-65634226D01*
X204730952Y-65538988D01*
X204730952Y-65348511D01*
X204778571Y-65253273D01*
X204826190Y-65205654D01*
X204921428Y-65158035D01*
X205111904Y-65158035D01*
X205207142Y-65205654D01*
X205254761Y-65253273D01*
X205302380Y-65348511D01*
X205302380Y-65538988D01*
X205254761Y-65634226D01*
X205207142Y-65681845D01*
X205111904Y-65729464D01*
X204921428Y-65729464D01*
X204826190Y-65681845D01*
X204778571Y-65634226D01*
X204730952Y-65538988D01*
X193333630Y-29202083D02*
X192857440Y-28868750D01*
X193333630Y-28630654D02*
X192333630Y-28630654D01*
X192333630Y-29011607D01*
X192381250Y-29106845D01*
X192428869Y-29154464D01*
X192524107Y-29202083D01*
X192666964Y-29202083D01*
X192762202Y-29154464D01*
X192809821Y-29106845D01*
X192857440Y-29011607D01*
X192857440Y-28630654D01*
X192333630Y-30106845D02*
X192333630Y-29630654D01*
X192809821Y-29583035D01*
X192762202Y-29630654D01*
X192714583Y-29725892D01*
X192714583Y-29963988D01*
X192762202Y-30059226D01*
X192809821Y-30106845D01*
X192905059Y-30154464D01*
X193143154Y-30154464D01*
X193238392Y-30106845D01*
X193286011Y-30059226D01*
X193333630Y-29963988D01*
X193333630Y-29725892D01*
X193286011Y-29630654D01*
X193238392Y-29583035D01*
X181489880Y-44679464D02*
X180489880Y-44679464D01*
X180489880Y-44917559D01*
X180537500Y-45060416D01*
X180632738Y-45155654D01*
X180727976Y-45203273D01*
X180918452Y-45250892D01*
X181061309Y-45250892D01*
X181251785Y-45203273D01*
X181347023Y-45155654D01*
X181442261Y-45060416D01*
X181489880Y-44917559D01*
X181489880Y-44679464D01*
X180489880Y-46108035D02*
X180489880Y-45917559D01*
X180537500Y-45822321D01*
X180585119Y-45774702D01*
X180727976Y-45679464D01*
X180918452Y-45631845D01*
X181299404Y-45631845D01*
X181394642Y-45679464D01*
X181442261Y-45727083D01*
X181489880Y-45822321D01*
X181489880Y-46012797D01*
X181442261Y-46108035D01*
X181394642Y-46155654D01*
X181299404Y-46203273D01*
X181061309Y-46203273D01*
X180966071Y-46155654D01*
X180918452Y-46108035D01*
X180870833Y-46012797D01*
X180870833Y-45822321D01*
X180918452Y-45727083D01*
X180966071Y-45679464D01*
X181061309Y-45631845D01*
X180489880Y-47108035D02*
X180489880Y-46631845D01*
X180966071Y-46584226D01*
X180918452Y-46631845D01*
X180870833Y-46727083D01*
X180870833Y-46965178D01*
X180918452Y-47060416D01*
X180966071Y-47108035D01*
X181061309Y-47155654D01*
X181299404Y-47155654D01*
X181394642Y-47108035D01*
X181442261Y-47060416D01*
X181489880Y-46965178D01*
X181489880Y-46727083D01*
X181442261Y-46631845D01*
X181394642Y-46584226D01*
X214827380Y-82779464D02*
X213827380Y-82779464D01*
X213827380Y-83017559D01*
X213875000Y-83160416D01*
X213970238Y-83255654D01*
X214065476Y-83303273D01*
X214255952Y-83350892D01*
X214398809Y-83350892D01*
X214589285Y-83303273D01*
X214684523Y-83255654D01*
X214779761Y-83160416D01*
X214827380Y-83017559D01*
X214827380Y-82779464D01*
X214827380Y-84303273D02*
X214827380Y-83731845D01*
X214827380Y-84017559D02*
X213827380Y-84017559D01*
X213970238Y-83922321D01*
X214065476Y-83827083D01*
X214113095Y-83731845D01*
X214255952Y-84874702D02*
X214208333Y-84779464D01*
X214160714Y-84731845D01*
X214065476Y-84684226D01*
X214017857Y-84684226D01*
X213922619Y-84731845D01*
X213875000Y-84779464D01*
X213827380Y-84874702D01*
X213827380Y-85065178D01*
X213875000Y-85160416D01*
X213922619Y-85208035D01*
X214017857Y-85255654D01*
X214065476Y-85255654D01*
X214160714Y-85208035D01*
X214208333Y-85160416D01*
X214255952Y-85065178D01*
X214255952Y-84874702D01*
X214303571Y-84779464D01*
X214351190Y-84731845D01*
X214446428Y-84684226D01*
X214636904Y-84684226D01*
X214732142Y-84731845D01*
X214779761Y-84779464D01*
X214827380Y-84874702D01*
X214827380Y-85065178D01*
X214779761Y-85160416D01*
X214732142Y-85208035D01*
X214636904Y-85255654D01*
X214446428Y-85255654D01*
X214351190Y-85208035D01*
X214303571Y-85160416D01*
X214255952Y-85065178D01*
D11*
X175585000Y-82993750D02*
X175585000Y-85678750D01*
X173665000Y-85678750D02*
X173665000Y-82993750D01*
X175585000Y-85678750D02*
X173665000Y-85678750D01*
X130802500Y-28528750D02*
X130802500Y-25843750D01*
X132722500Y-25843750D02*
X132722500Y-28528750D01*
X132722500Y-28528750D02*
X130802500Y-28528750D01*
X249865000Y-85678750D02*
X249865000Y-82993750D01*
X251785000Y-82993750D02*
X251785000Y-85678750D01*
X251785000Y-85678750D02*
X249865000Y-85678750D01*
X280110000Y-63943750D02*
X280110000Y-66628750D01*
X278190000Y-66628750D02*
X278190000Y-63943750D01*
X280110000Y-66628750D02*
X278190000Y-66628750D01*
X66047500Y-44893750D02*
X66047500Y-47578750D01*
X66047500Y-47578750D02*
X64127500Y-47578750D01*
X64127500Y-47578750D02*
X64127500Y-44893750D01*
X277978750Y-104728750D02*
X276058750Y-104728750D01*
X276058750Y-104728750D02*
X276058750Y-102043750D01*
X277978750Y-102043750D02*
X277978750Y-104728750D01*
X230815000Y-85678750D02*
X230815000Y-82993750D01*
X232735000Y-85678750D02*
X230815000Y-85678750D01*
X232735000Y-82993750D02*
X232735000Y-85678750D01*
X370847500Y-25843750D02*
X370847500Y-28528750D01*
X368927500Y-28528750D02*
X368927500Y-25843750D01*
X370847500Y-28528750D02*
X368927500Y-28528750D01*
X61285000Y-82993750D02*
X61285000Y-85678750D01*
X59365000Y-85678750D02*
X59365000Y-82993750D01*
X61285000Y-85678750D02*
X59365000Y-85678750D01*
X137485000Y-85678750D02*
X135565000Y-85678750D01*
X137485000Y-82993750D02*
X137485000Y-85678750D01*
X135565000Y-85678750D02*
X135565000Y-82993750D01*
X330827500Y-104728750D02*
X330827500Y-102043750D01*
X332747500Y-104728750D02*
X330827500Y-104728750D01*
X332747500Y-102043750D02*
X332747500Y-104728750D01*
D10*
X331650000Y-96337500D02*
X331650000Y-91137500D01*
X326450000Y-96337500D02*
X331650000Y-96337500D01*
X331650000Y-91137500D02*
X326450000Y-91137500D01*
X326450000Y-91137500D02*
X326450000Y-96337500D01*
X330050000Y-93737500D02*
G75*
G03*
X330050000Y-93737500I-1000000J0D01*
G01*
D11*
X44616250Y-66628750D02*
X42696250Y-66628750D01*
X42696250Y-66628750D02*
X42696250Y-63943750D01*
X44616250Y-63943750D02*
X44616250Y-66628750D01*
X37933750Y-104728750D02*
X37933750Y-102043750D01*
X39853750Y-102043750D02*
X39853750Y-104728750D01*
X39853750Y-104728750D02*
X37933750Y-104728750D01*
X151772500Y-25843750D02*
X151772500Y-28528750D01*
X149852500Y-28528750D02*
X149852500Y-25843750D01*
X151772500Y-28528750D02*
X149852500Y-28528750D01*
X195203750Y-30270814D02*
X195203750Y-29816686D01*
X193733750Y-30270814D02*
X193733750Y-29816686D01*
X349877500Y-28528750D02*
X349877500Y-25843750D01*
X351797500Y-28528750D02*
X349877500Y-28528750D01*
X351797500Y-25843750D02*
X351797500Y-28528750D01*
X325147500Y-82191250D02*
X325872500Y-82191250D01*
X319377500Y-82191250D02*
X318652500Y-82191250D01*
X318652500Y-82191250D02*
X318652500Y-81466250D01*
X325872500Y-82191250D02*
X325872500Y-81466250D01*
X319377500Y-74971250D02*
X318652500Y-74971250D01*
X318652500Y-74971250D02*
X318652500Y-75696250D01*
X325147500Y-74971250D02*
X325872500Y-74971250D01*
X161297500Y-47578750D02*
X159377500Y-47578750D01*
X159377500Y-47578750D02*
X159377500Y-44893750D01*
X161297500Y-44893750D02*
X161297500Y-47578750D01*
X273677500Y-47578750D02*
X273677500Y-44893750D01*
X275597500Y-44893750D02*
X275597500Y-47578750D01*
X275597500Y-47578750D02*
X273677500Y-47578750D01*
X199290000Y-23127064D02*
X199290000Y-22672936D01*
X200760000Y-23127064D02*
X200760000Y-22672936D01*
X299871250Y-104728750D02*
X299871250Y-102043750D01*
X301791250Y-104728750D02*
X299871250Y-104728750D01*
X301791250Y-102043750D02*
X301791250Y-104728750D01*
X158916250Y-104728750D02*
X156996250Y-104728750D01*
X156996250Y-104728750D02*
X156996250Y-102043750D01*
X158916250Y-102043750D02*
X158916250Y-104728750D01*
X78415000Y-85678750D02*
X78415000Y-82993750D01*
X80335000Y-82993750D02*
X80335000Y-85678750D01*
X80335000Y-85678750D02*
X78415000Y-85678750D01*
X315465000Y-82688748D02*
X315465000Y-83211252D01*
X316935000Y-82688748D02*
X316935000Y-83211252D01*
X305547500Y-63333750D02*
X305547500Y-65253750D01*
X305547500Y-65253750D02*
X302862500Y-65253750D01*
X302862500Y-63333750D02*
X305547500Y-63333750D01*
X370847500Y-47578750D02*
X368927500Y-47578750D01*
X368927500Y-47578750D02*
X368927500Y-44893750D01*
X370847500Y-44893750D02*
X370847500Y-47578750D01*
X261310000Y-63943750D02*
X261310000Y-66628750D01*
X261310000Y-66628750D02*
X259390000Y-66628750D01*
X259390000Y-66628750D02*
X259390000Y-63943750D01*
X142247500Y-47578750D02*
X140327500Y-47578750D01*
X140327500Y-47578750D02*
X140327500Y-44893750D01*
X142247500Y-44893750D02*
X142247500Y-47578750D01*
X287503750Y-82993750D02*
X287503750Y-85678750D01*
X287503750Y-85678750D02*
X285583750Y-85678750D01*
X285583750Y-85678750D02*
X285583750Y-82993750D01*
X264152500Y-28528750D02*
X264152500Y-25843750D01*
X266072500Y-25843750D02*
X266072500Y-28528750D01*
X266072500Y-28528750D02*
X264152500Y-28528750D01*
X37472500Y-28528750D02*
X35552500Y-28528750D01*
X37472500Y-25843750D02*
X37472500Y-28528750D01*
X35552500Y-28528750D02*
X35552500Y-25843750D01*
X221290000Y-66628750D02*
X221290000Y-63943750D01*
X223210000Y-63943750D02*
X223210000Y-66628750D01*
X223210000Y-66628750D02*
X221290000Y-66628750D01*
X156535000Y-85678750D02*
X154615000Y-85678750D01*
X156535000Y-82993750D02*
X156535000Y-85678750D01*
X154615000Y-85678750D02*
X154615000Y-82993750D01*
X226052500Y-28528750D02*
X226052500Y-25843750D01*
X227972500Y-28528750D02*
X226052500Y-28528750D01*
X227972500Y-25843750D02*
X227972500Y-28528750D01*
X351797500Y-44893750D02*
X351797500Y-47578750D01*
X349877500Y-47578750D02*
X349877500Y-44893750D01*
X351797500Y-47578750D02*
X349877500Y-47578750D01*
X199397500Y-44893750D02*
X199397500Y-47578750D01*
X199397500Y-47578750D02*
X197477500Y-47578750D01*
X197477500Y-47578750D02*
X197477500Y-44893750D01*
X83177500Y-47578750D02*
X83177500Y-44893750D01*
X85097500Y-47578750D02*
X83177500Y-47578750D01*
X85097500Y-44893750D02*
X85097500Y-47578750D01*
X254166250Y-102043750D02*
X254166250Y-104728750D01*
X254166250Y-104728750D02*
X252246250Y-104728750D01*
X252246250Y-104728750D02*
X252246250Y-102043750D01*
X63666250Y-102043750D02*
X63666250Y-104728750D01*
X63666250Y-104728750D02*
X61746250Y-104728750D01*
X61746250Y-104728750D02*
X61746250Y-102043750D01*
X351797500Y-104728750D02*
X349877500Y-104728750D01*
X349877500Y-104728750D02*
X349877500Y-102043750D01*
X351797500Y-102043750D02*
X351797500Y-104728750D01*
X247022500Y-25843750D02*
X247022500Y-28528750D01*
X245102500Y-28528750D02*
X245102500Y-25843750D01*
X247022500Y-28528750D02*
X245102500Y-28528750D01*
X166060000Y-66628750D02*
X164140000Y-66628750D01*
X166060000Y-63943750D02*
X166060000Y-66628750D01*
X164140000Y-66628750D02*
X164140000Y-63943750D01*
X127960000Y-66628750D02*
X126040000Y-66628750D01*
X127960000Y-63943750D02*
X127960000Y-66628750D01*
X126040000Y-66628750D02*
X126040000Y-63943750D01*
X170822500Y-28528750D02*
X168902500Y-28528750D01*
X170822500Y-25843750D02*
X170822500Y-28528750D01*
X168902500Y-28528750D02*
X168902500Y-25843750D01*
X332747500Y-25843750D02*
X332747500Y-28528750D01*
X330827500Y-28528750D02*
X330827500Y-25843750D01*
X332747500Y-28528750D02*
X330827500Y-28528750D01*
X111752500Y-28528750D02*
X111752500Y-25843750D01*
X113672500Y-28528750D02*
X111752500Y-28528750D01*
X113672500Y-25843750D02*
X113672500Y-28528750D01*
X94622500Y-28528750D02*
X92702500Y-28528750D01*
X94622500Y-25843750D02*
X94622500Y-28528750D01*
X92702500Y-28528750D02*
X92702500Y-25843750D01*
X207002500Y-28528750D02*
X207002500Y-25843750D01*
X208922500Y-28528750D02*
X207002500Y-28528750D01*
X208922500Y-25843750D02*
X208922500Y-28528750D01*
X185002500Y-23127064D02*
X185002500Y-22672936D01*
X186472500Y-23127064D02*
X186472500Y-22672936D01*
X315560436Y-71865000D02*
X316014564Y-71865000D01*
X315560436Y-73335000D02*
X316014564Y-73335000D01*
X230353750Y-104728750D02*
X228433750Y-104728750D01*
X228433750Y-104728750D02*
X228433750Y-102043750D01*
X230353750Y-102043750D02*
X230353750Y-104728750D01*
X316800000Y-92887500D02*
X316800000Y-89587500D01*
X316800000Y-89587500D02*
X320800000Y-89587500D01*
X87940000Y-66628750D02*
X87940000Y-63943750D01*
X89860000Y-63943750D02*
X89860000Y-66628750D01*
X89860000Y-66628750D02*
X87940000Y-66628750D01*
X321165000Y-91498752D02*
X321165000Y-90976248D01*
X322635000Y-91498752D02*
X322635000Y-90976248D01*
X254627500Y-47578750D02*
X254627500Y-44893750D01*
X256547500Y-47578750D02*
X254627500Y-47578750D01*
X256547500Y-44893750D02*
X256547500Y-47578750D01*
X325011252Y-83965000D02*
X324488748Y-83965000D01*
X325011252Y-85435000D02*
X324488748Y-85435000D01*
X99385000Y-85678750D02*
X97465000Y-85678750D01*
X97465000Y-85678750D02*
X97465000Y-82993750D01*
X99385000Y-82993750D02*
X99385000Y-85678750D01*
X123197500Y-47578750D02*
X121277500Y-47578750D01*
X121277500Y-47578750D02*
X121277500Y-44893750D01*
X123197500Y-44893750D02*
X123197500Y-47578750D01*
X325635000Y-91514564D02*
X325635000Y-91060436D01*
X324165000Y-91514564D02*
X324165000Y-91060436D01*
X87478750Y-104728750D02*
X85558750Y-104728750D01*
X85558750Y-104728750D02*
X85558750Y-102043750D01*
X87478750Y-102043750D02*
X87478750Y-104728750D01*
X102227500Y-47578750D02*
X102227500Y-44893750D01*
X104147500Y-47578750D02*
X102227500Y-47578750D01*
X104147500Y-44893750D02*
X104147500Y-47578750D01*
X216527500Y-47578750D02*
X216527500Y-44893750D01*
X218447500Y-44893750D02*
X218447500Y-47578750D01*
X218447500Y-47578750D02*
X216527500Y-47578750D01*
X73652500Y-28528750D02*
X73652500Y-25843750D01*
X75572500Y-25843750D02*
X75572500Y-28528750D01*
X75572500Y-28528750D02*
X73652500Y-28528750D01*
X42235000Y-47578750D02*
X40315000Y-47578750D01*
X42235000Y-44893750D02*
X42235000Y-47578750D01*
X40315000Y-47578750D02*
X40315000Y-44893750D01*
X70810000Y-66628750D02*
X68890000Y-66628750D01*
X70810000Y-63943750D02*
X70810000Y-66628750D01*
X68890000Y-66628750D02*
X68890000Y-63943750D01*
X56522500Y-28528750D02*
X54602500Y-28528750D01*
X54602500Y-28528750D02*
X54602500Y-25843750D01*
X56522500Y-25843750D02*
X56522500Y-28528750D01*
X242260000Y-63943750D02*
X242260000Y-66628750D01*
X240340000Y-66628750D02*
X240340000Y-63943750D01*
X242260000Y-66628750D02*
X240340000Y-66628750D01*
X194635000Y-82993750D02*
X194635000Y-85678750D01*
X194635000Y-85678750D02*
X192715000Y-85678750D01*
X192715000Y-85678750D02*
X192715000Y-82993750D01*
X319488748Y-73335000D02*
X320011252Y-73335000D01*
X319488748Y-71865000D02*
X320011252Y-71865000D01*
X235577500Y-47578750D02*
X235577500Y-44893750D01*
X237497500Y-44893750D02*
X237497500Y-47578750D01*
X237497500Y-47578750D02*
X235577500Y-47578750D01*
X330827500Y-47578750D02*
X330827500Y-44893750D01*
X332747500Y-47578750D02*
X330827500Y-47578750D01*
X332747500Y-44893750D02*
X332747500Y-47578750D01*
X349877500Y-85678750D02*
X349877500Y-82993750D01*
X351797500Y-85678750D02*
X349877500Y-85678750D01*
X351797500Y-82993750D02*
X351797500Y-85678750D01*
X145090000Y-66628750D02*
X145090000Y-63943750D01*
X147010000Y-63943750D02*
X147010000Y-66628750D01*
X147010000Y-66628750D02*
X145090000Y-66628750D01*
X188866250Y-29535000D02*
X186181250Y-29535000D01*
X186181250Y-27615000D02*
X188866250Y-27615000D01*
X188866250Y-27615000D02*
X188866250Y-29535000D01*
X106990000Y-66628750D02*
X106990000Y-63943750D01*
X108910000Y-63943750D02*
X108910000Y-66628750D01*
X108910000Y-66628750D02*
X106990000Y-66628750D01*
X330135000Y-76388748D02*
X330135000Y-76911252D01*
X328665000Y-76388748D02*
X328665000Y-76911252D01*
X333035000Y-77888748D02*
X333035000Y-78411252D01*
X331565000Y-77888748D02*
X331565000Y-78411252D01*
X314965000Y-90976248D02*
X314965000Y-91498752D01*
X316435000Y-90976248D02*
X316435000Y-91498752D01*
X294647500Y-28528750D02*
X292727500Y-28528750D01*
X292727500Y-28528750D02*
X292727500Y-25843750D01*
X294647500Y-25843750D02*
X294647500Y-28528750D01*
X370847500Y-102043750D02*
X370847500Y-104728750D01*
X370847500Y-104728750D02*
X368927500Y-104728750D01*
X368927500Y-104728750D02*
X368927500Y-102043750D01*
X118435000Y-82993750D02*
X118435000Y-85678750D01*
X116515000Y-85678750D02*
X116515000Y-82993750D01*
X118435000Y-85678750D02*
X116515000Y-85678750D01*
X185110000Y-63943750D02*
X185110000Y-66628750D01*
X183190000Y-66628750D02*
X183190000Y-63943750D01*
X185110000Y-66628750D02*
X183190000Y-66628750D01*
X41108750Y-85822500D02*
X41108750Y-83137500D01*
X43028750Y-85822500D02*
X41108750Y-85822500D01*
X43028750Y-83137500D02*
X43028750Y-85822500D01*
X202240000Y-66628750D02*
X202240000Y-63943750D01*
X204160000Y-63943750D02*
X204160000Y-66628750D01*
X204160000Y-66628750D02*
X202240000Y-66628750D01*
X192028750Y-30270814D02*
X192028750Y-29816686D01*
X190558750Y-30270814D02*
X190558750Y-29816686D01*
X180347500Y-44893750D02*
X180347500Y-47578750D01*
X180347500Y-47578750D02*
X178427500Y-47578750D01*
X178427500Y-47578750D02*
X178427500Y-44893750D01*
X213685000Y-82993750D02*
X213685000Y-85678750D01*
X213685000Y-85678750D02*
X211765000Y-85678750D01*
X211765000Y-85678750D02*
X211765000Y-82993750D01*
%LPC*%
D12*
X177006250Y-115887500D03*
X354806250Y-22225000D03*
X116681250Y-22225000D03*
X211931250Y-22225000D03*
X173831250Y-22225000D03*
X259556250Y-115887500D03*
X45243750Y-115887500D03*
X40481250Y-22225000D03*
X354806250Y-115887500D03*
D13*
X359251250Y-30956250D03*
X369411250Y-30956250D03*
D14*
X364331250Y-30956250D03*
D15*
X360521250Y-28416250D03*
X366871250Y-25876250D03*
D13*
X236061250Y-50006250D03*
X225901250Y-50006250D03*
D14*
X230981250Y-50006250D03*
D15*
X227171250Y-47466250D03*
X233521250Y-44926250D03*
D13*
X231298750Y-88106250D03*
D14*
X226218750Y-88106250D03*
D13*
X221138750Y-88106250D03*
D15*
X222408750Y-85566250D03*
X228758750Y-83026250D03*
D13*
X217011250Y-50006250D03*
D14*
X211931250Y-50006250D03*
D13*
X206851250Y-50006250D03*
D15*
X208121250Y-47466250D03*
X214471250Y-44926250D03*
D14*
X245268750Y-88106250D03*
D13*
X250348750Y-88106250D03*
X240188750Y-88106250D03*
D15*
X241458750Y-85566250D03*
X247808750Y-83026250D03*
D13*
X78898750Y-88106250D03*
D14*
X73818750Y-88106250D03*
D13*
X68738750Y-88106250D03*
D15*
X70008750Y-85566250D03*
X76358750Y-83026250D03*
D14*
X121443750Y-69056250D03*
D13*
X126523750Y-69056250D03*
X116363750Y-69056250D03*
D15*
X117633750Y-66516250D03*
X123983750Y-63976250D03*
D14*
X250031250Y-50006250D03*
D13*
X244951250Y-50006250D03*
X255111250Y-50006250D03*
D15*
X246221250Y-47466250D03*
X252571250Y-44926250D03*
D13*
X242570000Y-107156250D03*
X252730000Y-107156250D03*
D14*
X247650000Y-107156250D03*
D15*
X243840000Y-104616250D03*
X250190000Y-102076250D03*
D13*
X40798750Y-50006250D03*
D14*
X35718750Y-50006250D03*
D13*
X30638750Y-50006250D03*
D15*
X31908750Y-47466250D03*
X38258750Y-44926250D03*
D13*
X102711250Y-50006250D03*
X92551250Y-50006250D03*
D14*
X97631250Y-50006250D03*
D15*
X93821250Y-47466250D03*
X100171250Y-44926250D03*
D13*
X216376250Y-30956250D03*
X226536250Y-30956250D03*
D14*
X221456250Y-30956250D03*
D15*
X217646250Y-28416250D03*
X223996250Y-25876250D03*
D14*
X116681250Y-50006250D03*
D13*
X111601250Y-50006250D03*
X121761250Y-50006250D03*
D15*
X112871250Y-47466250D03*
X119221250Y-44926250D03*
D12*
X22225000Y-69056250D03*
D13*
X174148750Y-88106250D03*
X163988750Y-88106250D03*
D14*
X169068750Y-88106250D03*
D15*
X165258750Y-85566250D03*
X171608750Y-83026250D03*
D13*
X197326250Y-30956250D03*
X207486250Y-30956250D03*
D14*
X202406250Y-30956250D03*
D15*
X198596250Y-28416250D03*
X204946250Y-25876250D03*
D14*
X197643750Y-69056250D03*
D13*
X192563750Y-69056250D03*
X202723750Y-69056250D03*
D15*
X193833750Y-66516250D03*
X200183750Y-63976250D03*
D13*
X202088750Y-88106250D03*
X212248750Y-88106250D03*
D14*
X207168750Y-88106250D03*
D15*
X203358750Y-85566250D03*
X209708750Y-83026250D03*
D12*
X373062500Y-69056250D03*
D13*
X144938750Y-88106250D03*
X155098750Y-88106250D03*
D14*
X150018750Y-88106250D03*
D15*
X146208750Y-85566250D03*
X152558750Y-83026250D03*
D14*
X92868750Y-88106250D03*
D13*
X87788750Y-88106250D03*
X97948750Y-88106250D03*
D15*
X89058750Y-85566250D03*
X95408750Y-83026250D03*
D13*
X131286250Y-30956250D03*
D14*
X126206250Y-30956250D03*
D13*
X121126250Y-30956250D03*
D15*
X122396250Y-28416250D03*
X128746250Y-25876250D03*
D14*
X326231250Y-30956250D03*
D13*
X321151250Y-30956250D03*
X331311250Y-30956250D03*
D15*
X322421250Y-28416250D03*
X328771250Y-25876250D03*
D14*
X235743750Y-69056250D03*
D13*
X230663750Y-69056250D03*
X240823750Y-69056250D03*
D15*
X231933750Y-66516250D03*
X238283750Y-63976250D03*
D13*
X147320000Y-107156250D03*
D16*
X102400100Y-100171250D03*
D14*
X202399900Y-115411250D03*
D16*
X202399900Y-100171250D03*
D14*
X152400000Y-107156250D03*
X102400100Y-115411250D03*
D13*
X157480000Y-107156250D03*
D15*
X148590000Y-104616250D03*
X154940000Y-102076250D03*
D14*
X183356250Y-30956250D03*
D13*
X178276250Y-30956250D03*
X188436250Y-30956250D03*
D15*
X179546250Y-28416250D03*
X185896250Y-25876250D03*
D13*
X249713750Y-69056250D03*
D14*
X254793750Y-69056250D03*
D13*
X259873750Y-69056250D03*
D15*
X250983750Y-66516250D03*
X257333750Y-63976250D03*
D13*
X264001250Y-50006250D03*
X274161250Y-50006250D03*
D14*
X269081250Y-50006250D03*
D15*
X265271250Y-47466250D03*
X271621250Y-44926250D03*
D12*
X269081250Y-22225000D03*
D14*
X364331250Y-107156250D03*
D13*
X359251250Y-107156250D03*
X369411250Y-107156250D03*
D15*
X360521250Y-104616250D03*
X366871250Y-102076250D03*
D14*
X38100000Y-69056250D03*
D13*
X33020000Y-69056250D03*
X43180000Y-69056250D03*
D15*
X34290000Y-66516250D03*
X40640000Y-63976250D03*
D13*
X331311250Y-107156250D03*
X321151250Y-107156250D03*
D14*
X326231250Y-107156250D03*
D15*
X322421250Y-104616250D03*
X328771250Y-102076250D03*
D14*
X50006250Y-30956250D03*
D13*
X44926250Y-30956250D03*
X55086250Y-30956250D03*
D15*
X46196250Y-28416250D03*
X52546250Y-25876250D03*
D13*
X62230000Y-107156250D03*
D14*
X57150000Y-107156250D03*
D13*
X52070000Y-107156250D03*
D15*
X53340000Y-104616250D03*
X59690000Y-102076250D03*
D14*
X140493750Y-69056250D03*
D13*
X145573750Y-69056250D03*
X135413750Y-69056250D03*
D15*
X136683750Y-66516250D03*
X143033750Y-63976250D03*
D13*
X293211250Y-30956250D03*
D16*
X300037500Y-23971250D03*
X276225000Y-23971250D03*
D13*
X283051250Y-30956250D03*
D14*
X300037500Y-39211250D03*
X288131250Y-30956250D03*
X276225000Y-39211250D03*
D15*
X284321250Y-28416250D03*
X290671250Y-25876250D03*
D13*
X187801250Y-50006250D03*
D14*
X192881250Y-50006250D03*
D13*
X197961250Y-50006250D03*
D15*
X189071250Y-47466250D03*
X195421250Y-44926250D03*
D13*
X321151250Y-50006250D03*
X331311250Y-50006250D03*
D14*
X326231250Y-50006250D03*
D15*
X322421250Y-47466250D03*
X328771250Y-44926250D03*
D13*
X193198750Y-88106250D03*
D14*
X188118750Y-88106250D03*
D13*
X183038750Y-88106250D03*
D15*
X184308750Y-85566250D03*
X190658750Y-83026250D03*
D13*
X59213750Y-69056250D03*
D14*
X64293750Y-69056250D03*
D13*
X69373750Y-69056250D03*
D15*
X60483750Y-66516250D03*
X66833750Y-63976250D03*
D13*
X173513750Y-69056250D03*
D14*
X178593750Y-69056250D03*
D13*
X183673750Y-69056250D03*
D15*
X174783750Y-66516250D03*
X181133750Y-63976250D03*
D14*
X111918750Y-88106250D03*
D13*
X116998750Y-88106250D03*
X106838750Y-88106250D03*
D15*
X108108750Y-85566250D03*
X114458750Y-83026250D03*
D14*
X285750000Y-69056250D03*
X297656250Y-77311250D03*
X273843750Y-77311250D03*
D13*
X290830000Y-69056250D03*
D16*
X297656250Y-62071250D03*
X273843750Y-62071250D03*
D13*
X280670000Y-69056250D03*
D15*
X281940000Y-66516250D03*
X288290000Y-63976250D03*
D14*
X33337500Y-107156250D03*
D13*
X38417500Y-107156250D03*
X28257500Y-107156250D03*
D15*
X29527500Y-104616250D03*
X35877500Y-102076250D03*
D13*
X74136250Y-30956250D03*
D14*
X69056250Y-30956250D03*
D13*
X63976250Y-30956250D03*
D15*
X65246250Y-28416250D03*
X71596250Y-25876250D03*
D13*
X73501250Y-50006250D03*
D14*
X78581250Y-50006250D03*
D13*
X83661250Y-50006250D03*
D15*
X74771250Y-47466250D03*
X81121250Y-44926250D03*
D14*
X107156250Y-30956250D03*
D13*
X112236250Y-30956250D03*
X102076250Y-30956250D03*
D15*
X103346250Y-28416250D03*
X109696250Y-25876250D03*
D14*
X273843750Y-69056250D03*
D13*
X268763750Y-69056250D03*
X278923750Y-69056250D03*
D15*
X270033750Y-66516250D03*
X276383750Y-63976250D03*
D14*
X345281250Y-30956250D03*
D13*
X340201250Y-30956250D03*
X350361250Y-30956250D03*
D15*
X341471250Y-28416250D03*
X347821250Y-25876250D03*
D13*
X218757500Y-107156250D03*
X228917500Y-107156250D03*
D14*
X223837500Y-107156250D03*
D15*
X220027500Y-104616250D03*
X226377500Y-102076250D03*
D13*
X169386250Y-30956250D03*
X159226250Y-30956250D03*
D14*
X164306250Y-30956250D03*
D15*
X160496250Y-28416250D03*
X166846250Y-25876250D03*
D13*
X49688750Y-88106250D03*
D14*
X54768750Y-88106250D03*
D13*
X59848750Y-88106250D03*
D15*
X50958750Y-85566250D03*
X57308750Y-83026250D03*
D14*
X88106250Y-30956250D03*
D13*
X93186250Y-30956250D03*
X83026250Y-30956250D03*
D15*
X84296250Y-28416250D03*
X90646250Y-25876250D03*
D13*
X88423750Y-69056250D03*
X78263750Y-69056250D03*
D14*
X83343750Y-69056250D03*
D15*
X79533750Y-66516250D03*
X85883750Y-63976250D03*
D13*
X97313750Y-69056250D03*
X107473750Y-69056250D03*
D14*
X102393750Y-69056250D03*
D15*
X98583750Y-66516250D03*
X104933750Y-63976250D03*
D14*
X240506250Y-30956250D03*
D13*
X235426250Y-30956250D03*
X245586250Y-30956250D03*
D15*
X236696250Y-28416250D03*
X243046250Y-25876250D03*
D12*
X127793750Y-115887500D03*
D13*
X140176250Y-30956250D03*
D14*
X145256250Y-30956250D03*
D13*
X150336250Y-30956250D03*
D15*
X141446250Y-28416250D03*
X147796250Y-25876250D03*
D14*
X271462500Y-107156250D03*
D13*
X266382500Y-107156250D03*
X276542500Y-107156250D03*
D15*
X267652500Y-104616250D03*
X274002500Y-102076250D03*
D14*
X216693750Y-69056250D03*
D13*
X211613750Y-69056250D03*
X221773750Y-69056250D03*
D15*
X212883750Y-66516250D03*
X219233750Y-63976250D03*
D13*
X37782500Y-88106250D03*
D16*
X54768750Y-81121250D03*
D14*
X30956250Y-96361250D03*
X54768750Y-96361250D03*
D16*
X30956250Y-81121250D03*
D13*
X47942500Y-88106250D03*
D14*
X42862500Y-88106250D03*
D15*
X39052500Y-85566250D03*
X45402500Y-83026250D03*
D16*
X288290000Y-71469250D03*
D14*
X303530000Y-47593250D03*
X295275000Y-59531250D03*
X303530000Y-71469250D03*
D13*
X295275000Y-64611250D03*
X295275000Y-54451250D03*
D15*
X297815000Y-55721250D03*
X300355000Y-62071250D03*
D13*
X125888750Y-88106250D03*
X136048750Y-88106250D03*
D14*
X130968750Y-88106250D03*
D15*
X127158750Y-85566250D03*
X133508750Y-83026250D03*
D13*
X28257500Y-88106250D03*
X38417500Y-88106250D03*
D14*
X33337500Y-88106250D03*
D15*
X29527500Y-85566250D03*
X35877500Y-83026250D03*
D13*
X297973750Y-50006250D03*
D14*
X292893750Y-50006250D03*
D13*
X287813750Y-50006250D03*
D15*
X289083750Y-47466250D03*
X295433750Y-44926250D03*
D13*
X369411250Y-50006250D03*
X359251250Y-50006250D03*
D14*
X364331250Y-50006250D03*
D15*
X360521250Y-47466250D03*
X366871250Y-44926250D03*
D13*
X340201250Y-88106250D03*
X350361250Y-88106250D03*
D14*
X345281250Y-88106250D03*
D15*
X341471250Y-85566250D03*
X347821250Y-83026250D03*
D14*
X173831250Y-50006250D03*
D13*
X168751250Y-50006250D03*
X178911250Y-50006250D03*
D15*
X170021250Y-47466250D03*
X176371250Y-44926250D03*
D13*
X54451250Y-50006250D03*
D14*
X59531250Y-50006250D03*
D13*
X64611250Y-50006250D03*
D15*
X55721250Y-47466250D03*
X62071250Y-44926250D03*
D13*
X350361250Y-50006250D03*
X340201250Y-50006250D03*
D14*
X345281250Y-50006250D03*
D15*
X341471250Y-47466250D03*
X347821250Y-44926250D03*
D14*
X295275000Y-107156250D03*
D13*
X300355000Y-107156250D03*
X290195000Y-107156250D03*
D15*
X291465000Y-104616250D03*
X297815000Y-102076250D03*
D13*
X154463750Y-69056250D03*
D14*
X159543750Y-69056250D03*
D13*
X164623750Y-69056250D03*
D15*
X155733750Y-66516250D03*
X162083750Y-63976250D03*
D14*
X154781250Y-50006250D03*
D13*
X159861250Y-50006250D03*
X149701250Y-50006250D03*
D15*
X150971250Y-47466250D03*
X157321250Y-44926250D03*
D13*
X350361250Y-107156250D03*
X340201250Y-107156250D03*
D14*
X345281250Y-107156250D03*
D15*
X341471250Y-104616250D03*
X347821250Y-102076250D03*
D14*
X30956250Y-30956250D03*
D13*
X36036250Y-30956250D03*
X25876250Y-30956250D03*
D15*
X27146250Y-28416250D03*
X33496250Y-25876250D03*
D13*
X75882500Y-107156250D03*
X86042500Y-107156250D03*
D14*
X80962500Y-107156250D03*
D15*
X77152500Y-104616250D03*
X83502500Y-102076250D03*
D13*
X264636250Y-30956250D03*
D14*
X259556250Y-30956250D03*
D13*
X254476250Y-30956250D03*
D15*
X255746250Y-28416250D03*
X262096250Y-25876250D03*
D14*
X280987500Y-88106250D03*
D16*
X269081250Y-81121250D03*
D13*
X286067500Y-88106250D03*
X275907500Y-88106250D03*
D16*
X292893750Y-81121250D03*
D14*
X292893750Y-96361250D03*
X269081250Y-96361250D03*
D15*
X277177500Y-85566250D03*
X283527500Y-83026250D03*
D13*
X140811250Y-50006250D03*
D14*
X135731250Y-50006250D03*
D13*
X130651250Y-50006250D03*
D15*
X131921250Y-47466250D03*
X138271250Y-44926250D03*
D17*
X373856250Y-116681250D03*
D18*
X174625000Y-84931250D03*
X174625000Y-83056250D03*
X131762500Y-27781250D03*
X131762500Y-25906250D03*
X250825000Y-84931250D03*
X250825000Y-83056250D03*
X279150000Y-65881250D03*
X279150000Y-64006250D03*
X65087500Y-46831250D03*
X65087500Y-44956250D03*
X277018750Y-103981250D03*
X277018750Y-102106250D03*
X231775000Y-84931250D03*
X231775000Y-83056250D03*
X369887500Y-27781250D03*
X369887500Y-25906250D03*
X60325000Y-84931250D03*
X60325000Y-83056250D03*
X136525000Y-84931250D03*
X136525000Y-83056250D03*
X331787500Y-103981250D03*
X331787500Y-102106250D03*
D19*
X327200000Y-90637500D03*
X330900000Y-96837500D03*
X330900000Y-90637500D03*
X327200000Y-96837500D03*
D18*
X43656250Y-65881250D03*
X43656250Y-64006250D03*
X38893750Y-103981250D03*
X38893750Y-102106250D03*
X150812500Y-27781250D03*
X150812500Y-25906250D03*
D20*
X194468750Y-30956250D03*
X194468750Y-29131250D03*
D18*
X350837500Y-27781250D03*
X350837500Y-25906250D03*
D21*
X325600000Y-76081250D03*
X325600000Y-76581250D03*
X325600000Y-77081250D03*
X325600000Y-77581250D03*
X325600000Y-78081250D03*
X325600000Y-78581250D03*
X325600000Y-79081250D03*
X325600000Y-79581250D03*
X325600000Y-80081250D03*
X325600000Y-80581250D03*
X325600000Y-81081250D03*
D22*
X324762500Y-81918750D03*
X324262500Y-81918750D03*
X323762500Y-81918750D03*
X323262500Y-81918750D03*
X322762500Y-81918750D03*
X322262500Y-81918750D03*
X321762500Y-81918750D03*
X321262500Y-81918750D03*
X320762500Y-81918750D03*
X320262500Y-81918750D03*
X319762500Y-81918750D03*
D21*
X318925000Y-81081250D03*
X318925000Y-80581250D03*
X318925000Y-80081250D03*
X318925000Y-79581250D03*
X318925000Y-79081250D03*
X318925000Y-78581250D03*
X318925000Y-78081250D03*
X318925000Y-77581250D03*
X318925000Y-77081250D03*
X318925000Y-76581250D03*
X318925000Y-76081250D03*
D22*
X319762500Y-75243750D03*
X320262500Y-75243750D03*
X320762500Y-75243750D03*
X321262500Y-75243750D03*
X321762500Y-75243750D03*
X322262500Y-75243750D03*
X322762500Y-75243750D03*
X323262500Y-75243750D03*
X323762500Y-75243750D03*
X324262500Y-75243750D03*
X324762500Y-75243750D03*
D23*
X322262500Y-78581250D03*
D18*
X160337500Y-46831250D03*
X160337500Y-44956250D03*
X274637500Y-46831250D03*
X274637500Y-44956250D03*
D20*
X200025000Y-23812500D03*
X200025000Y-21987500D03*
D18*
X300831250Y-103981250D03*
X300831250Y-102106250D03*
X157956250Y-103981250D03*
X157956250Y-102106250D03*
X79375000Y-84931250D03*
X79375000Y-83056250D03*
D24*
X316200000Y-82000000D03*
X316200000Y-83900000D03*
D25*
X304800000Y-64293750D03*
X302925000Y-64293750D03*
D18*
X369887500Y-46831250D03*
X369887500Y-44956250D03*
X260350000Y-65881250D03*
X260350000Y-64006250D03*
D17*
X21431250Y-21431250D03*
D18*
X141287500Y-46831250D03*
X141287500Y-44956250D03*
X286543750Y-84931250D03*
X286543750Y-83056250D03*
X265112500Y-27781250D03*
X265112500Y-25906250D03*
D26*
X195771250Y-24076250D03*
X189991250Y-24076250D03*
D27*
X189656250Y-25521250D03*
X190431250Y-25521250D03*
D28*
X191131250Y-25521250D03*
X191631250Y-25521250D03*
X192131250Y-25521250D03*
X192631250Y-25521250D03*
X193131250Y-25521250D03*
X193631250Y-25521250D03*
X194131250Y-25521250D03*
X194631250Y-25521250D03*
D27*
X195331250Y-25521250D03*
X196106250Y-25521250D03*
D18*
X36512500Y-27781250D03*
X36512500Y-25906250D03*
X222250000Y-65881250D03*
X222250000Y-64006250D03*
X155575000Y-84931250D03*
X155575000Y-83056250D03*
X227012500Y-27781250D03*
X227012500Y-25906250D03*
X350837500Y-46831250D03*
X350837500Y-44956250D03*
X198437500Y-46831250D03*
X198437500Y-44956250D03*
X84137500Y-46831250D03*
X84137500Y-44956250D03*
X253206250Y-103981250D03*
X253206250Y-102106250D03*
X62706250Y-103981250D03*
X62706250Y-102106250D03*
X350837500Y-103981250D03*
X350837500Y-102106250D03*
X246062500Y-27781250D03*
X246062500Y-25906250D03*
X165100000Y-65881250D03*
X165100000Y-64006250D03*
X127000000Y-65881250D03*
X127000000Y-64006250D03*
X169862500Y-27781250D03*
X169862500Y-25906250D03*
X331787500Y-27781250D03*
X331787500Y-25906250D03*
X112712500Y-27781250D03*
X112712500Y-25906250D03*
X93662500Y-27781250D03*
X93662500Y-25906250D03*
X207962500Y-27781250D03*
X207962500Y-25906250D03*
D20*
X185737500Y-23812500D03*
X185737500Y-21987500D03*
D29*
X314875000Y-72600000D03*
X316700000Y-72600000D03*
D18*
X229393750Y-103981250D03*
X229393750Y-102106250D03*
D30*
X317700000Y-90387500D03*
X319900000Y-90387500D03*
X319900000Y-92087500D03*
X317700000Y-92087500D03*
D18*
X88900000Y-65881250D03*
X88900000Y-64006250D03*
D31*
X321900000Y-92187500D03*
X321900000Y-90287500D03*
D18*
X255587500Y-46831250D03*
X255587500Y-44956250D03*
D32*
X325700000Y-84700000D03*
X323800000Y-84700000D03*
D18*
X98425000Y-84931250D03*
X98425000Y-83056250D03*
X122237500Y-46831250D03*
X122237500Y-44956250D03*
D20*
X324900000Y-92200000D03*
X324900000Y-90375000D03*
D18*
X86518750Y-103981250D03*
X86518750Y-102106250D03*
X103187500Y-46831250D03*
X103187500Y-44956250D03*
X217487500Y-46831250D03*
X217487500Y-44956250D03*
X74612500Y-27781250D03*
X74612500Y-25906250D03*
X41275000Y-46831250D03*
X41275000Y-44956250D03*
X69850000Y-65881250D03*
X69850000Y-64006250D03*
X55562500Y-27781250D03*
X55562500Y-25906250D03*
X241300000Y-65881250D03*
X241300000Y-64006250D03*
X193675000Y-84931250D03*
X193675000Y-83056250D03*
D33*
X318800000Y-72600000D03*
X320700000Y-72600000D03*
D18*
X236537500Y-46831250D03*
X236537500Y-44956250D03*
X331787500Y-46831250D03*
X331787500Y-44956250D03*
X350837500Y-84931250D03*
X350837500Y-83056250D03*
X146050000Y-65881250D03*
X146050000Y-64006250D03*
D25*
X188118750Y-28575000D03*
X186243750Y-28575000D03*
D18*
X107950000Y-65881250D03*
X107950000Y-64006250D03*
D24*
X329400000Y-75700000D03*
X329400000Y-77600000D03*
X332300000Y-77200000D03*
X332300000Y-79100000D03*
X315700000Y-90287500D03*
X315700000Y-92187500D03*
D18*
X293687500Y-27781250D03*
X293687500Y-25906250D03*
X369887500Y-103981250D03*
X369887500Y-102106250D03*
X117475000Y-84931250D03*
X117475000Y-83056250D03*
X184150000Y-65881250D03*
X184150000Y-64006250D03*
X42068750Y-85075000D03*
X42068750Y-83200000D03*
X203200000Y-65881250D03*
X203200000Y-64006250D03*
D20*
X191293750Y-30956250D03*
X191293750Y-29131250D03*
D18*
X179387500Y-46831250D03*
X179387500Y-44956250D03*
X212725000Y-84931250D03*
X212725000Y-83056250D03*
M02*
