G04 #@! TF.GenerationSoftware,KiCad,Pcbnew,(6.0.2)*
G04 #@! TF.CreationDate,2022-03-20T17:19:54+01:00*
G04 #@! TF.ProjectId,Frooastboard Walnut,46726f6f-6173-4746-926f-617264205761,rev?*
G04 #@! TF.SameCoordinates,Original*
G04 #@! TF.FileFunction,Soldermask,Bot*
G04 #@! TF.FilePolarity,Negative*
%FSLAX46Y46*%
G04 Gerber Fmt 4.6, Leading zero omitted, Abs format (unit mm)*
G04 Created by KiCad (PCBNEW (6.0.2)) date 2022-03-20 17:19:54*
%MOMM*%
%LPD*%
G01*
G04 APERTURE LIST*
G04 Aperture macros list*
%AMRoundRect*
0 Rectangle with rounded corners*
0 $1 Rounding radius*
0 $2 $3 $4 $5 $6 $7 $8 $9 X,Y pos of 4 corners*
0 Add a 4 corners polygon primitive as box body*
4,1,4,$2,$3,$4,$5,$6,$7,$8,$9,$2,$3,0*
0 Add four circle primitives for the rounded corners*
1,1,$1+$1,$2,$3*
1,1,$1+$1,$4,$5*
1,1,$1+$1,$6,$7*
1,1,$1+$1,$8,$9*
0 Add four rect primitives between the rounded corners*
20,1,$1+$1,$2,$3,$4,$5,0*
20,1,$1+$1,$4,$5,$6,$7,0*
20,1,$1+$1,$6,$7,$8,$9,0*
20,1,$1+$1,$8,$9,$2,$3,0*%
G04 Aperture macros list end*
%ADD10C,1.750000*%
%ADD11C,3.987800*%
%ADD12C,2.250000*%
%ADD13C,3.200000*%
%ADD14C,3.048000*%
%ADD15C,2.000000*%
%ADD16RoundRect,0.243750X0.456250X-0.243750X0.456250X0.243750X-0.456250X0.243750X-0.456250X-0.243750X0*%
%ADD17RoundRect,0.250000X0.450000X-0.262500X0.450000X0.262500X-0.450000X0.262500X-0.450000X-0.262500X0*%
%ADD18RoundRect,0.105000X0.105000X-0.395000X0.105000X0.395000X-0.105000X0.395000X-0.105000X-0.395000X0*%
%ADD19RoundRect,0.125000X0.125000X-0.375000X0.125000X0.375000X-0.125000X0.375000X-0.125000X-0.375000X0*%
%ADD20RoundRect,0.105000X-0.105000X0.395000X-0.105000X-0.395000X0.105000X-0.395000X0.105000X0.395000X0*%
%ADD21RoundRect,0.125000X-0.125000X0.375000X-0.125000X-0.375000X0.125000X-0.375000X0.125000X0.375000X0*%
%ADD22R,1.100000X1.800000*%
%ADD23RoundRect,0.250000X-0.450000X0.262500X-0.450000X-0.262500X0.450000X-0.262500X0.450000X0.262500X0*%
%ADD24RoundRect,0.250000X-0.475000X0.250000X-0.475000X-0.250000X0.475000X-0.250000X0.475000X0.250000X0*%
%ADD25RoundRect,0.250000X0.250000X0.475000X-0.250000X0.475000X-0.250000X-0.475000X0.250000X-0.475000X0*%
%ADD26RoundRect,0.062500X0.475000X0.062500X-0.475000X0.062500X-0.475000X-0.062500X0.475000X-0.062500X0*%
%ADD27RoundRect,0.062500X0.062500X0.475000X-0.062500X0.475000X-0.062500X-0.475000X0.062500X-0.475000X0*%
%ADD28R,5.200000X5.200000*%
%ADD29RoundRect,0.105000X-0.395000X-0.105000X0.395000X-0.105000X0.395000X0.105000X-0.395000X0.105000X0*%
%ADD30RoundRect,0.125000X-0.375000X-0.125000X0.375000X-0.125000X0.375000X0.125000X-0.375000X0.125000X0*%
%ADD31RoundRect,0.105000X0.395000X0.105000X-0.395000X0.105000X-0.395000X-0.105000X0.395000X-0.105000X0*%
%ADD32RoundRect,0.125000X0.375000X0.125000X-0.375000X0.125000X-0.375000X-0.125000X0.375000X-0.125000X0*%
%ADD33RoundRect,0.243750X0.243750X0.456250X-0.243750X0.456250X-0.243750X-0.456250X0.243750X-0.456250X0*%
%ADD34C,0.650000*%
%ADD35R,0.600000X1.450000*%
%ADD36R,0.300000X1.450000*%
%ADD37RoundRect,0.250000X-0.262500X-0.450000X0.262500X-0.450000X0.262500X0.450000X-0.262500X0.450000X0*%
%ADD38R,1.400000X1.200000*%
%ADD39RoundRect,0.050000X0.050000X-0.337500X0.050000X0.337500X-0.050000X0.337500X-0.050000X-0.337500X0*%
%ADD40RoundRect,0.050000X0.337500X-0.050000X0.337500X0.050000X-0.337500X0.050000X-0.337500X-0.050000X0*%
%ADD41R,3.800000X3.800000*%
%ADD42RoundRect,0.250000X0.475000X-0.250000X0.475000X0.250000X-0.475000X0.250000X-0.475000X-0.250000X0*%
%ADD43RoundRect,0.250000X-0.250000X-0.475000X0.250000X-0.475000X0.250000X0.475000X-0.250000X0.475000X0*%
G04 APERTURE END LIST*
D10*
X359251250Y-30956250D03*
X369411250Y-30956250D03*
D11*
X364331250Y-30956250D03*
D12*
X360521250Y-28416250D03*
X366871250Y-25876250D03*
D10*
X236061250Y-50006250D03*
X225901250Y-50006250D03*
D11*
X230981250Y-50006250D03*
D12*
X227171250Y-47466250D03*
X233521250Y-44926250D03*
D10*
X231298750Y-88106250D03*
D11*
X226218750Y-88106250D03*
D10*
X221138750Y-88106250D03*
D12*
X222408750Y-85566250D03*
X228758750Y-83026250D03*
D13*
X354806250Y-22225000D03*
D10*
X217011250Y-50006250D03*
D11*
X211931250Y-50006250D03*
D10*
X206851250Y-50006250D03*
D12*
X208121250Y-47466250D03*
X214471250Y-44926250D03*
D13*
X211931250Y-22225000D03*
D11*
X245268750Y-88106250D03*
D10*
X250348750Y-88106250D03*
X240188750Y-88106250D03*
D12*
X241458750Y-85566250D03*
X247808750Y-83026250D03*
D10*
X78898750Y-88106250D03*
D11*
X73818750Y-88106250D03*
D10*
X68738750Y-88106250D03*
D12*
X70008750Y-85566250D03*
X76358750Y-83026250D03*
D11*
X121443750Y-69056250D03*
D10*
X126523750Y-69056250D03*
X116363750Y-69056250D03*
D12*
X117633750Y-66516250D03*
X123983750Y-63976250D03*
D11*
X250031250Y-50006250D03*
D10*
X244951250Y-50006250D03*
X255111250Y-50006250D03*
D12*
X246221250Y-47466250D03*
X252571250Y-44926250D03*
D10*
X242570000Y-107156250D03*
X252730000Y-107156250D03*
D11*
X247650000Y-107156250D03*
D12*
X243840000Y-104616250D03*
X250190000Y-102076250D03*
D10*
X40798750Y-50006250D03*
D11*
X35718750Y-50006250D03*
D10*
X30638750Y-50006250D03*
D12*
X31908750Y-47466250D03*
X38258750Y-44926250D03*
D11*
X102400100Y-115411250D03*
X202399900Y-115411250D03*
D10*
X147320000Y-107156250D03*
X157480000Y-107156250D03*
D11*
X152400000Y-107156250D03*
D14*
X202399900Y-100171250D03*
X102400100Y-100171250D03*
D12*
X148590000Y-104616250D03*
X154940000Y-102076250D03*
D10*
X102711250Y-50006250D03*
X92551250Y-50006250D03*
D11*
X97631250Y-50006250D03*
D12*
X93821250Y-47466250D03*
X100171250Y-44926250D03*
D10*
X216376250Y-30956250D03*
X226536250Y-30956250D03*
D11*
X221456250Y-30956250D03*
D12*
X217646250Y-28416250D03*
X223996250Y-25876250D03*
D11*
X116681250Y-50006250D03*
D10*
X111601250Y-50006250D03*
X121761250Y-50006250D03*
D12*
X112871250Y-47466250D03*
X119221250Y-44926250D03*
D13*
X22225000Y-69056250D03*
D10*
X174148750Y-88106250D03*
X163988750Y-88106250D03*
D11*
X169068750Y-88106250D03*
D12*
X165258750Y-85566250D03*
X171608750Y-83026250D03*
D10*
X197326250Y-30956250D03*
X207486250Y-30956250D03*
D11*
X202406250Y-30956250D03*
D12*
X198596250Y-28416250D03*
X204946250Y-25876250D03*
D11*
X197643750Y-69056250D03*
D10*
X192563750Y-69056250D03*
X202723750Y-69056250D03*
D12*
X193833750Y-66516250D03*
X200183750Y-63976250D03*
D10*
X202088750Y-88106250D03*
X212248750Y-88106250D03*
D11*
X207168750Y-88106250D03*
D12*
X203358750Y-85566250D03*
X209708750Y-83026250D03*
D13*
X373062500Y-69056250D03*
D10*
X144938750Y-88106250D03*
X155098750Y-88106250D03*
D11*
X150018750Y-88106250D03*
D12*
X146208750Y-85566250D03*
X152558750Y-83026250D03*
D11*
X92868750Y-88106250D03*
D10*
X87788750Y-88106250D03*
X97948750Y-88106250D03*
D12*
X89058750Y-85566250D03*
X95408750Y-83026250D03*
D10*
X131286250Y-30956250D03*
D11*
X126206250Y-30956250D03*
D10*
X121126250Y-30956250D03*
D12*
X122396250Y-28416250D03*
X128746250Y-25876250D03*
D11*
X326231250Y-30956250D03*
D10*
X321151250Y-30956250D03*
X331311250Y-30956250D03*
D12*
X322421250Y-28416250D03*
X328771250Y-25876250D03*
D11*
X235743750Y-69056250D03*
D10*
X230663750Y-69056250D03*
X240823750Y-69056250D03*
D12*
X231933750Y-66516250D03*
X238283750Y-63976250D03*
D13*
X354806250Y-115887500D03*
X259556250Y-115887500D03*
D11*
X183356250Y-30956250D03*
D10*
X178276250Y-30956250D03*
X188436250Y-30956250D03*
D12*
X179546250Y-28416250D03*
X185896250Y-25876250D03*
D10*
X249713750Y-69056250D03*
D11*
X254793750Y-69056250D03*
D10*
X259873750Y-69056250D03*
D12*
X250983750Y-66516250D03*
X257333750Y-63976250D03*
D10*
X264001250Y-50006250D03*
X274161250Y-50006250D03*
D11*
X269081250Y-50006250D03*
D12*
X265271250Y-47466250D03*
X271621250Y-44926250D03*
D13*
X269081250Y-22225000D03*
D11*
X364331250Y-107156250D03*
D10*
X359251250Y-107156250D03*
X369411250Y-107156250D03*
D12*
X360521250Y-104616250D03*
X366871250Y-102076250D03*
D11*
X38100000Y-69056250D03*
D10*
X33020000Y-69056250D03*
X43180000Y-69056250D03*
D12*
X34290000Y-66516250D03*
X40640000Y-63976250D03*
D10*
X331311250Y-107156250D03*
X321151250Y-107156250D03*
D11*
X326231250Y-107156250D03*
D12*
X322421250Y-104616250D03*
X328771250Y-102076250D03*
D11*
X50006250Y-30956250D03*
D10*
X44926250Y-30956250D03*
X55086250Y-30956250D03*
D12*
X46196250Y-28416250D03*
X52546250Y-25876250D03*
D10*
X62230000Y-107156250D03*
D11*
X57150000Y-107156250D03*
D10*
X52070000Y-107156250D03*
D12*
X53340000Y-104616250D03*
X59690000Y-102076250D03*
D13*
X173831250Y-22225000D03*
D11*
X140493750Y-69056250D03*
D10*
X145573750Y-69056250D03*
X135413750Y-69056250D03*
D12*
X136683750Y-66516250D03*
X143033750Y-63976250D03*
D10*
X293211250Y-30956250D03*
D14*
X300037500Y-23971250D03*
X276225000Y-23971250D03*
D10*
X283051250Y-30956250D03*
D11*
X300037500Y-39211250D03*
X288131250Y-30956250D03*
X276225000Y-39211250D03*
D12*
X284321250Y-28416250D03*
X290671250Y-25876250D03*
D10*
X187801250Y-50006250D03*
D11*
X192881250Y-50006250D03*
D10*
X197961250Y-50006250D03*
D12*
X189071250Y-47466250D03*
X195421250Y-44926250D03*
D10*
X321151250Y-50006250D03*
X331311250Y-50006250D03*
D11*
X326231250Y-50006250D03*
D12*
X322421250Y-47466250D03*
X328771250Y-44926250D03*
D10*
X193198750Y-88106250D03*
D11*
X188118750Y-88106250D03*
D10*
X183038750Y-88106250D03*
D12*
X184308750Y-85566250D03*
X190658750Y-83026250D03*
D10*
X59213750Y-69056250D03*
D11*
X64293750Y-69056250D03*
D10*
X69373750Y-69056250D03*
D12*
X60483750Y-66516250D03*
X66833750Y-63976250D03*
D10*
X173513750Y-69056250D03*
D11*
X178593750Y-69056250D03*
D10*
X183673750Y-69056250D03*
D12*
X174783750Y-66516250D03*
X181133750Y-63976250D03*
D11*
X111918750Y-88106250D03*
D10*
X116998750Y-88106250D03*
X106838750Y-88106250D03*
D12*
X108108750Y-85566250D03*
X114458750Y-83026250D03*
D11*
X285750000Y-69056250D03*
X297656250Y-77311250D03*
X273843750Y-77311250D03*
D10*
X290830000Y-69056250D03*
D14*
X297656250Y-62071250D03*
X273843750Y-62071250D03*
D10*
X280670000Y-69056250D03*
D12*
X281940000Y-66516250D03*
X288290000Y-63976250D03*
D13*
X116681250Y-22225000D03*
D11*
X33337500Y-107156250D03*
D10*
X38417500Y-107156250D03*
X28257500Y-107156250D03*
D12*
X29527500Y-104616250D03*
X35877500Y-102076250D03*
D10*
X74136250Y-30956250D03*
D11*
X69056250Y-30956250D03*
D10*
X63976250Y-30956250D03*
D12*
X65246250Y-28416250D03*
X71596250Y-25876250D03*
D10*
X73501250Y-50006250D03*
D11*
X78581250Y-50006250D03*
D10*
X83661250Y-50006250D03*
D12*
X74771250Y-47466250D03*
X81121250Y-44926250D03*
D11*
X107156250Y-30956250D03*
D10*
X112236250Y-30956250D03*
X102076250Y-30956250D03*
D12*
X103346250Y-28416250D03*
X109696250Y-25876250D03*
D11*
X273843750Y-69056250D03*
D10*
X268763750Y-69056250D03*
X278923750Y-69056250D03*
D12*
X270033750Y-66516250D03*
X276383750Y-63976250D03*
D11*
X345281250Y-30956250D03*
D10*
X340201250Y-30956250D03*
X350361250Y-30956250D03*
D12*
X341471250Y-28416250D03*
X347821250Y-25876250D03*
D10*
X218757500Y-107156250D03*
X228917500Y-107156250D03*
D11*
X223837500Y-107156250D03*
D12*
X220027500Y-104616250D03*
X226377500Y-102076250D03*
D10*
X169386250Y-30956250D03*
X159226250Y-30956250D03*
D11*
X164306250Y-30956250D03*
D12*
X160496250Y-28416250D03*
X166846250Y-25876250D03*
D10*
X49688750Y-88106250D03*
D11*
X54768750Y-88106250D03*
D10*
X59848750Y-88106250D03*
D12*
X50958750Y-85566250D03*
X57308750Y-83026250D03*
D13*
X177006250Y-115887500D03*
D11*
X88106250Y-30956250D03*
D10*
X93186250Y-30956250D03*
X83026250Y-30956250D03*
D12*
X84296250Y-28416250D03*
X90646250Y-25876250D03*
D10*
X88423750Y-69056250D03*
X78263750Y-69056250D03*
D11*
X83343750Y-69056250D03*
D12*
X79533750Y-66516250D03*
X85883750Y-63976250D03*
D10*
X97313750Y-69056250D03*
X107473750Y-69056250D03*
D11*
X102393750Y-69056250D03*
D12*
X98583750Y-66516250D03*
X104933750Y-63976250D03*
D11*
X240506250Y-30956250D03*
D10*
X235426250Y-30956250D03*
X245586250Y-30956250D03*
D12*
X236696250Y-28416250D03*
X243046250Y-25876250D03*
D13*
X120650000Y-115887500D03*
D10*
X140176250Y-30956250D03*
D11*
X145256250Y-30956250D03*
D10*
X150336250Y-30956250D03*
D12*
X141446250Y-28416250D03*
X147796250Y-25876250D03*
D11*
X271462500Y-107156250D03*
D10*
X266382500Y-107156250D03*
X276542500Y-107156250D03*
D12*
X267652500Y-104616250D03*
X274002500Y-102076250D03*
D11*
X216693750Y-69056250D03*
D10*
X211613750Y-69056250D03*
X221773750Y-69056250D03*
D12*
X212883750Y-66516250D03*
X219233750Y-63976250D03*
D10*
X37782500Y-88106250D03*
D14*
X54768750Y-81121250D03*
D11*
X30956250Y-96361250D03*
X54768750Y-96361250D03*
D14*
X30956250Y-81121250D03*
D10*
X47942500Y-88106250D03*
D11*
X42862500Y-88106250D03*
D12*
X39052500Y-85566250D03*
X45402500Y-83026250D03*
D14*
X288290000Y-71469250D03*
D11*
X303530000Y-47593250D03*
X295275000Y-59531250D03*
X303530000Y-71469250D03*
D10*
X295275000Y-64611250D03*
X295275000Y-54451250D03*
D12*
X297815000Y-55721250D03*
X300355000Y-62071250D03*
D10*
X125888750Y-88106250D03*
X136048750Y-88106250D03*
D11*
X130968750Y-88106250D03*
D12*
X127158750Y-85566250D03*
X133508750Y-83026250D03*
D10*
X28257500Y-88106250D03*
X38417500Y-88106250D03*
D11*
X33337500Y-88106250D03*
D12*
X29527500Y-85566250D03*
X35877500Y-83026250D03*
D10*
X297973750Y-50006250D03*
D11*
X292893750Y-50006250D03*
D10*
X287813750Y-50006250D03*
D12*
X289083750Y-47466250D03*
X295433750Y-44926250D03*
D10*
X369411250Y-50006250D03*
X359251250Y-50006250D03*
D11*
X364331250Y-50006250D03*
D12*
X360521250Y-47466250D03*
X366871250Y-44926250D03*
D10*
X340201250Y-88106250D03*
X350361250Y-88106250D03*
D11*
X345281250Y-88106250D03*
D12*
X341471250Y-85566250D03*
X347821250Y-83026250D03*
D13*
X40481250Y-22225000D03*
D11*
X173831250Y-50006250D03*
D10*
X168751250Y-50006250D03*
X178911250Y-50006250D03*
D12*
X170021250Y-47466250D03*
X176371250Y-44926250D03*
D10*
X54451250Y-50006250D03*
D11*
X59531250Y-50006250D03*
D10*
X64611250Y-50006250D03*
D12*
X55721250Y-47466250D03*
X62071250Y-44926250D03*
D10*
X350361250Y-50006250D03*
X340201250Y-50006250D03*
D11*
X345281250Y-50006250D03*
D12*
X341471250Y-47466250D03*
X347821250Y-44926250D03*
D13*
X45243750Y-115887500D03*
D11*
X295275000Y-107156250D03*
D10*
X300355000Y-107156250D03*
X290195000Y-107156250D03*
D12*
X291465000Y-104616250D03*
X297815000Y-102076250D03*
D10*
X154463750Y-69056250D03*
D11*
X159543750Y-69056250D03*
D10*
X164623750Y-69056250D03*
D12*
X155733750Y-66516250D03*
X162083750Y-63976250D03*
D11*
X154781250Y-50006250D03*
D10*
X159861250Y-50006250D03*
X149701250Y-50006250D03*
D12*
X150971250Y-47466250D03*
X157321250Y-44926250D03*
D10*
X350361250Y-107156250D03*
X340201250Y-107156250D03*
D11*
X345281250Y-107156250D03*
D12*
X341471250Y-104616250D03*
X347821250Y-102076250D03*
D11*
X30956250Y-30956250D03*
D10*
X36036250Y-30956250D03*
X25876250Y-30956250D03*
D12*
X27146250Y-28416250D03*
X33496250Y-25876250D03*
D10*
X75882500Y-107156250D03*
X86042500Y-107156250D03*
D11*
X80962500Y-107156250D03*
D12*
X77152500Y-104616250D03*
X83502500Y-102076250D03*
D10*
X264636250Y-30956250D03*
D11*
X259556250Y-30956250D03*
D10*
X254476250Y-30956250D03*
D12*
X255746250Y-28416250D03*
X262096250Y-25876250D03*
D11*
X280987500Y-88106250D03*
D14*
X269081250Y-81121250D03*
D10*
X286067500Y-88106250D03*
X275907500Y-88106250D03*
D14*
X292893750Y-81121250D03*
D11*
X292893750Y-96361250D03*
X269081250Y-96361250D03*
D12*
X277177500Y-85566250D03*
X283527500Y-83026250D03*
D10*
X140811250Y-50006250D03*
D11*
X135731250Y-50006250D03*
D10*
X130651250Y-50006250D03*
D12*
X131921250Y-47466250D03*
X138271250Y-44926250D03*
D15*
X373856250Y-116681250D03*
D16*
X174625000Y-84931250D03*
X174625000Y-83056250D03*
X131762500Y-27781250D03*
X131762500Y-25906250D03*
D17*
X190800000Y-109562500D03*
X190800000Y-107737500D03*
D16*
X250825000Y-84931250D03*
X250825000Y-83056250D03*
D18*
X91643750Y-116975000D03*
D19*
X90893750Y-116975000D03*
X90143750Y-116975000D03*
X89343750Y-116975000D03*
X88493750Y-116975000D03*
D18*
X87743750Y-116975000D03*
D16*
X279150000Y-65881250D03*
X279150000Y-64006250D03*
X65087500Y-46831250D03*
X65087500Y-44956250D03*
X277018750Y-103981250D03*
X277018750Y-102106250D03*
D20*
X146481250Y-21137500D03*
D21*
X147231250Y-21137500D03*
X147981250Y-21137500D03*
X148781250Y-21137500D03*
X149631250Y-21137500D03*
D20*
X150381250Y-21137500D03*
D16*
X231775000Y-84931250D03*
X231775000Y-83056250D03*
D18*
X289287500Y-116975000D03*
D19*
X288537500Y-116975000D03*
X287787500Y-116975000D03*
X286987500Y-116975000D03*
X286137500Y-116975000D03*
D18*
X285387500Y-116975000D03*
D16*
X369887500Y-27781250D03*
X369887500Y-25906250D03*
X60325000Y-84931250D03*
X60325000Y-83056250D03*
X136525000Y-84931250D03*
X136525000Y-83056250D03*
X331787500Y-103981250D03*
X331787500Y-102106250D03*
D22*
X327200000Y-90637500D03*
X330900000Y-96837500D03*
X330900000Y-90637500D03*
X327200000Y-96837500D03*
D23*
X200450000Y-106537500D03*
X200450000Y-108362500D03*
D16*
X43656250Y-65881250D03*
X43656250Y-64006250D03*
D20*
X221093750Y-21137500D03*
D21*
X221843750Y-21137500D03*
X222593750Y-21137500D03*
X223393750Y-21137500D03*
X224243750Y-21137500D03*
D20*
X224993750Y-21137500D03*
D24*
X186450000Y-101862500D03*
X186450000Y-103762500D03*
D25*
X177050000Y-102262500D03*
X175150000Y-102262500D03*
D16*
X38893750Y-103981250D03*
X38893750Y-102106250D03*
X150812500Y-27781250D03*
X150812500Y-25906250D03*
D18*
X348818750Y-116975000D03*
D19*
X348068750Y-116975000D03*
X347318750Y-116975000D03*
X346518750Y-116975000D03*
X345668750Y-116975000D03*
D18*
X344918750Y-116975000D03*
D20*
X67106250Y-21137500D03*
D21*
X67856250Y-21137500D03*
X68606250Y-21137500D03*
X69406250Y-21137500D03*
X70256250Y-21137500D03*
D20*
X71006250Y-21137500D03*
D18*
X110693750Y-116975000D03*
D19*
X109943750Y-116975000D03*
X109193750Y-116975000D03*
X108393750Y-116975000D03*
X107543750Y-116975000D03*
D18*
X106793750Y-116975000D03*
D17*
X194468750Y-30956250D03*
X194468750Y-29131250D03*
D16*
X350837500Y-27781250D03*
X350837500Y-25906250D03*
D26*
X325600000Y-76081250D03*
X325600000Y-76581250D03*
X325600000Y-77081250D03*
X325600000Y-77581250D03*
X325600000Y-78081250D03*
X325600000Y-78581250D03*
X325600000Y-79081250D03*
X325600000Y-79581250D03*
X325600000Y-80081250D03*
X325600000Y-80581250D03*
X325600000Y-81081250D03*
D27*
X324762500Y-81918750D03*
X324262500Y-81918750D03*
X323762500Y-81918750D03*
X323262500Y-81918750D03*
X322762500Y-81918750D03*
X322262500Y-81918750D03*
X321762500Y-81918750D03*
X321262500Y-81918750D03*
X320762500Y-81918750D03*
X320262500Y-81918750D03*
X319762500Y-81918750D03*
D26*
X318925000Y-81081250D03*
X318925000Y-80581250D03*
X318925000Y-80081250D03*
X318925000Y-79581250D03*
X318925000Y-79081250D03*
X318925000Y-78581250D03*
X318925000Y-78081250D03*
X318925000Y-77581250D03*
X318925000Y-77081250D03*
X318925000Y-76581250D03*
X318925000Y-76081250D03*
D27*
X319762500Y-75243750D03*
X320262500Y-75243750D03*
X320762500Y-75243750D03*
X321262500Y-75243750D03*
X321762500Y-75243750D03*
X322262500Y-75243750D03*
X322762500Y-75243750D03*
X323262500Y-75243750D03*
X323762500Y-75243750D03*
X324262500Y-75243750D03*
X324762500Y-75243750D03*
D28*
X322262500Y-78581250D03*
D16*
X160337500Y-46831250D03*
X160337500Y-44956250D03*
X274637500Y-46831250D03*
X274637500Y-44956250D03*
D17*
X200025000Y-23812500D03*
X200025000Y-21987500D03*
D16*
X300831250Y-103981250D03*
X300831250Y-102106250D03*
D20*
X201250000Y-21137500D03*
D21*
X202000000Y-21137500D03*
X202750000Y-21137500D03*
X203550000Y-21137500D03*
X204400000Y-21137500D03*
D20*
X205150000Y-21137500D03*
D29*
X21137500Y-62275000D03*
D30*
X21137500Y-61525000D03*
X21137500Y-60775000D03*
X21137500Y-59975000D03*
X21137500Y-59125000D03*
D29*
X21137500Y-58375000D03*
D16*
X157956250Y-103981250D03*
X157956250Y-102106250D03*
X79375000Y-84931250D03*
X79375000Y-83056250D03*
D31*
X374150000Y-91712500D03*
D32*
X374150000Y-92462500D03*
X374150000Y-93212500D03*
X374150000Y-94012500D03*
X374150000Y-94862500D03*
D31*
X374150000Y-95612500D03*
D24*
X316200000Y-82000000D03*
X316200000Y-83900000D03*
D33*
X304800000Y-64293750D03*
X302925000Y-64293750D03*
D16*
X369887500Y-46831250D03*
X369887500Y-44956250D03*
X260350000Y-65881250D03*
X260350000Y-64006250D03*
D31*
X374150000Y-75043750D03*
D32*
X374150000Y-75793750D03*
X374150000Y-76543750D03*
X374150000Y-77343750D03*
X374150000Y-78193750D03*
D31*
X374150000Y-78943750D03*
D15*
X21431250Y-21431250D03*
D16*
X141287500Y-46831250D03*
X141287500Y-44956250D03*
D18*
X248806250Y-116975000D03*
D19*
X248056250Y-116975000D03*
X247306250Y-116975000D03*
X246506250Y-116975000D03*
X245656250Y-116975000D03*
D18*
X244906250Y-116975000D03*
D20*
X166325000Y-21137500D03*
D21*
X167075000Y-21137500D03*
X167825000Y-21137500D03*
X168625000Y-21137500D03*
X169475000Y-21137500D03*
D20*
X170225000Y-21137500D03*
D16*
X286543750Y-84931250D03*
X286543750Y-83056250D03*
X265112500Y-27781250D03*
X265112500Y-25906250D03*
D34*
X195771250Y-24076250D03*
X189991250Y-24076250D03*
D35*
X189656250Y-25521250D03*
X190431250Y-25521250D03*
D36*
X191131250Y-25521250D03*
X191631250Y-25521250D03*
X192131250Y-25521250D03*
X192631250Y-25521250D03*
X193131250Y-25521250D03*
X193631250Y-25521250D03*
X194131250Y-25521250D03*
X194631250Y-25521250D03*
D35*
X195331250Y-25521250D03*
X196106250Y-25521250D03*
D24*
X188750000Y-105862500D03*
X188750000Y-107762500D03*
D18*
X129743750Y-116975000D03*
D19*
X128993750Y-116975000D03*
X128243750Y-116975000D03*
X127443750Y-116975000D03*
X126593750Y-116975000D03*
D18*
X125843750Y-116975000D03*
D20*
X126637500Y-21137500D03*
D21*
X127387500Y-21137500D03*
X128137500Y-21137500D03*
X128937500Y-21137500D03*
X129787500Y-21137500D03*
D20*
X130537500Y-21137500D03*
D16*
X36512500Y-27781250D03*
X36512500Y-25906250D03*
D23*
X202450000Y-105662500D03*
X202450000Y-107487500D03*
D16*
X222250000Y-65881250D03*
X222250000Y-64006250D03*
X155575000Y-84931250D03*
X155575000Y-83056250D03*
X227012500Y-27781250D03*
X227012500Y-25906250D03*
X350837500Y-46831250D03*
X350837500Y-44956250D03*
D29*
X21137500Y-45606250D03*
D30*
X21137500Y-44856250D03*
X21137500Y-44106250D03*
X21137500Y-43306250D03*
X21137500Y-42456250D03*
D29*
X21137500Y-41706250D03*
D31*
X374150000Y-25037500D03*
D32*
X374150000Y-25787500D03*
X374150000Y-26537500D03*
X374150000Y-27337500D03*
X374150000Y-28187500D03*
D31*
X374150000Y-28937500D03*
D29*
X21137500Y-78943750D03*
D30*
X21137500Y-78193750D03*
X21137500Y-77443750D03*
X21137500Y-76643750D03*
X21137500Y-75793750D03*
D29*
X21137500Y-75043750D03*
D16*
X198437500Y-46831250D03*
X198437500Y-44956250D03*
D18*
X309131250Y-116975000D03*
D19*
X308381250Y-116975000D03*
X307631250Y-116975000D03*
X306831250Y-116975000D03*
X305981250Y-116975000D03*
D18*
X305231250Y-116975000D03*
D16*
X84137500Y-46831250D03*
X84137500Y-44956250D03*
X253206250Y-103981250D03*
X253206250Y-102106250D03*
X62706250Y-103981250D03*
X62706250Y-102106250D03*
X350837500Y-103981250D03*
X350837500Y-102106250D03*
X246062500Y-27781250D03*
X246062500Y-25906250D03*
D31*
X374150000Y-58375000D03*
D32*
X374150000Y-59125000D03*
X374150000Y-59875000D03*
X374150000Y-60675000D03*
X374150000Y-61525000D03*
D31*
X374150000Y-62275000D03*
D18*
X228962500Y-116975000D03*
D19*
X228212500Y-116975000D03*
X227462500Y-116975000D03*
X226662500Y-116975000D03*
X225812500Y-116975000D03*
D18*
X225062500Y-116975000D03*
D20*
X325075000Y-21137500D03*
D21*
X325825000Y-21137500D03*
X326575000Y-21137500D03*
X327375000Y-21137500D03*
X328225000Y-21137500D03*
D20*
X328975000Y-21137500D03*
D16*
X165100000Y-65881250D03*
X165100000Y-64006250D03*
D18*
X209118750Y-116975000D03*
D19*
X208368750Y-116975000D03*
X207618750Y-116975000D03*
X206818750Y-116975000D03*
X205968750Y-116975000D03*
D18*
X205218750Y-116975000D03*
D16*
X127000000Y-65881250D03*
X127000000Y-64006250D03*
X169862500Y-27781250D03*
X169862500Y-25906250D03*
D20*
X262368750Y-21137500D03*
D21*
X263118750Y-21137500D03*
X263868750Y-21137500D03*
X264668750Y-21137500D03*
X265518750Y-21137500D03*
D20*
X266268750Y-21137500D03*
D16*
X331787500Y-27781250D03*
X331787500Y-25906250D03*
D37*
X192675000Y-108662500D03*
X194500000Y-108662500D03*
D18*
X71800000Y-116975000D03*
D19*
X71050000Y-116975000D03*
X70300000Y-116975000D03*
X69500000Y-116975000D03*
X68650000Y-116975000D03*
D18*
X67900000Y-116975000D03*
D17*
X188450000Y-103762500D03*
X188450000Y-101937500D03*
D20*
X344918750Y-21137500D03*
D21*
X345668750Y-21137500D03*
X346418750Y-21137500D03*
X347218750Y-21137500D03*
X348068750Y-21137500D03*
D20*
X348818750Y-21137500D03*
D16*
X112712500Y-27781250D03*
X112712500Y-25906250D03*
X93662500Y-27781250D03*
X93662500Y-25906250D03*
X207962500Y-27781250D03*
X207962500Y-25906250D03*
D17*
X185737500Y-23812500D03*
X185737500Y-21987500D03*
D37*
X314875000Y-72600000D03*
X316700000Y-72600000D03*
D16*
X229393750Y-103981250D03*
X229393750Y-102106250D03*
D31*
X374150000Y-108381250D03*
D32*
X374150000Y-109131250D03*
X374150000Y-109881250D03*
X374150000Y-110681250D03*
X374150000Y-111531250D03*
D31*
X374150000Y-112281250D03*
D38*
X317700000Y-90387500D03*
X319900000Y-90387500D03*
X319900000Y-92087500D03*
X317700000Y-92087500D03*
D39*
X185700000Y-110150000D03*
X185300000Y-110150000D03*
X184900000Y-110150000D03*
X184500000Y-110150000D03*
X184100000Y-110150000D03*
X183700000Y-110150000D03*
X183300000Y-110150000D03*
X182900000Y-110150000D03*
X182500000Y-110150000D03*
X182100000Y-110150000D03*
D40*
X181412500Y-109462500D03*
X181412500Y-109062500D03*
X181412500Y-108662500D03*
X181412500Y-108262500D03*
X181412500Y-107862500D03*
X181412500Y-107462500D03*
X181412500Y-107062500D03*
X181412500Y-106662500D03*
X181412500Y-106262500D03*
X181412500Y-105862500D03*
D39*
X182100000Y-105175000D03*
X182500000Y-105175000D03*
X182900000Y-105175000D03*
X183300000Y-105175000D03*
X183700000Y-105175000D03*
X184100000Y-105175000D03*
X184500000Y-105175000D03*
X184900000Y-105175000D03*
X185300000Y-105175000D03*
X185700000Y-105175000D03*
D40*
X186387500Y-105862500D03*
X186387500Y-106262500D03*
X186387500Y-106662500D03*
X186387500Y-107062500D03*
X186387500Y-107462500D03*
X186387500Y-107862500D03*
X186387500Y-108262500D03*
X186387500Y-108662500D03*
X186387500Y-109062500D03*
X186387500Y-109462500D03*
D41*
X183900000Y-107662500D03*
D20*
X304437500Y-21137500D03*
D21*
X305187500Y-21137500D03*
X305937500Y-21137500D03*
X306737500Y-21137500D03*
X307587500Y-21137500D03*
D20*
X308337500Y-21137500D03*
D16*
X88900000Y-65881250D03*
X88900000Y-64006250D03*
D42*
X321900000Y-92187500D03*
X321900000Y-90287500D03*
D16*
X255587500Y-46831250D03*
X255587500Y-44956250D03*
D25*
X325700000Y-84700000D03*
X323800000Y-84700000D03*
D16*
X98425000Y-84931250D03*
X98425000Y-83056250D03*
D20*
X47262500Y-21137500D03*
D21*
X48012500Y-21137500D03*
X48762500Y-21137500D03*
X49562500Y-21137500D03*
X50412500Y-21137500D03*
D20*
X51162500Y-21137500D03*
D16*
X122237500Y-46831250D03*
X122237500Y-44956250D03*
D17*
X324900000Y-92200000D03*
X324900000Y-90375000D03*
D18*
X269443750Y-116975000D03*
D19*
X268693750Y-116975000D03*
X267943750Y-116975000D03*
X267143750Y-116975000D03*
X266293750Y-116975000D03*
D18*
X265543750Y-116975000D03*
D16*
X86518750Y-103981250D03*
X86518750Y-102106250D03*
X103187500Y-46831250D03*
X103187500Y-44956250D03*
D18*
X328975000Y-116975000D03*
D19*
X328225000Y-116975000D03*
X327475000Y-116975000D03*
X326675000Y-116975000D03*
X325825000Y-116975000D03*
D18*
X325075000Y-116975000D03*
D20*
X106793750Y-21137500D03*
D21*
X107543750Y-21137500D03*
X108293750Y-21137500D03*
X109093750Y-21137500D03*
X109943750Y-21137500D03*
D20*
X110693750Y-21137500D03*
X241731250Y-21137500D03*
D21*
X242481250Y-21137500D03*
X243231250Y-21137500D03*
X244031250Y-21137500D03*
X244881250Y-21137500D03*
D20*
X245631250Y-21137500D03*
D31*
X374150000Y-41706250D03*
D32*
X374150000Y-42456250D03*
X374150000Y-43206250D03*
X374150000Y-44006250D03*
X374150000Y-44856250D03*
D31*
X374150000Y-45606250D03*
D16*
X217487500Y-46831250D03*
X217487500Y-44956250D03*
X74612500Y-27781250D03*
X74612500Y-25906250D03*
X41275000Y-46831250D03*
X41275000Y-44956250D03*
D20*
X86950000Y-21137500D03*
D21*
X87700000Y-21137500D03*
X88450000Y-21137500D03*
X89250000Y-21137500D03*
X90100000Y-21137500D03*
D20*
X90850000Y-21137500D03*
D16*
X69850000Y-65881250D03*
X69850000Y-64006250D03*
D29*
X21137500Y-95612500D03*
D30*
X21137500Y-94862500D03*
X21137500Y-94112500D03*
X21137500Y-93312500D03*
X21137500Y-92462500D03*
D29*
X21137500Y-91712500D03*
D20*
X283800000Y-21137500D03*
D21*
X284550000Y-21137500D03*
X285300000Y-21137500D03*
X286100000Y-21137500D03*
X286950000Y-21137500D03*
D20*
X287700000Y-21137500D03*
D16*
X55562500Y-27781250D03*
X55562500Y-25906250D03*
X241300000Y-65881250D03*
X241300000Y-64006250D03*
X193675000Y-84931250D03*
X193675000Y-83056250D03*
D20*
X27418750Y-21137500D03*
D21*
X28168750Y-21137500D03*
X28918750Y-21137500D03*
X29718750Y-21137500D03*
X30568750Y-21137500D03*
D20*
X31318750Y-21137500D03*
D43*
X318800000Y-72600000D03*
X320700000Y-72600000D03*
D16*
X236537500Y-46831250D03*
X236537500Y-44956250D03*
D29*
X21137500Y-28937500D03*
D30*
X21137500Y-28187500D03*
X21137500Y-27437500D03*
X21137500Y-26637500D03*
X21137500Y-25787500D03*
D29*
X21137500Y-25037500D03*
D16*
X331787500Y-46831250D03*
X331787500Y-44956250D03*
X350837500Y-84931250D03*
X350837500Y-83056250D03*
D18*
X189275000Y-116975000D03*
D19*
X188525000Y-116975000D03*
X187775000Y-116975000D03*
X186975000Y-116975000D03*
X186125000Y-116975000D03*
D18*
X185375000Y-116975000D03*
D16*
X146050000Y-65881250D03*
X146050000Y-64006250D03*
D33*
X188118750Y-28575000D03*
X186243750Y-28575000D03*
D16*
X107950000Y-65881250D03*
X107950000Y-64006250D03*
D24*
X329400000Y-75700000D03*
X329400000Y-77600000D03*
D18*
X169431250Y-116975000D03*
D19*
X168681250Y-116975000D03*
X167931250Y-116975000D03*
X167131250Y-116975000D03*
X166281250Y-116975000D03*
D18*
X165531250Y-116975000D03*
X149587500Y-116975000D03*
D19*
X148837500Y-116975000D03*
X148087500Y-116975000D03*
X147287500Y-116975000D03*
X146437500Y-116975000D03*
D18*
X145687500Y-116975000D03*
X368662500Y-116975000D03*
D19*
X367912500Y-116975000D03*
X367162500Y-116975000D03*
X366362500Y-116975000D03*
X365512500Y-116975000D03*
D18*
X364762500Y-116975000D03*
D24*
X332300000Y-77200000D03*
X332300000Y-79100000D03*
D18*
X52750000Y-116962500D03*
D19*
X52000000Y-116962500D03*
X51250000Y-116962500D03*
X50450000Y-116962500D03*
X49600000Y-116962500D03*
D18*
X48850000Y-116962500D03*
D20*
X180650000Y-21137500D03*
D21*
X181400000Y-21137500D03*
X182150000Y-21137500D03*
X182950000Y-21137500D03*
X183800000Y-21137500D03*
D20*
X184550000Y-21137500D03*
D24*
X315700000Y-90287500D03*
X315700000Y-92187500D03*
D16*
X293687500Y-27781250D03*
X293687500Y-25906250D03*
X369887500Y-103981250D03*
X369887500Y-102106250D03*
X117475000Y-84931250D03*
X117475000Y-83056250D03*
X184150000Y-65881250D03*
X184150000Y-64006250D03*
X42068750Y-85075000D03*
X42068750Y-83200000D03*
X203200000Y-65881250D03*
X203200000Y-64006250D03*
D20*
X364762500Y-21137500D03*
D21*
X365512500Y-21137500D03*
X366262500Y-21137500D03*
X367062500Y-21137500D03*
X367912500Y-21137500D03*
D20*
X368662500Y-21137500D03*
D17*
X191293750Y-30956250D03*
X191293750Y-29131250D03*
D16*
X179387500Y-46831250D03*
X179387500Y-44956250D03*
D18*
X32906250Y-116962500D03*
D19*
X32156250Y-116962500D03*
X31406250Y-116962500D03*
X30606250Y-116962500D03*
X29756250Y-116962500D03*
D18*
X29006250Y-116962500D03*
D16*
X212725000Y-84931250D03*
X212725000Y-83056250D03*
D29*
X21137500Y-112281250D03*
D30*
X21137500Y-111531250D03*
X21137500Y-110781250D03*
X21137500Y-109981250D03*
X21137500Y-109131250D03*
D29*
X21137500Y-108381250D03*
M02*
