G04 #@! TF.GenerationSoftware,KiCad,Pcbnew,(6.0.2)*
G04 #@! TF.CreationDate,2022-02-17T23:04:49+01:00*
G04 #@! TF.ProjectId,Frooastboard Walnut,46726f6f-6173-4746-926f-617264205761,rev?*
G04 #@! TF.SameCoordinates,Original*
G04 #@! TF.FileFunction,Paste,Bot*
G04 #@! TF.FilePolarity,Positive*
%FSLAX46Y46*%
G04 Gerber Fmt 4.6, Leading zero omitted, Abs format (unit mm)*
G04 Created by KiCad (PCBNEW (6.0.2)) date 2022-02-17 23:04:49*
%MOMM*%
%LPD*%
G01*
G04 APERTURE LIST*
G04 Aperture macros list*
%AMRoundRect*
0 Rectangle with rounded corners*
0 $1 Rounding radius*
0 $2 $3 $4 $5 $6 $7 $8 $9 X,Y pos of 4 corners*
0 Add a 4 corners polygon primitive as box body*
4,1,4,$2,$3,$4,$5,$6,$7,$8,$9,$2,$3,0*
0 Add four circle primitives for the rounded corners*
1,1,$1+$1,$2,$3*
1,1,$1+$1,$4,$5*
1,1,$1+$1,$6,$7*
1,1,$1+$1,$8,$9*
0 Add four rect primitives between the rounded corners*
20,1,$1+$1,$2,$3,$4,$5,0*
20,1,$1+$1,$4,$5,$6,$7,0*
20,1,$1+$1,$6,$7,$8,$9,0*
20,1,$1+$1,$8,$9,$2,$3,0*%
G04 Aperture macros list end*
%ADD10RoundRect,0.243750X0.456250X-0.243750X0.456250X0.243750X-0.456250X0.243750X-0.456250X-0.243750X0*%
%ADD11R,1.100000X1.800000*%
%ADD12RoundRect,0.250000X0.450000X-0.262500X0.450000X0.262500X-0.450000X0.262500X-0.450000X-0.262500X0*%
%ADD13RoundRect,0.250000X0.275000X0.275000X-0.275000X0.275000X-0.275000X-0.275000X0.275000X-0.275000X0*%
%ADD14RoundRect,0.062500X0.475000X0.062500X-0.475000X0.062500X-0.475000X-0.062500X0.475000X-0.062500X0*%
%ADD15RoundRect,0.062500X0.062500X0.475000X-0.062500X0.475000X-0.062500X-0.475000X0.062500X-0.475000X0*%
%ADD16RoundRect,0.250000X-0.475000X0.250000X-0.475000X-0.250000X0.475000X-0.250000X0.475000X0.250000X0*%
%ADD17R,0.600000X1.450000*%
%ADD18R,0.300000X1.450000*%
%ADD19RoundRect,0.250000X-0.262500X-0.450000X0.262500X-0.450000X0.262500X0.450000X-0.262500X0.450000X0*%
%ADD20R,1.400000X1.200000*%
%ADD21RoundRect,0.250000X0.475000X-0.250000X0.475000X0.250000X-0.475000X0.250000X-0.475000X-0.250000X0*%
%ADD22RoundRect,0.250000X0.250000X0.475000X-0.250000X0.475000X-0.250000X-0.475000X0.250000X-0.475000X0*%
%ADD23RoundRect,0.250000X-0.250000X-0.475000X0.250000X-0.475000X0.250000X0.475000X-0.250000X0.475000X0*%
%ADD24RoundRect,0.243750X0.243750X0.456250X-0.243750X0.456250X-0.243750X-0.456250X0.243750X-0.456250X0*%
G04 APERTURE END LIST*
D10*
X174625000Y-84931250D03*
X174625000Y-83056250D03*
X131762500Y-27781250D03*
X131762500Y-25906250D03*
X250825000Y-84931250D03*
X250825000Y-83056250D03*
X279400000Y-65881250D03*
X279400000Y-64006250D03*
X65087500Y-46831250D03*
X65087500Y-44956250D03*
X277018750Y-103981250D03*
X277018750Y-102106250D03*
X231775000Y-84931250D03*
X231775000Y-83056250D03*
X369887500Y-27781250D03*
X369887500Y-25906250D03*
X60325000Y-84931250D03*
X60325000Y-83056250D03*
X136525000Y-84931250D03*
X136525000Y-83056250D03*
X331787500Y-103981250D03*
X331787500Y-102106250D03*
D11*
X327200000Y-90637500D03*
X330900000Y-96837500D03*
X330900000Y-90637500D03*
X327200000Y-96837500D03*
D10*
X43656250Y-65881250D03*
X43656250Y-64006250D03*
X38893750Y-103981250D03*
X38893750Y-102106250D03*
X150812500Y-27781250D03*
X150812500Y-25906250D03*
D12*
X194468750Y-30956250D03*
X194468750Y-29131250D03*
D10*
X350837500Y-27781250D03*
X350837500Y-25906250D03*
D13*
X320312500Y-77931250D03*
X322912500Y-76631250D03*
X322912500Y-79231250D03*
X320312500Y-80531250D03*
X322912500Y-77931250D03*
X320312500Y-79231250D03*
X321612500Y-79231250D03*
X324212500Y-77931250D03*
X324212500Y-80531250D03*
X324212500Y-79231250D03*
X324212500Y-76631250D03*
X321612500Y-76631250D03*
X322912500Y-80531250D03*
X321612500Y-77931250D03*
X320312500Y-76631250D03*
X321612500Y-80531250D03*
D14*
X325600000Y-76081250D03*
X325600000Y-76581250D03*
X325600000Y-77081250D03*
X325600000Y-77581250D03*
X325600000Y-78081250D03*
X325600000Y-78581250D03*
X325600000Y-79081250D03*
X325600000Y-79581250D03*
X325600000Y-80081250D03*
X325600000Y-80581250D03*
X325600000Y-81081250D03*
D15*
X324762500Y-81918750D03*
X324262500Y-81918750D03*
X323762500Y-81918750D03*
X323262500Y-81918750D03*
X322762500Y-81918750D03*
X322262500Y-81918750D03*
X321762500Y-81918750D03*
X321262500Y-81918750D03*
X320762500Y-81918750D03*
X320262500Y-81918750D03*
X319762500Y-81918750D03*
D14*
X318925000Y-81081250D03*
X318925000Y-80581250D03*
X318925000Y-80081250D03*
X318925000Y-79581250D03*
X318925000Y-79081250D03*
X318925000Y-78581250D03*
X318925000Y-78081250D03*
X318925000Y-77581250D03*
X318925000Y-77081250D03*
X318925000Y-76581250D03*
X318925000Y-76081250D03*
D15*
X319762500Y-75243750D03*
X320262500Y-75243750D03*
X320762500Y-75243750D03*
X321262500Y-75243750D03*
X321762500Y-75243750D03*
X322262500Y-75243750D03*
X322762500Y-75243750D03*
X323262500Y-75243750D03*
X323762500Y-75243750D03*
X324262500Y-75243750D03*
X324762500Y-75243750D03*
D10*
X160337500Y-46831250D03*
X160337500Y-44956250D03*
X274637500Y-46831250D03*
X274637500Y-44956250D03*
D12*
X200025000Y-23812500D03*
X200025000Y-21987500D03*
D10*
X300831250Y-103981250D03*
X300831250Y-102106250D03*
X157956250Y-103981250D03*
X157956250Y-102106250D03*
X79375000Y-84931250D03*
X79375000Y-83056250D03*
D16*
X316200000Y-82000000D03*
X316200000Y-83900000D03*
D10*
X300831250Y-56356250D03*
X300831250Y-54481250D03*
X369887500Y-46831250D03*
X369887500Y-44956250D03*
X260350000Y-65881250D03*
X260350000Y-64006250D03*
X141287500Y-46831250D03*
X141287500Y-44956250D03*
X286543750Y-84931250D03*
X286543750Y-83056250D03*
X265112500Y-27781250D03*
X265112500Y-25906250D03*
D17*
X189656250Y-25521250D03*
X190431250Y-25521250D03*
D18*
X191131250Y-25521250D03*
X191631250Y-25521250D03*
X192131250Y-25521250D03*
X192631250Y-25521250D03*
X193131250Y-25521250D03*
X193631250Y-25521250D03*
X194131250Y-25521250D03*
X194631250Y-25521250D03*
D17*
X195331250Y-25521250D03*
X196106250Y-25521250D03*
D10*
X36512500Y-27781250D03*
X36512500Y-25906250D03*
X222250000Y-65881250D03*
X222250000Y-64006250D03*
X155575000Y-84931250D03*
X155575000Y-83056250D03*
X227012500Y-27781250D03*
X227012500Y-25906250D03*
X350837500Y-46831250D03*
X350837500Y-44956250D03*
X198437500Y-46831250D03*
X198437500Y-44956250D03*
X84137500Y-46831250D03*
X84137500Y-44956250D03*
X253206250Y-103981250D03*
X253206250Y-102106250D03*
X62706250Y-103981250D03*
X62706250Y-102106250D03*
X350837500Y-103981250D03*
X350837500Y-102106250D03*
X246062500Y-27781250D03*
X246062500Y-25906250D03*
X165100000Y-65881250D03*
X165100000Y-64006250D03*
X127000000Y-65881250D03*
X127000000Y-64006250D03*
X169862500Y-27781250D03*
X169862500Y-25906250D03*
X331787500Y-27781250D03*
X331787500Y-25906250D03*
X112712500Y-27781250D03*
X112712500Y-25906250D03*
X93662500Y-27781250D03*
X93662500Y-25906250D03*
X207962500Y-27781250D03*
X207962500Y-25906250D03*
D12*
X185737500Y-23812500D03*
X185737500Y-21987500D03*
D19*
X314875000Y-72600000D03*
X316700000Y-72600000D03*
D10*
X229393750Y-103981250D03*
X229393750Y-102106250D03*
D20*
X317700000Y-90387500D03*
X319900000Y-90387500D03*
X319900000Y-92087500D03*
X317700000Y-92087500D03*
D10*
X88900000Y-65881250D03*
X88900000Y-64006250D03*
D21*
X321900000Y-92187500D03*
X321900000Y-90287500D03*
D10*
X255587500Y-46831250D03*
X255587500Y-44956250D03*
D22*
X325700000Y-84700000D03*
X323800000Y-84700000D03*
D10*
X98425000Y-84931250D03*
X98425000Y-83056250D03*
X122237500Y-46831250D03*
X122237500Y-44956250D03*
D12*
X324900000Y-92200000D03*
X324900000Y-90375000D03*
D10*
X86518750Y-103981250D03*
X86518750Y-102106250D03*
X103187500Y-46831250D03*
X103187500Y-44956250D03*
X217487500Y-46831250D03*
X217487500Y-44956250D03*
X74612500Y-27781250D03*
X74612500Y-25906250D03*
X41275000Y-46831250D03*
X41275000Y-44956250D03*
X69850000Y-65881250D03*
X69850000Y-64006250D03*
X55562500Y-27781250D03*
X55562500Y-25906250D03*
X241300000Y-65881250D03*
X241300000Y-64006250D03*
X193675000Y-84931250D03*
X193675000Y-83056250D03*
D23*
X318800000Y-72600000D03*
X320700000Y-72600000D03*
D10*
X236537500Y-46831250D03*
X236537500Y-44956250D03*
X331787500Y-46831250D03*
X331787500Y-44956250D03*
X350837500Y-84931250D03*
X350837500Y-83056250D03*
X146050000Y-65881250D03*
X146050000Y-64006250D03*
D24*
X188118750Y-28575000D03*
X186243750Y-28575000D03*
D10*
X107950000Y-65881250D03*
X107950000Y-64006250D03*
D16*
X329400000Y-75700000D03*
X329400000Y-77600000D03*
X332300000Y-77200000D03*
X332300000Y-79100000D03*
X315700000Y-90287500D03*
X315700000Y-92187500D03*
D10*
X293687500Y-27781250D03*
X293687500Y-25906250D03*
X369887500Y-103981250D03*
X369887500Y-102106250D03*
X117475000Y-84931250D03*
X117475000Y-83056250D03*
X184150000Y-65881250D03*
X184150000Y-64006250D03*
X38893750Y-84931250D03*
X38893750Y-83056250D03*
X203200000Y-65881250D03*
X203200000Y-64006250D03*
D12*
X191293750Y-30956250D03*
X191293750Y-29131250D03*
D10*
X179387500Y-46831250D03*
X179387500Y-44956250D03*
X212725000Y-84931250D03*
X212725000Y-83056250D03*
M02*
