M48
; DRILL file {KiCad (6.0.2)} date Thu Feb 17 23:22:52 2022
; FORMAT={-:-/ absolute / metric / decimal}
; #@! TF.CreationDate,2022-02-17T23:22:52+01:00
; #@! TF.GenerationSoftware,Kicad,Pcbnew,(6.0.2)
; #@! TF.FileFunction,NonPlated,1,2,NPTH
FMAT,2
METRIC
; #@! TA.AperFunction,NonPlated,NPTH,ComponentDrill
T1C0.650
; #@! TA.AperFunction,NonPlated,NPTH,ComponentDrill
T2C1.750
; #@! TA.AperFunction,NonPlated,NPTH,ComponentDrill
T3C3.048
; #@! TA.AperFunction,NonPlated,NPTH,ComponentDrill
T4C3.200
; #@! TA.AperFunction,NonPlated,NPTH,ComponentDrill
T5C3.988
%
G90
G05
T1
X189.991Y-24.076
X195.771Y-24.076
T2
X25.876Y-30.956
X28.258Y-88.106
X28.258Y-107.156
X30.639Y-50.006
X33.02Y-69.056
X36.036Y-30.956
X38.417Y-88.106
X38.417Y-107.156
X40.799Y-50.006
X43.18Y-69.056
X44.926Y-30.956
X49.689Y-88.106
X52.07Y-107.156
X54.451Y-50.006
X55.086Y-30.956
X59.214Y-69.056
X59.849Y-88.106
X62.23Y-107.156
X63.976Y-30.956
X64.611Y-50.006
X68.739Y-88.106
X69.374Y-69.056
X73.501Y-50.006
X74.136Y-30.956
X75.882Y-107.156
X78.264Y-69.056
X78.899Y-88.106
X83.026Y-30.956
X83.661Y-50.006
X86.042Y-107.156
X87.789Y-88.106
X88.424Y-69.056
X92.551Y-50.006
X93.186Y-30.956
X97.314Y-69.056
X97.949Y-88.106
X102.076Y-30.956
X102.711Y-50.006
X106.839Y-88.106
X107.474Y-69.056
X111.601Y-50.006
X112.236Y-30.956
X116.364Y-69.056
X116.999Y-88.106
X121.126Y-30.956
X121.761Y-50.006
X125.889Y-88.106
X126.524Y-69.056
X130.651Y-50.006
X131.286Y-30.956
X135.414Y-69.056
X136.049Y-88.106
X140.176Y-30.956
X140.811Y-50.006
X144.939Y-88.106
X145.574Y-69.056
X147.32Y-107.156
X149.701Y-50.006
X150.336Y-30.956
X154.464Y-69.056
X155.099Y-88.106
X157.48Y-107.156
X159.226Y-30.956
X159.861Y-50.006
X163.989Y-88.106
X164.624Y-69.056
X168.751Y-50.006
X169.386Y-30.956
X173.514Y-69.056
X174.149Y-88.106
X178.276Y-30.956
X178.911Y-50.006
X183.039Y-88.106
X183.674Y-69.056
X187.801Y-50.006
X188.436Y-30.956
X192.564Y-69.056
X193.199Y-88.106
X197.326Y-30.956
X197.961Y-50.006
X202.089Y-88.106
X202.724Y-69.056
X206.851Y-50.006
X207.486Y-30.956
X211.614Y-69.056
X212.249Y-88.106
X216.376Y-30.956
X217.011Y-50.006
X218.757Y-107.156
X221.139Y-88.106
X221.774Y-69.056
X225.901Y-50.006
X226.536Y-30.956
X228.917Y-107.156
X230.664Y-69.056
X231.299Y-88.106
X235.426Y-30.956
X236.061Y-50.006
X240.189Y-88.106
X240.824Y-69.056
X242.57Y-107.156
X244.951Y-50.006
X245.586Y-30.956
X249.714Y-69.056
X250.349Y-88.106
X252.73Y-107.156
X254.476Y-30.956
X255.111Y-50.006
X259.874Y-69.056
X264.001Y-50.006
X264.636Y-30.956
X266.382Y-107.156
X268.764Y-69.056
X274.161Y-50.006
X275.907Y-88.106
X276.542Y-107.156
X278.924Y-69.056
X283.051Y-30.956
X286.067Y-88.106
X290.195Y-59.531
X290.195Y-107.156
X293.211Y-30.956
X300.355Y-59.531
X300.355Y-107.156
X321.151Y-30.956
X321.151Y-50.006
X321.151Y-107.156
X331.311Y-30.956
X331.311Y-50.006
X331.311Y-107.156
X340.201Y-30.956
X340.201Y-50.006
X340.201Y-88.106
X340.201Y-107.156
X350.361Y-30.956
X350.361Y-50.006
X350.361Y-88.106
X350.361Y-107.156
X359.251Y-30.956
X359.251Y-50.006
X359.251Y-107.156
X369.411Y-30.956
X369.411Y-50.006
X369.411Y-107.156
T3
X102.4Y-100.171
X202.4Y-100.171
X269.081Y-81.121
X276.225Y-23.971
X288.29Y-47.593
X288.29Y-71.469
X292.894Y-81.121
X300.037Y-23.971
T4
X24.606Y-69.056
X127.794Y-107.156
X311.944Y-24.606
X364.331Y-88.106
T5
X30.956Y-30.956
X33.337Y-88.106
X33.337Y-107.156
X35.719Y-50.006
X38.1Y-69.056
X50.006Y-30.956
X54.769Y-88.106
X57.15Y-107.156
X59.531Y-50.006
X64.294Y-69.056
X69.056Y-30.956
X73.819Y-88.106
X78.581Y-50.006
X80.962Y-107.156
X83.344Y-69.056
X88.106Y-30.956
X92.869Y-88.106
X97.631Y-50.006
X102.394Y-69.056
X102.4Y-115.411
X107.156Y-30.956
X111.919Y-88.106
X116.681Y-50.006
X121.444Y-69.056
X126.206Y-30.956
X130.969Y-88.106
X135.731Y-50.006
X140.494Y-69.056
X145.256Y-30.956
X150.019Y-88.106
X152.4Y-107.156
X154.781Y-50.006
X159.544Y-69.056
X164.306Y-30.956
X169.069Y-88.106
X173.831Y-50.006
X178.594Y-69.056
X183.356Y-30.956
X188.119Y-88.106
X192.881Y-50.006
X197.644Y-69.056
X202.4Y-115.411
X202.406Y-30.956
X207.169Y-88.106
X211.931Y-50.006
X216.694Y-69.056
X221.456Y-30.956
X223.837Y-107.156
X226.219Y-88.106
X230.981Y-50.006
X235.744Y-69.056
X240.506Y-30.956
X245.269Y-88.106
X247.65Y-107.156
X250.031Y-50.006
X254.794Y-69.056
X259.556Y-30.956
X269.081Y-50.006
X269.081Y-96.361
X271.462Y-107.156
X273.844Y-69.056
X276.225Y-39.211
X280.988Y-88.106
X288.131Y-30.956
X292.894Y-96.361
X295.275Y-59.531
X295.275Y-107.156
X300.037Y-39.211
X303.53Y-47.593
X303.53Y-71.469
X326.231Y-30.956
X326.231Y-50.006
X326.231Y-107.156
X345.281Y-30.956
X345.281Y-50.006
X345.281Y-88.106
X345.281Y-107.156
X364.331Y-30.956
X364.331Y-50.006
X364.331Y-107.156
T0
M30
