G04 #@! TF.GenerationSoftware,KiCad,Pcbnew,(6.0.2)*
G04 #@! TF.CreationDate,2022-02-20T18:10:59+01:00*
G04 #@! TF.ProjectId,Frooastboard Walnut,46726f6f-6173-4746-926f-617264205761,rev?*
G04 #@! TF.SameCoordinates,Original*
G04 #@! TF.FileFunction,Legend,Top*
G04 #@! TF.FilePolarity,Positive*
%FSLAX46Y46*%
G04 Gerber Fmt 4.6, Leading zero omitted, Abs format (unit mm)*
G04 Created by KiCad (PCBNEW (6.0.2)) date 2022-02-20 18:10:59*
%MOMM*%
%LPD*%
G01*
G04 APERTURE LIST*
%ADD10C,0.150000*%
%ADD11C,0.185000*%
%ADD12C,1.750000*%
%ADD13C,3.987800*%
%ADD14C,3.200000*%
%ADD15C,3.048000*%
%ADD16C,2.000000*%
%ADD17C,0.650000*%
%ADD18O,1.000000X1.600000*%
%ADD19O,1.000000X2.100000*%
G04 APERTURE END LIST*
D10*
X23844345Y-65708630D02*
X23844345Y-64708630D01*
X23844345Y-65184821D02*
X24415773Y-65184821D01*
X24415773Y-65708630D02*
X24415773Y-64708630D01*
X25415773Y-65708630D02*
X24844345Y-65708630D01*
X25130059Y-65708630D02*
X25130059Y-64708630D01*
X25034821Y-64851488D01*
X24939583Y-64946726D01*
X24844345Y-64994345D01*
X363569345Y-84758630D02*
X363569345Y-83758630D01*
X363569345Y-84234821D02*
X364140773Y-84234821D01*
X364140773Y-84758630D02*
X364140773Y-83758630D01*
X365045535Y-84091964D02*
X365045535Y-84758630D01*
X364807440Y-83711011D02*
X364569345Y-84425297D01*
X365188392Y-84425297D01*
X311181845Y-21258630D02*
X311181845Y-20258630D01*
X311181845Y-20734821D02*
X311753273Y-20734821D01*
X311753273Y-21258630D02*
X311753273Y-20258630D01*
X312134226Y-20258630D02*
X312753273Y-20258630D01*
X312419940Y-20639583D01*
X312562797Y-20639583D01*
X312658035Y-20687202D01*
X312705654Y-20734821D01*
X312753273Y-20830059D01*
X312753273Y-21068154D01*
X312705654Y-21163392D01*
X312658035Y-21211011D01*
X312562797Y-21258630D01*
X312277083Y-21258630D01*
X312181845Y-21211011D01*
X312134226Y-21163392D01*
X369609821Y-21359821D02*
X369276488Y-21359821D01*
X369276488Y-21883630D02*
X369276488Y-20883630D01*
X369752678Y-20883630D01*
X370133630Y-21883630D02*
X370133630Y-20883630D01*
X370609821Y-21883630D02*
X370609821Y-20883630D01*
X370847916Y-20883630D01*
X370990773Y-20931250D01*
X371086011Y-21026488D01*
X371133630Y-21121726D01*
X371181250Y-21312202D01*
X371181250Y-21455059D01*
X371133630Y-21645535D01*
X371086011Y-21740773D01*
X370990773Y-21836011D01*
X370847916Y-21883630D01*
X370609821Y-21883630D01*
X372133630Y-21883630D02*
X371562202Y-21883630D01*
X371847916Y-21883630D02*
X371847916Y-20883630D01*
X371752678Y-21026488D01*
X371657440Y-21121726D01*
X371562202Y-21169345D01*
X23534821Y-116609821D02*
X23201488Y-116609821D01*
X23201488Y-117133630D02*
X23201488Y-116133630D01*
X23677678Y-116133630D01*
X24058630Y-117133630D02*
X24058630Y-116133630D01*
X24534821Y-117133630D02*
X24534821Y-116133630D01*
X24772916Y-116133630D01*
X24915773Y-116181250D01*
X25011011Y-116276488D01*
X25058630Y-116371726D01*
X25106250Y-116562202D01*
X25106250Y-116705059D01*
X25058630Y-116895535D01*
X25011011Y-116990773D01*
X24915773Y-117086011D01*
X24772916Y-117133630D01*
X24534821Y-117133630D01*
X25487202Y-116228869D02*
X25534821Y-116181250D01*
X25630059Y-116133630D01*
X25868154Y-116133630D01*
X25963392Y-116181250D01*
X26011011Y-116228869D01*
X26058630Y-116324107D01*
X26058630Y-116419345D01*
X26011011Y-116562202D01*
X25439583Y-117133630D01*
X26058630Y-117133630D01*
X127031845Y-103808630D02*
X127031845Y-102808630D01*
X127031845Y-103284821D02*
X127603273Y-103284821D01*
X127603273Y-103808630D02*
X127603273Y-102808630D01*
X128031845Y-102903869D02*
X128079464Y-102856250D01*
X128174702Y-102808630D01*
X128412797Y-102808630D01*
X128508035Y-102856250D01*
X128555654Y-102903869D01*
X128603273Y-102999107D01*
X128603273Y-103094345D01*
X128555654Y-103237202D01*
X127984226Y-103808630D01*
X128603273Y-103808630D01*
D11*
X288382500Y-47593250D02*
G75*
G03*
X288382500Y-47593250I-92500J0D01*
G01*
%LPC*%
D12*
X359251250Y-30956250D03*
X369411250Y-30956250D03*
D13*
X364331250Y-30956250D03*
D12*
X236061250Y-50006250D03*
X225901250Y-50006250D03*
D13*
X230981250Y-50006250D03*
D12*
X231298750Y-88106250D03*
D13*
X226218750Y-88106250D03*
D12*
X221138750Y-88106250D03*
X217011250Y-50006250D03*
D13*
X211931250Y-50006250D03*
D12*
X206851250Y-50006250D03*
D13*
X245268750Y-88106250D03*
D12*
X250348750Y-88106250D03*
X240188750Y-88106250D03*
X78898750Y-88106250D03*
D13*
X73818750Y-88106250D03*
D12*
X68738750Y-88106250D03*
D13*
X121443750Y-69056250D03*
D12*
X126523750Y-69056250D03*
X116363750Y-69056250D03*
D13*
X250031250Y-50006250D03*
D12*
X244951250Y-50006250D03*
X255111250Y-50006250D03*
X242570000Y-107156250D03*
X252730000Y-107156250D03*
D13*
X247650000Y-107156250D03*
D12*
X40798750Y-50006250D03*
D13*
X35718750Y-50006250D03*
D12*
X30638750Y-50006250D03*
X102711250Y-50006250D03*
X92551250Y-50006250D03*
D13*
X97631250Y-50006250D03*
D12*
X216376250Y-30956250D03*
X226536250Y-30956250D03*
D13*
X221456250Y-30956250D03*
X116681250Y-50006250D03*
D12*
X111601250Y-50006250D03*
X121761250Y-50006250D03*
D14*
X24606250Y-69056250D03*
D12*
X174148750Y-88106250D03*
X163988750Y-88106250D03*
D13*
X169068750Y-88106250D03*
D12*
X197326250Y-30956250D03*
X207486250Y-30956250D03*
D13*
X202406250Y-30956250D03*
X197643750Y-69056250D03*
D12*
X192563750Y-69056250D03*
X202723750Y-69056250D03*
X202088750Y-88106250D03*
X212248750Y-88106250D03*
D13*
X207168750Y-88106250D03*
D14*
X364331250Y-88106250D03*
D12*
X144938750Y-88106250D03*
X155098750Y-88106250D03*
D13*
X150018750Y-88106250D03*
X92868750Y-88106250D03*
D12*
X87788750Y-88106250D03*
X97948750Y-88106250D03*
X131286250Y-30956250D03*
D13*
X126206250Y-30956250D03*
D12*
X121126250Y-30956250D03*
D13*
X326231250Y-30956250D03*
D12*
X321151250Y-30956250D03*
X331311250Y-30956250D03*
D13*
X235743750Y-69056250D03*
D12*
X230663750Y-69056250D03*
X240823750Y-69056250D03*
X147320000Y-107156250D03*
D15*
X102400100Y-100171250D03*
D13*
X202399900Y-115411250D03*
D15*
X202399900Y-100171250D03*
D13*
X152400000Y-107156250D03*
X102400100Y-115411250D03*
D12*
X157480000Y-107156250D03*
D13*
X183356250Y-30956250D03*
D12*
X178276250Y-30956250D03*
X188436250Y-30956250D03*
X249713750Y-69056250D03*
D13*
X254793750Y-69056250D03*
D12*
X259873750Y-69056250D03*
X264001250Y-50006250D03*
X274161250Y-50006250D03*
D13*
X269081250Y-50006250D03*
D14*
X311943750Y-24606250D03*
D13*
X364331250Y-107156250D03*
D12*
X359251250Y-107156250D03*
X369411250Y-107156250D03*
D13*
X38100000Y-69056250D03*
D12*
X33020000Y-69056250D03*
X43180000Y-69056250D03*
X331311250Y-107156250D03*
X321151250Y-107156250D03*
D13*
X326231250Y-107156250D03*
X50006250Y-30956250D03*
D12*
X44926250Y-30956250D03*
X55086250Y-30956250D03*
X62230000Y-107156250D03*
D13*
X57150000Y-107156250D03*
D12*
X52070000Y-107156250D03*
D16*
X373856250Y-21431250D03*
D13*
X140493750Y-69056250D03*
D12*
X145573750Y-69056250D03*
X135413750Y-69056250D03*
X293211250Y-30956250D03*
D15*
X300037500Y-23971250D03*
X276225000Y-23971250D03*
D12*
X283051250Y-30956250D03*
D13*
X300037500Y-39211250D03*
X288131250Y-30956250D03*
X276225000Y-39211250D03*
D12*
X187801250Y-50006250D03*
D13*
X192881250Y-50006250D03*
D12*
X197961250Y-50006250D03*
X321151250Y-50006250D03*
X331311250Y-50006250D03*
D13*
X326231250Y-50006250D03*
D12*
X193198750Y-88106250D03*
D13*
X188118750Y-88106250D03*
D12*
X183038750Y-88106250D03*
X59213750Y-69056250D03*
D13*
X64293750Y-69056250D03*
D12*
X69373750Y-69056250D03*
X173513750Y-69056250D03*
D13*
X178593750Y-69056250D03*
D12*
X183673750Y-69056250D03*
D16*
X21431250Y-116681250D03*
D13*
X111918750Y-88106250D03*
D12*
X116998750Y-88106250D03*
X106838750Y-88106250D03*
D13*
X285750000Y-69056250D03*
X297656250Y-77311250D03*
X273843750Y-77311250D03*
D12*
X290830000Y-69056250D03*
D15*
X297656250Y-62071250D03*
X273843750Y-62071250D03*
D12*
X280670000Y-69056250D03*
D13*
X33337500Y-107156250D03*
D12*
X38417500Y-107156250D03*
X28257500Y-107156250D03*
X74136250Y-30956250D03*
D13*
X69056250Y-30956250D03*
D12*
X63976250Y-30956250D03*
X73501250Y-50006250D03*
D13*
X78581250Y-50006250D03*
D12*
X83661250Y-50006250D03*
D13*
X107156250Y-30956250D03*
D12*
X112236250Y-30956250D03*
X102076250Y-30956250D03*
D13*
X273843750Y-69056250D03*
D12*
X268763750Y-69056250D03*
X278923750Y-69056250D03*
D13*
X345281250Y-30956250D03*
D12*
X340201250Y-30956250D03*
X350361250Y-30956250D03*
X218757500Y-107156250D03*
X228917500Y-107156250D03*
D13*
X223837500Y-107156250D03*
D12*
X169386250Y-30956250D03*
X159226250Y-30956250D03*
D13*
X164306250Y-30956250D03*
D12*
X49688750Y-88106250D03*
D13*
X54768750Y-88106250D03*
D12*
X59848750Y-88106250D03*
D13*
X88106250Y-30956250D03*
D12*
X93186250Y-30956250D03*
X83026250Y-30956250D03*
X88423750Y-69056250D03*
X78263750Y-69056250D03*
D13*
X83343750Y-69056250D03*
D12*
X97313750Y-69056250D03*
X107473750Y-69056250D03*
D13*
X102393750Y-69056250D03*
X240506250Y-30956250D03*
D12*
X235426250Y-30956250D03*
X245586250Y-30956250D03*
D14*
X127793750Y-107156250D03*
D12*
X140176250Y-30956250D03*
D13*
X145256250Y-30956250D03*
D12*
X150336250Y-30956250D03*
D13*
X271462500Y-107156250D03*
D12*
X266382500Y-107156250D03*
X276542500Y-107156250D03*
D13*
X216693750Y-69056250D03*
D12*
X211613750Y-69056250D03*
X221773750Y-69056250D03*
X37782500Y-88106250D03*
D15*
X54768750Y-81121250D03*
D13*
X30956250Y-96361250D03*
X54768750Y-96361250D03*
D15*
X30956250Y-81121250D03*
D12*
X47942500Y-88106250D03*
D13*
X42862500Y-88106250D03*
D12*
X300355000Y-59531250D03*
D15*
X288290000Y-71469250D03*
D12*
X290195000Y-59531250D03*
D13*
X303530000Y-47593250D03*
X303530000Y-71469250D03*
X295275000Y-59531250D03*
D12*
X125888750Y-88106250D03*
X136048750Y-88106250D03*
D13*
X130968750Y-88106250D03*
D12*
X28257500Y-88106250D03*
X38417500Y-88106250D03*
D13*
X33337500Y-88106250D03*
D12*
X297973750Y-50006250D03*
D13*
X292893750Y-50006250D03*
D12*
X287813750Y-50006250D03*
X369411250Y-50006250D03*
X359251250Y-50006250D03*
D13*
X364331250Y-50006250D03*
D12*
X340201250Y-88106250D03*
X350361250Y-88106250D03*
D13*
X345281250Y-88106250D03*
X173831250Y-50006250D03*
D12*
X168751250Y-50006250D03*
X178911250Y-50006250D03*
X54451250Y-50006250D03*
D13*
X59531250Y-50006250D03*
D12*
X64611250Y-50006250D03*
X350361250Y-50006250D03*
X340201250Y-50006250D03*
D13*
X345281250Y-50006250D03*
X295275000Y-107156250D03*
D12*
X300355000Y-107156250D03*
X290195000Y-107156250D03*
X154463750Y-69056250D03*
D13*
X159543750Y-69056250D03*
D12*
X164623750Y-69056250D03*
D13*
X154781250Y-50006250D03*
D12*
X159861250Y-50006250D03*
X149701250Y-50006250D03*
X350361250Y-107156250D03*
X340201250Y-107156250D03*
D13*
X345281250Y-107156250D03*
X30956250Y-30956250D03*
D12*
X36036250Y-30956250D03*
X25876250Y-30956250D03*
X75882500Y-107156250D03*
X86042500Y-107156250D03*
D13*
X80962500Y-107156250D03*
D12*
X264636250Y-30956250D03*
D13*
X259556250Y-30956250D03*
D12*
X254476250Y-30956250D03*
D13*
X280987500Y-88106250D03*
D15*
X269081250Y-81121250D03*
D12*
X286067500Y-88106250D03*
X275907500Y-88106250D03*
D15*
X292893750Y-81121250D03*
D13*
X292893750Y-96361250D03*
X269081250Y-96361250D03*
D12*
X140811250Y-50006250D03*
D13*
X135731250Y-50006250D03*
D12*
X130651250Y-50006250D03*
D17*
X195771250Y-24076250D03*
X189991250Y-24076250D03*
D18*
X197201250Y-20426250D03*
X188561250Y-20426250D03*
D19*
X197201250Y-24606250D03*
X188561250Y-24606250D03*
M02*
