M48
; DRILL file {KiCad (6.0.2)} date Sun Feb 20 18:29:15 2022
; FORMAT={-:-/ absolute / inch / decimal}
; #@! TF.CreationDate,2022-02-20T18:29:15+01:00
; #@! TF.GenerationSoftware,Kicad,Pcbnew,(6.0.2)
; #@! TF.FileFunction,Plated,1,2,PTH
FMAT,2
INCH
; #@! TA.AperFunction,Plated,PTH,ViaDrill
T1C0.0157
; #@! TA.AperFunction,Plated,PTH,ComponentDrill
T2C0.0236
; #@! TA.AperFunction,Plated,PTH,ComponentDrill
T3C0.0579
%
G90
G05
T1
X1.2188Y-3.9375
X2.0625Y-3.9062
X2.875Y-3.875
X3.5938Y-3.8438
X4.3438Y-3.8125
X5.0938Y-3.7812
X5.8125Y-3.8438
X5.8438Y-3.75
X6.5938Y-3.7188
X7.3438Y-3.9375
X7.5Y-1.062
X7.5312Y-1.4062
X7.6875Y-1.0625
X8.25Y-3.9062
X8.625Y-3.8125
X8.8438Y-3.875
X9.5625Y-3.7812
X9.6562Y-3.8438
X10.4375Y-3.5938
X11.0Y-3.6562
X11.0312Y-2.4375
X11.0938Y-2.0
X11.125Y-2.0312
X11.375Y-3.5625
X11.5312Y-3.625
X11.6562Y-3.3125
X12.0276Y-3.1969
X12.0625Y-3.5
X12.0625Y-3.5625
X12.0938Y-2.1562
X12.0938Y-2.6562
X12.1063Y-1.3258
X12.1063Y-1.3671
X12.125Y-3.0312
X12.125Y-3.5625
X12.125Y-3.625
X12.1562Y-2.875
X12.1562Y-2.9375
X12.185Y-2.7323
X12.1875Y-2.4062
X12.1875Y-3.0312
X12.1875Y-3.0938
X12.1875Y-3.9688
X12.2188Y-2.4375
X12.2188Y-2.875
X12.25Y-3.0938
X12.2746Y-1.9567
X12.3159Y-1.9567
X12.3268Y-3.2756
X12.3701Y-3.3189
X12.375Y-3.1875
X12.4062Y-3.125
X12.4259Y-3.0308
X12.5Y-3.7812
X12.5Y-3.8438
X12.5079Y-2.937
X12.558Y-3.4017
X12.5625Y-3.8438
X12.5625Y-3.9062
X12.6562Y-3.4688
X12.6772Y-2.8819
X12.7475Y-3.3914
X12.8228Y-3.4291
X12.8957Y-3.0239
X12.8957Y-3.0652
X12.9104Y-3.4688
X12.9386Y-3.5002
X12.9478Y-2.7165
X12.9688Y-3.4688
X12.9892Y-2.7165
X13.0Y-3.5
X13.2188Y-3.125
X13.25Y-3.0938
T3
X1.0687Y-1.1187
X1.1625Y-3.3687
X1.1625Y-4.1187
X1.2562Y-1.8687
X1.3187Y-1.0188
X1.35Y-2.6187
X1.4125Y-3.2687
X1.4125Y-4.0187
X1.5062Y-1.7688
X1.5375Y-3.3687
X1.6Y-2.5187
X1.7875Y-3.2687
X1.8187Y-1.1187
X2.0063Y-3.3687
X2.0688Y-1.0188
X2.1Y-4.1187
X2.1938Y-1.8687
X2.2563Y-3.2687
X2.35Y-4.0187
X2.3813Y-2.6187
X2.4438Y-1.7688
X2.5688Y-1.1187
X2.6313Y-2.5187
X2.7563Y-3.3687
X2.8188Y-1.0188
X2.9438Y-1.8687
X3.0063Y-3.2687
X3.0375Y-4.1187
X3.1313Y-2.6187
X3.1938Y-1.7688
X3.2875Y-4.0187
X3.3188Y-1.1187
X3.3813Y-2.5187
X3.5063Y-3.3687
X3.5688Y-1.0188
X3.6938Y-1.8687
X3.7563Y-3.2687
X3.8813Y-2.6187
X3.9438Y-1.7688
X4.0687Y-1.1187
X4.1312Y-2.5187
X4.2562Y-3.3687
X4.3187Y-1.0188
X4.4437Y-1.8687
X4.5062Y-3.2687
X4.6312Y-2.6187
X4.6937Y-1.7688
X4.8187Y-1.1187
X4.8812Y-2.5187
X5.0062Y-3.3687
X5.0687Y-1.0188
X5.1937Y-1.8687
X5.2562Y-3.2687
X5.3812Y-2.6187
X5.4437Y-1.7688
X5.5687Y-1.1187
X5.6312Y-2.5187
X5.7562Y-3.3687
X5.8187Y-1.0188
X5.85Y-4.1187
X5.9437Y-1.8687
X6.0062Y-3.2687
X6.1Y-4.0187
X6.1312Y-2.6187
X6.1937Y-1.7688
X6.3187Y-1.1187
X6.3812Y-2.5187
X6.5062Y-3.3687
X6.5687Y-1.0188
X6.6937Y-1.8687
X6.7562Y-3.2687
X6.8812Y-2.6187
X6.9437Y-1.7688
X7.0687Y-1.1187
X7.1312Y-2.5187
X7.2562Y-3.3687
X7.3187Y-1.0188
X7.4437Y-1.8687
X7.5062Y-3.2687
X7.6312Y-2.6187
X7.6937Y-1.7688
X7.8187Y-1.1187
X7.8812Y-2.5187
X8.0062Y-3.3687
X8.0687Y-1.0188
X8.1937Y-1.8687
X8.2562Y-3.2687
X8.3812Y-2.6187
X8.4437Y-1.7688
X8.5687Y-1.1187
X8.6312Y-2.5187
X8.6625Y-4.1187
X8.7562Y-3.3687
X8.8187Y-1.0188
X8.9125Y-4.0187
X8.9437Y-1.8687
X9.0062Y-3.2687
X9.1312Y-2.6187
X9.1937Y-1.7688
X9.3187Y-1.1187
X9.3812Y-2.5187
X9.5062Y-3.3687
X9.5687Y-1.0188
X9.6Y-4.1187
X9.6937Y-1.8687
X9.7562Y-3.2687
X9.85Y-4.0187
X9.8812Y-2.6187
X9.9437Y-1.7688
X10.0687Y-1.1187
X10.1312Y-2.5187
X10.3187Y-1.0188
X10.4437Y-1.8687
X10.5375Y-4.1187
X10.6312Y-2.6187
X10.6937Y-1.7688
X10.7875Y-4.0187
X10.8812Y-2.5187
X10.9125Y-3.3687
X11.1Y-2.6187
X11.1625Y-3.2687
X11.1937Y-1.1187
X11.35Y-2.5187
X11.3812Y-1.8687
X11.4437Y-1.0188
X11.475Y-2.2437
X11.475Y-4.1187
X11.6312Y-1.7688
X11.725Y-2.1437
X11.725Y-4.0187
X12.6937Y-1.1187
X12.6937Y-1.8687
X12.6937Y-4.1187
X12.9437Y-1.0188
X12.9437Y-1.7688
X12.9437Y-4.0187
X13.4437Y-1.1187
X13.4437Y-1.8687
X13.4437Y-3.3687
X13.4437Y-4.1187
X13.6937Y-1.0188
X13.6937Y-1.7688
X13.6937Y-3.2687
X13.6937Y-4.0187
X14.1937Y-1.1187
X14.1937Y-1.8687
X14.1937Y-4.1187
X14.4437Y-1.0188
X14.4437Y-1.7688
X14.4437Y-4.0187
T2
X7.4237Y-0.7924G85X7.4237Y-0.816
G05
X7.4237Y-0.9471G85X7.4237Y-0.9904
G05
X7.7638Y-0.7924G85X7.7638Y-0.816
G05
X7.7638Y-0.9471G85X7.7638Y-0.9904
G05
T0
M30
