M48
; DRILL file {KiCad (6.0.2)} date Sun Mar 20 17:19:49 2022
; FORMAT={-:-/ absolute / inch / decimal}
; #@! TF.CreationDate,2022-03-20T17:19:49+01:00
; #@! TF.GenerationSoftware,Kicad,Pcbnew,(6.0.2)
; #@! TF.FileFunction,NonPlated,1,2,NPTH
FMAT,2
INCH
; #@! TA.AperFunction,NonPlated,NPTH,ComponentDrill
T1C0.0256
; #@! TA.AperFunction,NonPlated,NPTH,ComponentDrill
T2C0.0689
; #@! TA.AperFunction,NonPlated,NPTH,ComponentDrill
T3C0.1200
; #@! TA.AperFunction,NonPlated,NPTH,ComponentDrill
T4C0.1260
; #@! TA.AperFunction,NonPlated,NPTH,ComponentDrill
T5C0.1570
%
G90
G05
T1
X7.48Y-0.9479
X7.7075Y-0.9479
T2
X1.0188Y-1.2188
X1.1125Y-3.4688
X1.1125Y-4.2188
X1.2063Y-1.9688
X1.3Y-2.7188
X1.4187Y-1.2188
X1.4875Y-3.4688
X1.5125Y-3.4688
X1.5125Y-4.2188
X1.6062Y-1.9688
X1.7Y-2.7188
X1.7688Y-1.2188
X1.8875Y-3.4688
X1.9563Y-3.4688
X2.05Y-4.2188
X2.1437Y-1.9688
X2.1687Y-1.2188
X2.3312Y-2.7188
X2.3562Y-3.4688
X2.45Y-4.2188
X2.5187Y-1.2188
X2.5437Y-1.9688
X2.7062Y-3.4688
X2.7312Y-2.7188
X2.8937Y-1.9688
X2.9187Y-1.2188
X2.9875Y-4.2188
X3.0812Y-2.7188
X3.1062Y-3.4688
X3.2687Y-1.2188
X3.2937Y-1.9688
X3.3875Y-4.2188
X3.4562Y-3.4688
X3.4812Y-2.7188
X3.6437Y-1.9688
X3.6687Y-1.2188
X3.8312Y-2.7188
X3.8562Y-3.4688
X4.0187Y-1.2188
X4.0438Y-1.9688
X4.2062Y-3.4688
X4.2313Y-2.7188
X4.3937Y-1.9688
X4.4188Y-1.2188
X4.5812Y-2.7188
X4.6063Y-3.4688
X4.7687Y-1.2188
X4.7938Y-1.9688
X4.9562Y-3.4688
X4.9813Y-2.7188
X5.1437Y-1.9688
X5.1688Y-1.2188
X5.3312Y-2.7188
X5.3563Y-3.4688
X5.5187Y-1.2188
X5.5438Y-1.9688
X5.7062Y-3.4688
X5.7313Y-2.7188
X5.8Y-4.2188
X5.8937Y-1.9688
X5.9188Y-1.2188
X6.0812Y-2.7188
X6.1063Y-3.4688
X6.2Y-4.2188
X6.2687Y-1.2188
X6.2938Y-1.9688
X6.4562Y-3.4688
X6.4813Y-2.7188
X6.6437Y-1.9688
X6.6688Y-1.2188
X6.8312Y-2.7188
X6.8563Y-3.4688
X7.0187Y-1.2188
X7.0438Y-1.9688
X7.2062Y-3.4688
X7.2313Y-2.7188
X7.3937Y-1.9688
X7.4188Y-1.2188
X7.5812Y-2.7188
X7.6063Y-3.4688
X7.7687Y-1.2188
X7.7938Y-1.9688
X7.9562Y-3.4688
X7.9813Y-2.7188
X8.1437Y-1.9688
X8.1687Y-1.2188
X8.3312Y-2.7188
X8.3562Y-3.4688
X8.5187Y-1.2188
X8.5437Y-1.9688
X8.6125Y-4.2188
X8.7062Y-3.4688
X8.7312Y-2.7188
X8.8937Y-1.9688
X8.9187Y-1.2188
X9.0125Y-4.2188
X9.0812Y-2.7188
X9.1062Y-3.4688
X9.2687Y-1.2188
X9.2937Y-1.9688
X9.4562Y-3.4688
X9.4812Y-2.7188
X9.55Y-4.2188
X9.6437Y-1.9688
X9.6687Y-1.2188
X9.8312Y-2.7188
X9.8562Y-3.4688
X9.95Y-4.2188
X10.0187Y-1.2188
X10.0437Y-1.9688
X10.2312Y-2.7188
X10.3937Y-1.9688
X10.4187Y-1.2188
X10.4875Y-4.2188
X10.5812Y-2.7188
X10.7937Y-1.9688
X10.8625Y-3.4688
X10.8875Y-4.2188
X10.9812Y-2.7188
X11.05Y-2.7188
X11.1437Y-1.2188
X11.2625Y-3.4688
X11.3312Y-1.9688
X11.425Y-4.2188
X11.45Y-2.7188
X11.5437Y-1.2188
X11.625Y-2.1437
X11.625Y-2.5437
X11.7312Y-1.9688
X11.825Y-4.2188
X12.6437Y-1.2188
X12.6437Y-1.9688
X12.6437Y-4.2188
X13.0437Y-1.2188
X13.0437Y-1.9688
X13.0437Y-4.2188
X13.3937Y-1.2188
X13.3937Y-1.9688
X13.3937Y-3.4688
X13.3937Y-4.2188
X13.7937Y-1.2188
X13.7937Y-1.9688
X13.7937Y-3.4688
X13.7937Y-4.2188
X14.1437Y-1.2188
X14.1437Y-1.9688
X14.1437Y-4.2188
X14.5437Y-1.2188
X14.5437Y-1.9688
X14.5437Y-4.2188
T3
X1.2188Y-3.1938
X2.1562Y-3.1938
X4.0315Y-3.9438
X7.9685Y-3.9438
X10.5938Y-3.1938
X10.7812Y-2.4438
X10.875Y-0.9437
X11.35Y-2.8137
X11.5312Y-3.1938
X11.7188Y-2.4438
X11.8125Y-0.9437
T4
X0.875Y-2.7188
X1.5938Y-0.875
X1.7812Y-4.5625
X4.5938Y-0.875
X4.75Y-4.5625
X6.8438Y-0.875
X6.9688Y-4.5625
X8.3438Y-0.875
X10.2188Y-4.5625
X10.5938Y-0.875
X13.9688Y-0.875
X13.9688Y-4.5625
X14.6875Y-2.7188
T5
X1.2188Y-1.2188
X1.2188Y-3.7937
X1.3125Y-3.4688
X1.3125Y-4.2188
X1.4062Y-1.9688
X1.5Y-2.7188
X1.6875Y-3.4688
X1.9688Y-1.2188
X2.1562Y-3.4688
X2.1562Y-3.7937
X2.25Y-4.2188
X2.3438Y-1.9688
X2.5312Y-2.7188
X2.7188Y-1.2188
X2.9062Y-3.4688
X3.0938Y-1.9688
X3.1875Y-4.2188
X3.2812Y-2.7188
X3.4688Y-1.2188
X3.6562Y-3.4688
X3.8438Y-1.9688
X4.0312Y-2.7188
X4.0315Y-4.5438
X4.2188Y-1.2188
X4.4062Y-3.4688
X4.5938Y-1.9688
X4.7812Y-2.7188
X4.9688Y-1.2188
X5.1562Y-3.4688
X5.3438Y-1.9688
X5.5312Y-2.7188
X5.7188Y-1.2188
X5.9062Y-3.4688
X6.0Y-4.2188
X6.0938Y-1.9688
X6.2812Y-2.7188
X6.4688Y-1.2188
X6.6562Y-3.4688
X6.8438Y-1.9688
X7.0312Y-2.7188
X7.2188Y-1.2188
X7.4062Y-3.4688
X7.5938Y-1.9688
X7.7812Y-2.7188
X7.9685Y-4.5438
X7.9688Y-1.2188
X8.1562Y-3.4688
X8.3438Y-1.9688
X8.5312Y-2.7188
X8.7188Y-1.2188
X8.8125Y-4.2188
X8.9062Y-3.4688
X9.0938Y-1.9688
X9.2812Y-2.7188
X9.4688Y-1.2188
X9.6562Y-3.4688
X9.75Y-4.2188
X9.8438Y-1.9688
X10.0312Y-2.7188
X10.2188Y-1.2188
X10.5938Y-1.9688
X10.5938Y-3.7937
X10.6875Y-4.2188
X10.7812Y-2.7188
X10.7812Y-3.0437
X10.875Y-1.5437
X11.0625Y-3.4688
X11.25Y-2.7188
X11.3438Y-1.2188
X11.5312Y-1.9688
X11.5312Y-3.7937
X11.625Y-2.3438
X11.625Y-4.2188
X11.7188Y-3.0437
X11.8125Y-1.5437
X11.95Y-1.8738
X11.95Y-2.8137
X12.8438Y-1.2188
X12.8438Y-1.9688
X12.8438Y-4.2188
X13.5938Y-1.2188
X13.5938Y-1.9688
X13.5938Y-3.4688
X13.5938Y-4.2188
X14.3438Y-1.2188
X14.3438Y-1.9688
X14.3438Y-4.2188
T0
M30
