G04 #@! TF.GenerationSoftware,KiCad,Pcbnew,(6.0.2)*
G04 #@! TF.CreationDate,2022-03-20T17:19:54+01:00*
G04 #@! TF.ProjectId,Frooastboard Walnut,46726f6f-6173-4746-926f-617264205761,rev?*
G04 #@! TF.SameCoordinates,Original*
G04 #@! TF.FileFunction,Soldermask,Top*
G04 #@! TF.FilePolarity,Negative*
%FSLAX46Y46*%
G04 Gerber Fmt 4.6, Leading zero omitted, Abs format (unit mm)*
G04 Created by KiCad (PCBNEW (6.0.2)) date 2022-03-20 17:19:54*
%MOMM*%
%LPD*%
G01*
G04 APERTURE LIST*
%ADD10C,1.750000*%
%ADD11C,3.987800*%
%ADD12C,3.200000*%
%ADD13C,3.048000*%
%ADD14C,0.650000*%
%ADD15O,1.000000X1.600000*%
%ADD16O,1.000000X2.100000*%
G04 APERTURE END LIST*
D10*
X359251250Y-30956250D03*
X369411250Y-30956250D03*
D11*
X364331250Y-30956250D03*
D10*
X236061250Y-50006250D03*
X225901250Y-50006250D03*
D11*
X230981250Y-50006250D03*
D10*
X231298750Y-88106250D03*
D11*
X226218750Y-88106250D03*
D10*
X221138750Y-88106250D03*
D12*
X354806250Y-22225000D03*
D10*
X217011250Y-50006250D03*
D11*
X211931250Y-50006250D03*
D10*
X206851250Y-50006250D03*
D12*
X211931250Y-22225000D03*
D11*
X245268750Y-88106250D03*
D10*
X250348750Y-88106250D03*
X240188750Y-88106250D03*
X78898750Y-88106250D03*
D11*
X73818750Y-88106250D03*
D10*
X68738750Y-88106250D03*
D11*
X121443750Y-69056250D03*
D10*
X126523750Y-69056250D03*
X116363750Y-69056250D03*
D11*
X250031250Y-50006250D03*
D10*
X244951250Y-50006250D03*
X255111250Y-50006250D03*
X242570000Y-107156250D03*
X252730000Y-107156250D03*
D11*
X247650000Y-107156250D03*
D10*
X40798750Y-50006250D03*
D11*
X35718750Y-50006250D03*
D10*
X30638750Y-50006250D03*
D11*
X102400100Y-115411250D03*
X202399900Y-115411250D03*
D10*
X147320000Y-107156250D03*
X157480000Y-107156250D03*
D11*
X152400000Y-107156250D03*
D13*
X202399900Y-100171250D03*
X102400100Y-100171250D03*
D10*
X102711250Y-50006250D03*
X92551250Y-50006250D03*
D11*
X97631250Y-50006250D03*
D10*
X216376250Y-30956250D03*
X226536250Y-30956250D03*
D11*
X221456250Y-30956250D03*
X116681250Y-50006250D03*
D10*
X111601250Y-50006250D03*
X121761250Y-50006250D03*
D12*
X22225000Y-69056250D03*
D10*
X174148750Y-88106250D03*
X163988750Y-88106250D03*
D11*
X169068750Y-88106250D03*
D10*
X197326250Y-30956250D03*
X207486250Y-30956250D03*
D11*
X202406250Y-30956250D03*
X197643750Y-69056250D03*
D10*
X192563750Y-69056250D03*
X202723750Y-69056250D03*
X202088750Y-88106250D03*
X212248750Y-88106250D03*
D11*
X207168750Y-88106250D03*
D12*
X373062500Y-69056250D03*
D10*
X144938750Y-88106250D03*
X155098750Y-88106250D03*
D11*
X150018750Y-88106250D03*
X92868750Y-88106250D03*
D10*
X87788750Y-88106250D03*
X97948750Y-88106250D03*
X131286250Y-30956250D03*
D11*
X126206250Y-30956250D03*
D10*
X121126250Y-30956250D03*
D11*
X326231250Y-30956250D03*
D10*
X321151250Y-30956250D03*
X331311250Y-30956250D03*
D11*
X235743750Y-69056250D03*
D10*
X230663750Y-69056250D03*
X240823750Y-69056250D03*
D12*
X354806250Y-115887500D03*
X259556250Y-115887500D03*
D11*
X183356250Y-30956250D03*
D10*
X178276250Y-30956250D03*
X188436250Y-30956250D03*
X249713750Y-69056250D03*
D11*
X254793750Y-69056250D03*
D10*
X259873750Y-69056250D03*
X264001250Y-50006250D03*
X274161250Y-50006250D03*
D11*
X269081250Y-50006250D03*
D12*
X269081250Y-22225000D03*
D11*
X364331250Y-107156250D03*
D10*
X359251250Y-107156250D03*
X369411250Y-107156250D03*
D11*
X38100000Y-69056250D03*
D10*
X33020000Y-69056250D03*
X43180000Y-69056250D03*
X331311250Y-107156250D03*
X321151250Y-107156250D03*
D11*
X326231250Y-107156250D03*
X50006250Y-30956250D03*
D10*
X44926250Y-30956250D03*
X55086250Y-30956250D03*
X62230000Y-107156250D03*
D11*
X57150000Y-107156250D03*
D10*
X52070000Y-107156250D03*
D12*
X173831250Y-22225000D03*
D11*
X140493750Y-69056250D03*
D10*
X145573750Y-69056250D03*
X135413750Y-69056250D03*
X293211250Y-30956250D03*
D13*
X300037500Y-23971250D03*
X276225000Y-23971250D03*
D10*
X283051250Y-30956250D03*
D11*
X300037500Y-39211250D03*
X288131250Y-30956250D03*
X276225000Y-39211250D03*
D10*
X187801250Y-50006250D03*
D11*
X192881250Y-50006250D03*
D10*
X197961250Y-50006250D03*
X321151250Y-50006250D03*
X331311250Y-50006250D03*
D11*
X326231250Y-50006250D03*
D10*
X193198750Y-88106250D03*
D11*
X188118750Y-88106250D03*
D10*
X183038750Y-88106250D03*
X59213750Y-69056250D03*
D11*
X64293750Y-69056250D03*
D10*
X69373750Y-69056250D03*
X173513750Y-69056250D03*
D11*
X178593750Y-69056250D03*
D10*
X183673750Y-69056250D03*
D11*
X111918750Y-88106250D03*
D10*
X116998750Y-88106250D03*
X106838750Y-88106250D03*
D11*
X285750000Y-69056250D03*
X297656250Y-77311250D03*
X273843750Y-77311250D03*
D10*
X290830000Y-69056250D03*
D13*
X297656250Y-62071250D03*
X273843750Y-62071250D03*
D10*
X280670000Y-69056250D03*
D12*
X116681250Y-22225000D03*
D11*
X33337500Y-107156250D03*
D10*
X38417500Y-107156250D03*
X28257500Y-107156250D03*
X74136250Y-30956250D03*
D11*
X69056250Y-30956250D03*
D10*
X63976250Y-30956250D03*
X73501250Y-50006250D03*
D11*
X78581250Y-50006250D03*
D10*
X83661250Y-50006250D03*
D11*
X107156250Y-30956250D03*
D10*
X112236250Y-30956250D03*
X102076250Y-30956250D03*
D11*
X273843750Y-69056250D03*
D10*
X268763750Y-69056250D03*
X278923750Y-69056250D03*
D11*
X345281250Y-30956250D03*
D10*
X340201250Y-30956250D03*
X350361250Y-30956250D03*
X218757500Y-107156250D03*
X228917500Y-107156250D03*
D11*
X223837500Y-107156250D03*
D10*
X169386250Y-30956250D03*
X159226250Y-30956250D03*
D11*
X164306250Y-30956250D03*
D10*
X49688750Y-88106250D03*
D11*
X54768750Y-88106250D03*
D10*
X59848750Y-88106250D03*
D12*
X177006250Y-115887500D03*
D11*
X88106250Y-30956250D03*
D10*
X93186250Y-30956250D03*
X83026250Y-30956250D03*
X88423750Y-69056250D03*
X78263750Y-69056250D03*
D11*
X83343750Y-69056250D03*
D10*
X97313750Y-69056250D03*
X107473750Y-69056250D03*
D11*
X102393750Y-69056250D03*
X240506250Y-30956250D03*
D10*
X235426250Y-30956250D03*
X245586250Y-30956250D03*
D12*
X120650000Y-115887500D03*
D10*
X140176250Y-30956250D03*
D11*
X145256250Y-30956250D03*
D10*
X150336250Y-30956250D03*
D11*
X271462500Y-107156250D03*
D10*
X266382500Y-107156250D03*
X276542500Y-107156250D03*
D11*
X216693750Y-69056250D03*
D10*
X211613750Y-69056250D03*
X221773750Y-69056250D03*
X37782500Y-88106250D03*
D13*
X54768750Y-81121250D03*
D11*
X30956250Y-96361250D03*
X54768750Y-96361250D03*
D13*
X30956250Y-81121250D03*
D10*
X47942500Y-88106250D03*
D11*
X42862500Y-88106250D03*
D13*
X288290000Y-71469250D03*
D11*
X303530000Y-47593250D03*
X295275000Y-59531250D03*
X303530000Y-71469250D03*
D10*
X295275000Y-64611250D03*
X295275000Y-54451250D03*
X125888750Y-88106250D03*
X136048750Y-88106250D03*
D11*
X130968750Y-88106250D03*
D10*
X28257500Y-88106250D03*
X38417500Y-88106250D03*
D11*
X33337500Y-88106250D03*
D10*
X297973750Y-50006250D03*
D11*
X292893750Y-50006250D03*
D10*
X287813750Y-50006250D03*
X369411250Y-50006250D03*
X359251250Y-50006250D03*
D11*
X364331250Y-50006250D03*
D10*
X340201250Y-88106250D03*
X350361250Y-88106250D03*
D11*
X345281250Y-88106250D03*
D12*
X40481250Y-22225000D03*
D11*
X173831250Y-50006250D03*
D10*
X168751250Y-50006250D03*
X178911250Y-50006250D03*
X54451250Y-50006250D03*
D11*
X59531250Y-50006250D03*
D10*
X64611250Y-50006250D03*
X350361250Y-50006250D03*
X340201250Y-50006250D03*
D11*
X345281250Y-50006250D03*
D12*
X45243750Y-115887500D03*
D11*
X295275000Y-107156250D03*
D10*
X300355000Y-107156250D03*
X290195000Y-107156250D03*
X154463750Y-69056250D03*
D11*
X159543750Y-69056250D03*
D10*
X164623750Y-69056250D03*
D11*
X154781250Y-50006250D03*
D10*
X159861250Y-50006250D03*
X149701250Y-50006250D03*
X350361250Y-107156250D03*
X340201250Y-107156250D03*
D11*
X345281250Y-107156250D03*
X30956250Y-30956250D03*
D10*
X36036250Y-30956250D03*
X25876250Y-30956250D03*
X75882500Y-107156250D03*
X86042500Y-107156250D03*
D11*
X80962500Y-107156250D03*
D10*
X264636250Y-30956250D03*
D11*
X259556250Y-30956250D03*
D10*
X254476250Y-30956250D03*
D11*
X280987500Y-88106250D03*
D13*
X269081250Y-81121250D03*
D10*
X286067500Y-88106250D03*
X275907500Y-88106250D03*
D13*
X292893750Y-81121250D03*
D11*
X292893750Y-96361250D03*
X269081250Y-96361250D03*
D10*
X140811250Y-50006250D03*
D11*
X135731250Y-50006250D03*
D10*
X130651250Y-50006250D03*
D14*
X195771250Y-24076250D03*
X189991250Y-24076250D03*
D15*
X197201250Y-20426250D03*
X188561250Y-20426250D03*
D16*
X197201250Y-24606250D03*
X188561250Y-24606250D03*
M02*
