G04 #@! TF.GenerationSoftware,KiCad,Pcbnew,(6.0.2)*
G04 #@! TF.CreationDate,2022-03-20T17:19:53+01:00*
G04 #@! TF.ProjectId,Frooastboard Walnut,46726f6f-6173-4746-926f-617264205761,rev?*
G04 #@! TF.SameCoordinates,Original*
G04 #@! TF.FileFunction,Legend,Top*
G04 #@! TF.FilePolarity,Positive*
%FSLAX46Y46*%
G04 Gerber Fmt 4.6, Leading zero omitted, Abs format (unit mm)*
G04 Created by KiCad (PCBNEW (6.0.2)) date 2022-03-20 17:19:53*
%MOMM*%
%LPD*%
G01*
G04 APERTURE LIST*
%ADD10C,0.150000*%
%ADD11C,0.185000*%
%ADD12C,1.750000*%
%ADD13C,3.987800*%
%ADD14C,3.200000*%
%ADD15C,3.048000*%
%ADD16C,0.650000*%
%ADD17O,1.000000X1.600000*%
%ADD18O,1.000000X2.100000*%
G04 APERTURE END LIST*
D10*
X353568154Y-18877380D02*
X353568154Y-17877380D01*
X353568154Y-18353571D02*
X354139583Y-18353571D01*
X354139583Y-18877380D02*
X354139583Y-17877380D01*
X355139583Y-18877380D02*
X354568154Y-18877380D01*
X354853869Y-18877380D02*
X354853869Y-17877380D01*
X354758630Y-18020238D01*
X354663392Y-18115476D01*
X354568154Y-18163095D01*
X355520535Y-17972619D02*
X355568154Y-17925000D01*
X355663392Y-17877380D01*
X355901488Y-17877380D01*
X355996726Y-17925000D01*
X356044345Y-17972619D01*
X356091964Y-18067857D01*
X356091964Y-18163095D01*
X356044345Y-18305952D01*
X355472916Y-18877380D01*
X356091964Y-18877380D01*
X210693154Y-18877380D02*
X210693154Y-17877380D01*
X210693154Y-18353571D02*
X211264583Y-18353571D01*
X211264583Y-18877380D02*
X211264583Y-17877380D01*
X212264583Y-18877380D02*
X211693154Y-18877380D01*
X211978869Y-18877380D02*
X211978869Y-17877380D01*
X211883630Y-18020238D01*
X211788392Y-18115476D01*
X211693154Y-18163095D01*
X212883630Y-17877380D02*
X212978869Y-17877380D01*
X213074107Y-17925000D01*
X213121726Y-17972619D01*
X213169345Y-18067857D01*
X213216964Y-18258333D01*
X213216964Y-18496428D01*
X213169345Y-18686904D01*
X213121726Y-18782142D01*
X213074107Y-18829761D01*
X212978869Y-18877380D01*
X212883630Y-18877380D01*
X212788392Y-18829761D01*
X212740773Y-18782142D01*
X212693154Y-18686904D01*
X212645535Y-18496428D01*
X212645535Y-18258333D01*
X212693154Y-18067857D01*
X212740773Y-17972619D01*
X212788392Y-17925000D01*
X212883630Y-17877380D01*
X21463095Y-65708630D02*
X21463095Y-64708630D01*
X21463095Y-65184821D02*
X22034523Y-65184821D01*
X22034523Y-65708630D02*
X22034523Y-64708630D01*
X23034523Y-65708630D02*
X22463095Y-65708630D01*
X22748809Y-65708630D02*
X22748809Y-64708630D01*
X22653571Y-64851488D01*
X22558333Y-64946726D01*
X22463095Y-64994345D01*
X372300595Y-65708630D02*
X372300595Y-64708630D01*
X372300595Y-65184821D02*
X372872023Y-65184821D01*
X372872023Y-65708630D02*
X372872023Y-64708630D01*
X373776785Y-65041964D02*
X373776785Y-65708630D01*
X373538690Y-64661011D02*
X373300595Y-65375297D01*
X373919642Y-65375297D01*
X354044345Y-112539880D02*
X354044345Y-111539880D01*
X354044345Y-112016071D02*
X354615773Y-112016071D01*
X354615773Y-112539880D02*
X354615773Y-111539880D01*
X355568154Y-111539880D02*
X355091964Y-111539880D01*
X355044345Y-112016071D01*
X355091964Y-111968452D01*
X355187202Y-111920833D01*
X355425297Y-111920833D01*
X355520535Y-111968452D01*
X355568154Y-112016071D01*
X355615773Y-112111309D01*
X355615773Y-112349404D01*
X355568154Y-112444642D01*
X355520535Y-112492261D01*
X355425297Y-112539880D01*
X355187202Y-112539880D01*
X355091964Y-112492261D01*
X355044345Y-112444642D01*
X258794345Y-112539880D02*
X258794345Y-111539880D01*
X258794345Y-112016071D02*
X259365773Y-112016071D01*
X259365773Y-112539880D02*
X259365773Y-111539880D01*
X259984821Y-111968452D02*
X259889583Y-111920833D01*
X259841964Y-111873214D01*
X259794345Y-111777976D01*
X259794345Y-111730357D01*
X259841964Y-111635119D01*
X259889583Y-111587500D01*
X259984821Y-111539880D01*
X260175297Y-111539880D01*
X260270535Y-111587500D01*
X260318154Y-111635119D01*
X260365773Y-111730357D01*
X260365773Y-111777976D01*
X260318154Y-111873214D01*
X260270535Y-111920833D01*
X260175297Y-111968452D01*
X259984821Y-111968452D01*
X259889583Y-112016071D01*
X259841964Y-112063690D01*
X259794345Y-112158928D01*
X259794345Y-112349404D01*
X259841964Y-112444642D01*
X259889583Y-112492261D01*
X259984821Y-112539880D01*
X260175297Y-112539880D01*
X260270535Y-112492261D01*
X260318154Y-112444642D01*
X260365773Y-112349404D01*
X260365773Y-112158928D01*
X260318154Y-112063690D01*
X260270535Y-112016071D01*
X260175297Y-111968452D01*
X268319345Y-18877380D02*
X268319345Y-17877380D01*
X268319345Y-18353571D02*
X268890773Y-18353571D01*
X268890773Y-18877380D02*
X268890773Y-17877380D01*
X269271726Y-17877380D02*
X269890773Y-17877380D01*
X269557440Y-18258333D01*
X269700297Y-18258333D01*
X269795535Y-18305952D01*
X269843154Y-18353571D01*
X269890773Y-18448809D01*
X269890773Y-18686904D01*
X269843154Y-18782142D01*
X269795535Y-18829761D01*
X269700297Y-18877380D01*
X269414583Y-18877380D01*
X269319345Y-18829761D01*
X269271726Y-18782142D01*
X173069345Y-18877380D02*
X173069345Y-17877380D01*
X173069345Y-18353571D02*
X173640773Y-18353571D01*
X173640773Y-18877380D02*
X173640773Y-17877380D01*
X174164583Y-18877380D02*
X174355059Y-18877380D01*
X174450297Y-18829761D01*
X174497916Y-18782142D01*
X174593154Y-18639285D01*
X174640773Y-18448809D01*
X174640773Y-18067857D01*
X174593154Y-17972619D01*
X174545535Y-17925000D01*
X174450297Y-17877380D01*
X174259821Y-17877380D01*
X174164583Y-17925000D01*
X174116964Y-17972619D01*
X174069345Y-18067857D01*
X174069345Y-18305952D01*
X174116964Y-18401190D01*
X174164583Y-18448809D01*
X174259821Y-18496428D01*
X174450297Y-18496428D01*
X174545535Y-18448809D01*
X174593154Y-18401190D01*
X174640773Y-18305952D01*
X115443154Y-18877380D02*
X115443154Y-17877380D01*
X115443154Y-18353571D02*
X116014583Y-18353571D01*
X116014583Y-18877380D02*
X116014583Y-17877380D01*
X117014583Y-18877380D02*
X116443154Y-18877380D01*
X116728869Y-18877380D02*
X116728869Y-17877380D01*
X116633630Y-18020238D01*
X116538392Y-18115476D01*
X116443154Y-18163095D01*
X117966964Y-18877380D02*
X117395535Y-18877380D01*
X117681250Y-18877380D02*
X117681250Y-17877380D01*
X117586011Y-18020238D01*
X117490773Y-18115476D01*
X117395535Y-18163095D01*
X175768154Y-112539880D02*
X175768154Y-111539880D01*
X175768154Y-112016071D02*
X176339583Y-112016071D01*
X176339583Y-112539880D02*
X176339583Y-111539880D01*
X177339583Y-112539880D02*
X176768154Y-112539880D01*
X177053869Y-112539880D02*
X177053869Y-111539880D01*
X176958630Y-111682738D01*
X176863392Y-111777976D01*
X176768154Y-111825595D01*
X177672916Y-111539880D02*
X178291964Y-111539880D01*
X177958630Y-111920833D01*
X178101488Y-111920833D01*
X178196726Y-111968452D01*
X178244345Y-112016071D01*
X178291964Y-112111309D01*
X178291964Y-112349404D01*
X178244345Y-112444642D01*
X178196726Y-112492261D01*
X178101488Y-112539880D01*
X177815773Y-112539880D01*
X177720535Y-112492261D01*
X177672916Y-112444642D01*
X119888095Y-112539880D02*
X119888095Y-111539880D01*
X119888095Y-112016071D02*
X120459523Y-112016071D01*
X120459523Y-112539880D02*
X120459523Y-111539880D01*
X120888095Y-111635119D02*
X120935714Y-111587500D01*
X121030952Y-111539880D01*
X121269047Y-111539880D01*
X121364285Y-111587500D01*
X121411904Y-111635119D01*
X121459523Y-111730357D01*
X121459523Y-111825595D01*
X121411904Y-111968452D01*
X120840476Y-112539880D01*
X121459523Y-112539880D01*
X39719345Y-18877380D02*
X39719345Y-17877380D01*
X39719345Y-18353571D02*
X40290773Y-18353571D01*
X40290773Y-18877380D02*
X40290773Y-17877380D01*
X41195535Y-17877380D02*
X41005059Y-17877380D01*
X40909821Y-17925000D01*
X40862202Y-17972619D01*
X40766964Y-18115476D01*
X40719345Y-18305952D01*
X40719345Y-18686904D01*
X40766964Y-18782142D01*
X40814583Y-18829761D01*
X40909821Y-18877380D01*
X41100297Y-18877380D01*
X41195535Y-18829761D01*
X41243154Y-18782142D01*
X41290773Y-18686904D01*
X41290773Y-18448809D01*
X41243154Y-18353571D01*
X41195535Y-18305952D01*
X41100297Y-18258333D01*
X40909821Y-18258333D01*
X40814583Y-18305952D01*
X40766964Y-18353571D01*
X40719345Y-18448809D01*
X44481845Y-112539880D02*
X44481845Y-111539880D01*
X44481845Y-112016071D02*
X45053273Y-112016071D01*
X45053273Y-112539880D02*
X45053273Y-111539880D01*
X45434226Y-111539880D02*
X46100892Y-111539880D01*
X45672321Y-112539880D01*
D11*
X288382500Y-47593250D02*
G75*
G03*
X288382500Y-47593250I-92500J0D01*
G01*
%LPC*%
D12*
X359251250Y-30956250D03*
X369411250Y-30956250D03*
D13*
X364331250Y-30956250D03*
D12*
X236061250Y-50006250D03*
X225901250Y-50006250D03*
D13*
X230981250Y-50006250D03*
D12*
X231298750Y-88106250D03*
D13*
X226218750Y-88106250D03*
D12*
X221138750Y-88106250D03*
D14*
X354806250Y-22225000D03*
D12*
X217011250Y-50006250D03*
D13*
X211931250Y-50006250D03*
D12*
X206851250Y-50006250D03*
D14*
X211931250Y-22225000D03*
D13*
X245268750Y-88106250D03*
D12*
X250348750Y-88106250D03*
X240188750Y-88106250D03*
X78898750Y-88106250D03*
D13*
X73818750Y-88106250D03*
D12*
X68738750Y-88106250D03*
D13*
X121443750Y-69056250D03*
D12*
X126523750Y-69056250D03*
X116363750Y-69056250D03*
D13*
X250031250Y-50006250D03*
D12*
X244951250Y-50006250D03*
X255111250Y-50006250D03*
X242570000Y-107156250D03*
X252730000Y-107156250D03*
D13*
X247650000Y-107156250D03*
D12*
X40798750Y-50006250D03*
D13*
X35718750Y-50006250D03*
D12*
X30638750Y-50006250D03*
D13*
X102400100Y-115411250D03*
X202399900Y-115411250D03*
D12*
X147320000Y-107156250D03*
X157480000Y-107156250D03*
D13*
X152400000Y-107156250D03*
D15*
X202399900Y-100171250D03*
X102400100Y-100171250D03*
D12*
X102711250Y-50006250D03*
X92551250Y-50006250D03*
D13*
X97631250Y-50006250D03*
D12*
X216376250Y-30956250D03*
X226536250Y-30956250D03*
D13*
X221456250Y-30956250D03*
X116681250Y-50006250D03*
D12*
X111601250Y-50006250D03*
X121761250Y-50006250D03*
D14*
X22225000Y-69056250D03*
D12*
X174148750Y-88106250D03*
X163988750Y-88106250D03*
D13*
X169068750Y-88106250D03*
D12*
X197326250Y-30956250D03*
X207486250Y-30956250D03*
D13*
X202406250Y-30956250D03*
X197643750Y-69056250D03*
D12*
X192563750Y-69056250D03*
X202723750Y-69056250D03*
X202088750Y-88106250D03*
X212248750Y-88106250D03*
D13*
X207168750Y-88106250D03*
D14*
X373062500Y-69056250D03*
D12*
X144938750Y-88106250D03*
X155098750Y-88106250D03*
D13*
X150018750Y-88106250D03*
X92868750Y-88106250D03*
D12*
X87788750Y-88106250D03*
X97948750Y-88106250D03*
X131286250Y-30956250D03*
D13*
X126206250Y-30956250D03*
D12*
X121126250Y-30956250D03*
D13*
X326231250Y-30956250D03*
D12*
X321151250Y-30956250D03*
X331311250Y-30956250D03*
D13*
X235743750Y-69056250D03*
D12*
X230663750Y-69056250D03*
X240823750Y-69056250D03*
D14*
X354806250Y-115887500D03*
X259556250Y-115887500D03*
D13*
X183356250Y-30956250D03*
D12*
X178276250Y-30956250D03*
X188436250Y-30956250D03*
X249713750Y-69056250D03*
D13*
X254793750Y-69056250D03*
D12*
X259873750Y-69056250D03*
X264001250Y-50006250D03*
X274161250Y-50006250D03*
D13*
X269081250Y-50006250D03*
D14*
X269081250Y-22225000D03*
D13*
X364331250Y-107156250D03*
D12*
X359251250Y-107156250D03*
X369411250Y-107156250D03*
D13*
X38100000Y-69056250D03*
D12*
X33020000Y-69056250D03*
X43180000Y-69056250D03*
X331311250Y-107156250D03*
X321151250Y-107156250D03*
D13*
X326231250Y-107156250D03*
X50006250Y-30956250D03*
D12*
X44926250Y-30956250D03*
X55086250Y-30956250D03*
X62230000Y-107156250D03*
D13*
X57150000Y-107156250D03*
D12*
X52070000Y-107156250D03*
D14*
X173831250Y-22225000D03*
D13*
X140493750Y-69056250D03*
D12*
X145573750Y-69056250D03*
X135413750Y-69056250D03*
X293211250Y-30956250D03*
D15*
X300037500Y-23971250D03*
X276225000Y-23971250D03*
D12*
X283051250Y-30956250D03*
D13*
X300037500Y-39211250D03*
X288131250Y-30956250D03*
X276225000Y-39211250D03*
D12*
X187801250Y-50006250D03*
D13*
X192881250Y-50006250D03*
D12*
X197961250Y-50006250D03*
X321151250Y-50006250D03*
X331311250Y-50006250D03*
D13*
X326231250Y-50006250D03*
D12*
X193198750Y-88106250D03*
D13*
X188118750Y-88106250D03*
D12*
X183038750Y-88106250D03*
X59213750Y-69056250D03*
D13*
X64293750Y-69056250D03*
D12*
X69373750Y-69056250D03*
X173513750Y-69056250D03*
D13*
X178593750Y-69056250D03*
D12*
X183673750Y-69056250D03*
D13*
X111918750Y-88106250D03*
D12*
X116998750Y-88106250D03*
X106838750Y-88106250D03*
D13*
X285750000Y-69056250D03*
X297656250Y-77311250D03*
X273843750Y-77311250D03*
D12*
X290830000Y-69056250D03*
D15*
X297656250Y-62071250D03*
X273843750Y-62071250D03*
D12*
X280670000Y-69056250D03*
D14*
X116681250Y-22225000D03*
D13*
X33337500Y-107156250D03*
D12*
X38417500Y-107156250D03*
X28257500Y-107156250D03*
X74136250Y-30956250D03*
D13*
X69056250Y-30956250D03*
D12*
X63976250Y-30956250D03*
X73501250Y-50006250D03*
D13*
X78581250Y-50006250D03*
D12*
X83661250Y-50006250D03*
D13*
X107156250Y-30956250D03*
D12*
X112236250Y-30956250D03*
X102076250Y-30956250D03*
D13*
X273843750Y-69056250D03*
D12*
X268763750Y-69056250D03*
X278923750Y-69056250D03*
D13*
X345281250Y-30956250D03*
D12*
X340201250Y-30956250D03*
X350361250Y-30956250D03*
X218757500Y-107156250D03*
X228917500Y-107156250D03*
D13*
X223837500Y-107156250D03*
D12*
X169386250Y-30956250D03*
X159226250Y-30956250D03*
D13*
X164306250Y-30956250D03*
D12*
X49688750Y-88106250D03*
D13*
X54768750Y-88106250D03*
D12*
X59848750Y-88106250D03*
D14*
X177006250Y-115887500D03*
D13*
X88106250Y-30956250D03*
D12*
X93186250Y-30956250D03*
X83026250Y-30956250D03*
X88423750Y-69056250D03*
X78263750Y-69056250D03*
D13*
X83343750Y-69056250D03*
D12*
X97313750Y-69056250D03*
X107473750Y-69056250D03*
D13*
X102393750Y-69056250D03*
X240506250Y-30956250D03*
D12*
X235426250Y-30956250D03*
X245586250Y-30956250D03*
D14*
X120650000Y-115887500D03*
D12*
X140176250Y-30956250D03*
D13*
X145256250Y-30956250D03*
D12*
X150336250Y-30956250D03*
D13*
X271462500Y-107156250D03*
D12*
X266382500Y-107156250D03*
X276542500Y-107156250D03*
D13*
X216693750Y-69056250D03*
D12*
X211613750Y-69056250D03*
X221773750Y-69056250D03*
X37782500Y-88106250D03*
D15*
X54768750Y-81121250D03*
D13*
X30956250Y-96361250D03*
X54768750Y-96361250D03*
D15*
X30956250Y-81121250D03*
D12*
X47942500Y-88106250D03*
D13*
X42862500Y-88106250D03*
D15*
X288290000Y-71469250D03*
D13*
X303530000Y-47593250D03*
X295275000Y-59531250D03*
X303530000Y-71469250D03*
D12*
X295275000Y-64611250D03*
X295275000Y-54451250D03*
X125888750Y-88106250D03*
X136048750Y-88106250D03*
D13*
X130968750Y-88106250D03*
D12*
X28257500Y-88106250D03*
X38417500Y-88106250D03*
D13*
X33337500Y-88106250D03*
D12*
X297973750Y-50006250D03*
D13*
X292893750Y-50006250D03*
D12*
X287813750Y-50006250D03*
X369411250Y-50006250D03*
X359251250Y-50006250D03*
D13*
X364331250Y-50006250D03*
D12*
X340201250Y-88106250D03*
X350361250Y-88106250D03*
D13*
X345281250Y-88106250D03*
D14*
X40481250Y-22225000D03*
D13*
X173831250Y-50006250D03*
D12*
X168751250Y-50006250D03*
X178911250Y-50006250D03*
X54451250Y-50006250D03*
D13*
X59531250Y-50006250D03*
D12*
X64611250Y-50006250D03*
X350361250Y-50006250D03*
X340201250Y-50006250D03*
D13*
X345281250Y-50006250D03*
D14*
X45243750Y-115887500D03*
D13*
X295275000Y-107156250D03*
D12*
X300355000Y-107156250D03*
X290195000Y-107156250D03*
X154463750Y-69056250D03*
D13*
X159543750Y-69056250D03*
D12*
X164623750Y-69056250D03*
D13*
X154781250Y-50006250D03*
D12*
X159861250Y-50006250D03*
X149701250Y-50006250D03*
X350361250Y-107156250D03*
X340201250Y-107156250D03*
D13*
X345281250Y-107156250D03*
X30956250Y-30956250D03*
D12*
X36036250Y-30956250D03*
X25876250Y-30956250D03*
X75882500Y-107156250D03*
X86042500Y-107156250D03*
D13*
X80962500Y-107156250D03*
D12*
X264636250Y-30956250D03*
D13*
X259556250Y-30956250D03*
D12*
X254476250Y-30956250D03*
D13*
X280987500Y-88106250D03*
D15*
X269081250Y-81121250D03*
D12*
X286067500Y-88106250D03*
X275907500Y-88106250D03*
D15*
X292893750Y-81121250D03*
D13*
X292893750Y-96361250D03*
X269081250Y-96361250D03*
D12*
X140811250Y-50006250D03*
D13*
X135731250Y-50006250D03*
D12*
X130651250Y-50006250D03*
D16*
X195771250Y-24076250D03*
X189991250Y-24076250D03*
D17*
X197201250Y-20426250D03*
X188561250Y-20426250D03*
D18*
X197201250Y-24606250D03*
X188561250Y-24606250D03*
M02*
