%FSLAX45Y45*%
G04 Gerber Fmt 4.5, Leading zero omitted, Abs format (unit mm)*
G04 Created by KiCad (PCBNEW (5.1.10)-1) date 2021-06-04 13:57:18*
%MOMM*%
%LPD*%
G01*
G04 APERTURE LIST*
%TA.AperFunction,Profile*%
%ADD10C,0.150000*%
%TD*%
%ADD11C,0.200000*%
%ADD12C,0.300000*%
G04 APERTURE END LIST*
D10*
X11588750Y-9525000D02*
X11588750Y-4048125D01*
X6508750Y-4048125D02*
X6508750Y-9525000D01*
X11350625Y-9763125D02*
X6746875Y-9763125D01*
X11588750Y-9525000D02*
G75*
G02*
X11350625Y-9763125I-238125J0D01*
G01*
X6746875Y-9763125D02*
G75*
G02*
X6508750Y-9525000I0J238125D01*
G01*
X11350625Y-3810000D02*
X6746875Y-3810000D01*
X6508750Y-4048125D02*
G75*
G02*
X6746875Y-3810000I238125J0D01*
G01*
X11350625Y-3810000D02*
G75*
G02*
X11588750Y-4048125I0J-238125D01*
G01*
D11*
X7838125Y-4266250D02*
X7878125Y-4306250D01*
X7878125Y-4266250D02*
X7838125Y-4306250D01*
X7838760Y-8791260D02*
X7878760Y-8831260D01*
X7878760Y-8791260D02*
X7838760Y-8831260D01*
X8102920Y-8245160D02*
X8142920Y-8285160D01*
X8142920Y-8245160D02*
X8102920Y-8285160D01*
X8155625Y-7996875D02*
X8195625Y-8036875D01*
X8195625Y-7996875D02*
X8155625Y-8036875D01*
X8711250Y-4583750D02*
X8751250Y-4623750D01*
X8751250Y-4583750D02*
X8711250Y-4623750D01*
X8711250Y-7282500D02*
X8751250Y-7322500D01*
X8751250Y-7282500D02*
X8711250Y-7322500D01*
X8753502Y-6213502D02*
X8793502Y-6253502D01*
X8793502Y-6213502D02*
X8753502Y-6253502D01*
X8790625Y-7996875D02*
X8830625Y-8036875D01*
X8830625Y-7996875D02*
X8790625Y-8036875D01*
X8827748Y-6287748D02*
X8867748Y-6327748D01*
X8867748Y-6287748D02*
X8827748Y-6327748D01*
X8857300Y-6939600D02*
X8897300Y-6979600D01*
X8897300Y-6939600D02*
X8857300Y-6979600D01*
X8870000Y-5695000D02*
X8910000Y-5735000D01*
X8910000Y-5695000D02*
X8870000Y-5735000D01*
X8941120Y-8328980D02*
X8981120Y-8368980D01*
X8981120Y-8328980D02*
X8941120Y-8368980D01*
X9071002Y-8192748D02*
X9111002Y-8232748D01*
X9111002Y-8192748D02*
X9071002Y-8232748D01*
X9145248Y-8118502D02*
X9185248Y-8158502D01*
X9185248Y-8118502D02*
X9145248Y-8158502D01*
X9187500Y-5695000D02*
X9227500Y-5735000D01*
X9227500Y-5695000D02*
X9187500Y-5735000D01*
X9251000Y-8421690D02*
X9291000Y-8461690D01*
X9291000Y-8421690D02*
X9251000Y-8461690D01*
X9266875Y-9266875D02*
X9306875Y-9306875D01*
X9306875Y-9266875D02*
X9266875Y-9306875D01*
X9346250Y-4583750D02*
X9386250Y-4623750D01*
X9386250Y-4583750D02*
X9346250Y-4623750D01*
X9425625Y-8870000D02*
X9465625Y-8910000D01*
X9465625Y-8870000D02*
X9425625Y-8910000D01*
X9505000Y-8711250D02*
X9545000Y-8751250D01*
X9545000Y-8711250D02*
X9505000Y-8751250D01*
X9743125Y-6250625D02*
X9783125Y-6290625D01*
X9783125Y-6250625D02*
X9743125Y-6290625D01*
X9743125Y-6568125D02*
X9783125Y-6608125D01*
X9783125Y-6568125D02*
X9743125Y-6608125D01*
X9901875Y-7917500D02*
X9941875Y-7957500D01*
X9941875Y-7917500D02*
X9901875Y-7957500D01*
X9901875Y-8631875D02*
X9941875Y-8671875D01*
X9941875Y-8631875D02*
X9901875Y-8671875D01*
X10140000Y-8155625D02*
X10180000Y-8195625D01*
X10180000Y-8155625D02*
X10140000Y-8195625D01*
X10279700Y-6939600D02*
X10319700Y-6979600D01*
X10319700Y-6939600D02*
X10279700Y-6979600D01*
X10378125Y-7203125D02*
X10418125Y-7243125D01*
X10418125Y-7203125D02*
X10378125Y-7243125D01*
X10536875Y-4266250D02*
X10576875Y-4306250D01*
X10576875Y-4266250D02*
X10536875Y-4306250D01*
X8646750Y-3911250D02*
G75*
G03*
X8646750Y-3911250I-30000J0D01*
G01*
X8596750Y-3881250D02*
X8596750Y-3941250D01*
X8636750Y-3881250D02*
X8636750Y-3941250D01*
X8596750Y-3941250D02*
G75*
G03*
X8636750Y-3941250I20000J0D01*
G01*
X8636750Y-3881250D02*
G75*
G03*
X8596750Y-3881250I-20000J0D01*
G01*
X8646750Y-4329250D02*
G75*
G03*
X8646750Y-4329250I-30000J0D01*
G01*
X8596750Y-4274250D02*
X8596750Y-4384250D01*
X8636750Y-4274250D02*
X8636750Y-4384250D01*
X8596750Y-4384250D02*
G75*
G03*
X8636750Y-4384250I20000J0D01*
G01*
X8636750Y-4274250D02*
G75*
G03*
X8596750Y-4274250I-20000J0D01*
G01*
X9510750Y-3911250D02*
G75*
G03*
X9510750Y-3911250I-30000J0D01*
G01*
X9460750Y-3881250D02*
X9460750Y-3941250D01*
X9500750Y-3881250D02*
X9500750Y-3941250D01*
X9460750Y-3941250D02*
G75*
G03*
X9500750Y-3941250I20000J0D01*
G01*
X9500750Y-3881250D02*
G75*
G03*
X9460750Y-3881250I-20000J0D01*
G01*
X9510750Y-4329250D02*
G75*
G03*
X9510750Y-4329250I-30000J0D01*
G01*
X9460750Y-4274250D02*
X9460750Y-4384250D01*
X9500750Y-4274250D02*
X9500750Y-4384250D01*
X9460750Y-4384250D02*
G75*
G03*
X9500750Y-4384250I20000J0D01*
G01*
X9500750Y-4274250D02*
G75*
G03*
X9460750Y-4274250I-20000J0D01*
G01*
X7715250Y-5387500D02*
X7715250Y-5534500D01*
X7641750Y-5461000D02*
X7788750Y-5461000D01*
X8350250Y-5133500D02*
X8350250Y-5280500D01*
X8276750Y-5207000D02*
X8423750Y-5207000D01*
X9620250Y-5387500D02*
X9620250Y-5534500D01*
X9546750Y-5461000D02*
X9693750Y-5461000D01*
X10255250Y-5133500D02*
X10255250Y-5280500D01*
X10181750Y-5207000D02*
X10328750Y-5207000D01*
D12*
X6787678Y-10236339D02*
X6787678Y-9936339D01*
X6859107Y-9936339D01*
X6901964Y-9950625D01*
X6930536Y-9979197D01*
X6944821Y-10007768D01*
X6959107Y-10064911D01*
X6959107Y-10107768D01*
X6944821Y-10164911D01*
X6930536Y-10193482D01*
X6901964Y-10222054D01*
X6859107Y-10236339D01*
X6787678Y-10236339D01*
X7087678Y-10236339D02*
X7087678Y-10036339D01*
X7087678Y-10093482D02*
X7101964Y-10064911D01*
X7116250Y-10050625D01*
X7144821Y-10036339D01*
X7173393Y-10036339D01*
X7273393Y-10236339D02*
X7273393Y-10036339D01*
X7273393Y-9936339D02*
X7259107Y-9950625D01*
X7273393Y-9964911D01*
X7287678Y-9950625D01*
X7273393Y-9936339D01*
X7273393Y-9964911D01*
X7459107Y-10236339D02*
X7430536Y-10222054D01*
X7416250Y-10193482D01*
X7416250Y-9936339D01*
X7616250Y-10236339D02*
X7587678Y-10222054D01*
X7573393Y-10193482D01*
X7573393Y-9936339D01*
X7959107Y-10236339D02*
X7959107Y-9936339D01*
X8059107Y-10150625D01*
X8159107Y-9936339D01*
X8159107Y-10236339D01*
X8430536Y-10236339D02*
X8430536Y-10079197D01*
X8416250Y-10050625D01*
X8387678Y-10036339D01*
X8330536Y-10036339D01*
X8301964Y-10050625D01*
X8430536Y-10222054D02*
X8401964Y-10236339D01*
X8330536Y-10236339D01*
X8301964Y-10222054D01*
X8287678Y-10193482D01*
X8287678Y-10164911D01*
X8301964Y-10136339D01*
X8330536Y-10122054D01*
X8401964Y-10122054D01*
X8430536Y-10107768D01*
X8573393Y-10036339D02*
X8573393Y-10336339D01*
X8573393Y-10050625D02*
X8601964Y-10036339D01*
X8659107Y-10036339D01*
X8687678Y-10050625D01*
X8701964Y-10064911D01*
X8716250Y-10093482D01*
X8716250Y-10179197D01*
X8701964Y-10207768D01*
X8687678Y-10222054D01*
X8659107Y-10236339D01*
X8601964Y-10236339D01*
X8573393Y-10222054D01*
X8844821Y-10207768D02*
X8859107Y-10222054D01*
X8844821Y-10236339D01*
X8830536Y-10222054D01*
X8844821Y-10207768D01*
X8844821Y-10236339D01*
X8844821Y-10050625D02*
X8859107Y-10064911D01*
X8844821Y-10079197D01*
X8830536Y-10064911D01*
X8844821Y-10050625D01*
X8844821Y-10079197D01*
X6461250Y-10710625D02*
X6501250Y-10750625D01*
X6501250Y-10710625D02*
X6461250Y-10750625D01*
X6844821Y-10566339D02*
X6873393Y-10566339D01*
X6901964Y-10580625D01*
X6916250Y-10594911D01*
X6930536Y-10623482D01*
X6944821Y-10680625D01*
X6944821Y-10752054D01*
X6930536Y-10809197D01*
X6916250Y-10837768D01*
X6901964Y-10852054D01*
X6873393Y-10866339D01*
X6844821Y-10866339D01*
X6816250Y-10852054D01*
X6801964Y-10837768D01*
X6787678Y-10809197D01*
X6773393Y-10752054D01*
X6773393Y-10680625D01*
X6787678Y-10623482D01*
X6801964Y-10594911D01*
X6816250Y-10580625D01*
X6844821Y-10566339D01*
X7073393Y-10837768D02*
X7087678Y-10852054D01*
X7073393Y-10866339D01*
X7059107Y-10852054D01*
X7073393Y-10837768D01*
X7073393Y-10866339D01*
X7344821Y-10666339D02*
X7344821Y-10866339D01*
X7273393Y-10552054D02*
X7201964Y-10766339D01*
X7387678Y-10766339D01*
X7559107Y-10566339D02*
X7587678Y-10566339D01*
X7616250Y-10580625D01*
X7630536Y-10594911D01*
X7644821Y-10623482D01*
X7659107Y-10680625D01*
X7659107Y-10752054D01*
X7644821Y-10809197D01*
X7630536Y-10837768D01*
X7616250Y-10852054D01*
X7587678Y-10866339D01*
X7559107Y-10866339D01*
X7530536Y-10852054D01*
X7516250Y-10837768D01*
X7501964Y-10809197D01*
X7487678Y-10752054D01*
X7487678Y-10680625D01*
X7501964Y-10623482D01*
X7516250Y-10594911D01*
X7530536Y-10580625D01*
X7559107Y-10566339D01*
X7844821Y-10566339D02*
X7873393Y-10566339D01*
X7901964Y-10580625D01*
X7916250Y-10594911D01*
X7930536Y-10623482D01*
X7944821Y-10680625D01*
X7944821Y-10752054D01*
X7930536Y-10809197D01*
X7916250Y-10837768D01*
X7901964Y-10852054D01*
X7873393Y-10866339D01*
X7844821Y-10866339D01*
X7816250Y-10852054D01*
X7801964Y-10837768D01*
X7787678Y-10809197D01*
X7773393Y-10752054D01*
X7773393Y-10680625D01*
X7787678Y-10623482D01*
X7801964Y-10594911D01*
X7816250Y-10580625D01*
X7844821Y-10566339D01*
X8073393Y-10866339D02*
X8073393Y-10666339D01*
X8073393Y-10694911D02*
X8087678Y-10680625D01*
X8116250Y-10666339D01*
X8159107Y-10666339D01*
X8187678Y-10680625D01*
X8201964Y-10709197D01*
X8201964Y-10866339D01*
X8201964Y-10709197D02*
X8216250Y-10680625D01*
X8244821Y-10666339D01*
X8287678Y-10666339D01*
X8316250Y-10680625D01*
X8330536Y-10709197D01*
X8330536Y-10866339D01*
X8473393Y-10866339D02*
X8473393Y-10666339D01*
X8473393Y-10694911D02*
X8487678Y-10680625D01*
X8516250Y-10666339D01*
X8559107Y-10666339D01*
X8587678Y-10680625D01*
X8601964Y-10709197D01*
X8601964Y-10866339D01*
X8601964Y-10709197D02*
X8616250Y-10680625D01*
X8644821Y-10666339D01*
X8687678Y-10666339D01*
X8716250Y-10680625D01*
X8730536Y-10709197D01*
X8730536Y-10866339D01*
X9316250Y-10552054D02*
X9059107Y-10937768D01*
X9701964Y-10566339D02*
X9730536Y-10566339D01*
X9759107Y-10580625D01*
X9773393Y-10594911D01*
X9787678Y-10623482D01*
X9801964Y-10680625D01*
X9801964Y-10752054D01*
X9787678Y-10809197D01*
X9773393Y-10837768D01*
X9759107Y-10852054D01*
X9730536Y-10866339D01*
X9701964Y-10866339D01*
X9673393Y-10852054D01*
X9659107Y-10837768D01*
X9644821Y-10809197D01*
X9630536Y-10752054D01*
X9630536Y-10680625D01*
X9644821Y-10623482D01*
X9659107Y-10594911D01*
X9673393Y-10580625D01*
X9701964Y-10566339D01*
X9930536Y-10837768D02*
X9944821Y-10852054D01*
X9930536Y-10866339D01*
X9916250Y-10852054D01*
X9930536Y-10837768D01*
X9930536Y-10866339D01*
X10130536Y-10566339D02*
X10159107Y-10566339D01*
X10187678Y-10580625D01*
X10201964Y-10594911D01*
X10216250Y-10623482D01*
X10230536Y-10680625D01*
X10230536Y-10752054D01*
X10216250Y-10809197D01*
X10201964Y-10837768D01*
X10187678Y-10852054D01*
X10159107Y-10866339D01*
X10130536Y-10866339D01*
X10101964Y-10852054D01*
X10087678Y-10837768D01*
X10073393Y-10809197D01*
X10059107Y-10752054D01*
X10059107Y-10680625D01*
X10073393Y-10623482D01*
X10087678Y-10594911D01*
X10101964Y-10580625D01*
X10130536Y-10566339D01*
X10516250Y-10866339D02*
X10344821Y-10866339D01*
X10430536Y-10866339D02*
X10430536Y-10566339D01*
X10401964Y-10609197D01*
X10373393Y-10637768D01*
X10344821Y-10652054D01*
X10787678Y-10566339D02*
X10644821Y-10566339D01*
X10630536Y-10709197D01*
X10644821Y-10694911D01*
X10673393Y-10680625D01*
X10744821Y-10680625D01*
X10773393Y-10694911D01*
X10787678Y-10709197D01*
X10801964Y-10737768D01*
X10801964Y-10809197D01*
X10787678Y-10837768D01*
X10773393Y-10852054D01*
X10744821Y-10866339D01*
X10673393Y-10866339D01*
X10644821Y-10852054D01*
X10630536Y-10837768D01*
X10901964Y-10566339D02*
X11101964Y-10566339D01*
X10973393Y-10866339D01*
X11201964Y-10566339D02*
X11201964Y-10623482D01*
X11316250Y-10566339D02*
X11316250Y-10623482D01*
X11759107Y-10980625D02*
X11744821Y-10966339D01*
X11716250Y-10923482D01*
X11701964Y-10894911D01*
X11687678Y-10852054D01*
X11673393Y-10780625D01*
X11673393Y-10723482D01*
X11687678Y-10652054D01*
X11701964Y-10609197D01*
X11716250Y-10580625D01*
X11744821Y-10537768D01*
X11759107Y-10523482D01*
X11859107Y-10594911D02*
X11873393Y-10580625D01*
X11901964Y-10566339D01*
X11973393Y-10566339D01*
X12001964Y-10580625D01*
X12016250Y-10594911D01*
X12030536Y-10623482D01*
X12030536Y-10652054D01*
X12016250Y-10694911D01*
X11844821Y-10866339D01*
X12030536Y-10866339D01*
X12201964Y-10694911D02*
X12173393Y-10680625D01*
X12159107Y-10666339D01*
X12144821Y-10637768D01*
X12144821Y-10623482D01*
X12159107Y-10594911D01*
X12173393Y-10580625D01*
X12201964Y-10566339D01*
X12259107Y-10566339D01*
X12287678Y-10580625D01*
X12301964Y-10594911D01*
X12316250Y-10623482D01*
X12316250Y-10637768D01*
X12301964Y-10666339D01*
X12287678Y-10680625D01*
X12259107Y-10694911D01*
X12201964Y-10694911D01*
X12173393Y-10709197D01*
X12159107Y-10723482D01*
X12144821Y-10752054D01*
X12144821Y-10809197D01*
X12159107Y-10837768D01*
X12173393Y-10852054D01*
X12201964Y-10866339D01*
X12259107Y-10866339D01*
X12287678Y-10852054D01*
X12301964Y-10837768D01*
X12316250Y-10809197D01*
X12316250Y-10752054D01*
X12301964Y-10723482D01*
X12287678Y-10709197D01*
X12259107Y-10694911D01*
X12673393Y-10866339D02*
X12673393Y-10566339D01*
X12801964Y-10866339D02*
X12801964Y-10709197D01*
X12787678Y-10680625D01*
X12759107Y-10666339D01*
X12716250Y-10666339D01*
X12687678Y-10680625D01*
X12673393Y-10694911D01*
X12987678Y-10866339D02*
X12959107Y-10852054D01*
X12944821Y-10837768D01*
X12930536Y-10809197D01*
X12930536Y-10723482D01*
X12944821Y-10694911D01*
X12959107Y-10680625D01*
X12987678Y-10666339D01*
X13030536Y-10666339D01*
X13059107Y-10680625D01*
X13073393Y-10694911D01*
X13087678Y-10723482D01*
X13087678Y-10809197D01*
X13073393Y-10837768D01*
X13059107Y-10852054D01*
X13030536Y-10866339D01*
X12987678Y-10866339D01*
X13259107Y-10866339D02*
X13230536Y-10852054D01*
X13216250Y-10823482D01*
X13216250Y-10566339D01*
X13487678Y-10852054D02*
X13459107Y-10866339D01*
X13401964Y-10866339D01*
X13373393Y-10852054D01*
X13359107Y-10823482D01*
X13359107Y-10709197D01*
X13373393Y-10680625D01*
X13401964Y-10666339D01*
X13459107Y-10666339D01*
X13487678Y-10680625D01*
X13501964Y-10709197D01*
X13501964Y-10737768D01*
X13359107Y-10766339D01*
X13616250Y-10852054D02*
X13644821Y-10866339D01*
X13701964Y-10866339D01*
X13730536Y-10852054D01*
X13744821Y-10823482D01*
X13744821Y-10809197D01*
X13730536Y-10780625D01*
X13701964Y-10766339D01*
X13659107Y-10766339D01*
X13630536Y-10752054D01*
X13616250Y-10723482D01*
X13616250Y-10709197D01*
X13630536Y-10680625D01*
X13659107Y-10666339D01*
X13701964Y-10666339D01*
X13730536Y-10680625D01*
X13844821Y-10980625D02*
X13859107Y-10966339D01*
X13887678Y-10923482D01*
X13901964Y-10894911D01*
X13916250Y-10852054D01*
X13930536Y-10780625D01*
X13930536Y-10723482D01*
X13916250Y-10652054D01*
X13901964Y-10609197D01*
X13887678Y-10580625D01*
X13859107Y-10537768D01*
X13844821Y-10523482D01*
X6501250Y-11126625D02*
G75*
G03*
X6501250Y-11126625I-30000J0D01*
G01*
X6844821Y-10962339D02*
X6873393Y-10962339D01*
X6901964Y-10976625D01*
X6916250Y-10990911D01*
X6930536Y-11019482D01*
X6944821Y-11076625D01*
X6944821Y-11148054D01*
X6930536Y-11205196D01*
X6916250Y-11233768D01*
X6901964Y-11248054D01*
X6873393Y-11262339D01*
X6844821Y-11262339D01*
X6816250Y-11248054D01*
X6801964Y-11233768D01*
X6787678Y-11205196D01*
X6773393Y-11148054D01*
X6773393Y-11076625D01*
X6787678Y-11019482D01*
X6801964Y-10990911D01*
X6816250Y-10976625D01*
X6844821Y-10962339D01*
X7073393Y-11233768D02*
X7087678Y-11248054D01*
X7073393Y-11262339D01*
X7059107Y-11248054D01*
X7073393Y-11233768D01*
X7073393Y-11262339D01*
X7344821Y-10962339D02*
X7287678Y-10962339D01*
X7259107Y-10976625D01*
X7244821Y-10990911D01*
X7216250Y-11033768D01*
X7201964Y-11090911D01*
X7201964Y-11205196D01*
X7216250Y-11233768D01*
X7230536Y-11248054D01*
X7259107Y-11262339D01*
X7316250Y-11262339D01*
X7344821Y-11248054D01*
X7359107Y-11233768D01*
X7373393Y-11205196D01*
X7373393Y-11133768D01*
X7359107Y-11105197D01*
X7344821Y-11090911D01*
X7316250Y-11076625D01*
X7259107Y-11076625D01*
X7230536Y-11090911D01*
X7216250Y-11105197D01*
X7201964Y-11133768D01*
X7559107Y-10962339D02*
X7587678Y-10962339D01*
X7616250Y-10976625D01*
X7630536Y-10990911D01*
X7644821Y-11019482D01*
X7659107Y-11076625D01*
X7659107Y-11148054D01*
X7644821Y-11205196D01*
X7630536Y-11233768D01*
X7616250Y-11248054D01*
X7587678Y-11262339D01*
X7559107Y-11262339D01*
X7530536Y-11248054D01*
X7516250Y-11233768D01*
X7501964Y-11205196D01*
X7487678Y-11148054D01*
X7487678Y-11076625D01*
X7501964Y-11019482D01*
X7516250Y-10990911D01*
X7530536Y-10976625D01*
X7559107Y-10962339D01*
X7844821Y-10962339D02*
X7873393Y-10962339D01*
X7901964Y-10976625D01*
X7916250Y-10990911D01*
X7930536Y-11019482D01*
X7944821Y-11076625D01*
X7944821Y-11148054D01*
X7930536Y-11205196D01*
X7916250Y-11233768D01*
X7901964Y-11248054D01*
X7873393Y-11262339D01*
X7844821Y-11262339D01*
X7816250Y-11248054D01*
X7801964Y-11233768D01*
X7787678Y-11205196D01*
X7773393Y-11148054D01*
X7773393Y-11076625D01*
X7787678Y-11019482D01*
X7801964Y-10990911D01*
X7816250Y-10976625D01*
X7844821Y-10962339D01*
X8073393Y-11262339D02*
X8073393Y-11062339D01*
X8073393Y-11090911D02*
X8087678Y-11076625D01*
X8116250Y-11062339D01*
X8159107Y-11062339D01*
X8187678Y-11076625D01*
X8201964Y-11105197D01*
X8201964Y-11262339D01*
X8201964Y-11105197D02*
X8216250Y-11076625D01*
X8244821Y-11062339D01*
X8287678Y-11062339D01*
X8316250Y-11076625D01*
X8330536Y-11105197D01*
X8330536Y-11262339D01*
X8473393Y-11262339D02*
X8473393Y-11062339D01*
X8473393Y-11090911D02*
X8487678Y-11076625D01*
X8516250Y-11062339D01*
X8559107Y-11062339D01*
X8587678Y-11076625D01*
X8601964Y-11105197D01*
X8601964Y-11262339D01*
X8601964Y-11105197D02*
X8616250Y-11076625D01*
X8644821Y-11062339D01*
X8687678Y-11062339D01*
X8716250Y-11076625D01*
X8730536Y-11105197D01*
X8730536Y-11262339D01*
X9316250Y-10948054D02*
X9059107Y-11333768D01*
X9701964Y-10962339D02*
X9730536Y-10962339D01*
X9759107Y-10976625D01*
X9773393Y-10990911D01*
X9787678Y-11019482D01*
X9801964Y-11076625D01*
X9801964Y-11148054D01*
X9787678Y-11205196D01*
X9773393Y-11233768D01*
X9759107Y-11248054D01*
X9730536Y-11262339D01*
X9701964Y-11262339D01*
X9673393Y-11248054D01*
X9659107Y-11233768D01*
X9644821Y-11205196D01*
X9630536Y-11148054D01*
X9630536Y-11076625D01*
X9644821Y-11019482D01*
X9659107Y-10990911D01*
X9673393Y-10976625D01*
X9701964Y-10962339D01*
X9930536Y-11233768D02*
X9944821Y-11248054D01*
X9930536Y-11262339D01*
X9916250Y-11248054D01*
X9930536Y-11233768D01*
X9930536Y-11262339D01*
X10130536Y-10962339D02*
X10159107Y-10962339D01*
X10187678Y-10976625D01*
X10201964Y-10990911D01*
X10216250Y-11019482D01*
X10230536Y-11076625D01*
X10230536Y-11148054D01*
X10216250Y-11205196D01*
X10201964Y-11233768D01*
X10187678Y-11248054D01*
X10159107Y-11262339D01*
X10130536Y-11262339D01*
X10101964Y-11248054D01*
X10087678Y-11233768D01*
X10073393Y-11205196D01*
X10059107Y-11148054D01*
X10059107Y-11076625D01*
X10073393Y-11019482D01*
X10087678Y-10990911D01*
X10101964Y-10976625D01*
X10130536Y-10962339D01*
X10344821Y-10990911D02*
X10359107Y-10976625D01*
X10387678Y-10962339D01*
X10459107Y-10962339D01*
X10487678Y-10976625D01*
X10501964Y-10990911D01*
X10516250Y-11019482D01*
X10516250Y-11048054D01*
X10501964Y-11090911D01*
X10330536Y-11262339D01*
X10516250Y-11262339D01*
X10616250Y-10962339D02*
X10801964Y-10962339D01*
X10701964Y-11076625D01*
X10744821Y-11076625D01*
X10773393Y-11090911D01*
X10787678Y-11105197D01*
X10801964Y-11133768D01*
X10801964Y-11205196D01*
X10787678Y-11233768D01*
X10773393Y-11248054D01*
X10744821Y-11262339D01*
X10659107Y-11262339D01*
X10630536Y-11248054D01*
X10616250Y-11233768D01*
X11059107Y-10962339D02*
X11001964Y-10962339D01*
X10973393Y-10976625D01*
X10959107Y-10990911D01*
X10930536Y-11033768D01*
X10916250Y-11090911D01*
X10916250Y-11205196D01*
X10930536Y-11233768D01*
X10944821Y-11248054D01*
X10973393Y-11262339D01*
X11030536Y-11262339D01*
X11059107Y-11248054D01*
X11073393Y-11233768D01*
X11087678Y-11205196D01*
X11087678Y-11133768D01*
X11073393Y-11105197D01*
X11059107Y-11090911D01*
X11030536Y-11076625D01*
X10973393Y-11076625D01*
X10944821Y-11090911D01*
X10930536Y-11105197D01*
X10916250Y-11133768D01*
X11201964Y-10962339D02*
X11201964Y-11019482D01*
X11316250Y-10962339D02*
X11316250Y-11019482D01*
X11759107Y-11376625D02*
X11744821Y-11362339D01*
X11716250Y-11319482D01*
X11701964Y-11290911D01*
X11687678Y-11248054D01*
X11673393Y-11176625D01*
X11673393Y-11119482D01*
X11687678Y-11048054D01*
X11701964Y-11005197D01*
X11716250Y-10976625D01*
X11744821Y-10933768D01*
X11759107Y-10919482D01*
X11930536Y-10962339D02*
X11959107Y-10962339D01*
X11987678Y-10976625D01*
X12001964Y-10990911D01*
X12016250Y-11019482D01*
X12030536Y-11076625D01*
X12030536Y-11148054D01*
X12016250Y-11205196D01*
X12001964Y-11233768D01*
X11987678Y-11248054D01*
X11959107Y-11262339D01*
X11930536Y-11262339D01*
X11901964Y-11248054D01*
X11887678Y-11233768D01*
X11873393Y-11205196D01*
X11859107Y-11148054D01*
X11859107Y-11076625D01*
X11873393Y-11019482D01*
X11887678Y-10990911D01*
X11901964Y-10976625D01*
X11930536Y-10962339D01*
X12387678Y-11262339D02*
X12387678Y-10962339D01*
X12516250Y-11262339D02*
X12516250Y-11105197D01*
X12501964Y-11076625D01*
X12473393Y-11062339D01*
X12430536Y-11062339D01*
X12401964Y-11076625D01*
X12387678Y-11090911D01*
X12701964Y-11262339D02*
X12673393Y-11248054D01*
X12659107Y-11233768D01*
X12644821Y-11205196D01*
X12644821Y-11119482D01*
X12659107Y-11090911D01*
X12673393Y-11076625D01*
X12701964Y-11062339D01*
X12744821Y-11062339D01*
X12773393Y-11076625D01*
X12787678Y-11090911D01*
X12801964Y-11119482D01*
X12801964Y-11205196D01*
X12787678Y-11233768D01*
X12773393Y-11248054D01*
X12744821Y-11262339D01*
X12701964Y-11262339D01*
X12973393Y-11262339D02*
X12944821Y-11248054D01*
X12930536Y-11219482D01*
X12930536Y-10962339D01*
X13201964Y-11248054D02*
X13173393Y-11262339D01*
X13116250Y-11262339D01*
X13087678Y-11248054D01*
X13073393Y-11219482D01*
X13073393Y-11105197D01*
X13087678Y-11076625D01*
X13116250Y-11062339D01*
X13173393Y-11062339D01*
X13201964Y-11076625D01*
X13216250Y-11105197D01*
X13216250Y-11133768D01*
X13073393Y-11162339D01*
X13330536Y-11248054D02*
X13359107Y-11262339D01*
X13416250Y-11262339D01*
X13444821Y-11248054D01*
X13459107Y-11219482D01*
X13459107Y-11205196D01*
X13444821Y-11176625D01*
X13416250Y-11162339D01*
X13373393Y-11162339D01*
X13344821Y-11148054D01*
X13330536Y-11119482D01*
X13330536Y-11105197D01*
X13344821Y-11076625D01*
X13373393Y-11062339D01*
X13416250Y-11062339D01*
X13444821Y-11076625D01*
X13816250Y-11148054D02*
X14044821Y-11148054D01*
X13930536Y-11262339D02*
X13930536Y-11033768D01*
X14544821Y-11062339D02*
X14544821Y-11262339D01*
X14473393Y-10948054D02*
X14401964Y-11162339D01*
X14587678Y-11162339D01*
X14916250Y-11248054D02*
X14944821Y-11262339D01*
X15001964Y-11262339D01*
X15030536Y-11248054D01*
X15044821Y-11219482D01*
X15044821Y-11205196D01*
X15030536Y-11176625D01*
X15001964Y-11162339D01*
X14959107Y-11162339D01*
X14930536Y-11148054D01*
X14916250Y-11119482D01*
X14916250Y-11105197D01*
X14930536Y-11076625D01*
X14959107Y-11062339D01*
X15001964Y-11062339D01*
X15030536Y-11076625D01*
X15216250Y-11262339D02*
X15187678Y-11248054D01*
X15173393Y-11219482D01*
X15173393Y-10962339D01*
X15373393Y-11262339D02*
X15344821Y-11248054D01*
X15330536Y-11233768D01*
X15316250Y-11205196D01*
X15316250Y-11119482D01*
X15330536Y-11090911D01*
X15344821Y-11076625D01*
X15373393Y-11062339D01*
X15416250Y-11062339D01*
X15444821Y-11076625D01*
X15459107Y-11090911D01*
X15473393Y-11119482D01*
X15473393Y-11205196D01*
X15459107Y-11233768D01*
X15444821Y-11248054D01*
X15416250Y-11262339D01*
X15373393Y-11262339D01*
X15559107Y-11062339D02*
X15673393Y-11062339D01*
X15601964Y-10962339D02*
X15601964Y-11219482D01*
X15616250Y-11248054D01*
X15644821Y-11262339D01*
X15673393Y-11262339D01*
X15759107Y-11248054D02*
X15787678Y-11262339D01*
X15844821Y-11262339D01*
X15873393Y-11248054D01*
X15887678Y-11219482D01*
X15887678Y-11205196D01*
X15873393Y-11176625D01*
X15844821Y-11162339D01*
X15801964Y-11162339D01*
X15773393Y-11148054D01*
X15759107Y-11119482D01*
X15759107Y-11105197D01*
X15773393Y-11076625D01*
X15801964Y-11062339D01*
X15844821Y-11062339D01*
X15873393Y-11076625D01*
X15987678Y-11376625D02*
X16001964Y-11362339D01*
X16030536Y-11319482D01*
X16044821Y-11290911D01*
X16059107Y-11248054D01*
X16073393Y-11176625D01*
X16073393Y-11119482D01*
X16059107Y-11048054D01*
X16044821Y-11005197D01*
X16030536Y-10976625D01*
X16001964Y-10933768D01*
X15987678Y-10919482D01*
X6427750Y-11449125D02*
X6427750Y-11596125D01*
X6354250Y-11522625D02*
X6501250Y-11522625D01*
X6944821Y-11658339D02*
X6773393Y-11658339D01*
X6859107Y-11658339D02*
X6859107Y-11358339D01*
X6830536Y-11401196D01*
X6801964Y-11429768D01*
X6773393Y-11444054D01*
X7073393Y-11629768D02*
X7087678Y-11644054D01*
X7073393Y-11658339D01*
X7059107Y-11644054D01*
X7073393Y-11629768D01*
X7073393Y-11658339D01*
X7344821Y-11458339D02*
X7344821Y-11658339D01*
X7273393Y-11344054D02*
X7201964Y-11558339D01*
X7387678Y-11558339D01*
X7473393Y-11358339D02*
X7673393Y-11358339D01*
X7544821Y-11658339D01*
X7844821Y-11358339D02*
X7873393Y-11358339D01*
X7901964Y-11372625D01*
X7916250Y-11386911D01*
X7930536Y-11415482D01*
X7944821Y-11472625D01*
X7944821Y-11544054D01*
X7930536Y-11601196D01*
X7916250Y-11629768D01*
X7901964Y-11644054D01*
X7873393Y-11658339D01*
X7844821Y-11658339D01*
X7816250Y-11644054D01*
X7801964Y-11629768D01*
X7787678Y-11601196D01*
X7773393Y-11544054D01*
X7773393Y-11472625D01*
X7787678Y-11415482D01*
X7801964Y-11386911D01*
X7816250Y-11372625D01*
X7844821Y-11358339D01*
X8073393Y-11658339D02*
X8073393Y-11458339D01*
X8073393Y-11486911D02*
X8087678Y-11472625D01*
X8116250Y-11458339D01*
X8159107Y-11458339D01*
X8187678Y-11472625D01*
X8201964Y-11501196D01*
X8201964Y-11658339D01*
X8201964Y-11501196D02*
X8216250Y-11472625D01*
X8244821Y-11458339D01*
X8287678Y-11458339D01*
X8316250Y-11472625D01*
X8330536Y-11501196D01*
X8330536Y-11658339D01*
X8473393Y-11658339D02*
X8473393Y-11458339D01*
X8473393Y-11486911D02*
X8487678Y-11472625D01*
X8516250Y-11458339D01*
X8559107Y-11458339D01*
X8587678Y-11472625D01*
X8601964Y-11501196D01*
X8601964Y-11658339D01*
X8601964Y-11501196D02*
X8616250Y-11472625D01*
X8644821Y-11458339D01*
X8687678Y-11458339D01*
X8716250Y-11472625D01*
X8730536Y-11501196D01*
X8730536Y-11658339D01*
X9316250Y-11344054D02*
X9059107Y-11729768D01*
X9701964Y-11358339D02*
X9730536Y-11358339D01*
X9759107Y-11372625D01*
X9773393Y-11386911D01*
X9787678Y-11415482D01*
X9801964Y-11472625D01*
X9801964Y-11544054D01*
X9787678Y-11601196D01*
X9773393Y-11629768D01*
X9759107Y-11644054D01*
X9730536Y-11658339D01*
X9701964Y-11658339D01*
X9673393Y-11644054D01*
X9659107Y-11629768D01*
X9644821Y-11601196D01*
X9630536Y-11544054D01*
X9630536Y-11472625D01*
X9644821Y-11415482D01*
X9659107Y-11386911D01*
X9673393Y-11372625D01*
X9701964Y-11358339D01*
X9930536Y-11629768D02*
X9944821Y-11644054D01*
X9930536Y-11658339D01*
X9916250Y-11644054D01*
X9930536Y-11629768D01*
X9930536Y-11658339D01*
X10130536Y-11358339D02*
X10159107Y-11358339D01*
X10187678Y-11372625D01*
X10201964Y-11386911D01*
X10216250Y-11415482D01*
X10230536Y-11472625D01*
X10230536Y-11544054D01*
X10216250Y-11601196D01*
X10201964Y-11629768D01*
X10187678Y-11644054D01*
X10159107Y-11658339D01*
X10130536Y-11658339D01*
X10101964Y-11644054D01*
X10087678Y-11629768D01*
X10073393Y-11601196D01*
X10059107Y-11544054D01*
X10059107Y-11472625D01*
X10073393Y-11415482D01*
X10087678Y-11386911D01*
X10101964Y-11372625D01*
X10130536Y-11358339D01*
X10501964Y-11358339D02*
X10359107Y-11358339D01*
X10344821Y-11501196D01*
X10359107Y-11486911D01*
X10387678Y-11472625D01*
X10459107Y-11472625D01*
X10487678Y-11486911D01*
X10501964Y-11501196D01*
X10516250Y-11529768D01*
X10516250Y-11601196D01*
X10501964Y-11629768D01*
X10487678Y-11644054D01*
X10459107Y-11658339D01*
X10387678Y-11658339D01*
X10359107Y-11644054D01*
X10344821Y-11629768D01*
X10616250Y-11358339D02*
X10816250Y-11358339D01*
X10687678Y-11658339D01*
X10944821Y-11658339D02*
X11001964Y-11658339D01*
X11030536Y-11644054D01*
X11044821Y-11629768D01*
X11073393Y-11586911D01*
X11087678Y-11529768D01*
X11087678Y-11415482D01*
X11073393Y-11386911D01*
X11059107Y-11372625D01*
X11030536Y-11358339D01*
X10973393Y-11358339D01*
X10944821Y-11372625D01*
X10930536Y-11386911D01*
X10916250Y-11415482D01*
X10916250Y-11486911D01*
X10930536Y-11515482D01*
X10944821Y-11529768D01*
X10973393Y-11544054D01*
X11030536Y-11544054D01*
X11059107Y-11529768D01*
X11073393Y-11515482D01*
X11087678Y-11486911D01*
X11201964Y-11358339D02*
X11201964Y-11415482D01*
X11316250Y-11358339D02*
X11316250Y-11415482D01*
X11759107Y-11772625D02*
X11744821Y-11758339D01*
X11716250Y-11715482D01*
X11701964Y-11686911D01*
X11687678Y-11644054D01*
X11673393Y-11572625D01*
X11673393Y-11515482D01*
X11687678Y-11444054D01*
X11701964Y-11401196D01*
X11716250Y-11372625D01*
X11744821Y-11329768D01*
X11759107Y-11315482D01*
X12001964Y-11458339D02*
X12001964Y-11658339D01*
X11930536Y-11344054D02*
X11859107Y-11558339D01*
X12044821Y-11558339D01*
X12387678Y-11658339D02*
X12387678Y-11358339D01*
X12516250Y-11658339D02*
X12516250Y-11501196D01*
X12501964Y-11472625D01*
X12473393Y-11458339D01*
X12430536Y-11458339D01*
X12401964Y-11472625D01*
X12387678Y-11486911D01*
X12701964Y-11658339D02*
X12673393Y-11644054D01*
X12659107Y-11629768D01*
X12644821Y-11601196D01*
X12644821Y-11515482D01*
X12659107Y-11486911D01*
X12673393Y-11472625D01*
X12701964Y-11458339D01*
X12744821Y-11458339D01*
X12773393Y-11472625D01*
X12787678Y-11486911D01*
X12801964Y-11515482D01*
X12801964Y-11601196D01*
X12787678Y-11629768D01*
X12773393Y-11644054D01*
X12744821Y-11658339D01*
X12701964Y-11658339D01*
X12973393Y-11658339D02*
X12944821Y-11644054D01*
X12930536Y-11615482D01*
X12930536Y-11358339D01*
X13201964Y-11644054D02*
X13173393Y-11658339D01*
X13116250Y-11658339D01*
X13087678Y-11644054D01*
X13073393Y-11615482D01*
X13073393Y-11501196D01*
X13087678Y-11472625D01*
X13116250Y-11458339D01*
X13173393Y-11458339D01*
X13201964Y-11472625D01*
X13216250Y-11501196D01*
X13216250Y-11529768D01*
X13073393Y-11558339D01*
X13330536Y-11644054D02*
X13359107Y-11658339D01*
X13416250Y-11658339D01*
X13444821Y-11644054D01*
X13459107Y-11615482D01*
X13459107Y-11601196D01*
X13444821Y-11572625D01*
X13416250Y-11558339D01*
X13373393Y-11558339D01*
X13344821Y-11544054D01*
X13330536Y-11515482D01*
X13330536Y-11501196D01*
X13344821Y-11472625D01*
X13373393Y-11458339D01*
X13416250Y-11458339D01*
X13444821Y-11472625D01*
X13559107Y-11772625D02*
X13573393Y-11758339D01*
X13601964Y-11715482D01*
X13616250Y-11686911D01*
X13630536Y-11644054D01*
X13644821Y-11572625D01*
X13644821Y-11515482D01*
X13630536Y-11444054D01*
X13616250Y-11401196D01*
X13601964Y-11372625D01*
X13573393Y-11329768D01*
X13559107Y-11315482D01*
M02*
