G04 #@! TF.GenerationSoftware,KiCad,Pcbnew,(5.1.10)-1*
G04 #@! TF.CreationDate,2021-06-04T13:57:15+02:00*
G04 #@! TF.ProjectId,Keyboard,4b657962-6f61-4726-942e-6b696361645f,rev?*
G04 #@! TF.SameCoordinates,Original*
G04 #@! TF.FileFunction,Paste,Bot*
G04 #@! TF.FilePolarity,Positive*
%FSLAX46Y46*%
G04 Gerber Fmt 4.6, Leading zero omitted, Abs format (unit mm)*
G04 Created by KiCad (PCBNEW (5.1.10)-1) date 2021-06-04 13:57:15*
%MOMM*%
%LPD*%
G01*
G04 APERTURE LIST*
%ADD10R,0.550000X1.600000*%
%ADD11R,1.600000X0.550000*%
%ADD12R,1.200000X1.400000*%
%ADD13R,0.600000X1.450000*%
%ADD14R,0.300000X1.450000*%
%ADD15R,1.100000X1.800000*%
%ADD16R,1.000000X1.500000*%
%ADD17R,1.500000X1.000000*%
G04 APERTURE END LIST*
D10*
X93287500Y-86292000D03*
X92487500Y-86292000D03*
X91687500Y-86292000D03*
X90887500Y-86292000D03*
X90087500Y-86292000D03*
X89287500Y-86292000D03*
X88487500Y-86292000D03*
X87687500Y-86292000D03*
D11*
X86237500Y-84842000D03*
X86237500Y-84042000D03*
X86237500Y-83242000D03*
X86237500Y-82442000D03*
X86237500Y-81642000D03*
X86237500Y-80842000D03*
X86237500Y-80042000D03*
X86237500Y-79242000D03*
D10*
X87687500Y-77792000D03*
X88487500Y-77792000D03*
X89287500Y-77792000D03*
X90087500Y-77792000D03*
X90887500Y-77792000D03*
X91687500Y-77792000D03*
X92487500Y-77792000D03*
X93287500Y-77792000D03*
D11*
X94737500Y-79242000D03*
X94737500Y-80042000D03*
X94737500Y-80842000D03*
X94737500Y-81642000D03*
X94737500Y-82442000D03*
X94737500Y-83242000D03*
X94737500Y-84042000D03*
X94737500Y-84842000D03*
D12*
X78916000Y-84232750D03*
X78916000Y-82032750D03*
X77216000Y-82032750D03*
X77216000Y-84232750D03*
D13*
X93712500Y-44207500D03*
X87262500Y-44207500D03*
X92937500Y-44207500D03*
X88037500Y-44207500D03*
D14*
X88737500Y-44207500D03*
X92237500Y-44207500D03*
X89237500Y-44207500D03*
X91737500Y-44207500D03*
X89737500Y-44207500D03*
X91237500Y-44207500D03*
X90737500Y-44207500D03*
X90237500Y-44207500D03*
G36*
G01*
X97731600Y-83029600D02*
X96781600Y-83029600D01*
G75*
G02*
X96531600Y-82779600I0J250000D01*
G01*
X96531600Y-82279600D01*
G75*
G02*
X96781600Y-82029600I250000J0D01*
G01*
X97731600Y-82029600D01*
G75*
G02*
X97981600Y-82279600I0J-250000D01*
G01*
X97981600Y-82779600D01*
G75*
G02*
X97731600Y-83029600I-250000J0D01*
G01*
G37*
G36*
G01*
X97731600Y-84929600D02*
X96781600Y-84929600D01*
G75*
G02*
X96531600Y-84679600I0J250000D01*
G01*
X96531600Y-84179600D01*
G75*
G02*
X96781600Y-83929600I250000J0D01*
G01*
X97731600Y-83929600D01*
G75*
G02*
X97981600Y-84179600I0J-250000D01*
G01*
X97981600Y-84679600D01*
G75*
G02*
X97731600Y-84929600I-250000J0D01*
G01*
G37*
D15*
X100948000Y-83820000D03*
X104648000Y-77620000D03*
X104648000Y-83820000D03*
X100948000Y-77620000D03*
G36*
G01*
X102056250Y-70050000D02*
X101143750Y-70050000D01*
G75*
G02*
X100900000Y-69806250I0J243750D01*
G01*
X100900000Y-69318750D01*
G75*
G02*
X101143750Y-69075000I243750J0D01*
G01*
X102056250Y-69075000D01*
G75*
G02*
X102300000Y-69318750I0J-243750D01*
G01*
X102300000Y-69806250D01*
G75*
G02*
X102056250Y-70050000I-243750J0D01*
G01*
G37*
G36*
G01*
X102056250Y-71925000D02*
X101143750Y-71925000D01*
G75*
G02*
X100900000Y-71681250I0J243750D01*
G01*
X100900000Y-71193750D01*
G75*
G02*
X101143750Y-70950000I243750J0D01*
G01*
X102056250Y-70950000D01*
G75*
G02*
X102300000Y-71193750I0J-243750D01*
G01*
X102300000Y-71681250D01*
G75*
G02*
X102056250Y-71925000I-243750J0D01*
G01*
G37*
G36*
G01*
X103643750Y-62987500D02*
X102731250Y-62987500D01*
G75*
G02*
X102487500Y-62743750I0J243750D01*
G01*
X102487500Y-62256250D01*
G75*
G02*
X102731250Y-62012500I243750J0D01*
G01*
X103643750Y-62012500D01*
G75*
G02*
X103887500Y-62256250I0J-243750D01*
G01*
X103887500Y-62743750D01*
G75*
G02*
X103643750Y-62987500I-243750J0D01*
G01*
G37*
G36*
G01*
X103643750Y-64862500D02*
X102731250Y-64862500D01*
G75*
G02*
X102487500Y-64618750I0J243750D01*
G01*
X102487500Y-64131250D01*
G75*
G02*
X102731250Y-63887500I243750J0D01*
G01*
X103643750Y-63887500D01*
G75*
G02*
X103887500Y-64131250I0J-243750D01*
G01*
X103887500Y-64618750D01*
G75*
G02*
X103643750Y-64862500I-243750J0D01*
G01*
G37*
G36*
G01*
X87768750Y-70050000D02*
X86856250Y-70050000D01*
G75*
G02*
X86612500Y-69806250I0J243750D01*
G01*
X86612500Y-69318750D01*
G75*
G02*
X86856250Y-69075000I243750J0D01*
G01*
X87768750Y-69075000D01*
G75*
G02*
X88012500Y-69318750I0J-243750D01*
G01*
X88012500Y-69806250D01*
G75*
G02*
X87768750Y-70050000I-243750J0D01*
G01*
G37*
G36*
G01*
X87768750Y-71925000D02*
X86856250Y-71925000D01*
G75*
G02*
X86612500Y-71681250I0J243750D01*
G01*
X86612500Y-71193750D01*
G75*
G02*
X86856250Y-70950000I243750J0D01*
G01*
X87768750Y-70950000D01*
G75*
G02*
X88012500Y-71193750I0J-243750D01*
G01*
X88012500Y-71681250D01*
G75*
G02*
X87768750Y-71925000I-243750J0D01*
G01*
G37*
G36*
G01*
X84593750Y-62987500D02*
X83681250Y-62987500D01*
G75*
G02*
X83437500Y-62743750I0J243750D01*
G01*
X83437500Y-62256250D01*
G75*
G02*
X83681250Y-62012500I243750J0D01*
G01*
X84593750Y-62012500D01*
G75*
G02*
X84837500Y-62256250I0J-243750D01*
G01*
X84837500Y-62743750D01*
G75*
G02*
X84593750Y-62987500I-243750J0D01*
G01*
G37*
G36*
G01*
X84593750Y-64862500D02*
X83681250Y-64862500D01*
G75*
G02*
X83437500Y-64618750I0J243750D01*
G01*
X83437500Y-64131250D01*
G75*
G02*
X83681250Y-63887500I243750J0D01*
G01*
X84593750Y-63887500D01*
G75*
G02*
X84837500Y-64131250I0J-243750D01*
G01*
X84837500Y-64618750D01*
G75*
G02*
X84593750Y-64862500I-243750J0D01*
G01*
G37*
G36*
G01*
X108597000Y-74021102D02*
X108597000Y-73121098D01*
G75*
G02*
X108846998Y-72871100I249998J0D01*
G01*
X109372002Y-72871100D01*
G75*
G02*
X109622000Y-73121098I0J-249998D01*
G01*
X109622000Y-74021102D01*
G75*
G02*
X109372002Y-74271100I-249998J0D01*
G01*
X108846998Y-74271100D01*
G75*
G02*
X108597000Y-74021102I0J249998D01*
G01*
G37*
G36*
G01*
X110422000Y-74021102D02*
X110422000Y-73121098D01*
G75*
G02*
X110671998Y-72871100I249998J0D01*
G01*
X111197002Y-72871100D01*
G75*
G02*
X111447000Y-73121098I0J-249998D01*
G01*
X111447000Y-74021102D01*
G75*
G02*
X111197002Y-74271100I-249998J0D01*
G01*
X110671998Y-74271100D01*
G75*
G02*
X110422000Y-74021102I0J249998D01*
G01*
G37*
D16*
X112725000Y-59600000D03*
X109525000Y-59600000D03*
X112725000Y-54700000D03*
X109525000Y-54700000D03*
D17*
X105706250Y-41275000D03*
X105706250Y-44475000D03*
X100806250Y-41275000D03*
X100806250Y-44475000D03*
X80306250Y-41275000D03*
X80306250Y-44475000D03*
X75406250Y-41275000D03*
X75406250Y-44475000D03*
D16*
X68250000Y-54700000D03*
X71450000Y-54700000D03*
X68250000Y-59600000D03*
X71450000Y-59600000D03*
X68237500Y-76062500D03*
X71437500Y-76062500D03*
X68237500Y-80962500D03*
X71437500Y-80962500D03*
D17*
X75268750Y-94456250D03*
X75268750Y-91256250D03*
X80168750Y-94456250D03*
X80168750Y-91256250D03*
X100668750Y-94456250D03*
X100668750Y-91256250D03*
X105568750Y-94456250D03*
X105568750Y-91256250D03*
D16*
X112712500Y-80962500D03*
X109512500Y-80962500D03*
X112712500Y-76062500D03*
X109512500Y-76062500D03*
G36*
G01*
X92525002Y-51519500D02*
X91624998Y-51519500D01*
G75*
G02*
X91375000Y-51269502I0J249998D01*
G01*
X91375000Y-50744498D01*
G75*
G02*
X91624998Y-50494500I249998J0D01*
G01*
X92525002Y-50494500D01*
G75*
G02*
X92775000Y-50744498I0J-249998D01*
G01*
X92775000Y-51269502D01*
G75*
G02*
X92525002Y-51519500I-249998J0D01*
G01*
G37*
G36*
G01*
X92525002Y-53344500D02*
X91624998Y-53344500D01*
G75*
G02*
X91375000Y-53094502I0J249998D01*
G01*
X91375000Y-52569498D01*
G75*
G02*
X91624998Y-52319500I249998J0D01*
G01*
X92525002Y-52319500D01*
G75*
G02*
X92775000Y-52569498I0J-249998D01*
G01*
X92775000Y-53094502D01*
G75*
G02*
X92525002Y-53344500I-249998J0D01*
G01*
G37*
G36*
G01*
X89223002Y-51519500D02*
X88322998Y-51519500D01*
G75*
G02*
X88073000Y-51269502I0J249998D01*
G01*
X88073000Y-50744498D01*
G75*
G02*
X88322998Y-50494500I249998J0D01*
G01*
X89223002Y-50494500D01*
G75*
G02*
X89473000Y-50744498I0J-249998D01*
G01*
X89473000Y-51269502D01*
G75*
G02*
X89223002Y-51519500I-249998J0D01*
G01*
G37*
G36*
G01*
X89223002Y-53344500D02*
X88322998Y-53344500D01*
G75*
G02*
X88073000Y-53094502I0J249998D01*
G01*
X88073000Y-52569498D01*
G75*
G02*
X88322998Y-52319500I249998J0D01*
G01*
X89223002Y-52319500D01*
G75*
G02*
X89473000Y-52569498I0J-249998D01*
G01*
X89473000Y-53094502D01*
G75*
G02*
X89223002Y-53344500I-249998J0D01*
G01*
G37*
G36*
G01*
X83369998Y-82939200D02*
X84270002Y-82939200D01*
G75*
G02*
X84520000Y-83189198I0J-249998D01*
G01*
X84520000Y-83714202D01*
G75*
G02*
X84270002Y-83964200I-249998J0D01*
G01*
X83369998Y-83964200D01*
G75*
G02*
X83120000Y-83714202I0J249998D01*
G01*
X83120000Y-83189198D01*
G75*
G02*
X83369998Y-82939200I249998J0D01*
G01*
G37*
G36*
G01*
X83369998Y-81114200D02*
X84270002Y-81114200D01*
G75*
G02*
X84520000Y-81364198I0J-249998D01*
G01*
X84520000Y-81889202D01*
G75*
G02*
X84270002Y-82139200I-249998J0D01*
G01*
X83369998Y-82139200D01*
G75*
G02*
X83120000Y-81889202I0J249998D01*
G01*
X83120000Y-81364198D01*
G75*
G02*
X83369998Y-81114200I249998J0D01*
G01*
G37*
G36*
G01*
X84524002Y-43438500D02*
X83623998Y-43438500D01*
G75*
G02*
X83374000Y-43188502I0J249998D01*
G01*
X83374000Y-42663498D01*
G75*
G02*
X83623998Y-42413500I249998J0D01*
G01*
X84524002Y-42413500D01*
G75*
G02*
X84774000Y-42663498I0J-249998D01*
G01*
X84774000Y-43188502D01*
G75*
G02*
X84524002Y-43438500I-249998J0D01*
G01*
G37*
G36*
G01*
X84524002Y-45263500D02*
X83623998Y-45263500D01*
G75*
G02*
X83374000Y-45013502I0J249998D01*
G01*
X83374000Y-44488498D01*
G75*
G02*
X83623998Y-44238500I249998J0D01*
G01*
X84524002Y-44238500D01*
G75*
G02*
X84774000Y-44488498I0J-249998D01*
G01*
X84774000Y-45013502D01*
G75*
G02*
X84524002Y-45263500I-249998J0D01*
G01*
G37*
G36*
G01*
X97351002Y-43438500D02*
X96450998Y-43438500D01*
G75*
G02*
X96201000Y-43188502I0J249998D01*
G01*
X96201000Y-42663498D01*
G75*
G02*
X96450998Y-42413500I249998J0D01*
G01*
X97351002Y-42413500D01*
G75*
G02*
X97601000Y-42663498I0J-249998D01*
G01*
X97601000Y-43188502D01*
G75*
G02*
X97351002Y-43438500I-249998J0D01*
G01*
G37*
G36*
G01*
X97351002Y-45263500D02*
X96450998Y-45263500D01*
G75*
G02*
X96201000Y-45013502I0J249998D01*
G01*
X96201000Y-44488498D01*
G75*
G02*
X96450998Y-44238500I249998J0D01*
G01*
X97351002Y-44238500D01*
G75*
G02*
X97601000Y-44488498I0J-249998D01*
G01*
X97601000Y-45013502D01*
G75*
G02*
X97351002Y-45263500I-249998J0D01*
G01*
G37*
G36*
G01*
X102230500Y-75634002D02*
X102230500Y-74733998D01*
G75*
G02*
X102480498Y-74484000I249998J0D01*
G01*
X103005502Y-74484000D01*
G75*
G02*
X103255500Y-74733998I0J-249998D01*
G01*
X103255500Y-75634002D01*
G75*
G02*
X103005502Y-75884000I-249998J0D01*
G01*
X102480498Y-75884000D01*
G75*
G02*
X102230500Y-75634002I0J249998D01*
G01*
G37*
G36*
G01*
X100405500Y-75634002D02*
X100405500Y-74733998D01*
G75*
G02*
X100655498Y-74484000I249998J0D01*
G01*
X101180502Y-74484000D01*
G75*
G02*
X101430500Y-74733998I0J-249998D01*
G01*
X101430500Y-75634002D01*
G75*
G02*
X101180502Y-75884000I-249998J0D01*
G01*
X100655498Y-75884000D01*
G75*
G02*
X100405500Y-75634002I0J249998D01*
G01*
G37*
G36*
G01*
X91194000Y-89375000D02*
X91194000Y-88425000D01*
G75*
G02*
X91444000Y-88175000I250000J0D01*
G01*
X91944000Y-88175000D01*
G75*
G02*
X92194000Y-88425000I0J-250000D01*
G01*
X92194000Y-89375000D01*
G75*
G02*
X91944000Y-89625000I-250000J0D01*
G01*
X91444000Y-89625000D01*
G75*
G02*
X91194000Y-89375000I0J250000D01*
G01*
G37*
G36*
G01*
X89294000Y-89375000D02*
X89294000Y-88425000D01*
G75*
G02*
X89544000Y-88175000I250000J0D01*
G01*
X90044000Y-88175000D01*
G75*
G02*
X90294000Y-88425000I0J-250000D01*
G01*
X90294000Y-89375000D01*
G75*
G02*
X90044000Y-89625000I-250000J0D01*
G01*
X89544000Y-89625000D01*
G75*
G02*
X89294000Y-89375000I0J250000D01*
G01*
G37*
G36*
G01*
X77614400Y-79490550D02*
X77614400Y-80440550D01*
G75*
G02*
X77364400Y-80690550I-250000J0D01*
G01*
X76864400Y-80690550D01*
G75*
G02*
X76614400Y-80440550I0J250000D01*
G01*
X76614400Y-79490550D01*
G75*
G02*
X76864400Y-79240550I250000J0D01*
G01*
X77364400Y-79240550D01*
G75*
G02*
X77614400Y-79490550I0J-250000D01*
G01*
G37*
G36*
G01*
X79514400Y-79490550D02*
X79514400Y-80440550D01*
G75*
G02*
X79264400Y-80690550I-250000J0D01*
G01*
X78764400Y-80690550D01*
G75*
G02*
X78514400Y-80440550I0J250000D01*
G01*
X78514400Y-79490550D01*
G75*
G02*
X78764400Y-79240550I250000J0D01*
G01*
X79264400Y-79240550D01*
G75*
G02*
X79514400Y-79490550I0J-250000D01*
G01*
G37*
G36*
G01*
X78514400Y-86765150D02*
X78514400Y-85815150D01*
G75*
G02*
X78764400Y-85565150I250000J0D01*
G01*
X79264400Y-85565150D01*
G75*
G02*
X79514400Y-85815150I0J-250000D01*
G01*
X79514400Y-86765150D01*
G75*
G02*
X79264400Y-87015150I-250000J0D01*
G01*
X78764400Y-87015150D01*
G75*
G02*
X78514400Y-86765150I0J250000D01*
G01*
G37*
G36*
G01*
X76614400Y-86765150D02*
X76614400Y-85815150D01*
G75*
G02*
X76864400Y-85565150I250000J0D01*
G01*
X77364400Y-85565150D01*
G75*
G02*
X77614400Y-85815150I0J-250000D01*
G01*
X77614400Y-86765150D01*
G75*
G02*
X77364400Y-87015150I-250000J0D01*
G01*
X76864400Y-87015150D01*
G75*
G02*
X76614400Y-86765150I0J250000D01*
G01*
G37*
G36*
G01*
X96781600Y-80335500D02*
X97731600Y-80335500D01*
G75*
G02*
X97981600Y-80585500I0J-250000D01*
G01*
X97981600Y-81085500D01*
G75*
G02*
X97731600Y-81335500I-250000J0D01*
G01*
X96781600Y-81335500D01*
G75*
G02*
X96531600Y-81085500I0J250000D01*
G01*
X96531600Y-80585500D01*
G75*
G02*
X96781600Y-80335500I250000J0D01*
G01*
G37*
G36*
G01*
X96781600Y-78435500D02*
X97731600Y-78435500D01*
G75*
G02*
X97981600Y-78685500I0J-250000D01*
G01*
X97981600Y-79185500D01*
G75*
G02*
X97731600Y-79435500I-250000J0D01*
G01*
X96781600Y-79435500D01*
G75*
G02*
X96531600Y-79185500I0J250000D01*
G01*
X96531600Y-78685500D01*
G75*
G02*
X96781600Y-78435500I250000J0D01*
G01*
G37*
M02*
