G04 #@! TF.GenerationSoftware,KiCad,Pcbnew,(5.1.10)-1*
G04 #@! TF.CreationDate,2021-06-04T02:13:06+02:00*
G04 #@! TF.ProjectId,Keyboard,4b657962-6f61-4726-942e-6b696361645f,rev?*
G04 #@! TF.SameCoordinates,Original*
G04 #@! TF.FileFunction,Copper,L1,Top*
G04 #@! TF.FilePolarity,Positive*
%FSLAX46Y46*%
G04 Gerber Fmt 4.6, Leading zero omitted, Abs format (unit mm)*
G04 Created by KiCad (PCBNEW (5.1.10)-1) date 2021-06-04 02:13:06*
%MOMM*%
%LPD*%
G01*
G04 APERTURE LIST*
G04 #@! TA.AperFunction,ComponentPad*
%ADD10C,2.250000*%
G04 #@! TD*
G04 #@! TA.AperFunction,ComponentPad*
%ADD11O,1.000000X2.100000*%
G04 #@! TD*
G04 #@! TA.AperFunction,ComponentPad*
%ADD12O,1.000000X1.600000*%
G04 #@! TD*
G04 #@! TA.AperFunction,SMDPad,CuDef*
%ADD13R,1.800000X1.100000*%
G04 #@! TD*
G04 #@! TA.AperFunction,ViaPad*
%ADD14C,0.800000*%
G04 #@! TD*
G04 #@! TA.AperFunction,Conductor*
%ADD15C,0.381000*%
G04 #@! TD*
G04 #@! TA.AperFunction,Conductor*
%ADD16C,0.254000*%
G04 #@! TD*
G04 #@! TA.AperFunction,Conductor*
%ADD17C,0.200000*%
G04 #@! TD*
G04 APERTURE END LIST*
D10*
X83502500Y-52070000D03*
X77152500Y-54610000D03*
D11*
X86167500Y-43292500D03*
X94807500Y-43292500D03*
D12*
X86167500Y-39112500D03*
X94807500Y-39112500D03*
D10*
X102552500Y-52070000D03*
X96202500Y-54610000D03*
D13*
X110331250Y-70912500D03*
X104131250Y-74612500D03*
X110331250Y-74612500D03*
X104131250Y-70912500D03*
X96043750Y-70912500D03*
X89843750Y-74612500D03*
X96043750Y-74612500D03*
X89843750Y-70912500D03*
D14*
X99218750Y-79375000D03*
X95250000Y-87312500D03*
X99218750Y-86518750D03*
X88106250Y-80168750D03*
X81756250Y-80168750D03*
X101600000Y-81756250D03*
X92710000Y-84416900D03*
X78587600Y-88112600D03*
X89611200Y-83489800D03*
X81229200Y-82651600D03*
X93662500Y-46037500D03*
X87312500Y-46037500D03*
X78581250Y-42862500D03*
X105568750Y-42862500D03*
X88773000Y-69596000D03*
X102997000Y-69596000D03*
X87312500Y-73025000D03*
X103981250Y-72231250D03*
X90910018Y-82127482D03*
X87735018Y-62335018D03*
X91652482Y-81385018D03*
X88477482Y-63077482D03*
D15*
X96043750Y-86518750D02*
X99218750Y-86518750D01*
X95250000Y-87312500D02*
X96043750Y-86518750D01*
X88106250Y-80168750D02*
X81756250Y-80168750D01*
X99218750Y-79375000D02*
X101600000Y-81756250D01*
X86167500Y-43292500D02*
X86167500Y-43305000D01*
D16*
X92710000Y-84416900D02*
X81876900Y-84416900D01*
X81876900Y-84416900D02*
X80772000Y-85521800D01*
X80772000Y-85521800D02*
X80772000Y-87287100D01*
X79946500Y-88112600D02*
X78587600Y-88112600D01*
X80772000Y-87287100D02*
X79946500Y-88112600D01*
X82067400Y-83489800D02*
X81229200Y-82651600D01*
X89611200Y-83489800D02*
X82067400Y-83489800D01*
D15*
X78581250Y-42862500D02*
X78581250Y-45243750D01*
X78581250Y-45243750D02*
X80962500Y-47625000D01*
X80962500Y-47625000D02*
X87312500Y-47625000D01*
X87312500Y-47625000D02*
X87312500Y-46037500D01*
X93662500Y-46037500D02*
X93662500Y-47625000D01*
X93662500Y-47625000D02*
X87312500Y-47625000D01*
X93662500Y-47625000D02*
X103981250Y-47625000D01*
X105568750Y-46037500D02*
X105568750Y-42862500D01*
X103981250Y-47625000D02*
X105568750Y-46037500D01*
D16*
X89843750Y-70912500D02*
X89843750Y-70031750D01*
X89408000Y-69596000D02*
X88773000Y-69596000D01*
X89843750Y-70031750D02*
X89408000Y-69596000D01*
X104131250Y-70912500D02*
X104131250Y-70031750D01*
X103695500Y-69596000D02*
X102997000Y-69596000D01*
X104131250Y-70031750D02*
X103695500Y-69596000D01*
X96043750Y-74612500D02*
X93662500Y-74612500D01*
X93662500Y-74612500D02*
X92868750Y-73818750D01*
X92868750Y-61912500D02*
X92075000Y-61118750D01*
X92075000Y-61118750D02*
X78581250Y-61118750D01*
X77152500Y-54610000D02*
X77152500Y-56515000D01*
X77152500Y-56515000D02*
X77787500Y-57150000D01*
X77787500Y-57150000D02*
X77787500Y-60325000D01*
X77787500Y-60325000D02*
X78581250Y-61118750D01*
X88106250Y-72231250D02*
X92868750Y-72231250D01*
X87312500Y-73025000D02*
X88106250Y-72231250D01*
X92868750Y-72231250D02*
X92868750Y-61912500D01*
X92868750Y-73818750D02*
X92868750Y-72231250D01*
X97631250Y-61118750D02*
X96837500Y-60325000D01*
X106362500Y-61118750D02*
X97631250Y-61118750D01*
X107156250Y-61912500D02*
X106362500Y-61118750D01*
X107950000Y-74612500D02*
X107156250Y-73818750D01*
X110331250Y-74612500D02*
X107950000Y-74612500D01*
X96202500Y-54610000D02*
X96202500Y-56515000D01*
X96837500Y-57150000D02*
X96837500Y-60325000D01*
X96202500Y-56515000D02*
X96837500Y-57150000D01*
X107156250Y-73818750D02*
X107156250Y-73025000D01*
X107156250Y-73025000D02*
X107156250Y-61912500D01*
X103981250Y-72231250D02*
X107156250Y-72231250D01*
D17*
X90910018Y-81703217D02*
X85500000Y-76293199D01*
X90910018Y-82127482D02*
X90910018Y-81703217D01*
X87735018Y-62759283D02*
X87735018Y-62335018D01*
X85500000Y-64994301D02*
X87735018Y-62759283D01*
X85500000Y-76293199D02*
X85500000Y-64994301D01*
X91228217Y-81385018D02*
X85950000Y-76106801D01*
X91652482Y-81385018D02*
X91228217Y-81385018D01*
X88053217Y-63077482D02*
X88477482Y-63077482D01*
X85950000Y-65180699D02*
X88053217Y-63077482D01*
X85950000Y-76106801D02*
X85950000Y-65180699D01*
M02*
