M48
; DRILL file {KiCad (5.1.10)-1} date 06/04/21 02:05:18
; FORMAT={-:-/ absolute / metric / decimal}
; #@! TF.CreationDate,2021-06-04T02:05:18+02:00
; #@! TF.GenerationSoftware,Kicad,Pcbnew,(5.1.10)-1
; #@! TF.FileFunction,Plated,1,2,PTH
FMAT,2
METRIC
T1C0.400
T2C0.600
T3C1.470
%
G90
G05
T1
X78.581Y-42.862
X78.588Y-88.113
X81.229Y-82.652
X81.756Y-80.169
X87.312Y-46.038
X87.312Y-73.025
X87.735Y-62.335
X88.106Y-80.169
X88.477Y-63.077
X88.773Y-69.596
X89.611Y-83.49
X90.91Y-82.127
X91.652Y-81.385
X92.71Y-84.417
X93.662Y-46.038
X95.25Y-87.312
X99.219Y-79.375
X99.219Y-86.519
X101.6Y-81.756
X102.997Y-69.596
X103.981Y-72.231
X105.569Y-42.862
T3
X77.153Y-54.61
X83.502Y-52.07
X96.203Y-54.61
X102.552Y-52.07
T2
X86.167Y-38.812G85X86.167Y-39.413
G05
X86.167Y-42.742G85X86.167Y-43.843
G05
X94.807Y-38.812G85X94.807Y-39.413
G05
X94.807Y-42.742G85X94.807Y-43.843
G05
T0
M30
